<svg width="275" height="405" viewBox="0 0 275 405" fill="none" xmlns="http://www.w3.org/2000/svg">
<path d="M173.62 35.1217L171.511 32.2899L170.702 22.1223L158.722 13.8858L142.357 16.3077L138.581 22.6563C138.36 24.7654 138.301 27.5109 139.083 29.6685C140.275 32.9048 142.103 37.042 141.478 40.6667C141.367 41.3159 141.455 41.9835 141.731 42.5816C142.074 43.3184 142.663 43.912 143.398 44.2591L144.04 44.5611C144.743 44.895 145.345 45.4108 145.782 46.0552C145.919 46.2575 146.04 46.4703 146.144 46.6917L146.974 48.4933C147.437 49.5008 148.099 50.4045 148.919 51.1507C149.739 51.8968 150.702 52.47 151.748 52.836C152.795 53.202 153.905 53.3533 155.011 53.281C156.118 53.2086 157.198 52.914 158.188 52.4147L158.674 52.1612L161.468 57.485C165.68 59.7828 170.578 57.6198 170.583 57.6145C174.019 54.8851 173.949 47.7058 178.858 45.1491C177.849 43.2288 175.546 38.8543 173.62 35.1217Z" fill="#ED8B7B"/>
<path d="M108.871 157.704L87.5383 164.787C86.4545 165.151 85.2936 165.221 84.1737 164.991C83.0538 164.761 82.0149 164.238 81.1626 163.476L50.5521 136.193C50.1336 135.821 49.8189 135.347 49.6386 134.817C49.4583 134.287 49.4187 133.719 49.5236 133.169C49.6285 132.619 49.8744 132.105 50.2371 131.678C50.5998 131.252 51.0671 130.927 51.5931 130.735L68.6595 124.505L72.9747 122.93C73.737 122.652 74.5605 122.586 75.3574 122.739C76.1543 122.892 76.8948 123.258 77.5002 123.798L103.148 146.636L106.212 149.365L109.907 152.656C110.305 152.998 110.604 153.441 110.774 153.939C110.944 154.436 110.977 154.969 110.872 155.484C110.766 155.999 110.525 156.476 110.173 156.866C109.822 157.257 109.372 157.546 108.871 157.704Z" fill="#F8D0B0"/>
<path d="M108.871 157.704L87.5383 164.787C86.4545 165.151 85.2936 165.221 84.1737 164.991C83.0538 164.761 82.0149 164.238 81.1626 163.476L50.5521 136.193C50.1336 135.821 49.8189 135.347 49.6386 134.817C49.4583 134.287 49.4187 133.719 49.5236 133.169C49.6285 132.619 49.8744 132.105 50.2371 131.678C50.5998 131.252 51.0671 130.927 51.5931 130.735L68.6595 124.505C68.6595 124.505 56.987 129.208 61.3507 137.477C65.3368 145.029 90.807 138.286 103.138 146.647C104.281 147.409 105.312 148.328 106.201 149.376L109.896 152.666C110.292 153.009 110.589 153.45 110.758 153.946C110.926 154.441 110.96 154.972 110.856 155.485C110.751 155.998 110.513 156.473 110.164 156.863C109.815 157.253 109.369 157.544 108.871 157.704Z" fill="#F3B386"/>
<path d="M120.452 158.735C122.88 161.69 123.122 163.956 120.452 165.31L116.369 165.261C112.206 165.22 108.227 163.535 105.301 160.574L100.937 156.162C100.719 155.94 100.583 155.651 100.549 155.342C100.515 155.034 100.586 154.722 100.75 154.458C100.914 154.195 101.162 153.994 101.454 153.888C101.747 153.782 102.066 153.777 102.361 153.875L109.373 156.21C109.475 156.245 109.587 156.242 109.687 156.202C109.787 156.161 109.869 156.087 109.92 155.991C109.97 155.896 109.984 155.785 109.96 155.68C109.936 155.575 109.875 155.482 109.788 155.417L108.008 154.096C107.859 153.982 107.752 153.821 107.703 153.639C107.655 153.457 107.669 153.265 107.743 153.091C107.816 152.918 107.946 152.774 108.11 152.683C108.274 152.591 108.464 152.557 108.65 152.585L112.965 153.271C114.448 153.505 115.822 154.192 116.898 155.239L120.452 158.735Z" fill="#ED8B7B"/>
<path d="M137.384 404.45C213.258 404.45 274.767 400.511 274.767 395.652C274.767 390.794 213.258 386.855 137.384 386.855C61.5087 386.855 0 390.794 0 395.652C0 400.511 61.5087 404.45 137.384 404.45Z" fill="url(#paint0_linear)"/>
<path d="M60.0832 313.81L50.4227 371.266C47.2888 375.188 44.2952 375.042 41.4256 371.266L27.1802 270.901C26.0678 263.024 27.221 254.993 30.505 247.747C33.7889 240.501 39.0678 234.339 45.7246 229.983L123.155 179.28L83.8165 249.196C70.2184 264.661 60.0832 313.81 60.0832 313.81Z" fill="#4B6B53"/>
<path d="M54.3443 379.832L53.4057 381.04C53.1738 381.342 52.6128 382 51.9224 382.799L50.9407 383.931C49.5059 385.55 47.9417 387.335 47.5965 387.734L42.6448 393.473C42.0537 394.154 41.3226 394.699 40.5016 395.071C39.6806 395.444 38.7889 395.635 37.8874 395.631H25.3626C24.8315 395.629 24.3176 395.442 23.9092 395.102C23.5008 394.763 23.2233 394.292 23.1245 393.77C23.0256 393.248 23.1114 392.708 23.3673 392.242C23.6231 391.777 24.033 391.415 24.5266 391.219L30.7296 388.781C31.7134 388.396 32.5294 387.676 33.0328 386.747L41.4258 371.245H50.4229L54.026 374.848C54.6768 375.498 55.0683 376.362 55.1268 377.28C55.1854 378.198 54.9072 379.105 54.3443 379.832Z" fill="#354456"/>
<path d="M257.523 386.817V242.319C257.523 236.272 252.621 231.369 246.573 231.369H152.158C146.11 231.369 141.208 236.272 141.208 242.319V386.817C141.208 392.865 146.11 397.767 152.158 397.767H246.573C252.621 397.767 257.523 392.865 257.523 386.817Z" fill="url(#paint1_linear)"/>
<path d="M200.476 219.783C199.117 222.281 197.569 224.672 195.848 226.936C195.428 227.475 194.996 228.014 194.554 228.554C176.263 250.129 145.965 243.959 145.965 243.959L87.7486 285.611L146.343 369.756L145.604 375.835L140.701 376.472L60.083 313.81L57.2458 311.604C53.3963 308.611 50.1999 304.863 47.853 300.588C45.5062 296.314 44.0586 291.605 43.5993 286.751C43.1401 281.896 43.6788 276.999 45.1825 272.361C46.6861 267.723 49.1228 263.441 52.3427 259.779L123.154 179.28C123.651 179.447 157.228 175.742 177.434 184.075C206.102 195.91 199.355 218.909 200.476 219.783Z" fill="#709078"/>
<path d="M154.38 376.763L153.533 379.935L153.145 381.369L150.248 392.109C150.043 393.117 149.495 394.024 148.698 394.674C147.901 395.325 146.903 395.68 145.874 395.679H134.142C133.964 395.683 133.788 395.651 133.623 395.584C133.458 395.518 133.309 395.418 133.184 395.292C133.059 395.166 132.961 395.016 132.895 394.851C132.83 394.685 132.799 394.509 132.804 394.331C132.801 394.048 132.891 393.772 133.059 393.546C133.228 393.319 133.466 393.153 133.737 393.074C134.536 392.823 135.259 392.376 135.84 391.774C136.421 391.172 136.843 390.434 137.065 389.627L137.109 389.476L139.806 379.649L140.679 376.482L146.321 369.767L147.94 370.398L149.304 370.937L152.088 372.016C152.996 372.375 153.736 373.063 154.161 373.942C154.585 374.821 154.664 375.828 154.38 376.763Z" fill="#4C5B6E"/>
<path d="M71.4104 282.844C71.2296 285.868 71.6662 288.898 72.6936 291.749C73.7211 294.599 75.3179 297.211 77.3869 299.425L144.38 372.081L142.61 374.163L75.3966 301.275C73.0914 298.788 71.311 295.862 70.1619 292.671C69.0127 289.481 68.5182 286.091 68.708 282.706C68.8978 279.32 69.768 276.007 71.2666 272.965C72.7651 269.923 74.8614 267.214 77.4301 265.001L154.811 198.418L159.245 194.604C160.108 195.025 160.98 195.46 161.861 195.91L157.158 199.955L79.1885 267.045C76.8901 269.015 75.0155 271.431 73.6785 274.146C72.3415 276.862 71.5699 279.821 71.4104 282.844Z" fill="#4B6B53"/>
<path d="M198.616 218.354C186.965 209.519 173.852 201.956 161.861 195.91L157.158 199.955L157.816 200.387C176.581 212.793 169.181 241.839 146.791 243.867L145.965 243.937C145.965 243.937 176.263 250.124 194.554 228.532C194.996 227.993 195.428 227.486 195.848 226.914C197.569 224.65 199.117 222.259 200.476 219.762C199.862 219.303 199.247 218.823 198.616 218.354Z" fill="#4B6B53"/>
<path d="M87.7488 285.611L85.9094 286.986C85.1791 287.533 84.6047 288.261 84.2434 289.099C83.8821 289.936 83.7466 290.854 83.8502 291.76C83.9539 292.666 84.2932 293.53 84.8343 294.264C85.3754 294.998 86.0994 295.578 86.9343 295.946L98.4989 301.043L87.7488 285.611Z" fill="#4B6B53"/>
<path d="M173.62 35.1217L172.034 33.7355C171.509 33.2847 171.103 32.711 170.853 32.0654C170.602 31.4199 170.515 30.7225 170.6 30.0352C170.891 27.8777 170.691 24.8085 169.472 23.6974C169.258 23.4985 168.993 23.3639 168.706 23.309C166.344 22.8667 165.939 24.7708 166.063 26.6209C166.061 26.664 166.061 26.7072 166.063 26.7503C166.106 27.254 166.178 27.7546 166.279 28.2499C166.311 28.4115 166.327 28.5759 166.328 28.7407C166.329 29.1136 166.243 29.4817 166.076 29.8153C165.91 30.1489 165.667 30.4385 165.367 30.6609C165.11 30.8507 164.815 30.9837 164.503 31.0514C164.19 31.1191 163.867 31.1198 163.554 31.0536C163.241 30.9874 162.946 30.8556 162.688 30.6671C162.429 30.4786 162.214 30.2375 162.056 29.9597C160.859 27.8785 158.989 26.267 156.753 25.3911C156.041 25.0914 155.408 24.6304 154.905 24.0444C154.401 23.4584 154.041 22.7636 153.851 22.0145C153.438 20.3164 152.479 18.8007 151.122 17.6993C150.717 17.3828 150.212 17.2195 149.698 17.2383C149.184 17.257 148.693 17.4566 148.312 17.8018C146.462 19.42 142.594 22.4136 138.57 22.6563C137.847 22.7034 137.121 22.6508 136.413 22.4999C130.102 21.1299 134.293 12.7908 136.952 9.32792C138.681 7.2602 140.703 5.45739 142.956 3.97714H142.988C148.964 -0.0683131 157.347 -2.8354 161.802 4.93726C161.802 4.93726 168.113 2.87678 170.718 8.91799C174.92 18.6271 170.449 28.9511 173.054 34.0268L173.62 35.1217Z" fill="#F8D0B0"/>
<path d="M207.586 64.3245C202.666 56.1797 195.956 50.3003 192.59 47.6626L158.9 67.2912C154.585 74.2655 150.383 84.0124 146.44 94.838C141.844 107.454 137.615 121.57 134.034 134.597C131.822 142.688 129.87 150.396 128.252 157.035L125.975 166.577C124.179 174.426 123.154 179.28 123.154 179.28C123.154 179.28 157.74 191.007 188.022 210.883C192.299 213.688 196.485 216.655 200.476 219.772C211.264 200.241 216.815 168.951 218.945 154.182C221.504 149.635 223.009 144.571 223.347 139.365C226.243 95.1994 218.007 73.3 207.586 64.3245Z" fill="#587850"/>
<path d="M192.59 47.668C192.282 48.4362 191.708 49.0679 190.972 49.448C186.366 51.816 175.562 57.9327 166.122 67.5393C165.583 68.0915 164.893 68.4729 164.138 68.6359C163.383 68.799 162.597 68.7365 161.877 68.4563L158.916 67.2858L157.298 66.6547C156.938 66.5126 156.617 66.2863 156.362 65.9949C156.107 65.7034 155.926 65.3552 155.833 64.9793C155.74 64.6034 155.738 64.2108 155.828 63.8341C155.918 63.4575 156.096 63.1078 156.349 62.8142C157.959 60.9396 159.67 59.1534 161.473 57.4634C162.881 56.1365 164.493 54.7233 166.327 53.2777C170.237 50.1694 174.434 47.442 178.863 45.1329C182.227 43.3855 185.716 41.8891 189.3 40.6559C189.603 40.553 189.924 40.5169 190.243 40.55C190.561 40.583 190.868 40.6845 191.143 40.8475C191.418 41.0104 191.655 41.231 191.837 41.494C192.019 41.757 192.141 42.0562 192.197 42.3712L192.795 45.8071C192.902 46.4344 192.831 47.0791 192.59 47.668Z" fill="#78B0A0"/>
<path d="M223.347 139.365C223.014 144.584 221.51 149.662 218.945 154.22C215.808 159.812 211.204 164.443 205.629 167.612C200.054 170.781 193.72 172.368 187.31 172.203C174.332 171.874 159.148 171.124 145.108 169.533C138.349 168.773 131.855 167.807 126.002 166.604C124.082 166.211 122.227 165.784 120.458 165.337V158.735C120.458 158.735 123.457 158.13 128.279 157.035C140.712 154.22 165.26 148.135 181.565 140.746C181.565 140.746 168.803 120.055 164.548 99.1693C161.624 84.8161 167.719 71.9947 177.579 64.9178C182.054 61.6687 187.329 59.7012 192.839 59.2272C197.645 58.8389 202.839 60.2467 207.58 64.3299C218.007 73.3 226.243 95.1994 223.347 139.365Z" fill="#6A8C61"/>
<path d="M223.347 139.365C223.014 144.584 221.51 149.662 218.946 154.22C215.808 159.812 211.204 164.443 205.629 167.612C200.054 170.781 193.72 172.368 187.31 172.203C174.332 171.874 159.148 171.124 145.108 169.533C199.096 174.388 203.206 157.877 204.91 141.986C206.615 126.096 219.949 98.0042 207.607 77.2861C195.417 56.8647 178.086 64.7183 177.606 64.9394C182.081 61.6903 187.357 59.7228 192.866 59.2488C197.672 58.8604 202.866 60.2682 207.607 64.3515C218.007 73.3 226.244 95.1994 223.347 139.365Z" fill="#587850"/>
<path d="M218.945 154.193C218.007 160.709 216.399 170.445 213.972 180.968C210.903 194.286 206.512 208.871 200.487 219.805C196.496 216.687 192.31 213.72 188.033 210.916C192.029 207.907 194.689 203.454 195.444 198.509C196.992 188.434 186.398 183.525 165.464 179.312C144.865 175.165 126.585 166.863 126.024 166.604C144.034 170.305 168.097 171.712 187.321 172.198C193.731 172.362 200.065 170.775 205.639 167.606C211.214 164.437 215.818 159.807 218.956 154.214L218.945 154.193Z" fill="#35512E"/>
<path d="M181.56 140.746C179.014 141.9 176.268 143.022 173.399 144.101L172.288 144.516L170.783 145.056L170.642 145.104C170.103 145.304 169.564 145.492 169.024 145.687H168.992L167.304 146.269L167.228 146.296L165.61 146.836C164.941 147.062 164.272 147.283 163.598 147.499L162.174 147.957C159.876 148.686 157.562 149.392 155.264 150.067C144.924 153.093 134.945 155.504 128.354 156.992C129.239 156.701 140.463 152.974 150.275 146.658C156.262 142.806 161.726 137.99 163.986 132.407C166.948 125.103 165.443 116.764 164.191 107.832C162.864 98.3495 161.818 88.252 166.764 78.1653C163.838 84.7454 163.07 92.0827 164.569 99.1262C165.317 102.753 166.269 106.335 167.422 109.855C168.102 111.942 168.83 113.997 169.58 115.982C169.769 116.478 169.957 116.975 170.152 117.46C170.535 118.436 170.928 119.402 171.322 120.341C171.419 120.578 171.522 120.81 171.619 121.042C171.716 121.274 171.813 121.506 171.915 121.738C172.11 122.196 172.309 122.649 172.509 123.097C172.606 123.318 172.703 123.545 172.805 123.771C172.908 123.998 173.005 124.213 173.102 124.429C173.793 125.961 174.478 127.417 175.141 128.782L175.427 129.365L175.966 130.492C176.338 131.226 176.694 131.932 177.045 132.601L177.557 133.583L177.606 133.68L178.048 134.51C178.685 135.708 179.262 136.76 179.758 137.639L180.114 138.27C181.015 139.861 181.56 140.746 181.56 140.746Z" fill="#35512E"/>
<path d="M207.586 64.3245C202.845 60.2413 197.65 58.8335 192.844 59.2219C187.333 59.6979 182.056 61.6713 177.585 64.9286C172.358 62.6039 166.414 67.3128 166.117 67.5501C175.557 57.9435 186.361 51.8268 190.967 49.4588C191.702 49.0787 192.277 48.447 192.585 47.6788C195.956 50.3057 202.667 56.1797 207.586 64.3245Z" fill="#35512E"/>
<path d="M192.591 47.668C192.282 48.4362 191.708 49.0679 190.972 49.448C186.366 51.816 175.562 57.9327 166.123 67.5393C167.832 60.3923 180.352 52.5603 182.979 51.1687C185.605 49.7771 192.801 45.7748 186.857 45.1329C181.004 44.4856 166.754 53.0242 166.327 53.2831C170.237 50.1748 174.434 47.4474 178.863 45.1383C182.227 43.3891 185.716 41.8909 189.3 40.6559C189.603 40.553 189.925 40.5169 190.243 40.55C190.561 40.583 190.868 40.6845 191.143 40.8475C191.418 41.0104 191.655 41.231 191.837 41.494C192.019 41.757 192.141 42.0562 192.197 42.3712L192.796 45.8071C192.903 46.4344 192.832 47.0791 192.591 47.668Z" fill="#478672"/>
<path d="M163.96 132.434C161.7 138.016 156.235 142.833 150.248 146.685C144.854 142.945 139.46 138.915 134.066 134.597C137.626 121.57 141.855 107.454 146.472 94.838C152.035 99.6258 157.957 103.979 164.186 107.859C165.416 116.764 166.921 125.13 163.96 132.434Z" fill="#F8D0B0"/>
<path d="M181.56 140.746C179.014 141.9 176.268 143.022 173.399 144.101L172.288 144.516L170.783 145.056L170.642 145.104C170.103 145.304 169.564 145.492 169.024 145.687H168.992L167.304 146.269L167.228 146.296L165.61 146.836C164.941 147.062 164.272 147.283 163.598 147.499L162.174 147.957C159.876 148.686 157.562 149.392 155.264 150.067C153.61 148.955 151.947 147.819 150.275 146.658C156.262 142.806 161.726 137.99 163.986 132.407C166.948 125.103 165.443 116.764 164.191 107.832C165.227 108.49 166.306 109.155 167.428 109.828C168.107 111.915 168.835 113.97 169.585 115.955C169.774 116.452 169.963 116.948 170.157 117.433C170.54 118.41 170.934 119.375 171.327 120.314C171.425 120.551 171.527 120.783 171.624 121.015C171.721 121.247 171.818 121.479 171.921 121.711C172.115 122.169 172.315 122.622 172.514 123.07C172.611 123.291 172.708 123.518 172.811 123.744C172.913 123.971 173.01 124.186 173.107 124.402C173.798 125.934 174.483 127.39 175.146 128.755L175.432 129.338L175.972 130.465C176.344 131.199 176.7 131.905 177.05 132.574L177.563 133.556L177.611 133.653L178.054 134.483C178.69 135.681 179.267 136.733 179.764 137.612L180.12 138.243C181.015 139.861 181.56 140.746 181.56 140.746Z" fill="#F3B386"/>
<path d="M218.945 154.193C218.007 160.709 216.399 170.445 213.972 180.968C207.586 178.417 200.622 175.391 193.254 171.826C198.601 171.05 203.698 169.057 208.152 166C212.606 162.943 216.299 158.903 218.945 154.193Z" fill="#F3B386"/>
<path d="M159.246 194.604L154.812 198.418C137.988 187.484 123.613 179.539 123.166 179.296C135.484 183.681 147.532 188.793 159.246 194.604Z" fill="#4B6B53"/>
<path d="M161.861 195.91L157.158 199.955L154.812 198.418L159.245 194.604C160.108 195.025 160.98 195.46 161.861 195.91Z" fill="#35512E"/>
<path d="M166.344 53.2562C172.18 47.4199 170.734 44.2159 167.034 41.9936C162.972 39.5556 156.198 38.3096 153.366 36.0927C147.972 31.853 154.445 18.0553 147.12 21.2647C141.79 23.5895 138.581 22.6564 138.581 22.6564C142.605 22.4244 146.472 19.4578 148.323 17.8018C148.704 17.4566 149.195 17.257 149.709 17.2383C150.223 17.2195 150.727 17.3828 151.133 17.6993C152.49 18.8007 153.448 20.3164 153.862 22.0145C154.051 22.7636 154.412 23.4585 154.916 24.0444C155.419 24.6304 156.052 25.0914 156.764 25.3911C158.999 26.267 160.869 27.8785 162.066 29.9597C162.225 30.2375 162.44 30.4786 162.698 30.6671C162.957 30.8556 163.252 30.9874 163.565 31.0536C163.878 31.1198 164.201 31.1191 164.514 31.0514C164.826 30.9838 165.121 30.8507 165.378 30.661C165.677 30.4386 165.92 30.1489 166.087 29.8153C166.254 29.4818 166.34 29.1137 166.338 28.7407C166.338 28.5759 166.322 28.4115 166.29 28.2499C165.874 26.184 165.61 22.7265 168.706 23.309C168.993 23.3639 169.258 23.4985 169.472 23.6974C170.691 24.8085 170.891 27.8669 170.599 30.0353C170.515 30.7225 170.602 31.4199 170.852 32.0655C171.103 32.711 171.509 33.2847 172.034 33.7355L173.62 35.1218C175.546 38.8544 177.849 43.2127 178.858 45.1329C174.437 47.4362 170.247 50.1563 166.344 53.2562Z" fill="#E06855"/>
<path d="M158.673 52.145L161.446 50.214C161.688 50.0447 161.979 49.9572 162.274 49.9641C162.57 49.9709 162.856 50.0719 163.091 50.2523C163.325 50.4327 163.496 50.6831 163.578 50.9672C163.661 51.2512 163.651 51.5542 163.549 51.8322L161.489 57.4688L158.673 52.145Z" fill="#E06855"/>
<path d="M145.782 46.0499C145.345 45.4055 144.743 44.8896 144.04 44.5557L143.398 44.2537C142.663 43.9066 142.073 43.3131 141.731 42.5762C141.731 42.5762 142.68 43.8491 145.108 43.8276C147.049 43.7844 146.839 45.6777 145.782 46.0499Z" fill="#E06855"/>
<path d="M173.62 35.1217L172.034 33.7355C171.509 33.2847 171.103 32.711 170.852 32.0654C170.602 31.4199 170.515 30.7225 170.599 30.0352C170.891 27.8777 170.691 24.8085 169.472 23.6974C169.258 23.4985 168.993 23.3639 168.706 23.309C166.344 22.8667 165.939 24.7708 166.063 26.6209C165.524 20.9033 163.312 20.0457 158.673 17.5591C154.035 15.0725 158.463 7.17035 153.938 3.97714C149.622 0.934959 143.479 3.72362 142.972 3.97714C148.948 -0.0683131 157.33 -2.8354 161.786 4.93726C161.786 4.93726 168.097 2.87678 170.702 8.91799C174.904 18.6271 170.432 28.9511 173.037 34.0268L173.62 35.1217Z" fill="#F3B386"/>
<path d="M137.697 389.644C138.777 389.794 139.843 390.032 140.885 390.356C141.148 390.441 141.425 390.473 141.701 390.45C141.976 390.427 142.244 390.348 142.489 390.219C142.734 390.091 142.951 389.914 143.126 389.701C143.302 389.487 143.433 389.24 143.511 388.975L145.173 383.171C145.322 382.659 145.266 382.109 145.016 381.637C144.766 381.166 144.343 380.811 143.835 380.647C142.318 380.136 140.758 379.762 139.175 379.53C138.652 379.474 138.128 379.62 137.71 379.939C137.293 380.259 137.014 380.726 136.931 381.245L135.949 387.26C135.902 387.531 135.911 387.81 135.974 388.078C136.037 388.347 136.154 388.6 136.317 388.822C136.48 389.045 136.686 389.232 136.923 389.373C137.16 389.514 137.423 389.606 137.697 389.644Z" fill="#F8D0B0"/>
<path d="M153.145 381.342C151.185 380.349 149.61 378.732 148.669 376.746C147.728 374.76 147.473 372.518 147.945 370.371L149.31 370.91C148.97 372.668 149.196 374.488 149.955 376.109C150.714 377.73 151.966 379.069 153.533 379.935L153.145 381.342Z" fill="#F8D0B0"/>
<path d="M34.16 385.226C35.1574 385.667 36.1171 386.188 37.0296 386.785C37.2593 386.94 37.5177 387.047 37.7895 387.1C38.0613 387.153 38.341 387.151 38.6121 387.094C38.8831 387.038 39.14 386.927 39.3676 386.769C39.5952 386.611 39.7888 386.409 39.9369 386.175L43.1248 381.067C43.4069 380.615 43.5022 380.071 43.3905 379.549C43.2788 379.028 42.9688 378.57 42.526 378.273C41.2075 377.366 39.8103 376.579 38.3511 375.921C37.864 375.724 37.3198 375.722 36.8309 375.915C36.3421 376.108 35.9459 376.481 35.7243 376.957L33.1136 382.47C32.9972 382.719 32.932 382.989 32.9218 383.263C32.9116 383.538 32.9566 383.812 33.0542 384.069C33.1518 384.326 33.2999 384.561 33.4899 384.76C33.6798 384.958 33.9077 385.117 34.16 385.226Z" fill="#F8D0B0"/>
<path d="M52.2619 373.106L51.2317 372.076C49.906 373.756 49.161 375.821 49.1084 377.96C49.0559 380.1 49.6987 382.199 50.9404 383.942L51.9221 382.81C50.9776 381.352 50.5036 379.64 50.5644 377.904C50.6252 376.169 51.2178 374.494 52.2619 373.106Z" fill="#F8D0B0"/>
<defs>
<linearGradient id="paint0_linear" x1="173.852" y1="395.652" x2="-100.915" y2="395.652" gradientUnits="userSpaceOnUse">
<stop stop-color="white" stop-opacity="0"/>
<stop offset="0.06" stop-color="#FAFBFB" stop-opacity="0.1"/>
<stop offset="0.28" stop-color="#ECEDED" stop-opacity="0.42"/>
<stop offset="0.47" stop-color="#E0E2E2" stop-opacity="0.67"/>
<stop offset="0.64" stop-color="#D8DADA" stop-opacity="0.85"/>
<stop offset="0.77" stop-color="#D3D5D6" stop-opacity="0.96"/>
<stop offset="0.86" stop-color="#D1D3D4"/>
</linearGradient>
<linearGradient id="paint1_linear" x1="-77651.3" y1="146901" x2="-77651.3" y2="81887.6" gradientUnits="userSpaceOnUse">
<stop stop-color="white" stop-opacity="0"/>
<stop offset="0.06" stop-color="#FAFBFB" stop-opacity="0.1"/>
<stop offset="0.28" stop-color="#ECEDED" stop-opacity="0.42"/>
<stop offset="0.47" stop-color="#E0E2E2" stop-opacity="0.67"/>
<stop offset="0.64" stop-color="#D8DADA" stop-opacity="0.85"/>
<stop offset="0.77" stop-color="#D3D5D6" stop-opacity="0.96"/>
<stop offset="0.86" stop-color="#D1D3D4"/>
</linearGradient>
</defs>
</svg>
