<svg width="52" height="52" viewBox="0 0 52 52" fill="none" xmlns="http://www.w3.org/2000/svg">
<path d="M26 13C25.7348 13 25.4804 12.8946 25.2929 12.7071C25.1054 12.5196 25 12.2652 25 12V1C25 0.734784 25.1054 0.48043 25.2929 0.292893C25.4804 0.105357 25.7348 0 26 0C26.2652 0 26.5196 0.105357 26.7071 0.292893C26.8946 0.48043 27 0.734784 27 1V12C27 12.2652 26.8946 12.5196 26.7071 12.7071C26.5196 12.8946 26.2652 13 26 13Z" fill="#0668CB"/>
<path d="M14 32H3V51H14V32Z" fill="#B4CDE1"/>
<path d="M49 31H38V51H49V31Z" fill="#B4CDE1"/>
<path d="M38 23H14V51H38V23Z" fill="url(#paint0_linear)"/>
<path d="M22 41H26V51H20V43C20 42.4696 20.2107 41.9609 20.5858 41.5858C20.9609 41.2107 21.4696 41 22 41Z" fill="#B4CDE1"/>
<path d="M26 41H30C30.5304 41 31.0391 41.2107 31.4142 41.5858C31.7893 41.9609 32 42.4696 32 43V51H26V41Z" fill="#B4CDE1"/>
<path d="M26 36C27.6569 36 29 34.6569 29 33C29 31.3431 27.6569 30 26 30C24.3431 30 23 31.3431 23 33C23 34.6569 24.3431 36 26 36Z" fill="url(#paint1_linear)"/>
<path d="M38 27H50C50.2652 27 50.5196 27.1054 50.7071 27.2929C50.8946 27.4804 51 27.7348 51 28V30C51 30.2652 50.8946 30.5196 50.7071 30.7071C50.5196 30.8946 50.2652 31 50 31H38V27Z" fill="#4795EA"/>
<path d="M2 28H14V32H2C1.73478 32 1.48043 31.8946 1.29289 31.7071C1.10536 31.5196 1 31.2652 1 31V29C1 28.7348 1.10536 28.4804 1.29289 28.2929C1.48043 28.1054 1.73478 28 2 28Z" fill="#4795EA"/>
<path d="M45 37H42C41.7348 37 41.4804 36.8946 41.2929 36.7071C41.1054 36.5196 41 36.2652 41 36C41 35.7348 41.1054 35.4804 41.2929 35.2929C41.4804 35.1054 41.7348 35 42 35H45C45.2652 35 45.5196 35.1054 45.7071 35.2929C45.8946 35.4804 46 35.7348 46 36C46 36.2652 45.8946 36.5196 45.7071 36.7071C45.5196 36.8946 45.2652 37 45 37Z" fill="#F0F7FC"/>
<path d="M45 42H42C41.7348 42 41.4804 41.8946 41.2929 41.7071C41.1054 41.5196 41 41.2652 41 41C41 40.7348 41.1054 40.4804 41.2929 40.2929C41.4804 40.1054 41.7348 40 42 40H45C45.2652 40 45.5196 40.1054 45.7071 40.2929C45.8946 40.4804 46 40.7348 46 41C46 41.2652 45.8946 41.5196 45.7071 41.7071C45.5196 41.8946 45.2652 42 45 42Z" fill="#F0F7FC"/>
<path d="M45 47H42C41.7348 47 41.4804 46.8946 41.2929 46.7071C41.1054 46.5196 41 46.2652 41 46C41 45.7348 41.1054 45.4804 41.2929 45.2929C41.4804 45.1054 41.7348 45 42 45H45C45.2652 45 45.5196 45.1054 45.7071 45.2929C45.8946 45.4804 46 45.7348 46 46C46 46.2652 45.8946 46.5196 45.7071 46.7071C45.5196 46.8946 45.2652 47 45 47Z" fill="#F0F7FC"/>
<path d="M10 37H7C6.73478 37 6.48043 36.8946 6.29289 36.7071C6.10536 36.5196 6 36.2652 6 36C6 35.7348 6.10536 35.4804 6.29289 35.2929C6.48043 35.1054 6.73478 35 7 35H10C10.2652 35 10.5196 35.1054 10.7071 35.2929C10.8946 35.4804 11 35.7348 11 36C11 36.2652 10.8946 36.5196 10.7071 36.7071C10.5196 36.8946 10.2652 37 10 37Z" fill="#F0F7FC"/>
<path d="M10 42H7C6.73478 42 6.48043 41.8946 6.29289 41.7071C6.10536 41.5196 6 41.2652 6 41C6 40.7348 6.10536 40.4804 6.29289 40.2929C6.48043 40.1054 6.73478 40 7 40H10C10.2652 40 10.5196 40.1054 10.7071 40.2929C10.8946 40.4804 11 40.7348 11 41C11 41.2652 10.8946 41.5196 10.7071 41.7071C10.5196 41.8946 10.2652 42 10 42Z" fill="#F0F7FC"/>
<path d="M10 47H7C6.73478 47 6.48043 46.8946 6.29289 46.7071C6.10536 46.5196 6 46.2652 6 46C6 45.7348 6.10536 45.4804 6.29289 45.2929C6.48043 45.1054 6.73478 45 7 45H10C10.2652 45 10.5196 45.1054 10.7071 45.2929C10.8946 45.4804 11 45.7348 11 46C11 46.2652 10.8946 46.5196 10.7071 46.7071C10.5196 46.8946 10.2652 47 10 47Z" fill="#F0F7FC"/>
<path d="M26.54 11.35L39.54 19.7C39.6822 19.7912 39.799 19.9171 39.8795 20.0657C39.9599 20.2144 40.0014 20.381 40 20.55V22C40 22.2652 39.8946 22.5196 39.7071 22.7071C39.5195 22.8946 39.2652 23 39 23H13C12.7348 23 12.4804 22.8946 12.2929 22.7071C12.1053 22.5196 12 22.2652 12 22V20.55C11.9986 20.381 12.04 20.2144 12.1205 20.0657C12.2009 19.9171 12.3177 19.7912 12.46 19.7L25.46 11.35C25.6211 11.2466 25.8085 11.1917 26 11.1917C26.1914 11.1917 26.3788 11.2466 26.54 11.35Z" fill="#4795EA"/>
<path d="M27 1H34C34.2652 1 34.5196 1.10536 34.7071 1.29289C34.8946 1.48043 35 1.73478 35 2V6C35 6.26522 34.8946 6.51957 34.7071 6.70711C34.5196 6.89464 34.2652 7 34 7H27V1Z" fill="url(#paint2_linear)"/>
<path d="M27 41H25V51H27V41Z" fill="#9DB8D3"/>
<path d="M51 52H1C0.734784 52 0.48043 51.8946 0.292893 51.7071C0.105357 51.5196 0 51.2652 0 51C0 50.7348 0.105357 50.4804 0.292893 50.2929C0.48043 50.1054 0.734784 50 1 50H51C51.2652 50 51.5196 50.1054 51.7071 50.2929C51.8946 50.4804 52 50.7348 52 51C52 51.2652 51.8946 51.5196 51.7071 51.7071C51.5196 51.8946 51.2652 52 51 52Z" fill="#4795EA"/>
<defs>
<linearGradient id="paint0_linear" x1="26" y1="51" x2="26" y2="23" gradientUnits="userSpaceOnUse">
<stop stop-color="#D3E6F5"/>
<stop offset="1" stop-color="#F0F7FC"/>
</linearGradient>
<linearGradient id="paint1_linear" x1="26" y1="36" x2="26" y2="30" gradientUnits="userSpaceOnUse">
<stop stop-color="#FE9661"/>
<stop offset="1" stop-color="#FFB369"/>
</linearGradient>
<linearGradient id="paint2_linear" x1="355" y1="61" x2="291" y2="61" gradientUnits="userSpaceOnUse">
<stop stop-color="#FE9661"/>
<stop offset="1" stop-color="#FFB369"/>
</linearGradient>
</defs>
</svg>
