<svg width="50" height="51" viewBox="0 0 50 51" fill="none" xmlns="http://www.w3.org/2000/svg">
<path d="M30 10C29.7348 10 29.4804 9.89464 29.2929 9.70711C29.1054 9.51957 29 9.26522 29 9V6C29 4.93913 28.5786 3.92172 27.8284 3.17157C27.0783 2.42143 26.0609 2 25 2C23.9391 2 22.9217 2.42143 22.1716 3.17157C21.4214 3.92172 21 4.93913 21 6V9C21 9.26522 20.8946 9.51957 20.7071 9.70711C20.5196 9.89464 20.2652 10 20 10C19.7348 10 19.4804 9.89464 19.2929 9.70711C19.1054 9.51957 19 9.26522 19 9V6C19 4.4087 19.6321 2.88258 20.7574 1.75736C21.8826 0.632141 23.4087 0 25 0C26.5913 0 28.1174 0.632141 29.2426 1.75736C30.3679 2.88258 31 4.4087 31 6V9C31 9.26522 30.8946 9.51957 30.7071 9.70711C30.5196 9.89464 30.2652 10 30 10Z" fill="#4795EA"/>
<path d="M25 7C30.0391 7 34.8718 9.00178 38.435 12.565C41.9982 16.1282 44 20.9609 44 26V47C44 48.0609 43.5786 49.0783 42.8284 49.8284C42.0783 50.5786 41.0609 51 40 51H10C8.93913 51 7.92172 50.5786 7.17157 49.8284C6.42143 49.0783 6 48.0609 6 47V26C6 20.9609 8.00178 16.1282 11.565 12.565C15.1282 9.00178 19.9609 7 25 7Z" fill="url(#paint0_linear)"/>
<path d="M6 31V47C4.4087 47 2.88258 46.3679 1.75736 45.2426C0.632141 44.1174 0 42.5913 0 41V34C0 33.2044 0.316071 32.4413 0.87868 31.8787C1.44129 31.3161 2.20435 31 3 31H6Z" fill="#4795EA"/>
<path d="M50 34V41C50 42.5913 49.3679 44.1174 48.2426 45.2426C47.1174 46.3679 45.5913 47 44 47V31H47C47.7956 31 48.5587 31.3161 49.1213 31.8787C49.6839 32.4413 50 33.2044 50 34Z" fill="#4795EA"/>
<path d="M6 35H0V37H6V35Z" fill="#0668CB"/>
<path d="M50 35H44V37H50V35Z" fill="#0668CB"/>
<path d="M35 29H15C13.3431 29 12 30.3431 12 32V44C12 45.6569 13.3431 47 15 47H35C36.6569 47 38 45.6569 38 44V32C38 30.3431 36.6569 29 35 29Z" fill="url(#paint1_linear)"/>
<path d="M29 38C28.7348 38 28.4804 37.8946 28.2929 37.7071C28.1054 37.5196 28 37.2652 28 37V34C28 33.7348 28.1054 33.4804 28.2929 33.2929C28.4804 33.1054 28.7348 33 29 33C29.2652 33 29.5196 33.1054 29.7071 33.2929C29.8946 33.4804 30 33.7348 30 34V37C30 37.2652 29.8946 37.5196 29.7071 37.7071C29.5196 37.8946 29.2652 38 29 38Z" fill="#EB7F58"/>
<path d="M39 27C38.7348 27 38.4804 26.8946 38.2929 26.7071C38.1054 26.5196 38 26.2652 38 26C38 22.5522 36.6304 19.2456 34.1924 16.8076C31.7544 14.3696 28.4478 13 25 13C21.5522 13 18.2456 14.3696 15.8076 16.8076C13.3696 19.2456 12 22.5522 12 26C12 26.2652 11.8946 26.5196 11.7071 26.7071C11.5196 26.8946 11.2652 27 11 27C10.7348 27 10.4804 26.8946 10.2929 26.7071C10.1054 26.5196 10 26.2652 10 26C10 22.0218 11.5804 18.2064 14.3934 15.3934C17.2064 12.5804 21.0218 11 25 11C28.9782 11 32.7936 12.5804 35.6066 15.3934C38.4196 18.2064 40 22.0218 40 26C40 26.2652 39.8946 26.5196 39.7071 26.7071C39.5196 26.8946 39.2652 27 39 27Z" fill="#4795EA"/>
<path d="M38 33H12V35H38V33Z" fill="#E0633D"/>
<defs>
<linearGradient id="paint0_linear" x1="25" y1="51" x2="25" y2="7" gradientUnits="userSpaceOnUse">
<stop stop-color="#54A5FF"/>
<stop offset="1" stop-color="#8AD3FE"/>
</linearGradient>
<linearGradient id="paint1_linear" x1="25" y1="47" x2="25" y2="29" gradientUnits="userSpaceOnUse">
<stop stop-color="#FE9661"/>
<stop offset="1" stop-color="#FFB369"/>
</linearGradient>
</defs>
</svg>
