<svg width="50" height="50" viewBox="0 0 50 50" fill="none" xmlns="http://www.w3.org/2000/svg">
<path d="M11 4H4C2.93913 4 1.92172 4.42143 1.17157 5.17157C0.421427 5.92172 0 6.93913 0 8V46C0 47.0609 0.421427 48.0783 1.17157 48.8284C1.92172 49.5786 2.93913 50 4 50H46C47.0609 50 48.0783 49.5786 48.8284 48.8284C49.5786 48.0783 50 47.0609 50 46V8C50 6.93913 49.5786 5.92172 48.8284 5.17157C48.0783 4.42143 47.0609 4 46 4H39" fill="url(#paint0_linear)"/>
<path d="M7 4H43V22C43 24.3638 42.5344 26.7044 41.6298 28.8883C40.7253 31.0722 39.3994 33.0565 37.7279 34.7279C36.0565 36.3994 34.0722 37.7253 31.8883 38.6298C29.7044 39.5344 27.3638 40 25 40C20.2261 40 15.6477 38.1036 12.2721 34.7279C8.89642 31.3523 7 26.7739 7 22V4Z" fill="#4795EA"/>
<path d="M40 4V22C40 22.34 40 22.67 40 23C39.9204 24.2977 39.6682 25.579 39.25 26.81C39.0425 27.438 38.7885 28.0497 38.49 28.64C37.9151 29.8124 37.1852 30.9021 36.32 31.88C35.8839 32.3794 35.4163 32.8504 34.92 33.29C33.9398 34.1468 32.8503 34.8698 31.68 35.44C31.1488 35.7081 30.6011 35.9419 30.04 36.14L29.85 36.2C28.6098 36.6434 27.3142 36.9127 26 37C25.67 37 25.34 37 25 37C24.66 37 24.33 37 24 37C22.7012 36.9219 21.4193 36.6662 20.19 36.24L20 36.14C19.4389 35.9419 18.8912 35.7081 18.36 35.44C17.1897 34.8698 16.1002 34.1468 15.12 33.29C14.6237 32.8504 14.1561 32.3794 13.72 31.88C12.8548 30.9021 12.1249 29.8124 11.55 28.64C11.2515 28.0497 10.9975 27.438 10.79 26.81C10.3582 25.5808 10.0925 24.2995 10 23C10 22.67 10 22.34 10 22V4H40Z" fill="url(#paint1_linear)"/>
<path d="M28.15 16.68L27 14V13H23V14L21.85 16.68C20.6324 19.5245 20.0031 22.5859 20 25.68V36.14C23.2352 37.2838 26.7648 37.2838 30 36.14V25.7C29.9996 22.5992 29.3702 19.5307 28.15 16.68Z" fill="url(#paint2_linear)"/>
<path d="M29.59 9.71L27.66 12.91C27.4589 13.2443 27.1743 13.5205 26.8342 13.7116C26.4941 13.9027 26.1101 14.0021 25.72 14H24.3C23.8975 14.0065 23.5003 13.9063 23.149 13.7096C22.7978 13.5129 22.5048 13.2266 22.3 12.88L20.4 9.63L22 6H22.27H27.75H28L29.59 9.71Z" fill="#EB7F58"/>
<path d="M22 6L20.45 9.61L19.45 11.93C19.321 12.246 19.101 12.5164 18.8178 12.707C18.5347 12.8975 18.2013 12.9995 17.86 13C17.5925 12.9981 17.3291 12.9349 17.0898 12.8153C16.8506 12.6957 16.642 12.5228 16.48 12.31L11.63 5.84C11.2318 5.30815 11.0113 4.66431 11 4C10.9968 3.37978 11.1816 2.77315 11.53 2.26L13 0L22 6Z" fill="url(#paint3_linear)"/>
<path d="M39 4C38.9993 4.68145 38.7783 5.34441 38.37 5.89L33.52 12.36C33.358 12.5728 33.1494 12.7457 32.9101 12.8653C32.6709 12.9849 32.4075 13.0481 32.14 13.05C31.801 13.0512 31.4692 12.9521 31.1863 12.7653C30.9034 12.5785 30.6821 12.3122 30.55 12L29.55 9.76L28 6L37 0L38.47 2.21C38.8282 2.73718 39.0134 3.36278 39 4Z" fill="url(#paint4_linear)"/>
<path d="M28 6H27.73H22.26H22L13 0H37L28 6Z" fill="#B4CDE1"/>
<path d="M44 22C44 22.2652 43.8946 22.5196 43.7071 22.7071C43.5196 22.8946 43.2652 23 43 23H40C40 22.67 40 22.34 40 22V21H43C43.2652 21 43.5196 21.1054 43.7071 21.2929C43.8946 21.4804 44 21.7348 44 22Z" fill="#0668CB"/>
<path d="M10 23H7C6.73478 23 6.48043 22.8946 6.29289 22.7071C6.10536 22.5196 6 22.2652 6 22C6 21.7348 6.10536 21.4804 6.29289 21.2929C6.48043 21.1054 6.73478 21 7 21H10V22C10 22.34 10 22.67 10 23Z" fill="#0668CB"/>
<path d="M44 15C44 15.2652 43.8946 15.5196 43.7071 15.7071C43.5196 15.8946 43.2652 16 43 16H40V14H43C43.2652 14 43.5196 14.1054 43.7071 14.2929C43.8946 14.4804 44 14.7348 44 15Z" fill="#0668CB"/>
<path d="M10 14V16H7C6.73478 16 6.48043 15.8946 6.29289 15.7071C6.10536 15.5196 6 15.2652 6 15C6 14.7348 6.10536 14.4804 6.29289 14.2929C6.48043 14.1054 6.73478 14 7 14H10Z" fill="#0668CB"/>
<path d="M44 9C44 9.26522 43.8946 9.51957 43.7071 9.70711C43.5196 9.89464 43.2652 10 43 10H40V8H43C43.2652 8 43.5196 8.10536 43.7071 8.29289C43.8946 8.48043 44 8.73478 44 9Z" fill="#0668CB"/>
<path d="M10 8V10H7C6.73478 10 6.48043 9.89464 6.29289 9.70711C6.10536 9.51957 6 9.26522 6 9C6 8.73478 6.10536 8.48043 6.29289 8.29289C6.48043 8.10536 6.73478 8 7 8H10Z" fill="#0668CB"/>
<path d="M26 37V40C26 40.2652 25.8946 40.5196 25.7071 40.7071C25.5196 40.8946 25.2652 41 25 41C24.7348 41 24.4804 40.8946 24.2929 40.7071C24.1054 40.5196 24 40.2652 24 40V37C24.33 37 24.66 37 25 37C25.34 37 25.67 37 26 37Z" fill="#0668CB"/>
<path d="M38.43 35.44C38.2438 35.6248 37.9924 35.7289 37.73 35.73C37.5984 35.7308 37.468 35.7056 37.3461 35.6558C37.2243 35.606 37.1135 35.5327 37.02 35.44L34.9 33.31C35.3963 32.8704 35.8639 32.3994 36.3 31.9L38.43 34C38.5268 34.0933 38.6038 34.2051 38.6564 34.3289C38.7089 34.4526 38.736 34.5856 38.736 34.72C38.736 34.8544 38.7089 34.9875 38.6564 35.1112C38.6038 35.2349 38.5268 35.3467 38.43 35.44Z" fill="#0668CB"/>
<path d="M15.12 33.29L13 35.44C12.9065 35.5327 12.7957 35.606 12.6739 35.6558C12.5521 35.7056 12.4216 35.7308 12.29 35.73C12.0276 35.7289 11.7762 35.6248 11.59 35.44C11.4963 35.3471 11.4219 35.2365 11.3711 35.1146C11.3203 34.9927 11.2942 34.862 11.2942 34.73C11.2942 34.598 11.3203 34.4673 11.3711 34.3454C11.4219 34.2236 11.4963 34.113 11.59 34.02L13.71 31.9C14.1499 32.3929 14.6209 32.8572 15.12 33.29Z" fill="#0668CB"/>
<path d="M32.27 39.55C32.1513 39.6059 32.0212 39.6334 31.89 39.63C31.6966 39.6224 31.5095 39.5588 31.3516 39.4469C31.1936 39.3351 31.0714 39.1798 31 39L29.86 36.23L30.05 36.17C30.611 35.9719 31.1588 35.7381 31.69 35.47L32.84 38.24C32.89 38.3633 32.9149 38.4953 32.9132 38.6283C32.9115 38.7614 32.8833 38.8927 32.8302 39.0147C32.7772 39.1367 32.7003 39.2469 32.6041 39.3388C32.5079 39.4307 32.3943 39.5025 32.27 39.55Z" fill="#0668CB"/>
<path d="M11.55 28.64L8.78002 29.79C8.53591 29.8895 8.26237 29.8886 8.01891 29.7875C7.77546 29.6863 7.58178 29.4932 7.48002 29.25C7.39419 29.0144 7.40001 28.7551 7.49632 28.5236C7.59263 28.2921 7.77241 28.1052 8.00002 28L10.77 26.86C10.9863 27.4715 11.247 28.0665 11.55 28.64Z" fill="#0668CB"/>
<path d="M20.19 36.2L19 39C18.9243 39.1842 18.7954 39.3416 18.6297 39.452C18.464 39.5625 18.2691 39.621 18.07 39.62C17.9388 39.6233 17.8087 39.596 17.69 39.54C17.4468 39.4382 17.2536 39.2445 17.1525 39.0011C17.0514 38.7576 17.0505 38.4841 17.15 38.24L18.3 35.47C18.8311 35.7381 19.3789 35.9719 19.94 36.17L20.19 36.2Z" fill="#0668CB"/>
<path d="M42.55 29.27C42.4482 29.5131 42.2545 29.7063 42.0111 29.8074C41.7676 29.9086 41.4941 29.9095 41.25 29.81L38.48 28.66C38.7784 28.0697 39.0325 27.458 39.24 26.83L42 28C42.2377 28.0999 42.4277 28.2878 42.5302 28.5244C42.6327 28.7611 42.6398 29.0282 42.55 29.27Z" fill="#0668CB"/>
<defs>
<linearGradient id="paint0_linear" x1="25" y1="50" x2="25" y2="4" gradientUnits="userSpaceOnUse">
<stop stop-color="#54A5FF"/>
<stop offset="1" stop-color="#8AD3FE"/>
</linearGradient>
<linearGradient id="paint1_linear" x1="25" y1="37" x2="25" y2="4" gradientUnits="userSpaceOnUse">
<stop stop-color="#D3E6F5"/>
<stop offset="1" stop-color="#F0F7FC"/>
</linearGradient>
<linearGradient id="paint2_linear" x1="25" y1="37" x2="25" y2="13" gradientUnits="userSpaceOnUse">
<stop stop-color="#FE9661"/>
<stop offset="1" stop-color="#FFB369"/>
</linearGradient>
<linearGradient id="paint3_linear" x1="269.501" y1="260" x2="269.501" y2="91" gradientUnits="userSpaceOnUse">
<stop stop-color="#D3E6F5"/>
<stop offset="1" stop-color="#F0F7FC"/>
</linearGradient>
<linearGradient id="paint4_linear" x1="473.528" y1="261" x2="473.528" y2="91.3501" gradientUnits="userSpaceOnUse">
<stop stop-color="#D3E6F5"/>
<stop offset="1" stop-color="#F0F7FC"/>
</linearGradient>
</defs>
</svg>
