<svg width="19" height="10" viewBox="0 0 19 10" fill="none" xmlns="http://www.w3.org/2000/svg">
<path d="M1 0.5C0.723858 0.5 0.5 0.723858 0.5 1C0.5 1.27614 0.723858 1.5 1 1.5V0.5ZM15 1H15.5C15.5 0.723858 15.2761 0.5 15 0.5V1ZM14.6464 9.35355C14.8417 9.54882 15.1583 9.54882 15.3536 9.35355L18.5355 6.17157C18.7308 5.97631 18.7308 5.65973 18.5355 5.46447C18.3403 5.2692 18.0237 5.2692 17.8284 5.46447L15 8.29289L12.1716 5.46447C11.9763 5.2692 11.6597 5.2692 11.4645 5.46447C11.2692 5.65973 11.2692 5.97631 11.4645 6.17157L14.6464 9.35355ZM1 1.5H15V0.5H1V1.5ZM14.5 1V9H15.5V1H14.5Z" fill="#848E9F"/>
</svg>
