<svg width="16" height="14" viewBox="0 0 16 14" fill="none" xmlns="http://www.w3.org/2000/svg">
<path d="M12 1H12.5V0.5H12V1ZM11.6464 13.3536C11.8417 13.5488 12.1583 13.5488 12.3536 13.3536L15.5355 10.1716C15.7308 9.97631 15.7308 9.65973 15.5355 9.46447C15.3403 9.2692 15.0237 9.2692 14.8284 9.46447L12 12.2929L9.17157 9.46447C8.97631 9.2692 8.65973 9.2692 8.46447 9.46447C8.2692 9.65973 8.2692 9.97631 8.46447 10.1716L11.6464 13.3536ZM0 1.5H12V0.5H0V1.5ZM11.5 1V13H12.5V1H11.5Z" fill="#C4C4C4"/>
</svg>
