<svg width="22" height="22" viewBox="0 0 22 22" fill="none" xmlns="http://www.w3.org/2000/svg">
<path d="M9.99973 12.0003V13.9846C9.99973 14.5366 10.447 14.9849 11.0001 14.9849H15.6101C16.293 14.9849 16.7751 14.3151 16.558 13.6672L15.9995 12.0003L16.5602 10.3171C16.7762 9.66914 16.294 9.00044 15.6112 9.00044H11.9982M6.00388 19.6615V12.0036M18.0711 3.92893C21.9763 7.83418 21.9763 14.1658 18.0711 18.0711C14.1658 21.9763 7.83418 21.9763 3.92893 18.0711C0.0236888 14.1658 0.0236888 7.83418 3.92893 3.92893C7.83418 0.0236888 14.1658 0.0236888 18.0711 3.92893ZM11.0001 12.0003H6.0006V8.00011C6.0006 7.44813 6.44786 6.99978 7.00093 6.99978H11.0001C11.552 6.99978 12.0004 7.44704 12.0004 8.00011V11C12.0004 11.552 11.552 12.0003 11.0001 12.0003Z" stroke="#C4C4C4" stroke-width="1.5" stroke-linecap="round" stroke-linejoin="round"/>
</svg>
