<svg width="20" height="20" viewBox="0 0 20 20" fill="none" xmlns="http://www.w3.org/2000/svg">
<path d="M19 8.109C18.55 8.045 18.093 8 17.625 8C12.309 8 8 12.309 8 17.625C8 18.093 8.045 18.55 8.109 19M16 19H4C2.343 19 1 17.657 1 16V4C1 2.343 2.343 1 4 1H16C17.657 1 19 2.343 19 4V16C19 17.657 17.657 19 16 19ZM7.98744 5.51256C8.67086 6.19598 8.67086 7.30402 7.98744 7.98743C7.30402 8.67085 6.19598 8.67085 5.51257 7.98743C4.82915 7.30401 4.82915 6.19597 5.51257 5.51256C6.19599 4.82914 7.30403 4.82914 7.98744 5.51256Z" stroke="white" stroke-width="1.5" stroke-linecap="round" stroke-linejoin="round"/>
</svg>
