<svg width="22" height="22" viewBox="0 0 22 22" fill="none" xmlns="http://www.w3.org/2000/svg">
<path d="M10.699 15.6658C10.5138 16.0363 10.664 16.4868 11.0344 16.672C11.4049 16.8572 11.8554 16.7071 12.0407 16.3366L10.699 15.6658ZM13.2221 12.2968L13.8929 12.6322C14.0091 12.3997 13.9967 12.1236 13.86 11.9025C13.7234 11.6814 13.482 11.5468 13.2221 11.5468V12.2968ZM8.77767 12.2968L8.10689 11.9613C7.99061 12.1938 8.00301 12.4699 8.13966 12.691C8.27631 12.9122 8.51772 13.0468 8.77767 13.0468V12.2968ZM11.3006 8.929C11.4859 8.55853 11.3358 8.10801 10.9654 7.92273C10.5949 7.73744 10.1444 7.88755 9.95909 8.25801L11.3006 8.929ZM19.7131 6.88797L20.1738 6.29613L20.1735 6.29598L19.7131 6.88797ZM13.0465 1.70249L12.5858 2.29433L12.586 2.29449L13.0465 1.70249ZM8.95322 1.70249L8.49281 1.11045L8.49275 1.11049L8.95322 1.70249ZM2.28665 6.88797L1.82617 6.29598L1.82597 6.29613L2.28665 6.88797ZM12.0407 16.3366L13.8929 12.6322L12.5512 11.9614L10.699 15.6658L12.0407 16.3366ZM13.2221 11.5468H8.77767V13.0468H13.2221V11.5468ZM9.44845 12.6323L11.3006 8.929L9.95909 8.25801L8.10689 11.9613L9.44845 12.6323ZM20.1735 6.29598L13.507 1.11049L12.586 2.29449L19.2526 7.47997L20.1735 6.29598ZM13.5072 1.11065C12.0328 -0.0369815 9.96793 -0.0367182 8.49281 1.11045L9.41364 2.29453C10.3474 1.56839 11.6535 1.56865 12.5858 2.29433L13.5072 1.11065ZM8.49275 1.11049L1.82617 6.29598L2.74712 7.47997L9.4137 2.29449L8.49275 1.11049ZM1.82597 6.29613C0.831234 7.07042 0.25 8.2599 0.25 9.51905H1.75C1.75 8.72267 2.11764 7.96995 2.74733 7.47981L1.82597 6.29613ZM0.25 9.51905V17.6667H1.75V9.51905H0.25ZM0.25 17.6667C0.25 19.922 2.07799 21.75 4.33329 21.75V20.25C2.90641 20.25 1.75 19.0936 1.75 17.6667H0.25ZM4.33329 21.75H17.6664V20.25H4.33329V21.75ZM17.6664 21.75C19.9217 21.75 21.7497 19.922 21.7497 17.6667H20.2497C20.2497 19.0936 19.0933 20.25 17.6664 20.25V21.75ZM21.7497 17.6667V9.51905H20.2497V17.6667H21.7497ZM21.7497 9.51905C21.7497 8.2599 21.1685 7.07042 20.1738 6.29613L19.2524 7.47981C19.8821 7.96995 20.2497 8.72267 20.2497 9.51905H21.7497Z" fill="url(#paint0_linear)"/>
<defs>
<linearGradient id="paint0_linear" x1="1" y1="1" x2="1" y2="21" gradientUnits="userSpaceOnUse">
<stop stop-color="#5986FB"/>
<stop offset="1" stop-color="#2D4EF5"/>
</linearGradient>
</defs>
</svg>
