<svg width="24" height="24" viewBox="0 0 24 24" fill="none" xmlns="http://www.w3.org/2000/svg">
<path d="M7.5 3H5.25C4.007 3 3 4.007 3 5.25V7.5" stroke="#848E9F" stroke-width="1.5" stroke-linecap="round" stroke-linejoin="round"/>
<path d="M3 16.5V18.75C3 19.993 4.007 21 5.25 21H7.5" stroke="#848E9F" stroke-width="1.5" stroke-linecap="round" stroke-linejoin="round"/>
<path d="M16.5 21H18.75C19.993 21 21 19.993 21 18.75V16.5" stroke="#848E9F" stroke-width="1.5" stroke-linecap="round" stroke-linejoin="round"/>
<path d="M21 7.5V5.25C21 4.007 19.993 3 18.75 3H16.5" stroke="#848E9F" stroke-width="1.5" stroke-linecap="round" stroke-linejoin="round"/>
<path d="M12.625 15.125H8.25C7.56 15.125 7 14.565 7 13.875V10.125C7 9.435 7.56 8.875 8.25 8.875H12.625C13.315 8.875 13.875 9.435 13.875 10.125V13.875C13.875 14.565 13.315 15.125 12.625 15.125Z" stroke="#848E9F" stroke-width="1.5" stroke-linecap="round" stroke-linejoin="round"/>
<path d="M13.875 12.6099L15.983 14.3069C16.392 14.6359 17 14.3449 17 13.8199V10.1799C17 9.65493 16.392 9.36393 15.983 9.69293L13.875 11.3899" stroke="#848E9F" stroke-width="1.5" stroke-linecap="round" stroke-linejoin="round"/>
</svg>
