<svg width="17" height="17" viewBox="0 0 17 17" fill="none" xmlns="http://www.w3.org/2000/svg">
<path d="M16 2.66667V1.83333C16 1.37333 15.6267 1 15.1667 1H14.3333M16 11V11.8333C16 12.2933 15.6267 12.6667 15.1667 12.6667H14.3333M4.33333 2.66667V1.83333C4.33333 1.37333 4.70667 1 5.16667 1H6M9.33333 1H11M16 7.66667V6M11 16H1.83333C1.37333 16 1 15.6267 1 15.1667V6C1 5.54 1.37333 5.16667 1.83333 5.16667H11C11.46 5.16667 11.8333 5.54 11.8333 6V15.1667C11.8333 15.6267 11.46 16 11 16Z" stroke="#848E9F" stroke-width="1.5" stroke-linecap="round" stroke-linejoin="round"/>
</svg>
