<svg width="24" height="24" viewBox="0 0 24 24" fill="none" xmlns="http://www.w3.org/2000/svg">
<path d="M12.442 21C13.433 21 14.237 20.196 14.237 19.205V18.502" stroke="#848E9F" stroke-width="1.5" stroke-linecap="round" stroke-linejoin="round"/>
<path d="M9.464 6.59961H5.295C4.304 6.59961 3.5 7.40361 3.5 8.39461V19.2056C3.5 20.1956 4.304 20.9996 5.295 20.9996H12.442" stroke="#848E9F" stroke-width="1.5" stroke-linecap="round" stroke-linejoin="round"/>
<path d="M8.55396 16.9706L15.468 18.8336C16.423 19.0906 17.404 18.5206 17.66 17.5606L20.439 7.12965C20.695 6.16965 20.128 5.18265 19.174 4.92465L12.26 3.06165C11.305 2.80465 10.324 3.37465 10.068 4.33465L7.28896 14.7666C7.03296 15.7266 7.59896 16.7136 8.55396 16.9706Z" stroke="#848E9F" stroke-width="1.5" stroke-linecap="round" stroke-linejoin="round"/>
</svg>
