<svg width="20" height="20" viewBox="0 0 20 20" fill="none" xmlns="http://www.w3.org/2000/svg">
<path d="M19.2308 0H0.769231C0.344231 0 0 0.344615 0 0.769231V4.61538C0 7.16 1.72538 9.23077 3.84615 9.23077C3.84615 12.3631 6.2 14.9508 9.23077 15.3312V16.1838C7.25885 16.3327 5.38462 17.0585 5.38462 18.4615V19.2308C5.38462 19.6554 5.72923 20 6.15385 20H13.8462C14.2708 20 14.6154 19.6554 14.6154 19.2308V18.4615C14.6154 17.0585 12.7412 16.3327 10.7692 16.1838V15.3312C13.8 14.9508 16.1538 12.3631 16.1538 9.23077C18.2746 9.23077 20 7.16038 20 4.61538V0.769231C20 0.344615 19.6554 0 19.2308 0ZM1.53846 4.61538V1.53846H3.84615V7.69231C2.57346 7.69231 1.53846 6.31192 1.53846 4.61538ZM6.94192 18.4615C7.14038 18.21 8.19423 17.6923 10 17.6923C11.8058 17.6923 12.8596 18.21 13.0577 18.4615H6.94192ZM14.6154 9.23077C14.6154 11.7758 12.5446 13.8462 10 13.8462C8.76692 13.8462 7.60808 13.3662 6.73615 12.4942C5.86462 11.6227 5.38462 10.4635 5.38462 9.23077V1.53846H14.6154V9.23077ZM18.4615 4.61538C18.4615 6.31192 17.4265 7.69231 16.1538 7.69231V1.53846H18.4615V4.61538Z" fill="url(#paint0_linear)"/>
<path d="M9.55566 10.3846H11.0637V4.4227H9.55153L8.03523 5.4556V6.75293L9.52674 5.75308H9.55566V10.3846Z" fill="url(#paint1_linear)"/>
<defs>
<linearGradient id="paint0_linear" x1="0" y1="0" x2="0" y2="20" gradientUnits="userSpaceOnUse">
<stop stop-color="#5986FB"/>
<stop offset="1" stop-color="#2D4EF5"/>
</linearGradient>
<linearGradient id="paint1_linear" x1="0" y1="0" x2="0" y2="20" gradientUnits="userSpaceOnUse">
<stop stop-color="#5986FB"/>
<stop offset="1" stop-color="#2D4EF5"/>
</linearGradient>
</defs>
</svg>
