<svg width="44" height="44" viewBox="0 0 44 44" fill="none" xmlns="http://www.w3.org/2000/svg">
<path d="M2 22C2 10.9543 10.9543 2 22 2C33.0457 2 42 10.9543 42 22C42 33.0457 33.0457 42 22 42C10.9543 42 2 33.0457 2 22Z" fill="#E5E5E5"/>
<path fill-rule="evenodd" clip-rule="evenodd" d="M23 28.8501V31H20.5V29H16V15H20.5V13H23V15.1498C26.1858 15.754 28 18.1619 28 21.9369C28 25.799 26.2041 28.2411 23 28.8501ZM23 26.4632C24.559 25.797 25.4131 24.2559 25.4131 21.9757C25.4131 19.7533 24.5444 18.2184 23 17.5463V26.4632ZM20.5 17.1635H18.5377V26.8365H20.5V17.1635Z" fill="white"/>
<path d="M22 40C12.0589 40 4 31.9411 4 22H0C0 34.1503 9.84974 44 22 44V40ZM40 22C40 31.9411 31.9411 40 22 40V44C34.1503 44 44 34.1503 44 22H40ZM22 4C31.9411 4 40 12.0589 40 22H44C44 9.84974 34.1503 0 22 0V4ZM22 0C9.84974 0 0 9.84974 0 22H4C4 12.0589 12.0589 4 22 4V0Z" fill="white"/>
</svg>
