<svg width="30" height="38" viewBox="0 0 30 38" fill="none" xmlns="http://www.w3.org/2000/svg">
<path d="M29 11H21C19.896 11 19 10.104 19 9V1M19 31H23M27.828 7.828L22.172 2.172C21.422 1.422 20.404 1 19.344 1H5C2.79 1 1 2.79 1 5V33C1 35.21 2.79 37 5 37H25C27.21 37 29 35.21 29 33V10.656C29 9.596 28.578 8.578 27.828 7.828ZM7 31V27L15.586 18.414C16.368 17.632 17.634 17.632 18.414 18.414L19.586 19.586C20.368 20.368 20.368 21.634 19.586 22.414L11 31H7Z" stroke="#E5E5E5" stroke-width="2" stroke-linecap="round" stroke-linejoin="round"/>
</svg>
