<svg width="22" height="22" viewBox="0 0 22 22" fill="none" xmlns="http://www.w3.org/2000/svg">
<path d="M13.0033 14.0511L10.4989 16.5556L8.99556 15.0522M7.66667 8.07112H6.55556C5.63556 8.07112 4.88889 8.81779 4.88889 9.73779V18.7778M14.3333 8.07112H15.4445C16.3645 8.07112 17.1111 8.81779 17.1111 9.73779V18.7778M18.0711 3.92894C21.9764 7.83419 21.9764 14.1658 18.0711 18.0711C14.1659 21.9763 7.83422 21.9763 3.929 18.0711C0.0237488 14.1658 0.0237488 7.83416 3.929 3.92894C7.83425 0.0236878 14.1659 0.0236878 18.0711 3.92894ZM13.1167 9.58557H8.88445C8.21111 9.58557 7.66667 9.04112 7.66667 8.3689V7.77223C7.66667 7.10001 8.21111 6.55556 8.88334 6.55556H13.1156C13.7889 6.55556 14.3333 7.10001 14.3333 7.77223V8.36779C14.3333 9.04112 13.7889 9.58557 13.1167 9.58557Z" stroke="url(#paint0_linear)" stroke-width="1.5" stroke-linecap="round" stroke-linejoin="round"/>
<defs>
<linearGradient id="paint0_linear" x1="1.00006" y1="1" x2="1.00006" y2="21" gradientUnits="userSpaceOnUse">
<stop stop-color="#5986FB"/>
<stop offset="1" stop-color="#2D4EF5"/>
</linearGradient>
</defs>
</svg>
