<svg width="20" height="20" viewBox="0 0 20 20" fill="none" xmlns="http://www.w3.org/2000/svg">
<path d="M1 2H19C19.552 2 20 1.552 20 1C20 0.448 19.552 0 19 0H1C0.448 0 0 0.448 0 1C0 1.552 0.448 2 1 2Z" fill="#C4C4C4"/>
<path d="M19 6H7C6.448 6 6 6.448 6 7C6 7.552 6.448 8 7 8H19C19.552 8 20 7.552 20 7C20 6.448 19.552 6 19 6Z" fill="#C4C4C4"/>
<path d="M19 12H1C0.448 12 0 12.448 0 13C0 13.552 0.448 14 1 14H19C19.552 14 20 13.552 20 13C20 12.448 19.552 12 19 12Z" fill="#C4C4C4"/>
<path d="M19 18H7C6.448 18 6 18.448 6 19C6 19.552 6.448 20 7 20H19C19.552 20 20 19.552 20 19C20 18.448 19.552 18 19 18Z" fill="#C4C4C4"/>
</svg>
