<svg width="20" height="22" viewBox="0 0 20 22" fill="none" xmlns="http://www.w3.org/2000/svg">
<path d="M19 17.6667H4.375M19 14.3333V19.8889C19 20.5022 18.496 21 17.875 21H4.375C2.51088 21 1 19.5078 1 17.6667M19 14.3333H4.375M19 14.3333V2.11111C19 1.49778 18.496 1 17.875 1H4.375M4.375 14.3333C2.51088 14.3333 1 15.8256 1 17.6667M4.375 14.3333V1M1 17.6667V4.33333C1 2.49222 2.51088 1 4.375 1M8.875 5.44444H13.375M8.875 9.88889H13.375" stroke="url(#paint0_linear)" stroke-width="1.5" stroke-linecap="round" stroke-linejoin="round"/>
<defs>
<linearGradient id="paint0_linear" x1="1" y1="1" x2="1" y2="21" gradientUnits="userSpaceOnUse">
<stop stop-color="#5986FB"/>
<stop offset="1" stop-color="#2D4EF5"/>
</linearGradient>
</defs>
</svg>
