<svg width="18" height="18" viewBox="0 0 18 18" fill="none" xmlns="http://www.w3.org/2000/svg">
<path fill-rule="evenodd" clip-rule="evenodd" d="M4.5 0H13.5C14.6935 0 15.8381 0.474106 16.682 1.31802C17.5259 2.16193 18 3.30653 18 4.5V13.5C18 14.6935 17.5259 15.8381 16.682 16.682C15.8381 17.5259 14.6935 18 13.5 18H4.5C3.30653 18 2.16193 17.5259 1.31802 16.682C0.474106 15.8381 0 14.6935 0 13.5V4.5C0 3.30653 0.474106 2.16193 1.31802 1.31802C2.16193 0.474106 3.30653 0 4.5 0ZM9 14C10.3261 14 11.5979 13.4732 12.5355 12.5355C13.4732 11.5979 14 10.3261 14 9C14 7.67392 13.4732 6.40215 12.5355 5.46447C11.5979 4.52678 10.3261 4 9 4C7.67392 4 6.40215 4.52678 5.46447 5.46447C4.52678 6.40215 4 7.67392 4 9C4 10.3261 4.52678 11.5979 5.46447 12.5355C6.40215 13.4732 7.67392 14 9 14ZM9 12C8.20435 12 7.44129 11.6839 6.87868 11.1213C6.31607 10.5587 6 9.79565 6 9C6 8.20435 6.31607 7.44129 6.87868 6.87868C7.44129 6.31607 8.20435 6 9 6C9.79565 6 10.5587 6.31607 11.1213 6.87868C11.6839 7.44129 12 8.20435 12 9C12 9.79565 11.6839 10.5587 11.1213 11.1213C10.5587 11.6839 9.79565 12 9 12ZM14 4C14.2652 4 14.5196 3.89464 14.7071 3.70711C14.8946 3.51957 15 3.26522 15 3C15 2.73478 14.8946 2.48043 14.7071 2.29289C14.5196 2.10536 14.2652 2 14 2C13.7348 2 13.4804 2.10536 13.2929 2.29289C13.1054 2.48043 13 2.73478 13 3C13 3.26522 13.1054 3.51957 13.2929 3.70711C13.4804 3.89464 13.7348 4 14 4Z" fill="#848E9F"/>
</svg>
