<svg width="207" height="202" viewBox="0 0 207 202" fill="none" xmlns="http://www.w3.org/2000/svg">
<path d="M5.46967 201.53C5.76256 201.823 6.23744 201.823 6.53033 201.53L11.3033 196.757C11.5962 196.464 11.5962 195.99 11.3033 195.697C11.0104 195.404 10.5355 195.404 10.2426 195.697L6 199.939L1.75736 195.697C1.46447 195.404 0.989592 195.404 0.696699 195.697C0.403806 195.99 0.403806 196.464 0.696699 196.757L5.46967 201.53ZM206.382 0.259306C135.59 11.516 85.2743 29.7463 52.6668 61.1977C20.0284 92.6789 5.25 137.287 5.25 201H6.75C6.75 137.513 21.4716 93.3711 53.7082 62.2773C85.9757 31.1537 135.91 12.984 206.618 1.74069L206.382 0.259306Z" fill="white"/>
</svg>
