<svg width="603" height="696" viewBox="0 0 603 696" fill="none" xmlns="http://www.w3.org/2000/svg">
<g clip-path="url(#clip0)">
<path d="M359.281 53.8323C358.193 49.1497 355.683 39.1992 350.915 34.8511C352.42 27.6599 349.994 19.0473 344.472 14.95C340.707 12.107 336.608 11.2708 332.341 11.3544C333.01 11.3544 330.333 6.92264 329.998 6.58817C328.409 4.99943 326.317 3.99601 324.226 3.24345C319.038 1.32023 313.349 0.818525 307.911 0.316816C297.788 -0.602982 285.405 0.316817 276.537 5.25028C269.258 9.34756 260.055 17.5421 258.131 26.2384C256.457 26.2384 254.7 26.5729 253.362 26.8237C250.015 27.4091 247.087 28.9142 244.995 31.5063C240.979 36.4398 240.812 42.2931 240.896 48.3136C240.979 57.0935 241.147 65.3716 243.238 73.9843C245.246 82.1789 248.007 90.1226 250.35 98.1499C254.031 110.86 259.218 129.172 268.756 138.705C270.011 139.959 272.688 138.788 272.019 136.865C269.509 130.259 266.915 123.57 264.238 116.964C268.003 119.723 272.688 121.814 277.039 124.071C288.166 129.841 304.815 131.346 317.365 130.343C327.07 129.59 338.03 126.915 343.636 118.218C350.747 107.097 350.413 93.3837 353.926 81.0918C360.034 73.5662 361.624 64.1174 359.281 53.8323Z" fill="#495366"/>
<path d="M391.157 204.345C383.962 204.178 376.265 201.502 368.902 198.325C361.205 194.98 353.424 191.803 345.894 188.291C340.624 185.866 338.197 182.855 335.436 177.588C332.341 171.483 331.169 163.289 330.918 156.599C330.5 147.485 330.5 120.895 330.5 120.895L264.991 122.818C264.991 122.818 268.421 169.226 266.33 175.497C264.238 181.518 263.067 185.698 258.214 189.712C255.955 191.552 253.613 193.14 251.27 194.729C248.007 196.82 244.66 198.659 241.147 200.332C237.465 202.171 233.7 203.927 229.935 205.683C229.852 205.767 229.852 205.767 229.768 205.85C222.155 207.272 220.314 213.042 226.84 218.978C229.35 221.236 232.111 223.327 235.039 225.166C237.465 226.671 239.975 228.093 242.652 229.263C244.409 230.1 246.166 230.852 247.923 231.521C251.103 232.692 254.282 233.695 257.628 234.615C258.967 234.949 260.306 235.284 261.644 235.618C279.214 239.381 297.536 239.632 315.357 238.211C324.895 237.458 334.432 236.455 343.97 235.702C350.663 235.2 357.607 235.117 364.384 234.281C362.376 234.866 360.368 235.368 358.193 235.535C357.022 235.618 356.771 237.124 357.858 237.625C365.556 240.636 374.759 233.612 380.113 228.678C385.886 223.327 389.818 215.55 388.061 207.69C389.233 207.774 390.32 207.69 391.408 207.439C393.165 206.937 392.83 204.345 391.157 204.345Z" fill="#FADCC8"/>
<path d="M252.19 83.4338C253.027 94.3041 255.704 103.418 257.545 114.122C258.883 121.731 259.553 133.772 263.15 139.207C265.326 142.552 279.8 162.286 294.19 162.536C319.373 163.038 322.887 152.084 332.09 142.552C338.281 136.197 338.448 123.403 339.703 119.473C340.958 115.627 342.13 99.3212 342.883 88.2836C343.552 79.4201 343.552 70.5566 343.301 61.6095C343.134 56.2579 343.301 50.4047 339.954 45.8057C339.201 44.8022 337.695 45.722 338.281 46.8927C339.787 49.5685 340.289 52.6623 340.456 55.7562C337.026 48.8159 328.743 43.4644 321.548 41.4575C315.775 39.7852 305.317 36.106 298.708 38.4473C291.178 32.2595 281.724 29.0821 272.521 34.4336C265.744 38.4473 260.891 48.3978 257.377 55.0036C252.609 64.2852 251.437 73.316 252.19 83.4338Z" fill="#FADCC8"/>
<path d="M279.047 91.9624C277.039 91.8787 275.282 92.2968 273.358 92.6313C271.183 92.9658 269.928 92.4641 267.92 91.8787C266.916 91.5443 265.912 92.7149 266.498 93.6347C267.334 94.889 268.506 95.5579 269.844 95.8088C270.848 96.2269 271.936 96.3941 273.107 96.3105C275.115 96.1433 278.378 95.5579 279.884 94.1364C280.637 93.3002 280.135 91.9624 279.047 91.9624Z" fill="#495366"/>
<path d="M316.612 90.374C318.62 90.374 320.293 90.7921 322.301 91.2102C324.477 91.6283 325.732 91.2102 327.739 90.6249C328.743 90.374 329.747 91.5447 329.078 92.4645C328.158 93.7187 326.987 94.3041 325.648 94.5549C324.644 94.973 323.473 95.0566 322.385 94.973C320.377 94.8058 317.114 94.0532 315.692 92.5481C314.939 91.7119 315.524 90.374 316.612 90.374Z" fill="#495366"/>
<path d="M257.879 88.8665C257.461 87.5286 256.792 85.8562 255.955 84.2675C256.541 84.1838 257.043 83.6821 256.875 83.0132C255.872 78.9995 251.437 76.2401 247.421 77.9961C242.318 80.1702 242.318 87.7794 243.657 92.2948C245.162 97.5627 249.011 103.667 253.613 106.928C257.21 109.436 260.389 107.931 260.473 103.5C260.473 98.9006 259.218 93.2146 257.879 88.8665Z" fill="#FADCC8"/>
<path d="M255.202 99.319C254.114 98.65 253.445 97.1449 253.194 96.0579C253.11 95.807 253.194 94.3855 253.027 94.3019C253.78 94.8036 254.783 94.3019 255.034 93.5493C256.038 90.2046 255.369 84.6858 253.194 81.8428C252.608 81.0903 251.186 81.8428 251.521 82.7626C251.939 85.6056 253.11 88.5323 252.776 91.3753C251.521 91.3753 250.684 92.5459 250.517 94.1347C250.182 96.8105 251.521 100.239 253.947 101.577C255.285 102.58 256.708 100.239 255.202 99.319Z" fill="#495366"/>
<path d="M353.006 83.6841C352.755 82.6807 352.421 81.7609 351.835 80.9247C350.664 78.3325 348.321 75.9912 345.393 75.9912C344.138 75.9912 342.632 76.3257 341.879 77.2455C339.62 77.9144 338.198 79.5868 339.034 82.3462C339.202 83.0151 340.206 83.4332 340.708 82.8479C341.126 82.3462 341.628 81.9281 342.13 81.6772C341.712 86.3598 340.038 90.8752 340.289 95.5578C340.373 96.4776 336.023 104.505 332.927 107.682C332.007 108.686 332.843 110.693 334.349 110.191C334.433 110.191 334.433 110.107 334.517 110.107C334.851 111.194 336.106 112.031 337.11 111.278C337.361 111.111 337.528 110.944 337.779 110.776C338.114 111.111 338.532 111.278 339.034 111.111C342.799 109.606 346.815 106.177 348.489 102.749C351.082 97.5647 354.512 89.7882 353.006 83.6841Z" fill="#FADCC8"/>
<path d="M346.815 90.2891C346.313 89.2857 345.644 88.8676 344.974 88.9512C344.556 86.1082 346.647 82.1782 345.142 79.7532C344.807 79.2515 344.138 79.2515 343.803 79.7532C342.799 81.1747 342.883 84.2686 342.715 85.8574C342.548 87.6133 342.13 90.2891 343.217 91.8778C343.552 92.3795 344.221 92.6304 344.723 92.4632C344.807 92.7976 344.891 93.0485 344.891 93.383C345.142 95.2226 344.64 96.9785 343.719 98.5673C342.966 99.9888 344.974 101.243 345.895 99.9052C347.735 97.313 348.404 93.2993 346.815 90.2891Z" fill="#495366"/>
<path d="M326.903 147.065C321.967 151.246 317.449 156.347 312.429 160.444C309.501 162.785 306.405 163.956 302.64 164.207C299.377 164.458 294.776 164.792 291.597 163.621C290.342 163.203 289.421 162.033 288.334 161.196C285.656 158.939 282.812 156.848 280.135 154.591C276.955 151.831 273.943 148.821 270.597 146.062C269.509 145.142 268.087 146.229 268.673 147.483C270.179 151.162 274.696 154.34 277.541 156.932C279.716 158.939 281.724 161.029 283.983 162.952C285.071 163.872 286.242 164.708 287.497 165.461C290.091 166.966 294.525 167.217 297.453 167.301C300.716 167.384 305.485 167.301 308.581 166.297C314.855 164.207 318.62 159.775 323.055 155.009C324.979 152.918 326.736 150.661 328.409 148.319C329.162 147.399 327.74 146.396 326.903 147.065Z" fill="#495366"/>
<path d="M295.78 110.273C295.863 107.179 296.282 104.169 296.198 100.992C296.198 97.3962 297.369 92.2118 295.194 89.0344C294.525 88.0309 293.019 88.6163 293.186 89.7869C294.19 95.3893 293.688 102.58 293.186 108.183C292.6 113.534 293.521 115.625 296.282 120.307C296.867 121.395 298.792 120.726 298.373 119.471C297.286 116.294 295.696 113.702 295.78 110.273Z" fill="#495366"/>
<path d="M303.142 113.37C301.971 113.286 300.883 113.537 299.712 113.788C298.123 114.122 298.792 116.38 300.298 116.129C301.302 115.962 302.389 115.878 303.393 115.711C304.732 115.46 304.397 113.454 303.142 113.37Z" fill="#495366"/>
<path d="M285.907 76.1583C283.815 71.4757 277.541 71.6429 273.274 71.9774C269.09 72.3119 262.648 72.6463 260.222 76.5764C259.302 78.1651 260.222 80.172 261.979 80.5064C262.732 80.6737 277.624 80.8409 284.066 79.7539C285.656 79.4194 286.576 77.6634 285.907 76.1583Z" fill="#495366"/>
<path d="M309.334 76.1598C311.342 71.3936 317.616 71.5608 321.967 71.8953C326.15 72.2298 332.592 72.397 335.019 76.4107C336.023 77.9994 335.019 80.0062 333.262 80.3407C332.509 80.5079 319.039 80.3407 311.174 79.7554C309.501 79.5881 308.664 77.6649 309.334 76.1598Z" fill="#495366"/>
<path d="M312.011 127.333C302.724 132.016 295.864 131.347 286.493 127.584C285.406 127.166 284.653 128.671 285.406 129.424C291.931 136.197 306.907 135.612 313.433 129.257C314.437 128.253 313.182 126.664 312.011 127.333Z" fill="#495366"/>
<path d="M345.895 56.1733C346.313 55.3371 345.979 54.3337 345.226 53.7484C344.891 52.5777 344.473 51.4907 343.971 50.4873C339.955 41.791 330.25 41.5402 322.051 39.1152C315.859 37.2756 309.083 34.7671 302.222 33.262C300.13 27.9104 290.425 29.1647 285.991 29.2483C281.808 29.3319 277.374 29.1647 273.525 31.1715C268.171 34.0145 265.493 40.035 260.557 43.4634C260.055 43.7979 259.804 44.2159 259.721 44.634C259.219 44.634 258.8 44.8013 258.466 45.3866C256.207 49.6511 254.952 54.3337 254.031 59.0163C253.111 58.3474 251.772 58.5146 251.27 59.8525C250.35 62.4447 249.932 65.3713 249.764 68.2979C249.346 68.4652 248.928 68.716 248.844 69.2177C248.51 70.8901 248.928 72.5625 249.681 74.0676C249.681 74.1512 249.681 74.3184 249.681 74.4021C249.43 74.8201 249.346 75.3219 249.513 75.8236C249.597 75.9908 249.597 76.2416 249.681 76.4089C250.601 79.3355 254.031 77.914 255.119 75.9908C256.96 72.7297 257.043 68.5488 257.545 64.9532C257.964 62.1102 258.8 59.2672 259.637 56.3406C261.394 52.2433 264.406 48.8986 269.007 47.9788C272.689 47.3098 276.035 48.8986 279.716 48.6477C283.481 48.3968 287.748 46.8917 291.178 44.4668C295.78 42.3763 301.051 41.7074 306.071 42.0419C313.517 42.6272 318.537 46.6409 324.979 49.3166C326.736 52.076 328.995 54.6682 331.923 55.9225C333.345 56.5078 335.102 57.0095 337.026 57.344C338.616 63.5317 338.616 70.1375 341.461 75.8236C342.297 77.4959 344.556 76.9106 345.142 75.4055C347.317 69.9703 347.401 62.5283 345.895 56.1733Z" fill="#495366"/>
<path d="M408.475 723.446C409.061 697.692 410.316 610.06 410.902 584.306C411.404 560.726 410.149 540.239 407.22 507.377C405.547 488.814 400.36 470.669 398.352 452.189C398.687 450.015 397.013 449.012 395.257 449.179C395.006 449.179 394.755 449.179 394.504 449.179C389.735 443.995 381.619 447.59 375.512 447.423C364.886 447.089 364.05 439.73 353.926 437.055C337.193 432.539 317.198 432.623 306.656 448.51C295.445 465.485 294.357 489.734 296.449 509.133C297.62 519.836 299.795 530.623 300.046 541.41C300.13 547.347 299.795 553.367 299.628 559.304C299.461 567.248 295.194 570.927 296.198 578.787C296.616 582.55 314.688 738.247 316.612 762.329C318.62 787.414 329.245 869.276 330.333 882.906C331.17 893.024 331.504 903.392 332.424 913.51C333.261 922.875 340.456 973.799 342.799 976.976C345.141 980.07 353.006 977.561 362.376 978.314C368.568 978.816 380.615 977.311 386.806 977.645C390.99 977.812 406.217 978.983 406.217 972.628C406.217 970.37 406.217 943.863 406.217 941.606C408.559 928.143 408.057 742.093 408.475 723.446Z" fill="#0D2052"/>
<path d="M304.313 811.412C304.146 788.166 303.393 726.373 304.146 715.335C304.983 702.96 309.166 617.92 313.516 594.423C315.357 584.64 310.672 587.4 310.756 577.365C310.839 564.823 310.756 552.364 311.341 539.821C312.345 519.167 314.102 497.845 311.759 477.275C310.003 461.805 304.732 444.914 289.421 438.058C274.612 431.452 256.792 433.71 241.23 435.716C230.354 437.138 225.083 439.563 215.294 445.667C215.211 445.082 215.043 444.496 214.709 443.995C213.872 442.322 212.45 441.402 210.442 441.737C205.255 442.657 203.498 452.356 202.577 456.621C200.737 465.317 200.737 474.348 200.988 483.211C201.406 498.346 200.318 502.945 199.231 517.997C195.382 573.77 200.151 638.657 205.004 694.18C209.689 748.364 216.215 802.967 222.908 856.9C224.163 867.018 228.848 905.984 230.521 915.768C232.446 927.223 238.218 979.066 240.561 979.485C242.904 979.903 251.605 978.899 256.374 978.732C274.445 978.147 298.373 982.411 301.636 979.317C304.899 976.223 304.481 834.658 304.313 811.412Z" fill="#0D2052"/>
<path d="M538.658 258.444L485.029 312.294C485.029 312.294 484.694 318.148 486.368 320.071C480.929 332.028 490.467 349.003 494.232 360.458C495.654 364.723 500.256 365.559 503.184 362.298C510.63 353.936 509.877 357.448 516.068 348.25C522.762 338.216 557.733 281.774 557.733 281.774L538.658 258.444Z" fill="#FADCC8"/>
<path d="M599.9 226.923C598.98 227.007 598.059 227.341 597.139 227.759C598.729 225.836 600.067 223.746 600.569 221.655C601.155 219.314 599.147 217.391 596.888 218.227C591.45 220.317 586.095 227.843 578.231 233.111C576.976 230.686 575.888 227.174 574.55 224.749C572.625 221.488 569.279 219.063 565.681 217.391C562 215.635 559.825 216.638 559.992 220.317C559.992 220.735 560.076 221.153 560.159 221.488C558.235 220.317 554.47 222.491 552.128 224.582C545.518 230.184 537.737 234.783 533.47 242.727C528.702 251.758 532.048 264.133 538.909 270.906C538.992 270.99 538.992 270.99 539.076 271.073C539.494 271.491 539.913 271.491 540.331 271.408C540.666 271.324 546.355 277.596 547.108 278.181C549.869 280.355 553.048 282.362 556.562 283.198C563.673 284.87 576.976 271.491 586.765 260.119C587.099 259.785 587.434 259.45 587.769 259.116C592.37 254.266 596.972 249.834 600.653 244.148C601.992 242.058 599.816 239.215 597.474 240.386C596.051 241.054 595.047 241.974 594.043 242.978C593.541 243.229 593.04 243.479 592.538 243.814C595.131 240.971 598.059 238.462 600.486 235.536C603.079 232.442 604.752 226.421 599.9 226.923ZM557.733 244.483C554.805 245.821 553.048 246.573 550.789 244.316C545.936 239.549 552.462 235.285 555.809 232.358C557.9 230.519 560.829 228.93 561.163 225.752C561.247 224.916 561.247 224.164 561.163 223.578C563.004 225.669 566.183 226.756 567.104 229.766C568.275 233.278 566.518 234.281 564.677 237.375C563.255 239.884 560.327 243.312 557.733 244.483Z" fill="#FADCC8"/>
<path d="M551.71 248.244C551.041 246.99 549.367 247.826 549.618 249.081C550.288 253.094 550.622 256.523 549.367 260.453C548.196 264.048 546.021 266.557 544.013 269.567C543.427 270.403 544.515 271.407 545.351 270.989C552.296 267.309 555.308 255.101 551.71 248.244Z" fill="#495366"/>
<path d="M575.387 234.866C574.132 237.207 572.04 238.963 570.534 241.053C569.614 242.391 571.705 243.645 572.709 242.391C574.299 240.217 576.558 238.378 577.311 235.702C577.562 234.531 575.972 233.779 575.387 234.866Z" fill="#495366"/>
<path d="M594.379 229.514C590.865 231.688 588.02 235.367 585.008 238.21C581.913 241.22 578.817 244.23 576.224 247.659C575.303 248.913 577.395 250.669 578.399 249.415C581.327 245.903 584.59 242.642 587.936 239.464C590.697 236.872 594.211 234.196 595.717 230.684C596.136 229.848 595.048 229.096 594.379 229.514Z" fill="#495366"/>
<path d="M406.133 556.794C392.914 547.763 376.014 542.245 372.165 524.936C372.416 524.434 372.333 524.016 371.998 523.598C371.831 523.347 371.664 523.18 371.496 522.929C370.66 521.842 369.237 522.762 369.07 523.849C368.15 532.461 375.094 540.238 381.201 545.422C387.643 551.025 396.428 557.63 404.878 559.554C406.635 559.972 407.639 557.798 406.133 556.794Z" fill="#081843"/>
<path d="M589.358 244.815C587.769 245.651 586.597 247.24 585.426 248.494C584.255 249.832 582.916 251.17 581.745 252.507C580.992 253.344 581.912 254.598 582.916 254.096C584.506 253.427 585.761 251.922 586.848 250.668C588.103 249.33 589.526 248.076 590.781 246.738C591.868 245.818 590.697 244.062 589.358 244.815Z" fill="#495366"/>
<path d="M133.387 322.329C135.061 320.239 135.814 315.389 135.814 315.389L88.9616 273.496L85.7823 270.653L78.8382 263.964L76.8302 262.041L76.5792 261.873L74.5713 259.95L66.1212 271.071L64.2805 273.58L55.4121 285.286C55.4121 285.286 55.8304 285.872 56.6671 286.875C56.8344 287.126 57.0854 287.46 57.4201 287.879C57.7547 288.213 58.0894 288.715 58.424 289.133C60.0137 291.223 62.1889 294.066 64.7825 297.411C65.3682 298.164 65.9538 298.916 66.5395 299.752C77.4159 314.218 95.9894 341.394 100.758 347.749C107.786 357.198 109.208 359.037 117.575 367.483C120.838 370.828 125.69 369.657 127.029 365.142C130.292 352.933 139.662 334.705 133.387 322.329Z" fill="#FADCC8"/>
<path d="M194.462 520.005C194.462 520.005 262.23 546.512 268.505 546.68C274.696 546.93 291.931 515.239 291.931 515.239L194.462 520.005Z" fill="white"/>
<path d="M298.959 515.321C298.959 515.321 309.166 545.925 314.688 548.517C320.21 551.109 407.723 513.23 407.723 513.23L298.959 515.321Z" fill="white"/>
<path d="M245.162 198.661C245.162 198.661 256.122 186.286 258.799 186.787C261.477 187.289 301.385 213.545 301.385 213.545L257.21 212.709L245.162 198.661Z" fill="white"/>
<path d="M306.572 212.624C306.572 212.624 344.64 184.444 347.401 184.946C350.078 185.448 363.297 196.151 363.297 196.736C363.297 197.322 349.576 208.443 344.305 209.613C338.95 210.7 306.572 212.624 306.572 212.624Z" fill="white"/>
<path d="M72.3958 238.964C65.5353 232.86 56.4995 231.355 48.1331 228.345C45.1212 227.258 40.687 226.505 39.3483 228.261C39.3483 227.843 39.2647 227.509 39.0973 227.09C37.926 223.579 35.4998 223.411 32.5715 226.254C29.8106 229.014 27.3843 232.609 26.715 236.288C26.213 239.048 26.464 242.727 26.1293 245.403C16.7589 243.229 8.89447 237.961 2.95429 237.877C0.360698 237.877 -0.810606 240.386 0.61169 242.393C1.86666 244.149 3.79094 245.654 6.04988 246.908C5.04591 246.824 4.04193 246.908 3.12162 247.159C-1.73091 248.329 2.03399 253.514 5.79889 255.604C9.22913 257.527 12.9104 258.865 16.3406 260.621C15.755 260.538 15.1693 260.454 14.5837 260.37C13.3287 259.702 11.9901 259.283 10.4004 259.116C7.72317 258.865 6.63553 262.294 8.64348 263.799C14.1653 267.812 20.1055 270.405 26.2967 273.415C26.715 273.666 27.1333 273.833 27.6353 274C38.3444 279.853 51.7307 286.125 59.8461 286.292C60.3481 286.292 60.8501 286.292 61.3521 286.208C62.6907 286.125 63.862 285.79 64.866 285.121C67.8779 283.115 70.2205 280.104 72.0611 277.094C72.5631 276.258 75.826 268.314 76.1607 268.314C76.579 268.314 76.9973 268.063 77.2483 267.562C77.2483 267.478 77.332 267.394 77.332 267.311C78.0013 265.973 78.5033 264.551 78.838 263.046C78.9216 262.795 79.0053 262.545 79.0053 262.294C80.7622 254.266 78.838 244.567 72.3958 238.964ZM56.2486 246.406C54.9099 249.333 52.149 251.256 48.8024 251.005C45.8742 250.754 43.1132 249.333 40.8543 247.577C38.0097 245.319 35.4998 242.142 35.4161 238.379C35.3324 235.285 37.926 233.111 38.93 230.519C39.0973 231.104 39.2647 231.773 39.683 232.526C41.1053 235.369 44.4519 235.87 47.1291 236.874C51.4797 238.546 59.1768 240.302 56.2486 246.406Z" fill="#FADCC8"/>
<path d="M57.5872 250.001C57.6709 249.332 58.5075 248.747 59.1769 248.998C59.2605 248.998 59.3442 249.081 59.5115 249.081C59.9298 249.249 60.2645 249.75 60.2645 250.168C60.4318 253.513 61.2685 257.025 62.1888 260.203C63.6111 265.387 68.0453 268.23 69.8859 272.996C70.3042 274.083 68.9656 274.836 68.129 274.167C61.4358 269.233 56.4159 258.53 57.5872 250.001Z" fill="#495366"/>
<path d="M28.6388 248.16C31.316 248.913 34.2443 250.418 36.2522 252.257C37.0052 252.926 36.3359 254.181 35.3319 254.013C32.7383 253.428 30.6467 251.421 28.0531 250.752C26.4635 250.334 26.9655 247.658 28.6388 248.16Z" fill="#495366"/>
<path d="M9.89852 248.327C14.5837 249.665 18.8506 252.424 23.3685 254.347C27.1334 255.936 31.9023 257.608 34.2449 261.12C34.8305 261.956 33.8266 263.044 32.9062 262.625C28.8067 260.619 24.9581 258.277 20.8586 256.354C16.8427 254.514 12.8268 252.257 9.31287 249.497C8.89454 249.079 9.31286 248.159 9.89852 248.327Z" fill="#495366"/>
<path d="M18.2648 261.372C20.3564 261.958 22.197 263.045 24.2886 263.714C26.2129 264.299 28.3882 264.884 30.2288 265.804C31.6511 266.473 30.8981 268.814 29.3085 268.396C27.0496 267.811 24.7906 266.975 22.699 266.055C20.8584 265.219 18.5995 264.383 17.4282 262.543C17.0935 262.041 17.5118 261.205 18.2648 261.372Z" fill="#495366"/>
<path d="M257.545 233.861C257.629 234.196 257.629 234.53 257.545 234.865V234.948C258.047 236.872 257.712 234.781 257.545 233.861Z" fill="#495366"/>
<path d="M416.759 413.222C415.337 399.593 410.903 338.719 411.237 324.002C411.488 311.041 403.038 301.258 401.532 288.297C399.859 273.58 401.114 259.282 401.95 244.565C402.369 236.37 402.285 227.925 400.194 219.981C398.855 214.713 370.242 193.558 363.297 193.391C362.377 193.391 330.752 212.372 292.936 209.863C268.589 208.275 250.936 196.986 242.486 196.819C234.036 196.652 204.419 201.836 203.164 214.63C202.327 223.075 209.02 247.491 209.69 255.77C210.526 265.971 208.937 276.172 207.347 286.207C204.335 304.853 193.291 345.408 192.789 359.456C192.12 380.11 190.781 427.437 189.526 447.757C188.857 458.042 189.275 504.784 192.789 522.428C193.71 526.943 228.598 521.34 233.283 521.424C258.801 521.926 314.939 522.428 340.457 522.26C377.604 522.093 395.508 516.073 416.675 515.738C424.373 515.571 417.93 425.013 416.759 413.222Z" fill="#026FFF"/>
<path d="M303.5 359.597C330.175 359.597 351.799 337.973 351.799 311.299C351.799 284.624 330.175 263 303.5 263C276.825 263 255.201 284.624 255.201 311.299C255.201 337.973 276.825 359.597 303.5 359.597Z" stroke="white" stroke-width="1.5"/>
<path d="M258.917 305.354H250V314.271H258.917V305.354Z" fill="white"/>
<path d="M357 305.354H348.083V314.271H357V305.354Z" fill="white"/>
<path d="M286.9 325.764C295.267 325.764 300.456 320.325 300.456 311.284C300.456 302.258 295.267 296.833 286.887 296.833H276.75V325.764H286.9ZM283.387 319.803V302.794H286.551C291.271 302.794 293.806 305.054 293.806 311.284C293.806 317.543 291.271 319.803 286.645 319.803H283.387Z" fill="white"/>
<path d="M330.25 311.299C330.25 301.735 324.511 296.438 317.137 296.438C309.735 296.438 304.036 301.735 304.036 311.299C304.036 320.82 309.735 326.16 317.137 326.16C324.511 326.16 330.25 320.862 330.25 311.299ZM323.465 311.299C323.465 316.963 321.105 320.029 317.137 320.029C313.181 320.029 310.807 316.963 310.807 311.299C310.807 305.634 313.181 302.568 317.137 302.568C321.105 302.568 323.465 305.634 323.465 311.299Z" fill="white"/>
<path d="M239.725 234.532C235.709 227.174 241.063 196.82 241.063 196.82C241.063 196.82 190.781 203.343 172.877 229.013C167.857 236.204 153.634 269.902 149.953 281.442C148.196 286.961 145.519 291.392 143.343 296.577C141.335 301.594 142.339 307.363 140.415 312.38C139.662 314.304 134.057 307.029 129.037 306.193C124.017 305.356 115.399 318.903 110.965 325.759C104.69 335.459 82.101 346.497 80.846 357.451C80.2604 362.133 87.9575 371.247 92.3917 376.348C104.941 390.814 129.455 410.966 147.276 417.405C165.347 424.01 180.574 406.785 192.036 393.239C206.008 376.766 212.534 351.932 220.566 332.031C229.434 309.955 235.876 287.044 240.729 263.798C242.653 254.433 244.661 243.479 239.725 234.532Z" fill="#026FFF"/>
<path d="M492.977 304.937C488.961 298.248 475.24 320.323 472.646 322.246C472.312 319.152 471.224 315.807 470.638 313.968C469.132 309.452 460.682 289.886 457.838 286.123C452.734 279.434 437.591 236.119 432.738 228.677C414.165 200.08 363.297 193.391 363.297 193.391C363.297 193.391 382.791 229.179 378.607 236.036C373.588 244.398 375.094 254.933 376.6 264.048C379.695 282.277 383.878 300.254 389.4 317.814C387.309 323.082 385.635 328.852 385.719 334.621C385.886 340.976 388.48 346.077 391.659 351.429C393.583 354.69 394.085 355.693 394.002 359.289C393.918 362.215 393.667 364.808 394.671 367.734C396.595 373.253 412.826 392.234 416.507 395.077C420.021 397.753 423.87 404.693 427.551 406.867C430.312 408.54 432.487 410.965 435.248 412.553C442.36 416.734 457.085 420.832 464.615 418.407C481.849 412.804 500.758 395.83 513.224 382.535C517.992 377.434 529.705 366.313 529.036 361.463C527.698 351.429 498.415 314.051 492.977 304.937Z" fill="#026FFF"/>
<path d="M305.736 637.738C298.206 631.132 295.864 620.93 290.927 612.569C287.748 607.217 283.9 602.2 280.386 597.183C277.959 593.755 276.035 589.239 272.605 586.731C272.019 586.313 270.932 586.814 271.015 587.567C271.35 592.166 275.366 596.18 277.959 599.859C281.724 605.21 285.908 610.562 289.003 616.331C293.019 623.773 295.696 635.982 304.063 639.912C305.234 640.581 307.075 638.908 305.736 637.738Z" fill="#081843"/>
<path d="M170.116 368.487C166.602 361.296 163.841 353.52 159.407 346.83C155.642 341.144 151.375 335.709 147.109 330.357C146.272 326.845 145.352 323.333 144.431 319.989C144.097 318.651 142.423 318.567 141.67 319.571C138.658 323.584 143.846 335.207 144.766 339.555C147.861 353.101 149.702 367.818 146.272 381.448C145.686 383.706 149.116 384.709 149.786 382.451C153.885 368.069 151.961 352.349 148.698 337.381C152.045 341.729 155.391 346.078 158.152 350.76C161.833 357.032 163.339 364.474 168.108 369.992C169.029 371.163 170.702 369.741 170.116 368.487Z" fill="#0E72F7"/>
<path d="M197.809 349.088C194.797 335.208 192.287 321.829 191.116 307.614C190.279 297.078 189.945 286.375 187.686 276.006C185.176 264.634 176.391 254.684 175.303 243.228C175.136 241.388 172.375 241.305 172.375 243.144C172.459 251.004 176.307 256.523 179.57 263.463C185.427 275.923 185.929 289.469 186.933 303.015C187.686 312.882 188.439 322.832 190.112 332.616C192.622 347.332 196.972 359.708 194.546 374.843C194.295 376.515 196.47 377.268 197.056 375.595C200.152 366.815 199.733 358.119 197.809 349.088Z" fill="#0E72F7"/>
<path d="M419.938 234.363C415.42 239.965 415.337 248.578 414.249 255.434C412.409 266.89 410.15 277.593 409.731 289.3C408.56 319.569 407.974 350.341 409.229 380.527C409.313 382.116 411.656 382.199 411.739 380.61C413.831 353.435 411.99 326.175 413.078 298.999C413.58 286.289 414.5 274.248 417.01 261.706C418.6 253.595 418.014 243.142 422.867 236.118C423.871 234.279 421.193 232.774 419.938 234.363Z" fill="#0E72F7"/>
<path d="M473.985 339.972C473.651 335.541 473.232 331.192 472.981 327.179C472.898 325.506 470.555 325.423 470.388 327.095C470.137 330.105 469.969 333.032 469.886 335.959C469.635 336.293 469.551 336.711 469.802 337.213C469.802 337.296 469.802 337.296 469.886 337.38C469.384 351.679 470.053 365.476 466.874 380.025C466.539 381.53 468.631 382.701 469.467 381.196C473.985 372.5 474.822 361.629 474.655 350.843C478.001 363.385 479.173 376.346 483.774 388.554C484.36 390.143 486.702 389.641 486.368 387.885C483.272 371.914 481.013 354.773 473.985 339.972Z" fill="#0E72F7"/>
<path d="M265.744 34.6829C264.74 33.9304 263.151 33.6795 262.23 32.9269C261.143 32.0071 261.394 29.7495 261.226 28.4116C260.975 27.1573 259.135 27.2409 258.8 28.4116C258.131 31.4218 257.963 34.6829 261.143 36.188C263.234 37.1915 264.573 37.7768 265.577 40.0345C266.163 41.3724 266.581 42.9611 268.254 43.212C269.258 43.3792 270.095 42.6266 269.844 41.6232C269.258 39.1983 267.669 36.1044 265.744 34.6829Z" fill="#242F46"/>
<path d="M308.832 32.0929C303.143 33.4307 303.31 32.0092 298.29 29.1662C295.864 27.8283 295.027 26.9085 292.015 26.8249C285.155 26.7413 278.629 34.0997 275.283 39.284C274.279 40.7891 276.705 42.127 277.709 40.7055C279.717 37.6953 283.147 33.1799 286.745 31.842C292.601 30.086 296.868 31.0894 299.462 34.7686C299.629 35.1031 299.88 35.4376 300.215 35.6884C301.051 35.7721 301.804 36.441 302.724 36.3574C307.995 36.1065 312.597 33.4307 318.035 33.6816C330.668 34.2669 336.441 42.8796 340.624 53.4991C341.21 54.9206 343.385 54.4189 342.967 52.8301C338.198 36.5246 326.401 27.912 308.832 32.0929Z" fill="#242F46"/>
<path d="M327.823 17.2909C320.21 13.9462 313.098 14.3643 306.154 18.4616C304.648 19.3814 305.987 21.6391 307.493 20.8029C313.851 17.2073 319.959 17.0401 326.652 20.0503C332.258 22.5589 334.684 26.7398 337.361 31.9241C337.863 32.8439 339.536 32.5094 339.453 31.3387C338.867 25.0674 333.429 19.7995 327.823 17.2909Z" fill="#242F46"/>
<path d="M254.617 44.299C245.916 48.7308 246.25 60.7718 248.342 68.7155C248.593 69.8025 250.434 69.8861 250.685 68.7155C251.438 65.0363 250.099 61.6079 250.434 57.9287C250.852 52.9953 254.031 49.9014 256.039 45.7205C256.458 44.8007 255.537 43.7973 254.617 44.299Z" fill="#242F46"/>
<path d="M350.245 51.9944C349.66 50.4892 348.237 46.4756 346.146 46.4756C345.309 46.4756 344.807 47.2281 344.974 48.0643C345.393 50.322 347.317 52.5797 348.07 54.7538C349.66 59.6036 348.907 64.2862 349.492 69.3033C349.66 70.7248 351.584 70.7248 351.668 69.3033C352.17 63.6173 352.253 57.4295 350.245 51.9944Z" fill="#242F46"/>
</g>
<defs>
<clipPath id="clip0">
<rect width="603" height="696" fill="white"/>
</clipPath>
</defs>
</svg>
