<svg width="29" height="34" viewBox="0 0 29 34" fill="none" xmlns="http://www.w3.org/2000/svg">
<path fill-rule="evenodd" clip-rule="evenodd" d="M7.49255 14.6992L0 28.6883L6.8039 28.0654L10.097 33.9991L17.5895 20.01L7.49255 14.6992Z" fill="#E95454"/>
<path fill-rule="evenodd" clip-rule="evenodd" d="M8.35129 29.9263C8.56153 29.4788 8.34164 28.9441 7.90184 28.7124L7.47063 28.4849C7.03942 28.2415 6.87531 27.7004 7.11022 27.2624C7.34835 26.817 7.90828 26.6469 8.35773 26.8829L9.57627 27.5239C9.95277 27.7216 10.4247 27.5781 10.6189 27.2029L10.6489 27.1455C10.872 26.7915 10.7401 26.3238 10.369 26.1293L6.72406 24.2127C6.27998 23.9788 6.06223 23.4463 6.26925 22.9977C6.49773 22.5204 7.07482 22.3322 7.53928 22.5767L10.9203 24.3551C11.2968 24.5528 11.7688 24.4093 11.9683 24.0362L11.9876 23.9873L11.993 23.9767C12.2086 23.5855 12.0573 23.0944 11.6594 22.885L9.76291 21.8879C9.31883 21.654 9.10108 21.1215 9.31132 20.6676C9.53765 20.1956 10.1169 20.0021 10.5814 20.2466L12.6763 21.349C13.0678 21.5552 13.5355 21.383 13.7382 20.9918C13.7414 20.9865 13.7414 20.9865 13.7436 20.9812C13.7468 20.9758 13.7468 20.9758 13.7489 20.9705C13.9624 20.5847 13.8444 20.1042 13.4518 19.899L11.1917 18.7106C10.753 18.4799 10.5352 17.9473 10.7423 17.4988C10.9707 17.0215 11.5478 16.8333 12.0123 17.0778L17.588 20.0106L10.0954 33.9997L8.03056 30.2803C8.16357 30.191 8.27942 30.0804 8.35129 29.9263Z" fill="#ED6362"/>
<path fill-rule="evenodd" clip-rule="evenodd" d="M21.5071 14.6992L28.9997 28.6883L22.1958 28.0654L18.9027 33.9991L11.4102 20.01L21.5071 14.6992Z" fill="#ED6362"/>
<path fill-rule="evenodd" clip-rule="evenodd" d="M20.6489 29.9253C20.4387 29.4777 20.6586 28.943 21.0983 28.7113L21.5296 28.4838C21.9608 28.2404 22.1249 27.6993 21.89 27.2614C21.6518 26.816 21.0919 26.6459 20.6425 26.8819L19.4239 27.5229C19.0474 27.7206 18.5754 27.5771 18.3813 27.2018L18.3513 27.1444C18.1281 26.7905 18.2601 26.3227 18.6312 26.1282L22.2772 24.2106C22.7213 23.9767 22.939 23.4441 22.732 22.9955C22.5035 22.5183 21.9264 22.3301 21.462 22.5746L18.0809 24.353C17.7044 24.5507 17.2325 24.4072 17.033 24.0341L17.0136 23.9852L17.0083 23.9746C16.7927 23.5834 16.9439 23.0923 17.3419 22.8829L19.2384 21.8858C19.6824 21.6519 19.9002 21.1193 19.6899 20.6654C19.4636 20.1935 18.8844 20 18.4199 20.2445L16.3229 21.349C15.9313 21.5552 15.4637 21.383 15.2609 20.9918C15.2577 20.9865 15.2577 20.9865 15.2556 20.9812C15.2523 20.9758 15.2523 20.9758 15.2502 20.9705C15.0367 20.5847 15.1547 20.1042 15.5473 19.899L17.8074 18.7106C18.2461 18.4799 18.4639 17.9474 18.2569 17.4988C18.0284 17.0215 17.4513 16.8333 16.9868 17.0778L11.4111 20.0106L18.9037 33.9997L20.9686 30.2803C20.8366 30.1899 20.7208 30.0794 20.6489 29.9253Z" fill="#E95454"/>
<path fill-rule="evenodd" clip-rule="evenodd" d="M14.5005 24.8126C21.4146 24.8126 27.0195 19.2581 27.0195 12.4063C27.0195 5.55448 21.4146 0 14.5005 0C7.58641 0 1.98145 5.55448 1.98145 12.4063C1.98145 19.2581 7.58641 24.8126 14.5005 24.8126Z" fill="#FFCC5B"/>
<path fill-rule="evenodd" clip-rule="evenodd" d="M16.1982 10.9834H8.26477C7.64799 10.9834 7.14169 10.4816 7.14169 9.87042L7.15027 9.79388V9.77687C7.14169 9.13163 7.67266 8.60438 8.32484 8.60438H13.8233C14.5516 8.60438 15.1952 8.06969 15.2381 7.34685C15.2725 6.59106 14.6643 5.95326 13.9005 5.95326H8.07598C7.43345 5.95326 6.9529 5.41857 6.96148 4.78077C6.96148 4.77226 6.96148 4.77226 6.96148 4.76376C6.96148 4.75526 6.96148 4.75526 6.96148 4.74675C6.9529 4.11001 7.43238 3.57426 8.07598 3.57426H14.1708C14.8906 3.57426 15.5342 3.03957 15.5771 2.32524C15.6114 1.56094 15.0032 0.931641 14.2395 0.931641H9.77615C5.22484 2.79083 2.01758 7.22567 2.01758 12.4067C2.01758 17.5878 5.22484 22.0216 9.77722 23.8787H15.4441C16.1639 23.8787 16.8075 23.344 16.8504 22.6296C16.8847 21.8653 16.2765 21.2371 15.5128 21.2371L9.06605 21.236C8.30553 21.236 7.69304 20.6057 7.7338 19.8424C7.77134 19.1281 8.41923 18.5913 9.14113 18.5913H11.6404C12.3591 18.5711 12.9394 17.9875 12.9394 17.27C12.9394 16.5397 12.3398 15.9444 11.6018 15.9444H7.81318C7.19639 15.9444 6.6901 15.4437 6.69868 14.8314V14.7379C6.65577 14.1352 7.14491 13.6249 7.75311 13.6249H16.121C16.8493 13.6249 17.4929 13.0902 17.5358 12.3759C17.5701 11.6127 16.9608 10.9834 16.1982 10.9834Z" fill="#FDBC4B"/>
<path fill-rule="evenodd" clip-rule="evenodd" d="M14.4998 21.2605C9.57202 21.2605 5.56348 17.287 5.56348 12.4046C5.56348 7.52224 9.57202 3.5498 14.4998 3.5498C19.4276 3.5498 23.4362 7.5233 23.4362 12.4057C23.4362 17.288 19.4276 21.2605 14.4998 21.2605Z" fill="#FFDB70"/>
<path opacity="0.2" fill-rule="evenodd" clip-rule="evenodd" d="M23.4371 12.4065C23.4371 7.6953 19.7021 3.84192 15.0135 3.57617H14.1811C13.6319 3.57617 13.1417 3.98436 13.1085 4.52862C13.0827 5.11115 13.5461 5.59162 14.1286 5.59162L19.0457 5.59268C19.626 5.59268 20.0926 6.07316 20.0615 6.65569C20.0325 7.20101 19.5391 7.61026 18.9877 7.61026H17.0816C16.5335 7.62621 16.0905 8.07054 16.0905 8.61799C16.0905 9.175 16.5485 9.6289 17.1106 9.6289H20.0003C20.4712 9.6289 20.8563 10.0116 20.8499 10.4772V10.5473C20.8821 11.0076 20.5098 11.3956 20.0454 11.3956H13.6641C13.1085 11.3956 12.6183 11.8038 12.585 12.3481C12.5593 12.9306 13.0227 13.4111 13.6051 13.4111H19.6549C20.1258 13.4111 20.5109 13.7937 20.5109 14.2593L20.5045 14.3178V14.3306C20.5109 14.8227 20.1054 15.2245 19.6088 15.2245H15.4147C14.8591 15.2245 14.3688 15.6327 14.3356 16.1834C14.3098 16.7595 14.7732 17.2464 15.3557 17.2464H19.7976C20.2878 17.2464 20.6536 17.6546 20.6471 18.1404C20.6471 18.1467 20.6471 18.1467 20.6471 18.1531C20.6471 18.1595 20.6471 18.1595 20.6471 18.1659C20.6536 18.6517 20.2878 19.0598 19.7976 19.0598H15.1497C14.6005 19.0598 14.1103 19.468 14.0771 20.0123C14.0513 20.5959 14.5147 21.0753 15.0972 21.0753H16.3232C20.3811 20.2377 23.4371 16.6692 23.4371 12.4065Z" fill="white"/>
<path fill-rule="evenodd" clip-rule="evenodd" d="M20.739 10.4446H16.3925L15.0485 6.34776C14.8758 5.82158 14.1238 5.82158 13.9512 6.34776L12.6082 10.4446H8.26175C7.70289 10.4446 7.47012 11.1536 7.92278 11.4789L11.439 14.0109L10.096 18.1077C9.9233 18.6339 10.5315 19.0719 10.9842 18.7466L14.5004 16.2145L18.0165 18.7466C18.4692 19.0719 19.0774 18.6339 18.9047 18.1077L17.5617 14.0109L21.0779 11.4789C21.5295 11.1536 21.2978 10.4446 20.739 10.4446Z" fill="#EC9922"/>
</svg>
