<svg width="80" height="80" viewBox="0 0 80 80" fill="none" xmlns="http://www.w3.org/2000/svg">
<path d="M38.4367 13.4167C22.6 14.2367 10 27.2934 10 43.3334C10 59.9034 23.43 73.3334 40 73.3334C56.57 73.3334 70 59.9034 70 43.3334C70 34.4934 66.16 26.5734 60.0767 21.0967" stroke="#E5E5E5" stroke-width="1.5" stroke-linecap="round" stroke-linejoin="round"/>
<path d="M50.2665 53.2H53.6665" stroke="#E5E5E5" stroke-width="1.5" stroke-linecap="round" stroke-linejoin="round"/>
<path d="M50.2665 48.2H55.2665" stroke="#E5E5E5" stroke-width="1.5" stroke-linecap="round" stroke-linejoin="round"/>
<path d="M30.6 43.2H60.6" stroke="#E5E5E5" stroke-width="1.5" stroke-linecap="round" stroke-linejoin="round"/>
<path d="M34.5133 28.2C32.3517 28.2 30.6 29.9517 30.6 32.1133V43.2C30.5333 44.1333 31.52 46.88 36 50.4C40.48 53.92 40.3885 57.0667 39.7828 58.2H53.6001C53.4667 57.4667 53.3601 55.36 54.0001 52.8C54.6401 50.24 58.6667 47.7333 60.6 46.8V32.1133C60.6 29.9517 58.8467 28.2 56.6867 28.2H55.2001C53.7334 30 50.6401 33.52 50.0001 33.2C49.3601 32.88 46.2667 29.7333 44.8001 28.2H34.5133Z" stroke="#E5E5E5" stroke-width="1.5" stroke-linecap="round" stroke-linejoin="round"/>
<path d="M50.6 35.7H55.6" stroke="#E5E5E5" stroke-width="1.5" stroke-linecap="round" stroke-linejoin="round"/>
<path d="M35.6 35.7H40.6" stroke="#E5E5E5" stroke-width="1.5" stroke-linecap="round" stroke-linejoin="round"/>
<path d="M38.1 38.2V33.2" stroke="#E5E5E5" stroke-width="1.5" stroke-linecap="round" stroke-linejoin="round"/>
<path d="M36.3336 48.9333L39.867 52.4667" stroke="#E5E5E5" stroke-width="1.5" stroke-linecap="round" stroke-linejoin="round"/>
<path d="M37.9336 50.8667L39.8669 48.9333" stroke="#E5E5E5" stroke-width="1.5" stroke-linecap="round" stroke-linejoin="round"/>
<path d="M45.6 29V58.2" stroke="#E5E5E5" stroke-width="1.5" stroke-linecap="round" stroke-linejoin="round"/>
<path d="M26.6679 70.2267V69.99C26.6679 63.3234 40.0012 64.11 40.0012 56.6567C40.0012 49.99 30.0012 49.99 30.0012 39.9901C30.0012 30.5634 23.3346 29.9901 13.3346 29.9901H13.1312" stroke="#026FFF" stroke-width="1.5" stroke-linecap="round" stroke-linejoin="round"/>
<path d="M59.9009 65.7334C59.3976 65.5401 58.8976 65.3367 58.4209 65.0567C53.6343 62.2567 52.0276 56.1101 54.8243 51.3234C57.6243 46.5367 63.7709 44.9301 68.5576 47.7267C68.9109 47.9334 69.2076 48.1934 69.5276 48.4334" stroke="#026FFF" stroke-width="1.5" stroke-linecap="round" stroke-linejoin="round"/>
<path d="M49.9999 33.3334C49.9999 33.3334 61.6732 23.75 61.6732 15C61.6732 8.55671 56.4465 3.33337 49.9999 3.33337C43.5532 3.33337 38.3265 8.55671 38.3265 15C38.3265 23.75 49.9999 33.3334 49.9999 33.3334Z" stroke="#026FFF" stroke-width="1.5" stroke-linecap="round" stroke-linejoin="round"/>
<path d="M50.003 14.4999C50.463 14.4999 50.8364 14.8733 50.833 15.3333C50.833 15.7933 50.4597 16.1666 49.9997 16.1666C49.5397 16.1666 49.1664 15.7933 49.1664 15.3333C49.1664 14.8733 49.5397 14.4999 50.003 14.4999Z" stroke="#026FFF" stroke-width="1.5" stroke-linecap="round" stroke-linejoin="round"/>
</svg>
