<svg width="20" height="16" viewBox="0 0 20 16" fill="none" xmlns="http://www.w3.org/2000/svg">
<path d="M7.49575 14.505C8.31475 14.822 9.15775 15 9.99975 15C13.4948 15 16.9898 11.967 18.8818 8.468C19.0388 8.177 19.0388 7.824 18.8818 7.533C18.3838 6.612 17.7698 5.73 17.0788 4.921M2.99975 15L16.9998 1M7.77275 10.227C6.54275 8.997 6.54275 7.002 7.77275 5.772C9.00275 4.542 10.9978 4.542 12.2278 5.772M15.0438 2.956C13.4968 1.759 11.7478 1 9.99975 1C6.50475 1 3.00975 4.033 1.11775 7.533C0.96075 7.824 0.96075 8.177 1.11775 8.468C2.06375 10.217 3.40975 11.849 4.95575 13.045" stroke="#CACDD1" stroke-width="1.5" stroke-linecap="round" stroke-linejoin="round"/>
</svg>
