<svg width="24" height="24" viewBox="0 0 24 24" fill="none" xmlns="http://www.w3.org/2000/svg">
<path d="M9 15.9H3.9C2.85 15.9 2 15.05 2 14V4.9C2 3.85 2.85 3 3.9 3H19.1C20.15 3 21 3.85 21 4.9V11" stroke="#848E9F" stroke-width="1.5" stroke-linecap="round" stroke-linejoin="round"/>
<path d="M22.489 17.5L20.989 16L19.489 17.5" stroke="#848E9F" stroke-width="1.5" stroke-linecap="round" stroke-linejoin="round"/>
<path d="M20.989 16V19.401C20.989 20.281 20.269 21 19.39 21H17" stroke="#848E9F" stroke-width="1.5" stroke-linecap="round" stroke-linejoin="round"/>
<path d="M12.511 17.5L14.011 19L15.511 17.5" stroke="#848E9F" stroke-width="1.5" stroke-linecap="round" stroke-linejoin="round"/>
<path d="M14.011 19V15.599C14.011 14.719 14.731 14 15.61 14H18" stroke="#848E9F" stroke-width="1.5" stroke-linecap="round" stroke-linejoin="round"/>
<path d="M13.179 7.97139C14.106 8.89839 14.106 10.4024 13.179 11.3304C12.252 12.2574 10.748 12.2574 9.82001 11.3304C8.89301 10.4034 8.89301 8.89939 9.82001 7.97139C10.748 7.04339 12.252 7.04339 13.179 7.97139" stroke="#848E9F" stroke-width="1.5" stroke-linecap="round" stroke-linejoin="round"/>
<path d="M6 13H5" stroke="#848E9F" stroke-width="1.5" stroke-linecap="round" stroke-linejoin="round"/>
<path d="M18 6H17" stroke="#848E9F" stroke-width="1.5" stroke-linecap="round" stroke-linejoin="round"/>
</svg>
