<svg width="24" height="24" viewBox="0 0 24 24" fill="none" xmlns="http://www.w3.org/2000/svg">
<path d="M11.159 15.4271H8.573V12.8411C8.573 12.5761 8.678 12.3211 8.866 12.1341L12.866 8.13407C13.257 7.74307 13.89 7.74307 14.28 8.13407L15.866 9.72007C16.257 10.1111 16.257 10.7441 15.866 11.1341L11.866 15.1341C11.679 15.3211 11.424 15.4271 11.159 15.4271V15.4271Z" stroke="#848E9F" stroke-width="1.5" stroke-linecap="round" stroke-linejoin="round"/>
<path d="M14 21H10C6.134 21 3 17.866 3 14V10C3 6.134 6.134 3 10 3H14C17.866 3 21 6.134 21 10V14C21 17.866 17.866 21 14 21Z" stroke="#848E9F" stroke-width="1.5" stroke-linecap="round" stroke-linejoin="round"/>
</svg>
