<svg width="24" height="24" viewBox="0 0 24 24" fill="none" xmlns="http://www.w3.org/2000/svg">
<path d="M5.25699 13.9694L3.71299 15.5134C2.32599 12.2354 2.96199 8.30537 5.63399 5.63437C8.87999 2.38837 13.985 2.14537 17.516 4.89337" stroke="#848E9F" stroke-width="1.5" stroke-linecap="round" stroke-linejoin="round"/>
<path d="M6.48399 19.1083C10.017 21.8553 15.121 21.6143 18.366 18.3673C21.037 15.6963 21.674 11.7663 20.287 8.48828L18.743 10.0323" stroke="#848E9F" stroke-width="1.5" stroke-linecap="round" stroke-linejoin="round"/>
<path d="M9.89899 14.1004L14.099 9.90039" stroke="#848E9F" stroke-width="1.5" stroke-linecap="round" stroke-linejoin="round"/>
<path d="M14.297 13.9465C14.395 14.0445 14.395 14.2025 14.297 14.2995C14.199 14.3975 14.041 14.3975 13.944 14.2995C13.846 14.2015 13.846 14.0435 13.944 13.9465C14.04 13.8485 14.199 13.8485 14.297 13.9465Z" stroke="#848E9F" stroke-width="1.5" stroke-linecap="round" stroke-linejoin="round"/>
<path d="M10.057 9.70068C10.155 9.79868 10.155 9.95768 10.057 10.0547C9.959 10.1527 9.8 10.1527 9.703 10.0547C9.605 9.95668 9.605 9.79768 9.703 9.70068C9.801 9.60368 9.959 9.60368 10.057 9.70068Z" stroke="#848E9F" stroke-width="1.5" stroke-linecap="round" stroke-linejoin="round"/>
</svg>
