<svg width="24" height="24" viewBox="0 0 24 24" fill="none" xmlns="http://www.w3.org/2000/svg">
<path d="M7 2H17.0044C19.7633 2 22 4.23667 22 6.99556V17.0056C22 19.7633 19.7633 22 17.0044 22H6.99556C4.23667 22 2 19.7633 2 17.0044V7C2 4.23889 4.23889 2 7 2Z" stroke="#848E9F" stroke-width="1.5" stroke-linecap="round" stroke-linejoin="round"/>
<path d="M9.88222 15.8789L8.98 12.9078C8.97889 12.9067 6.39556 12.1011 6.39556 12.1011C6.1 12.0089 6.08556 11.5944 6.37556 11.4833L16.21 7.69C16.5733 7.55 16.9478 7.86889 16.8678 8.25L15.2156 16.0367C15.1189 16.4933 14.5822 16.6967 14.2078 16.4189L11.8611 14.6856L10.4778 16.0322C10.2833 16.2189 9.96111 16.1356 9.88222 15.8789Z" stroke="#848E9F" stroke-width="1.5" stroke-linecap="round" stroke-linejoin="round"/>
</svg>
