<svg width="24" height="24" viewBox="0 0 24 24" fill="none" xmlns="http://www.w3.org/2000/svg">
<path fill-rule="evenodd" clip-rule="evenodd" d="M6.99556 2H17.0056C19.7633 2 22 4.23556 22 6.99556V17.0056C22 19.7633 19.7644 22 17.0044 22H6.99556C4.23667 22 2 19.7644 2 17.0044V6.99556C2 4.23667 4.23556 2 6.99556 2Z" stroke="#848E9F" stroke-width="1.5" stroke-linecap="round" stroke-linejoin="round"/>
<path d="M17.4989 6.12556C17.2922 6.12667 17.1244 6.29444 17.1244 6.50111C17.1244 6.70778 17.2933 6.87556 17.5 6.87556C17.7067 6.87556 17.8744 6.70778 17.8744 6.50111C17.8756 6.29333 17.7067 6.12556 17.4989 6.12556Z" stroke="#848E9F" stroke-width="1.5" stroke-linecap="round" stroke-linejoin="round"/>
<path fill-rule="evenodd" clip-rule="evenodd" d="M14.8284 9.17158C16.3905 10.7337 16.3905 13.2663 14.8284 14.8284C13.2663 16.3905 10.7337 16.3905 9.17159 14.8284C7.60949 13.2663 7.60949 10.7337 9.17159 9.17158C10.7337 7.60948 13.2663 7.60948 14.8284 9.17158Z" stroke="#848E9F" stroke-width="1.5" stroke-linecap="round" stroke-linejoin="round"/>
</svg>
