<svg width="20" height="20" viewBox="0 0 20 20" fill="none" xmlns="http://www.w3.org/2000/svg">
<path d="M15 1.00001H16C17.657 1.00001 19 2.34301 19 4.00001V16C19 17.657 17.657 19 16 19H4C2.343 19 1 17.657 1 16V14.986M8 3.63701C4.175 3.63701 1 5.58901 1 10.148V11.063C2.294 8.06901 4.98 7.76401 8 7.76401V9.65001C8 10.301 8.772 10.643 9.254 10.206L13.754 6.12701C14.09 5.82301 14.081 5.29301 13.736 4.99901L9.236 1.18001C8.748 0.766009 8 1.11201 8 1.75101V3.63701Z" stroke="white" stroke-width="1.5" stroke-linecap="round" stroke-linejoin="round"/>
</svg>
