<svg width="24" height="24" viewBox="0 0 24 24" fill="none" xmlns="http://www.w3.org/2000/svg">
<path d="M10.5378 9.38222H11.8878V16.1333H11.8856C10.4956 16.1333 8.96778 15.2889 7.88444 13.7333C6.25778 11.4533 5.81333 9.73 5.81333 9.38333M17.1756 16.1333C17.1756 16.1333 16.6844 15.0978 15.6878 13.9589C15.0233 13.18 14.0878 12.7589 13.2367 12.7589C14.0878 12.7589 15.0233 12.3367 15.6878 11.5589C16.6844 10.4189 17.1756 9.38333 17.1756 9.38333M13.2367 12.76H11.8856M7 2H17.0044C19.7633 2 22 4.23667 22 6.99556V17.0056C22 19.7633 19.7633 22 17.0044 22H6.99556C4.23667 22 2 19.7633 2 17.0044V7C2 4.23889 4.23889 2 7 2Z" stroke="#848E9F" stroke-width="1.5" stroke-linecap="round" stroke-linejoin="round"/>
</svg>
