<svg width="24" height="24" viewBox="0 0 24 24" fill="none" xmlns="http://www.w3.org/2000/svg">
<path d="M7 2H17.0044C19.7633 2 22 4.23667 22 6.99556V17.0056C22 19.7633 19.7633 22 17.0044 22H6.99556C4.23667 22 2 19.7633 2 17.0044V7C2 4.23889 4.23889 2 7 2Z" stroke="#848E9F" stroke-width="1.5" stroke-linecap="round" stroke-linejoin="round"/>
<path d="M5.61111 15.7222C5.63222 15.7189 7.61111 15.0556 7.61111 15.0556C5.38444 12.8044 5.21556 9.47 6.94444 7.05556C7.76444 8.58111 9.29556 9.98778 10.9444 10.3889C11.0078 8.46333 12.3144 7.05556 14.2778 7.05556C15.6144 7.05556 16.4011 7.56556 16.9444 8.38889H18.9444L17.6111 10.3889" stroke="#848E9F" stroke-width="1.5" stroke-linecap="round" stroke-linejoin="round"/>
</svg>
