<svg width="108" height="78" viewBox="0 0 108 78" fill="none" xmlns="http://www.w3.org/2000/svg">
<path d="M0.506973 5.43482C0.194835 5.70711 0.162532 6.18089 0.434823 6.49303L4.87206 11.5796C5.14435 11.8918 5.61813 11.9241 5.93027 11.6518C6.2424 11.3795 6.27471 10.9057 6.00242 10.5936L2.0582 6.07215L6.57962 2.12794C6.89176 1.85565 6.92406 1.38187 6.65177 1.06973C6.37948 0.757596 5.9057 0.725293 5.59356 0.997584L0.506973 5.43482ZM107.723 76.7998C101.645 54.852 71.7942 10.0751 1.05102 5.25174L0.948982 6.74826C71.0058 11.5249 100.355 55.8147 106.277 77.2002L107.723 76.7998Z" fill="white"/>
</svg>
