<svg width="90" height="90" viewBox="0 0 90 90" fill="none" xmlns="http://www.w3.org/2000/svg">
<circle cx="45" cy="45" r="45" fill="white"/>
<mask id="mask0" mask-type="alpha" maskUnits="userSpaceOnUse" x="0" y="0" width="90" height="90">
<circle cx="45" cy="45" r="45" fill="#C4C4C4"/>
</mask>
<g mask="url(#mask0)">
<path d="M66.8707 51.3516L66.4067 55.5264L66.0938 58.3389H26.7188L26.4059 55.5264L25.9418 51.3516C25.5293 47.636 26.0864 43.877 27.559 40.4408C28.8561 37.4125 29.4453 34.1282 29.2817 30.8379L29.0373 25.9723C28.9198 23.6184 29.282 21.2653 30.1019 19.0557C30.9217 16.8462 32.1821 14.8263 33.8065 13.1188C35.4309 11.4113 37.3855 10.0517 39.5514 9.12278C41.7173 8.19381 44.0495 7.71478 46.4063 7.71478C48.763 7.71478 51.0952 8.19381 53.2611 9.12278C55.4271 10.0517 57.3816 11.4113 59.006 13.1188C60.6304 14.8263 61.8908 16.8462 62.7107 19.0557C63.5305 21.2653 63.8927 23.6184 63.7752 25.9723L63.5309 30.8379C63.3673 34.1282 63.9564 37.4125 65.2535 40.4408C66.7266 43.8768 67.2838 47.636 66.8707 51.3516Z" fill="#454B69"/>
<path opacity="0.1" d="M66.8706 51.3516L66.4066 55.5264H50.6249V40.0577L53.4374 34.4327V23.1827C53.4357 19.7926 52.3213 16.4968 50.2656 13.8012C48.2098 11.1056 45.3262 9.15913 42.0574 8.26061C44.6984 7.58269 47.4618 7.53457 50.1248 8.12014C52.7878 8.70571 55.2761 9.90858 57.3892 11.6319C59.5022 13.3551 61.181 15.5506 62.2902 18.0415C63.3994 20.5323 63.908 23.2489 63.7751 25.9723L63.5308 30.838C63.3672 34.1283 63.9564 37.4126 65.2535 40.4409C66.7265 43.8769 67.2837 47.6361 66.8706 51.3516Z" fill="black"/>
<path d="M54 52.7139C53.7414 52.7141 53.4854 52.6632 53.2464 52.5643C53.0075 52.4655 52.7904 52.3204 52.6076 52.1376C52.4247 51.9548 52.2797 51.7377 52.1808 51.4987C52.0819 51.2598 52.0311 51.0038 52.0312 50.7452V41.4639H40.7812V50.7452C40.7814 51.0038 40.7306 51.2598 40.6317 51.4987C40.5328 51.7377 40.3878 51.9548 40.2049 52.1376C40.0221 52.3204 39.805 52.4655 39.5661 52.5643C39.3272 52.6632 39.0711 52.7141 38.8125 52.7139H36.5625V61.1514H56.25V52.7139H54Z" fill="#FFDCAD"/>
<path d="M47.2542 48.4952C48.9955 48.4761 50.6791 47.8685 52.0312 46.7713V41.4639H40.7812V46.7708C42.1334 47.8682 43.817 48.4759 45.5583 48.4952H47.2542Z" fill="#FEB784"/>
<path d="M59.0625 25.9952V33.0264C59.0625 36.3831 57.7291 39.6022 55.3556 41.9757C52.9821 44.3493 49.7629 45.6827 46.4062 45.6827C43.0496 45.6827 39.8304 44.3493 37.4569 41.9757C35.0834 39.6022 33.75 36.3831 33.75 33.0264V25.9952C36.5151 24.1526 38.751 21.6198 40.2363 18.6475L40.7812 17.5577L41.5793 18.2239C45.0734 21.1355 49.1011 23.3386 53.4375 24.7102C55.274 25.2923 57.1554 25.7221 59.0625 25.9952Z" fill="#FFDCAD"/>
<path d="M59.0626 25.995V33.0263C59.0619 35.9639 58.0399 38.8099 56.1716 41.0768C54.3033 43.3437 51.7049 44.8905 48.8215 45.4523C50.2856 44.0151 51.4481 42.3001 52.2407 40.4079C53.0334 38.5156 53.4403 36.4841 53.4376 34.4325V24.7101C55.2741 25.2922 57.1554 25.722 59.0626 25.995Z" fill="#FEC093"/>
<path d="M40.0781 31.6202C39.6609 31.6202 39.2531 31.4965 38.9062 31.2647C38.5593 31.0329 38.289 30.7035 38.1293 30.318C37.9697 29.9326 37.9279 29.5085 38.0093 29.0993C38.0907 28.6901 38.2916 28.3143 38.5866 28.0193C38.8816 27.7243 39.2574 27.5234 39.6666 27.442C40.0758 27.3606 40.4999 27.4023 40.8853 27.562C41.2708 27.7217 41.6002 27.992 41.832 28.3389C42.0638 28.6858 42.1875 29.0936 42.1875 29.5108C42.1869 30.0701 41.9645 30.6062 41.569 31.0017C41.1736 31.3971 40.6374 31.6196 40.0781 31.6202Z" fill="#7A432A"/>
<path d="M52.7344 31.6202C52.3172 31.6202 51.9094 31.4965 51.5625 31.2647C51.2156 31.0329 50.9452 30.7035 50.7856 30.318C50.6259 29.9326 50.5841 29.5085 50.6655 29.0993C50.7469 28.6901 50.9478 28.3143 51.2428 28.0193C51.5378 27.7243 51.9137 27.5234 52.3229 27.442C52.732 27.3606 53.1562 27.4023 53.5416 27.562C53.927 27.7217 54.2565 27.992 54.4882 28.3389C54.72 28.6858 54.8437 29.0936 54.8437 29.5108C54.8431 30.0701 54.6207 30.6062 54.2253 31.0017C53.8298 31.3971 53.2936 31.6196 52.7344 31.6202Z" fill="#7A432A"/>
<path d="M46.4062 42.1466C45.2878 42.1453 44.2154 41.7004 43.4245 40.9095C42.9692 40.4543 42.6286 39.9057 42.4213 39.3088C42.1664 38.5749 42.8177 37.9278 43.5945 37.9278H43.8956C44.5055 37.9278 44.9806 38.4909 45.4119 38.9222C45.6756 39.1859 46.0333 39.3341 46.4062 39.3341C46.7792 39.3341 47.1369 39.1859 47.4006 38.9222C47.8319 38.4909 48.307 37.9278 48.9169 37.9278H49.218C49.9948 37.9278 50.6461 38.5749 50.3912 39.3088C50.1839 39.9057 49.8433 40.4543 49.388 40.9095C48.5971 41.7004 47.5247 42.1453 46.4062 42.1466Z" fill="#C06100"/>
<path d="M75.0534 89.2184C74.0557 89.3846 73.0315 89.1911 72.1633 88.6725C71.295 88.1538 70.6392 87.3437 70.3125 86.3866L61.0243 68.9614C61.6156 70.7294 61.7458 72.6192 61.4025 74.4517C61.0592 76.2841 60.2538 77.9986 59.0625 79.4327V90.6827H33.75V79.4327C32.5415 77.982 31.7279 76.244 31.3879 74.3868C31.0479 72.5295 31.1931 70.616 31.8094 68.8313L22.37 86.3866C22.0076 87.452 21.2391 88.3312 20.2316 88.8326C19.2241 89.3341 18.0594 89.4172 16.9909 89.0639C15.9224 88.7106 15.0368 87.9495 14.5269 86.9463C14.0169 85.9431 13.9239 84.7791 14.2682 83.7077L24.5936 58.0067C25.221 56.4436 26.302 55.1042 27.6974 54.1609C29.0928 53.2176 30.7386 52.7136 32.4229 52.7139H37.9688L46.4063 68.1827L54.8438 52.7139H60.3686C62.0576 52.7151 63.7075 53.2227 65.1051 54.1713C66.5026 55.1198 67.5836 56.4656 68.2084 58.0348L78.416 83.7077C78.6025 84.2909 78.6613 84.9075 78.5885 85.5155C78.5156 86.1235 78.3128 86.7087 77.9939 87.2314C77.6749 87.7541 77.2472 88.2021 76.7399 88.5449C76.2325 88.8878 75.6573 89.1175 75.0534 89.2184Z" fill="#007AFF"/>
<path d="M13.0482 84.1805L14.0625 70.9952H22.5V84.5435C22.5 85.7988 22.0013 87.0026 21.1137 87.8902C20.2262 88.7778 19.0223 89.2764 17.7671 89.2764C17.115 89.2764 16.4699 89.1417 15.8723 88.8806C15.2747 88.6195 14.7375 88.2378 14.2945 87.7593C13.8514 87.2808 13.512 86.7159 13.2975 86.1001C13.0831 85.4842 12.9982 84.8307 13.0482 84.1805Z" fill="#007AFF"/>
<path d="M17.3709 50.4815C16.9735 50.5809 16.6034 50.7682 16.2881 51.0297C15.9728 51.2912 15.7202 51.6201 15.5491 51.9923C15.3779 52.3645 15.2925 52.7703 15.2991 53.1799C15.3058 53.5895 15.4044 53.9923 15.5876 54.3587L16.875 56.9327H11.8355C10.5257 56.9327 9.23379 56.6278 8.06221 56.042L6.66088 55.3414C6.40361 55.2127 6.11773 55.152 5.83039 55.1649C5.54305 55.1779 5.26378 55.264 5.0191 55.4152C4.77443 55.5664 4.57246 55.7777 4.43238 56.0289C4.29231 56.2801 4.21877 56.563 4.21875 56.8506V60.8194C4.21875 61.3417 4.36421 61.8537 4.63882 62.298C4.91343 62.7424 5.30634 63.1014 5.77354 63.335L8.06221 64.4795C9.23379 65.0653 10.5257 65.3702 11.8355 65.3702H22.5V56.9327L20.5743 52.1186C20.3285 51.5045 19.8685 51.0004 19.2796 50.6994C18.6906 50.3984 18.0125 50.321 17.3709 50.4815Z" fill="#FFDCAD"/>
<path opacity="0.1" d="M14.0625 65.3702H22.5V70.9952H14.0625V65.3702Z" fill="#007AFF"/>
<path opacity="0.08" d="M75.0534 89.218C74.0558 89.3842 73.0316 89.1907 72.1633 88.6721C71.2951 88.1534 70.6392 87.3434 70.3126 86.3862L61.0243 68.961C61.6157 70.7291 61.7459 72.6188 61.4026 74.4513C61.0593 76.2837 60.2538 77.9982 59.0626 79.4323V90.6823H34.2124C45.8192 83.1026 55.612 73.4839 63.8315 53.4589C65.83 54.3568 67.4 55.9981 68.2085 58.0344L78.4161 83.7073C78.6025 84.2906 78.6613 84.9071 78.5885 85.5151C78.5157 86.1231 78.3129 86.7083 77.9939 87.231C77.6749 87.7537 77.2473 88.2017 76.7399 88.5446C76.2325 88.8874 75.6574 89.1171 75.0534 89.218Z" fill="black"/>
<path d="M66.0938 85.0577L52.0312 82.2452V62.5577L66.0938 65.3702V85.0577Z" fill="#494F71"/>
<path d="M71.7188 85.0577L85.7812 82.2452V62.5577L71.7188 65.3702V85.0577Z" fill="#3F3D56"/>
<path d="M66.0938 65.3702H71.7188V85.0577H66.0938V65.3702Z" fill="#454B69"/>
<path d="M68.9062 65.3702C68.9062 64.1913 68.4881 63.0507 67.7261 62.1512C66.9641 61.2517 65.9078 60.6516 64.745 60.4578L52.0312 58.3389V62.5577L66.0938 65.3702H68.9062C68.9063 64.1913 69.3244 63.0507 70.0864 62.1512C70.8484 61.2517 71.9047 60.6516 73.0675 60.4578L85.7812 58.3389V62.5577L71.7188 65.3702H68.9062Z" fill="#FBE19F"/>
<path d="M83.1999 84.9236L77.5749 85.8613C77.3735 85.8948 77.1671 85.8841 76.9702 85.8299C76.7733 85.7756 76.5906 85.6791 76.4348 85.5471C76.279 85.4151 76.1537 85.2508 76.0679 85.0655C75.982 84.8802 75.9375 84.6784 75.9375 84.4742V79.2473C75.9375 78.814 76.0911 78.3948 76.3712 78.0642C76.6512 77.7335 77.0394 77.513 77.4668 77.4417L82.2431 76.6456C82.5054 76.6018 82.7741 76.6157 83.0304 76.6863C83.2868 76.7569 83.5247 76.8825 83.7276 77.0544C83.9305 77.2262 84.0935 77.4402 84.2053 77.6815C84.3171 77.9227 84.375 78.1855 84.375 78.4514V83.5365C84.375 83.8694 84.2569 84.1915 84.0417 84.4455C83.8266 84.6995 83.5283 84.8689 83.1999 84.9236Z" fill="#FEC9A3"/>
</g>
</svg>
