<svg width="16" height="16" viewBox="0 0 16 16" fill="none" xmlns="http://www.w3.org/2000/svg">
<path d="M12.6076 6.50356C12.7608 6.97489 12.8456 7.47733 12.8456 8M9.49644 3.39244C9.02511 3.23922 8.52267 3.15367 8 3.15367C5.32367 3.15367 3.15367 5.32367 3.15367 8M8.82444 7.17556L11.43 4.57M15 8C15 11.866 11.866 15 8 15C4.13401 15 1 11.866 1 8C1 4.13401 4.13401 1 8 1C11.866 1 15 4.13401 15 8ZM9.16667 8C9.16667 8.64433 8.64433 9.16667 8 9.16667C7.35567 9.16667 6.83333 8.64433 6.83333 8C6.83333 7.35567 7.35567 6.83333 8 6.83333C8.64433 6.83333 9.16667 7.35567 9.16667 8Z" stroke="#848E9F" stroke-width="1.5" stroke-linecap="round" stroke-linejoin="round"/>
</svg>
