<svg width="20" height="20" viewBox="0 0 20 20" fill="none" xmlns="http://www.w3.org/2000/svg">
<path d="M9.89899 10.2545V10.0467C9.89899 9.36617 10.318 8.99778 10.738 8.71471C11.148 8.43766 11.559 8.0763 11.559 7.40978C11.559 6.4893 10.816 5.74449 9.89999 5.74449C8.98399 5.74449 8.23999 6.4883 8.23999 7.40877M1 9.21303C1 11.9062 2.42 14.2772 4.599 15.7718C4.598 16.63 4.6 17.7864 4.6 19L8.131 17.2464C8.735 17.3628 9.359 17.4261 10 17.4261C14.952 17.4261 19 13.7692 19 9.21303C19 4.65682 14.952 1 10 1C5.048 1 1 4.65682 1 9.21303ZM9.89804 12.6024C9.81504 12.6024 9.74803 12.6697 9.74903 12.753C9.74903 12.8363 9.81604 12.9036 9.89904 12.9036C9.98204 12.9036 10.049 12.8363 10.049 12.753C10.049 12.6697 9.98304 12.6024 9.89804 12.6024Z" stroke="#848E9F" stroke-width="1.5" stroke-linecap="round" stroke-linejoin="round"/>
</svg>
