<svg width="22" height="18" viewBox="0 0 22 18" fill="none" xmlns="http://www.w3.org/2000/svg">
<path d="M18.119 3V15C18.119 16.105 17.224 17 16.119 17H5.88104C4.77604 17 3.88104 16.105 3.88104 15V3C3.88104 1.895 4.77604 1 5.88104 1H16.12C17.224 1 18.119 1.895 18.119 3Z" stroke="#848E9F" stroke-width="1.5996" stroke-linecap="round" stroke-linejoin="round"/>
<path d="M18.119 3H19.721C20.549 3 21.221 3.672 21.221 4.5V13.5C21.221 14.328 20.549 15 19.721 15H18.119" stroke="#848E9F" stroke-width="1.4685" stroke-linecap="round" stroke-linejoin="round"/>
<path d="M3.88102 15H2.27802C1.45002 15 0.778015 14.328 0.778015 13.5V4.5C0.778015 3.672 1.45002 3 2.27802 3H3.88002" stroke="#848E9F" stroke-width="1.4685" stroke-linecap="round" stroke-linejoin="round"/>
<path d="M10.404 6.83618L13.175 8.47518C13.574 8.71118 13.574 9.28918 13.175 9.52518L10.404 11.1642C9.99701 11.4052 9.48401 11.1112 9.48401 10.6392V7.36118C9.48401 6.88818 9.99801 6.59518 10.404 6.83618V6.83618Z" stroke="#848E9F" stroke-width="1.5" stroke-linecap="round" stroke-linejoin="round"/>
</svg>
