<svg width="24" height="24" viewBox="0 0 24 24" fill="none" xmlns="http://www.w3.org/2000/svg">
<path d="M19.119 6V18C19.119 19.105 18.224 20 17.119 20H6.88098C5.77598 20 4.88098 19.105 4.88098 18V6C4.88098 4.895 5.77598 4 6.88098 4H17.12C18.224 4 19.119 4.895 19.119 6Z" stroke="white" stroke-opacity="0.8" stroke-width="1.5996" stroke-linecap="round" stroke-linejoin="round"/>
<path d="M19.1189 6H20.7209C21.5489 6 22.2209 6.672 22.2209 7.5V16.5C22.2209 17.328 21.5489 18 20.7209 18H19.1189" stroke="white" stroke-opacity="0.8" stroke-width="1.4685" stroke-linecap="round" stroke-linejoin="round"/>
<path d="M4.88095 18H3.27795C2.44995 18 1.77795 17.328 1.77795 16.5V7.5C1.77795 6.672 2.44995 6 3.27795 6H4.87995" stroke="white" stroke-opacity="0.8" stroke-width="1.4685" stroke-linecap="round" stroke-linejoin="round"/>
<path d="M11.404 9.83618L14.175 11.4752C14.574 11.7112 14.574 12.2892 14.175 12.5252L11.404 14.1642C10.997 14.4052 10.484 14.1112 10.484 13.6392V10.3612C10.484 9.88818 10.998 9.59518 11.404 9.83618V9.83618Z" stroke="white" stroke-opacity="0.8" stroke-width="1.5" stroke-linecap="round" stroke-linejoin="round"/>
</svg>
