<svg width="26" height="21" viewBox="0 0 26 21" fill="none" xmlns="http://www.w3.org/2000/svg">
<path d="M25 10.3333H21M21 5H22.3333C23.8067 5 25 6.19333 25 7.66667V17C25 18.4733 23.8067 19.6667 22.3333 19.6667H7.66667C6.19333 19.6667 5 18.4733 5 17V15.6667M3.66667 1H18.3333C19.8067 1 21 2.19333 21 3.66667V13C21 14.4733 19.8067 15.6667 18.3333 15.6667H3.66667C2.19333 15.6667 1 14.4733 1 13V3.66667C1 2.19333 2.19333 1 3.66667 1ZM7.66667 9H6.33333C5.59733 9 5 8.40267 5 7.66667V6.33333C5 5.59733 5.59733 5 6.33333 5H7.66667C8.40267 5 9 5.59733 9 6.33333V7.66667C9 8.40267 8.40267 9 7.66667 9Z" stroke="url(#paint0_linear)" stroke-width="1.5" stroke-linecap="round" stroke-linejoin="round"/>
<defs>
<linearGradient id="paint0_linear" x1="1" y1="1" x2="1" y2="19.6667" gradientUnits="userSpaceOnUse">
<stop stop-color="#5986FB"/>
<stop offset="1" stop-color="#2D4EF5"/>
</linearGradient>
</defs>
</svg>
