<svg width="20" height="20" viewBox="0 0 20 20" fill="none" xmlns="http://www.w3.org/2000/svg">
<path d="M1 4.283V4C1 2.343 2.343 1 4 1H16C17.657 1 19 2.343 19 4V13C19 14.657 17.657 16 16 16H15M1 4.283C1 2.997 2.196 2.045 3.45 2.335L12.675 4.464C14.036 4.778 15 5.99 15 7.387V16M1 4.283V14.152C1 15.549 1.964 16.761 3.325 17.075L11.325 18.922C13.205 19.356 15 17.929 15 16M19 7H15M11.499 11.48C11.361 11.481 11.25 11.593 11.25 11.731C11.25 11.869 11.362 11.981 11.5 11.98C11.638 11.98 11.75 11.868 11.75 11.73C11.75 11.592 11.638 11.48 11.499 11.48Z" stroke="#848E9F" stroke-width="1.5" stroke-linecap="round" stroke-linejoin="round"/>
</svg>
