<svg width="22" height="22" viewBox="0 0 22 22" fill="none" xmlns="http://www.w3.org/2000/svg">
<path d="M8.58609 13.4012C10.8304 15.6369 13.6732 17.0607 15.3647 15.3845L15.7747 14.9762C16.3218 14.4326 16.2453 13.532 15.6102 13.093C15.2105 12.8155 14.7811 12.5176 14.3059 12.1855C13.8148 11.8421 13.1409 11.8955 12.7149 12.3163L12.2512 12.7746C11.6767 12.4118 11.1079 11.9467 10.5803 11.4213L10.578 11.4191C10.0503 10.8937 9.58318 10.3273 9.21883 9.75533L9.67912 9.29362C10.1028 8.86945 10.1554 8.1985 9.81046 7.7095C9.47582 7.23642 9.17657 6.80884 8.89903 6.41081C8.45817 5.77967 7.55359 5.70347 7.00765 6.24706L6.59762 6.65531C4.91411 8.33951 6.34407 11.1689 8.58837 13.4046M18.0864 3.90669C16.2064 2.03372 13.7063 1.00114 11.0428 1C5.55257 1 1.08566 5.44533 1.08452 10.9096C1.08223 12.6484 1.54023 14.3576 2.41283 15.8644L1 21L6.27897 19.6217C7.73976 20.4132 9.37531 20.8283 11.0383 20.8283H11.0428C16.5308 20.8283 20.9977 16.3818 21 10.9176C21.0011 8.27014 19.9664 5.7808 18.0864 3.90669Z" stroke="white" stroke-width="1.5" stroke-linecap="round" stroke-linejoin="round"/>
</svg>
