<svg width="290" height="79" viewBox="0 0 290 79" fill="none" xmlns="http://www.w3.org/2000/svg">
<path d="M186.612 58.2706V58.3137C186.099 58.3137 185.586 58.3156 185.072 58.3137C183.367 58.306 183.323 58.3156 183.713 59.9109C184.333 62.4417 185.499 64.7006 187.386 66.5722C187.809 66.9921 188.299 67.036 188.789 66.7557C190.951 65.5224 192.886 64.001 194.575 62.1941C195.216 61.5062 195.821 60.7732 196.355 60.0037C196.774 59.4028 196.581 59.0963 195.844 58.997C194.83 58.8611 193.818 58.7239 192.803 58.6045C191.766 58.4815 190.729 58.3386 189.687 58.2825C188.665 58.2275 187.638 58.2706 186.612 58.2706ZM177.113 69.8098C177.122 69.7496 177.131 69.6883 177.14 69.6281C177.7 69.6281 178.26 69.6451 178.818 69.6177C178.983 69.6092 179.212 69.5126 179.28 69.3883C179.333 69.2904 179.216 69.0585 179.114 68.9343C177.179 66.5755 175.839 63.9168 175 61.0195C174.488 59.2537 174.528 59.2296 172.631 59.4085C168.695 59.7796 164.759 60.1644 160.823 60.5453C160.051 60.6197 159.955 60.8066 160.408 61.4206C162.113 63.7253 163.987 65.8641 166.729 67.0373C168.349 67.731 169.965 68.4941 171.661 68.9415C173.429 69.4087 175.291 69.5346 177.113 69.8098ZM192.626 9.13468C189.405 8.2888 186.285 7.47014 183.165 6.65037C183.125 6.72092 183.083 6.79074 183.042 6.86129C189.611 11.9953 193.7 18.556 194.808 26.732C195.914 34.8899 193.834 42.2952 188.731 49.0904C189.637 49.0904 190.342 49.1395 191.036 49.0806C192.747 48.933 194.454 48.7448 196.16 48.5573C197.312 48.43 198.457 48.2588 199.61 48.1373C201.045 47.9864 202.484 47.8747 203.92 47.729C206.321 47.4853 208.72 47.226 211.121 46.9777C211.515 46.9379 211.911 46.9288 212.307 46.8948C212.906 46.8425 213.424 46.8433 213.528 47.6429C213.546 47.7832 214.102 47.9871 214.367 47.9393C214.904 47.8421 215.098 48.0027 215.15 48.4965C215.306 49.9481 215.481 51.3977 215.644 52.8485C215.699 53.347 215.724 53.8494 215.791 54.3466C215.863 54.8678 215.729 55.1467 215.122 55.2048C213.223 55.3871 211.331 55.6602 209.43 55.8144C208.607 55.8809 208.201 56.1853 207.999 56.9759C207.267 59.8377 205.985 62.4698 204.311 64.9136C201.272 69.3544 197.298 72.7624 192.402 75.1389C189.584 76.5083 186.613 77.4351 183.507 77.8682C181.814 78.1047 180.081 78.2491 178.375 78.1884C173.672 78.023 169.177 76.9675 165.006 74.7575C161.102 72.6892 157.584 70.1225 154.717 66.7903C152.22 63.8905 150.509 60.5595 149.533 56.881C149.27 55.8902 149.064 54.8828 148.803 53.8905C148.684 53.4346 148.857 53.2581 149.298 53.2053C150.151 53.1033 151 52.9544 151.855 52.8741C154.241 52.65 156.63 52.4737 159.013 52.2358C161.349 52.0019 163.678 51.7145 166.011 51.4565C166.659 51.384 167.309 51.2906 167.958 51.2769C169.963 51.2364 171.796 50.5805 173.523 49.6861C175.015 48.9154 176.524 48.0941 177.818 47.0509C179.485 45.7091 180.93 44.1146 182.152 42.3397C184.165 39.4132 185.444 36.1872 186.021 32.7387C186.293 31.1186 186.031 29.4183 186.105 27.759C186.162 26.4852 185.851 25.2962 185.528 24.0903C185.053 22.318 184.579 20.5477 183.589 18.9669C182.911 17.8844 182.263 16.7746 181.499 15.7515C178.429 11.651 174.281 9.39669 169.107 8.99875C168.35 8.94061 167.572 9.06672 166.811 9.16412C166.369 9.22023 166.205 9.08839 166.206 8.66897C166.208 6.24595 166.212 3.82368 166.197 1.40141C166.193 0.762001 166.626 0.803108 167.054 0.803108C170.835 0.801812 174.615 0.801812 178.396 0.803108C182.363 0.803664 186.33 0.804408 190.296 0.806445C190.755 0.806445 191.229 0.762 191.102 1.48381C191.085 1.58436 191.5 1.88749 191.692 1.86916C192.538 1.78824 192.684 2.28136 192.68 2.91317C192.672 4.25625 192.642 5.59987 192.628 6.94294C192.62 7.62179 192.626 8.30047 192.626 9.13468Z" fill="#408F49"/>
<path d="M19.8397 18.4819H19.8484C19.8484 16.5628 19.8545 14.6447 19.8397 12.7261C19.8371 12.4478 19.7244 12.1702 19.6623 11.8919C19.4154 11.9906 19.1413 12.0488 18.9285 12.1951C18.3169 12.6119 17.702 13.0306 17.1402 13.5081C12.9353 17.0866 10.3934 21.5921 9.40338 26.9468C9.3495 27.2401 9.42948 27.5564 9.44611 27.8627C9.78891 27.772 10.1438 27.7125 10.47 27.5838C11.107 27.3316 11.7154 27.0024 12.3611 26.7757C13.09 26.5196 13.8391 26.2969 14.5962 26.1415C15.937 25.8645 17.2843 25.581 18.6438 25.4352C19.4676 25.3463 19.8371 25.1367 19.8384 24.3064C19.8418 22.365 19.8397 20.4235 19.8397 18.4819ZM9.24739 7.82549C8.51566 8.00251 7.78129 8.16973 7.05221 8.35787C6.2872 8.55582 5.51935 8.75377 4.76702 8.99154C4.25745 9.15282 4.02867 8.96857 4.05797 8.49563C4.09995 7.8079 3.78986 7.59347 3.13603 7.71106C2.6312 7.80124 2.49241 7.54458 2.49241 7.08535C2.49374 5.18823 2.47842 3.29186 2.44647 1.39548C2.43834 0.926989 2.58657 0.751999 3.08933 0.757184C5.91169 0.78459 8.73651 0.770887 11.5587 0.793848C12.9306 0.805514 14.3007 0.906805 15.6721 0.895694C16.7381 0.887176 17.8013 0.722003 18.8678 0.7083C21.3639 0.677561 23.8612 0.704225 26.3585 0.68867C26.9462 0.684782 27.3718 0.748112 27.3417 1.49011C27.3357 1.61825 27.7634 1.88934 27.978 1.87823C28.7091 1.83842 28.8799 2.14599 28.8791 2.81299C28.8632 16.0689 28.868 29.3241 28.8672 42.58C28.8672 43.4572 28.7986 43.5305 27.9254 43.5318C26.0344 43.5363 24.1446 43.5251 22.2537 43.5375C21.7473 43.5416 21.3692 43.4737 21.4153 42.8439C21.4465 42.4232 21.1377 42.3893 20.8049 42.3821C19.8545 42.3598 19.8518 42.3547 19.8518 41.4171C19.8503 39.2463 19.859 37.0749 19.8537 34.9049C19.8503 34.0805 19.7629 34.0392 18.9639 34.1986C16.4505 34.6992 14.1579 35.6541 12.2411 37.3566C11.7793 37.7673 11.3566 38.2391 11.009 38.7454C10.8629 38.9571 10.8515 39.3731 10.9597 39.622C12.4385 43.0222 14.5909 45.9567 17.5519 48.256C19.2447 49.5698 21.2599 50.3177 23.3176 50.9344C23.7398 51.0612 24.2134 51.116 24.3314 51.7228C24.3668 51.9019 24.8591 52.058 25.1632 52.111C25.8255 52.2265 25.9997 52.5368 25.8408 53.1672C25.36 55.0715 24.917 56.9842 24.4655 58.895C24.3776 59.2674 24.2288 59.4274 23.7812 59.3202C19.8165 58.3763 16.2578 56.619 13.1127 54.0994C11.2964 52.6441 9.50284 51.1356 7.87658 49.4835C5.56549 47.1331 3.83184 44.3699 2.52305 41.3584C1.45797 38.908 0.696746 36.3668 0.366616 33.7335C0.0864035 31.5066 -0.224442 29.2685 0.231802 27.0063C0.534704 25.5136 0.532059 23.9531 0.919668 22.4865C1.38385 20.7292 2.03882 19.0078 2.75183 17.3277C4.08066 14.1979 6.10909 11.4981 8.40033 8.98228C8.69983 8.65378 9.09406 8.40879 9.44423 8.12528C9.37805 8.02473 9.31338 7.92548 9.24739 7.82549Z" fill="#408F49"/>
<path d="M55.8792 9.63631C54.7332 9.78464 53.5613 9.83223 52.4467 10.1028C50.5457 10.5639 49.135 11.6038 48.4819 13.5518C47.7001 15.8854 47.8175 18.2188 48.3271 20.5398C48.7846 22.6204 49.3804 24.6768 50.0074 26.7176C50.6217 28.7186 51.6316 30.5157 53.1637 32.0195C54.882 33.7055 57.7182 33.3572 59.171 31.4856C61.0285 29.0895 62.0637 26.3328 62.797 23.4329C63.5332 20.5235 64.0462 17.5994 63.5554 14.6088C63.2163 12.5491 62.1392 11.0283 60.0086 10.2855C58.6547 9.81334 57.2939 9.72705 55.8792 9.63631ZM69.8626 33.5833H75.5497C75.447 34.1059 75.389 34.5462 75.2723 34.9708C74.6419 37.2499 73.9815 39.5215 73.3653 41.8039C73.0903 42.8217 73.0856 42.8641 72.0277 42.8641C66.4515 42.8648 60.8752 42.8661 55.2995 42.8635C52.2538 42.8622 49.4838 41.9939 47.0145 40.2575C45.9598 39.5169 44.8439 38.8054 43.9715 37.8849C42.8909 36.7465 41.9718 35.4437 41.092 34.1412C39.2103 31.3577 38.1424 28.2253 37.3139 25.0225C36.969 23.689 36.8417 22.2937 36.6929 20.9194C36.5328 19.4528 36.3454 17.9731 36.3828 16.5039C36.4589 13.6087 36.7837 10.7324 38.1878 8.10381C39.5497 5.55544 41.5108 3.59369 44.1517 2.27414C46.3514 1.17531 48.6859 0.518124 51.1086 0.205179C52.5541 0.0177821 54.0315 0.0490803 55.4971 0.0237113C57.7976 -0.0175826 60.1089 -0.0638781 62.3693 0.438501C65.7105 1.17994 68.9221 2.25118 71.3261 4.80603C73.1357 6.73 74.2437 9.01506 74.8179 11.5994C75.3082 13.8074 75.457 16.0211 75.3103 18.2442C75.2029 19.8859 74.8633 21.5169 74.5591 23.1404C73.9688 26.2904 72.6349 29.1556 70.9506 31.8764C70.7832 32.1482 70.5771 32.3971 70.403 32.6656C70.2428 32.9137 70.1022 33.1737 69.8626 33.5833Z" fill="#408F49"/>
<path d="M229.849 0.87033C229.651 1.18383 229.493 1.43474 229.335 1.68621C229.706 1.7588 230.075 1.85675 230.45 1.89657C230.788 1.93249 231.135 1.90379 231.665 1.90379C231.433 2.19192 231.331 2.3545 231.195 2.48246C229.849 3.74591 228.48 4.98639 227.153 6.26817C225.826 7.54847 224.548 8.87728 223.23 10.1661C222.859 10.53 222.983 10.7788 223.288 11.0794C225.814 13.5709 227.736 16.4674 229.252 19.6363C230.422 22.0834 231.252 24.639 231.931 27.2566C232.68 30.144 233.102 33.0817 233.242 36.0345C233.364 38.6023 233.226 41.1932 233.037 43.7618C232.897 45.6641 232.642 47.5853 232.166 49.43C231.541 51.8549 230.644 54.2125 229.872 56.6022C229.657 57.2718 229.311 57.3305 228.678 57.0299C227.146 56.3055 225.574 55.6672 224.023 54.9826C223.529 54.7645 223 54.6286 222.739 54.0316C222.635 53.7931 222.163 53.701 221.851 53.5586C221.377 53.3418 221.225 53.1013 221.464 52.5474C222.851 49.332 223.711 45.9698 224 42.4976C224.209 39.9918 224.322 37.4677 224.264 34.9558C224.225 33.2613 223.844 31.5701 223.566 29.8859C222.983 26.3689 221.83 23.03 220.107 19.8957C219.502 18.7951 218.777 17.7536 218.044 16.7281C217.47 15.9265 217.35 15.9474 216.657 16.602C215.449 17.7446 214.251 18.8989 213.032 20.0296C212.594 20.4359 212.416 20.8848 212.417 21.4818C212.434 28.4965 212.429 35.5111 212.428 42.5257C212.428 43.5259 212.425 43.5305 211.429 43.5311C209.54 43.5331 207.65 43.524 205.76 43.5357C205.263 43.539 204.942 43.4331 204.977 42.8557C205.005 42.3885 204.652 42.3526 204.305 42.3919C203.657 42.465 203.436 42.1854 203.444 41.5654C203.469 39.7155 203.47 37.8642 203.452 36.0135C203.438 34.6031 203.354 33.192 203.349 31.781C203.326 26.1402 203.317 20.4987 203.311 14.8584C203.306 10.4713 203.312 6.08337 203.314 1.69676C203.314 0.703671 203.372 0.668491 204.366 0.695156C205.554 0.725339 206.743 0.718671 207.933 0.729781C208.735 0.737744 209.536 0.729225 210.335 0.774963C210.475 0.78274 210.718 1.0231 210.714 1.15124C210.697 1.78935 211.089 1.8862 211.579 1.81879C212.251 1.72806 212.446 2.02397 212.435 2.63338C212.411 4.00404 212.42 5.37508 212.437 6.7463C212.439 6.95221 212.555 7.15534 212.619 7.36033C212.818 7.26626 213.061 7.21275 213.211 7.06905C214.724 5.61691 216.22 4.14903 217.722 2.68449C218.135 2.28266 218.555 1.88805 218.954 1.47326C219.409 1.00162 219.917 0.784037 220.615 0.794592C223.484 0.83496 226.355 0.810147 229.224 0.812739C229.421 0.81348 229.622 0.848665 229.849 0.87033Z" fill="#408F49"/>
<path d="M289.988 27.4094C289.988 32.4826 289.988 37.5551 289.987 42.6278C289.987 43.5279 289.985 43.5298 289.046 43.5305C287.179 43.5318 285.313 43.5259 283.445 43.5331C282.958 43.5351 282.601 43.4605 282.5 42.8681C282.466 42.6669 282.087 42.4245 281.831 42.3756C280.881 42.1934 280.865 42.22 280.875 41.2623C280.905 38.5925 280.976 35.9221 280.97 33.2515C280.961 28.524 280.899 23.7957 280.883 19.0675C280.881 18.4671 280.666 18.2653 280.066 18.271C277.64 18.2914 275.214 18.2888 272.787 18.2718C272.163 18.2671 271.922 18.486 271.924 19.1163C271.942 25.0127 271.862 30.909 271.96 36.8033C272.055 42.6969 273.797 48.1308 277.229 53.0041C277.628 53.5716 277.653 53.876 277.026 54.2916C275.406 55.3674 273.828 56.5074 272.244 57.6369C271.922 57.8662 271.684 57.9112 271.424 57.5682C271.047 57.0679 270.759 56.5139 269.966 56.4265C269.672 56.3937 269.41 55.8548 269.182 55.5158C267.047 52.3513 265.378 48.9519 264.408 45.291C263.752 42.8139 263.1 40.2981 263.09 37.6988C263.042 25.7574 263 13.8152 262.957 1.8725C262.953 0.787932 262.958 0.787931 264.091 0.788672C265.864 0.789227 267.637 0.793858 269.41 0.784784C269.893 0.782192 270.292 0.791267 270.305 1.44456C270.308 1.57641 270.732 1.80584 270.965 1.80973C271.926 1.82806 271.934 1.80843 271.934 2.77004C271.935 4.87214 271.95 6.97499 271.924 9.07709C271.916 9.67094 272.116 9.99964 272.736 10.0139C274.134 10.0467 275.532 10.0937 276.93 10.0904C278.373 10.087 279.816 10.0113 281.26 10.0041C283.172 9.99371 285.086 10.0467 286.999 10.0165C287.893 10.0035 288.633 10.3085 289.336 10.7868C289.79 11.0944 290.002 11.4825 290 12.054C289.979 17.1729 289.988 22.2906 289.988 27.4094Z" fill="#408F49"/>
<path d="M251.122 25.6663C249.07 25.6663 247.017 25.6787 244.964 25.6584C244.393 25.6525 244.169 25.8002 244.255 26.4104C245.101 32.5078 247.071 38.2186 250.396 43.4485C251.809 45.6715 253.555 47.6495 255.707 49.2161C256.544 49.8255 257.589 50.1653 258.553 50.5997C259.016 50.8088 259.51 50.9531 259.99 51.1282C260.034 51.1438 260.107 51.1629 260.111 51.1882C260.249 52.0623 261.045 52.0454 261.64 52.3263C261.774 52.3896 261.843 52.7706 261.8 52.9763C261.399 54.8941 260.968 56.807 260.543 58.721C260.431 59.2293 260.189 59.4272 259.597 59.2854C256.572 58.5615 253.914 57.1238 251.487 55.2704C249.896 54.0555 248.335 52.7874 246.884 51.419C245.799 50.3966 244.8 49.2482 243.962 48.024C242.604 46.0413 241.258 44.024 240.184 41.8878C238.654 38.8456 237.292 35.7074 236.613 32.3484C236.072 29.6687 235.479 26.989 235.148 24.2814C234.929 22.496 235.247 20.6531 235.12 18.8502C235 17.1733 235.302 15.5741 235.655 13.9763C236.26 11.2351 237.276 8.67119 239.092 6.43113C240.069 5.22453 241.122 4.12256 242.407 3.25631C243.761 2.34117 245.244 1.7251 246.853 1.28087C249.829 0.461097 252.835 0.986993 255.821 0.813114C256.166 0.79293 256.418 0.888851 256.42 1.29531C256.421 1.83028 256.776 1.94527 257.223 1.89564C257.893 1.82176 258.117 2.08693 258.104 2.74949C258.065 4.6229 258.074 6.49705 258.1 8.3701C258.109 8.9384 257.91 9.13691 257.332 9.12654C255.862 9.09839 254.388 9.05061 252.922 9.13042C249.052 9.34208 247.01 10.5363 245.441 14.1494C245.133 14.8608 244.859 15.5904 244.625 16.3285C244.407 17.019 244.514 17.1353 245.263 17.1374C247.385 17.1439 249.509 17.1405 251.632 17.1405C252.962 17.1405 254.292 17.1531 255.622 17.1348C256.12 17.1281 256.439 17.2418 256.425 17.8062C256.412 18.3179 256.78 18.4132 257.187 18.368C257.904 18.2871 258.112 18.5849 258.097 19.2682C258.056 21.1412 258.065 23.0154 258.093 24.8888C258.103 25.4891 257.89 25.6852 257.281 25.6767C255.228 25.6486 253.176 25.6663 251.122 25.6663Z" fill="#408F49"/>
<path d="M108.063 53.8581C107.567 52.897 107.076 51.946 106.583 50.9967C105.686 49.2694 104.806 47.5345 103.876 45.825C103.575 45.2715 103.722 45.0756 104.263 44.8164C106.562 43.7155 108.851 42.5848 110.606 40.6799C111.733 39.4576 112.379 37.9905 112.551 36.3861C112.749 34.534 112.839 32.665 112.849 30.8033C112.883 24.0611 112.862 17.3201 112.862 10.5792V9.61373H104.245C104.627 8.11252 104.962 6.70407 105.346 5.30878C105.755 3.81664 106.228 2.34303 106.635 0.851628C106.782 0.317214 107.051 0.14148 107.618 0.144813C112.845 0.164997 118.071 0.164258 123.298 0.146111C123.894 0.144074 124.116 0.297583 124.115 0.914215C124.1 12.3862 124.148 23.8579 124.071 35.3291C124.053 38.029 123.578 40.7275 122.37 43.2113C121.049 45.9269 119.046 48.1008 116.416 49.6444C114.405 50.827 112.303 51.8604 110.226 52.9316C109.554 53.2772 108.832 53.5314 108.063 53.8581Z" fill="#408F49"/>
<path d="M153.691 49.9716C152.619 50.1448 151.547 50.3205 150.476 50.489C148.845 50.7457 147.219 51.0194 145.582 51.231C145.276 51.2703 144.895 51.1064 144.616 50.9325C144.141 50.636 143.719 50.257 143.275 49.9114C143.184 49.8416 143.086 49.7755 143.014 49.6887C141.091 47.3579 139.285 44.9403 138.027 42.1965C136.934 39.8109 135.865 37.4036 134.989 34.9362C133.972 32.0686 133.374 29.0845 133.036 26.0598C132.835 24.2529 132.531 22.4467 132.489 20.6364C132.429 18.0379 132.827 15.483 133.502 12.9476C134.401 9.5691 136.002 6.65223 138.64 4.28551C140.135 2.94448 141.87 1.99582 143.75 1.33086C144.695 0.99514 145.733 0.901072 146.735 0.734415C147.074 0.678307 147.43 0.737006 147.78 0.742932C149.188 0.767745 150.597 0.800339 152.006 0.810894C152.376 0.813487 152.746 0.731081 153.118 0.705712C153.709 0.665159 154.256 0.657383 154.262 1.49937C154.263 1.63992 154.685 1.87102 154.932 1.89916C155.826 1.99971 155.855 1.99842 155.856 2.89022C155.858 4.71808 155.849 6.54575 155.862 8.37287C155.866 8.96673 155.758 9.20986 155.011 9.10265C154.103 8.97266 153.142 9.2143 152.23 9.09357C150.774 8.89951 149.39 9.21635 148.022 9.52466C145.378 10.1211 143.957 12.0377 143.002 14.3607C142.725 15.0355 142.529 15.743 142.262 16.4237C142.059 16.9455 142.226 17.1403 142.775 17.137C144.362 17.1279 145.949 17.1352 147.535 17.1357C149.471 17.1357 151.407 17.1476 153.343 17.1279C153.877 17.1226 154.2 17.2618 154.208 17.8373C154.216 18.2992 154.533 18.3677 154.927 18.3829C155.818 18.4142 155.85 18.4592 155.852 19.3502C155.853 21.1551 155.856 22.9595 155.852 24.7651C155.851 25.5954 155.78 25.6647 154.929 25.6652C150.894 25.6678 146.858 25.6652 142.822 25.666C141.816 25.6665 141.818 25.7063 141.949 26.6857C142.438 30.3015 143.422 33.7838 144.801 37.1646C146.185 40.5562 147.893 43.7683 150.404 46.5048C151.272 47.4501 152.263 48.2862 153.196 49.1752C153.389 49.3595 153.568 49.5561 153.755 49.7468C153.733 49.822 153.712 49.8972 153.691 49.9716Z" fill="#408F49"/>
<path d="M211.48 64.0469C211.668 64.1906 211.807 64.2736 211.917 64.3847C213.427 65.9185 215.229 67.0714 217.223 67.8443C219.8 68.8432 222.499 69.48 225.23 68.4695C226.408 68.0338 227.473 67.291 228.559 66.6396C229.923 65.8231 231.187 64.8125 232.621 64.1534C234.055 63.4936 235.619 62.9239 237.176 62.7522C238.977 62.5542 240.852 62.6928 242.658 62.9468C244.154 63.1577 245.619 63.6844 247.055 64.1873C248.878 64.8262 250.523 65.8211 252.038 66.9964C253.148 67.8573 254.197 68.7954 255.281 69.6885C255.693 70.0281 255.72 70.2979 255.283 70.6708C253.793 71.9441 252.327 73.2466 250.86 74.5486C250.566 74.8106 250.351 74.7773 250.097 74.5041C248.528 72.8331 246.643 71.5841 244.512 70.7408C243.428 70.3116 242.245 70.1196 241.106 69.8242C241.018 69.802 240.918 69.8275 240.828 69.8074C237.971 69.1724 235.652 70.377 233.404 71.8624C231.959 72.8168 230.547 73.8405 229.013 74.6341C227.605 75.3639 226.034 75.8309 224.417 75.857C222.555 75.8872 220.669 75.9276 218.835 75.68C216.607 75.3796 214.482 74.6101 212.491 73.5466C210.746 72.615 209.108 71.5456 207.703 70.1522C207.381 69.8322 207.319 69.5833 207.595 69.2128C208.762 67.6477 209.91 66.0694 211.07 64.499C211.186 64.3428 211.332 64.2082 211.48 64.0469Z" fill="#408F49"/>
<path d="M117.076 62.6078C119.641 62.4778 122.022 63.18 124.259 64.2899C125.514 64.9125 126.645 65.7865 127.793 66.6011C129.773 68.0075 131.899 69.073 134.404 68.9332C136.596 68.8096 138.738 68.3054 140.628 67.1536C141.983 66.3279 143.25 65.3611 144.538 64.4336C144.849 64.2101 145.088 64.1723 145.299 64.4923C146.358 66.1039 147.416 67.7162 148.441 69.3474C148.536 69.4983 148.49 69.8772 148.361 69.9961C147.396 70.876 146.466 71.8219 145.384 72.5437C144.145 73.3701 142.79 74.0521 141.426 74.6695C140.596 75.0458 139.657 75.1973 138.762 75.4226C136.269 76.0478 133.74 76.0237 131.208 75.7492C129.108 75.5226 127.246 74.6688 125.505 73.5379C124.035 72.5829 122.616 71.5423 121.092 70.6786C120.313 70.2377 119.355 70.0927 118.473 69.8327C118.141 69.7335 117.795 69.6589 117.451 69.6244C117.118 69.5911 116.775 69.5955 116.442 69.6327C115.889 69.6968 115.338 69.7903 114.789 69.8909C111.626 70.4696 109.001 72.0237 106.716 74.186C106.015 74.8497 106.011 74.8791 105.269 74.254C103.944 73.1401 102.639 72.0048 101.33 70.874C100.915 70.516 100.622 70.1847 101.19 69.6589C103.329 67.6816 105.635 65.9667 108.285 64.668C110.289 63.687 112.406 63.1526 114.566 62.7365C115.38 62.5796 116.237 62.6437 117.076 62.6078Z" fill="#408F49"/>
</svg>
