<svg width="1440" height="465" viewBox="0 0 1440 465" fill="none" xmlns="http://www.w3.org/2000/svg">
<path d="M720 495C1117.65 495 1440 481.569 1440 465C1440 448.432 1117.65 435 720 435C322.355 435 0 448.432 0 465C0 481.569 322.355 495 720 495Z" fill="#EEF2F5"/>
<path d="M402.916 39.5852C402.79 39.235 402.603 38.9098 402.364 38.6244C399.463 35.1394 398 30.6802 398.273 26.155C398.411 24.1628 398.216 22.1614 397.693 20.2338L387.671 14.7827L377.778 12.3842C377.492 12.3092 366.467 12.5205 366.467 12.5205L355.231 16.4793C355.231 16.4793 347.049 22.6118 346.817 22.9934C346.585 23.375 344.172 34.1681 344.172 34.1681L350.233 54.3168L349.701 56.3609C350.61 56.2121 351.542 56.3354 352.381 56.7153C354.119 57.4988 355.79 58.3506 357.467 59.2568C365.13 63.5861 372.15 68.9642 378.323 75.2354L379.544 72.7892L383.13 65.5869C383.375 65.1048 383.753 64.7031 384.219 64.4301C384.686 64.157 385.222 64.024 385.762 64.047L388.407 64.1219L390.453 64.1833C391.574 64.2159 392.691 64.0276 393.74 63.6289C394.788 63.2301 395.748 62.6289 396.564 61.8595C397.38 61.0901 398.037 60.1676 398.496 59.1446C398.955 58.1217 399.209 57.0184 399.241 55.8976L399.473 48.0344C399.494 47.2991 399.641 46.573 399.909 45.888C400.314 44.8234 400.991 43.8836 401.873 43.1625L401.934 43.1079C402.445 42.6967 402.815 42.1358 402.991 41.5041C403.167 40.8723 403.141 40.2013 402.916 39.5852Z" fill="#EFA08D"/>
<path d="M349.727 56.3746L348.139 66.5409L374.722 78.7377L378.349 75.249L372.806 68.9121L366.875 59.2705L352.141 55.7205L349.727 56.3746Z" fill="#EFA08D"/>
<path d="M396.971 23.0207C396.971 23.0207 395.968 31.4494 388.346 33.7457C380.723 36.042 385.905 45.5814 376.421 50.6714C369.528 54.3577 360.808 54.4735 357.494 59.2705C355.844 58.3642 354.147 57.5125 352.408 56.7289C351.569 56.349 350.637 56.2257 349.729 56.3746L350.26 54.3304C352.319 54.7859 354.459 54.7321 356.492 54.1737L356.656 54.126C357.062 54.0068 357.434 53.7911 357.739 53.4972C358.044 53.2033 358.273 52.84 358.407 52.4382C358.541 52.0365 358.576 51.6083 358.508 51.1903C358.441 50.7723 358.273 50.3768 358.019 50.0377C356.444 47.9935 355.197 44.9341 358.231 42.0382C361.844 38.5835 365.73 42.3857 367.776 45.0227C368.246 45.6295 368.886 46.0831 369.614 46.3257C370.342 46.5684 371.126 46.5891 371.867 46.3854L374.512 45.6563C374.929 45.5394 375.317 45.339 375.654 45.0673C375.991 44.7956 376.269 44.4583 376.471 44.0758C376.673 43.6934 376.795 43.2739 376.83 42.8427C376.865 42.4116 376.812 41.9779 376.673 41.568C375.548 38.1611 374.826 32.7509 379.994 30.3183C386.532 27.2385 394.482 28.4854 396.971 23.0207Z" fill="#ED8B7B"/>
<path d="M401.961 43.1216L401.9 43.1761C401.018 43.8973 400.341 44.8371 399.936 45.9016C398.211 45.6223 396.875 43.3124 399.677 42.3584C401.784 41.643 402.602 40.4233 402.916 39.5988C403.144 40.2122 403.174 40.8814 403.003 41.513C402.832 42.1445 402.468 42.7069 401.961 43.1216Z" fill="#ED8B7B"/>
<path d="M388.407 64.1219L385.761 64.047C385.224 64.0305 384.693 64.168 384.232 64.4433C383.77 64.7186 383.397 65.1202 383.157 65.6005L379.571 72.8369L377.525 66.9838C377.331 66.4373 377.285 65.849 377.393 65.2792C377.501 64.7093 377.759 64.1784 378.14 63.7409C378.521 63.3034 379.011 62.9749 379.561 62.7892C380.111 62.6035 380.7 62.5673 381.268 62.6842L388.407 64.1219Z" fill="#ED8B7B"/>
<path d="M308.307 91.9021L312.678 83.3575L321.091 85.7696L335.988 126.666L333.602 182.99L317.641 237.78L288.917 267.107L258.76 268.279L237.468 260.143L226.409 253.057L217.723 244.819L235.218 169.26L257.07 105.714L298.312 92.0452L308.307 91.9021Z" fill="#33313B"/>
<path d="M305.152 173.076C300.481 180.339 294.924 191.398 291.236 206.634C289.615 213.381 288.497 220.239 287.888 227.151C285.884 229.495 283.913 231.723 282.018 233.787C280.918 234.987 280.308 236.555 280.307 238.182V244.826C280.307 245.128 280.396 245.423 280.564 245.675C280.732 245.926 280.97 246.123 281.249 246.239C281.528 246.356 281.836 246.387 282.132 246.33C282.429 246.272 282.703 246.128 282.918 245.916C284.05 244.785 285.516 243.32 287.227 241.582C287.233 250.119 287.807 258.646 288.945 267.107C283.054 269.056 272.459 271.196 258.789 268.279C251.331 266.624 244.157 263.882 237.496 260.143L247.355 199.316C248.019 195.215 250.263 191.537 253.607 189.069C256.951 186.601 261.128 185.539 265.246 186.111L268.225 186.52C273.204 187.212 278.256 185.919 282.29 182.921C286.324 179.922 289.015 175.458 289.784 170.493L297.911 117.904C298.537 113.846 300.144 110.003 302.594 106.708C305.045 103.412 308.263 100.765 311.97 98.9954C309.44 106.225 304.627 122.714 301.572 150.515C300.722 158.22 301.959 166.011 305.152 173.076Z" fill="url(#paint0_linear)"/>
<path d="M315.856 91.7931C314.547 93.4216 313.749 94.5186 313.627 94.6753C313.504 94.8321 312.986 96.0381 311.97 98.9749C308.263 100.744 305.045 103.392 302.595 106.687C300.145 109.982 298.537 113.826 297.911 117.883L289.784 170.473C289.015 175.438 286.324 179.902 282.29 182.9C278.256 185.899 273.204 187.192 268.225 186.499L265.246 186.09C261.125 185.519 256.945 186.584 253.601 189.056C250.257 191.528 248.015 195.211 247.355 199.316L237.469 260.143C233.636 258.018 229.943 255.651 226.41 253.057C230.95 248.14 233.89 241.963 234.844 235.341L241.771 187.099C242.365 182.983 241.436 178.792 239.16 175.311L235.219 169.274C235.823 167.887 236.225 166.421 236.412 164.92L240.203 134.509C241.348 125.334 244.741 116.582 250.082 109.032L251.807 106.593C254.881 102.247 258.939 98.6898 263.65 96.2102C268.361 93.7305 273.592 92.3991 278.916 92.3246L287.268 92.2019L290.772 92.1542L298.32 92.0452L308.308 91.9157L315.856 91.7931Z" fill="#162F71"/>
<path d="M241.771 187.092L234.843 235.334C233.89 241.956 230.949 248.133 226.41 253.05C224.91 251.953 223.403 250.795 221.876 249.561C220.226 248.224 218.821 246.61 217.723 244.792C215.569 241.266 214.652 237.122 215.119 233.017L220.164 188.325C220.397 186.329 221.058 184.407 222.103 182.689C223.148 180.972 224.552 179.501 226.219 178.377L229.628 176.053C232.114 174.364 234.065 172 235.253 169.24L239.187 175.263C241.463 178.759 242.383 182.966 241.771 187.092Z" fill="url(#paint1_linear)"/>
<path d="M321.098 85.7832C318.937 88.0863 317.15 90.2054 315.862 91.8067L308.307 91.9157C307.803 86.8258 307.305 72.8369 316.837 71.2697C323.362 70.1931 321.984 81.0544 321.098 85.7832Z" fill="#021340"/>
<path d="M315.856 91.7931C314.546 93.4216 313.749 94.5186 313.626 94.6753C313.503 94.8321 312.985 96.0381 311.969 98.9749C308.263 100.744 305.044 103.392 302.594 106.687C300.144 109.982 298.536 113.826 297.91 117.883L289.783 170.473C289.349 173.284 288.293 175.964 286.691 178.315C285.089 180.667 282.982 182.632 280.524 184.067C278.97 168.974 276.815 152.341 278.827 134.325C282.672 99.9152 294.917 93.2308 298.326 92.0316L308.308 91.9157L315.856 91.7931Z" fill="#021340"/>
<path d="M301.995 162.882C302.62 166.407 303.68 169.84 305.152 173.103C304.715 173.784 304.265 174.5 303.788 175.249C303.509 175.713 303.222 176.19 302.936 176.687C302.915 176.72 302.897 176.754 302.881 176.789C302.725 177.048 302.575 177.321 302.418 177.593C302.261 177.866 302.111 178.138 301.961 178.418C301.811 178.697 301.647 178.983 301.497 179.27C301.095 180.005 300.7 180.762 300.304 181.552C300.175 181.798 300.052 182.05 299.929 182.309C299.675 182.813 299.422 183.331 299.172 183.862C295.736 191.166 293.068 198.807 291.209 206.661C289.588 213.408 288.469 220.266 287.861 227.178C285.857 229.522 283.886 231.75 281.991 233.815C280.891 235.015 280.281 236.582 280.28 238.21V244.853C280.28 245.155 280.369 245.451 280.537 245.702C280.705 245.954 280.943 246.15 281.222 246.266C281.501 246.383 281.809 246.414 282.105 246.357C282.402 246.299 282.676 246.156 282.891 245.943C284.023 244.812 285.489 243.347 287.2 241.61C287.216 250.138 287.799 258.656 288.945 267.107C283.054 269.056 272.459 271.196 258.789 268.279C259.471 259.04 265.307 247.061 274.736 232.343C283.429 218.77 282.441 202.587 280.539 184.087C282.997 182.652 285.103 180.687 286.705 178.336C288.307 175.984 289.363 173.305 289.798 170.493L297.925 117.904C298.55 113.846 300.158 110.003 302.608 106.708C305.058 103.412 308.277 100.765 311.983 98.9954C309.44 106.225 304.627 122.714 301.572 150.515C301.119 154.636 301.261 158.801 301.995 162.882Z" fill="#67354E"/>
<path d="M301.995 162.882C302.62 166.407 303.68 169.84 305.152 173.103C304.715 173.784 304.265 174.5 303.788 175.249C303.509 175.713 303.222 176.19 302.936 176.687C302.915 176.72 302.897 176.754 302.881 176.789C302.725 177.048 302.575 177.321 302.418 177.593C302.261 177.866 302.111 178.138 301.961 178.418C301.811 178.697 301.647 178.983 301.497 179.27C301.095 180.005 300.7 180.762 300.304 181.552C300.175 181.798 300.052 182.05 299.929 182.309C299.675 182.813 299.422 183.331 299.172 183.862C295.736 191.166 293.068 198.807 291.209 206.661C289.588 213.408 288.469 220.266 287.861 227.178C285.857 229.522 283.886 231.75 281.991 233.815C280.891 235.015 280.281 236.582 280.28 238.21V244.853C280.28 245.155 280.369 245.451 280.537 245.702C280.705 245.954 280.943 246.15 281.222 246.266C281.501 246.383 281.809 246.414 282.105 246.357C282.402 246.299 282.676 246.156 282.891 245.943C284.023 244.812 285.489 243.347 287.2 241.61C287.216 250.138 287.799 258.656 288.945 267.107C283.054 269.056 272.459 271.196 258.789 268.279C259.471 259.04 265.307 247.061 274.736 232.343C283.429 218.77 282.441 202.587 280.539 184.087C282.997 182.652 285.103 180.687 286.705 178.336C288.307 175.984 289.363 173.305 289.798 170.493L297.925 117.904C298.55 113.846 300.158 110.003 302.608 106.708C305.058 103.412 308.277 100.765 311.983 98.9954C309.44 106.225 304.627 122.714 301.572 150.515C301.119 154.636 301.261 158.801 301.995 162.882Z" fill="url(#paint2_linear)"/>
<path d="M241.77 187.092L234.843 235.334C233.889 241.956 230.948 248.133 226.409 253.05C224.909 251.953 223.402 250.795 221.875 249.561C220.225 248.224 218.82 246.61 217.723 244.792C231.1 248.682 233.527 203.493 236.043 190.356C238.334 178.391 235.361 169.662 235.231 169.274L239.165 175.297C241.441 178.781 242.367 182.975 241.77 187.092Z" fill="url(#paint3_linear)"/>
<path d="M287.263 92.2019L290.768 92.1542C287.721 94.2644 285.007 96.8184 282.716 99.7312C276.198 107.799 267.559 123.914 263.209 154.964C263.17 155.232 263.028 155.473 262.812 155.637C262.596 155.8 262.325 155.872 262.057 155.837C261.923 155.818 261.795 155.774 261.679 155.705C261.562 155.637 261.461 155.547 261.38 155.439C261.298 155.331 261.239 155.209 261.206 155.078C261.172 154.948 261.165 154.812 261.184 154.678C265.623 122.96 274.554 106.484 281.304 98.2321C283.084 96.028 285.08 94.0078 287.263 92.2019Z" fill="#021340"/>
<path d="M404.812 228.193L398.975 194.805L355.653 213.939L344.172 274.31L355.633 313.98L435.404 434.994H445.058C414.534 341.304 405.8 240.629 404.812 228.193Z" fill="#212028"/>
<path d="M362.43 204.937L311.704 192.025L291.25 206.634L287.241 241.583C287.242 250.119 287.812 258.646 288.945 267.107C290.651 279.785 293.325 292.313 296.943 304.584C296.946 304.599 296.946 304.616 296.943 304.631C298.252 309.128 299.713 313.746 301.327 318.484L244.969 429.884L253.15 434.994L302.52 388.258C324.83 367.133 342.868 341.918 355.653 313.987C358.38 307.99 360.88 301.878 363.153 295.651L382.243 242.734L362.43 204.937Z" fill="#33313B"/>
<path d="M300.966 211.159C296.738 216.528 292.232 222.061 287.889 227.157C288.497 220.246 289.616 213.388 291.236 206.641C293.589 207.833 296.861 209.407 300.966 211.159Z" fill="#212028"/>
<path d="M370.76 242.209L338.033 264.607C337.178 265.192 336.196 265.566 335.168 265.698C334.14 265.831 333.095 265.718 332.119 265.369C331.143 265.02 330.264 264.445 329.553 263.69C328.843 262.936 328.321 262.024 328.031 261.029L315.029 216.453L315.425 216.317L330.943 253.793C331.364 254.809 332.17 255.618 333.185 256.043C334.201 256.468 335.343 256.475 336.363 256.062L370.596 242.1L370.76 242.209Z" fill="#212028"/>
<path d="M296.915 304.59C293.297 292.32 290.623 279.792 288.917 267.114C287.788 258.653 287.224 250.126 287.227 241.589C293.424 235.307 302.874 225.488 311.703 215.349C311.069 216.323 286.613 254.699 296.915 304.59Z" fill="#212028"/>
<path d="M301.312 318.491L304.148 327.471C304.38 328.209 304.446 328.989 304.343 329.755C304.24 330.522 303.969 331.256 303.55 331.906C303.131 332.556 302.574 333.107 301.919 333.518C301.263 333.929 300.525 334.191 299.757 334.285L292.898 335.123L301.312 318.491Z" fill="#212028"/>
<path d="M313.489 194.805C315.119 192.632 316.53 190.717 317.655 189.191L316.148 187.869C308.729 181.381 303.742 172.561 302.008 162.862L329.607 164.034L347.511 215.301C335.673 209.33 324.301 202.479 313.489 194.805Z" fill="#67354E"/>
<path d="M404.06 192.025C403.446 170.616 402.267 144.682 400.051 130.666C398.993 123.42 396.752 116.397 393.417 109.877L394.46 103.254C395.155 98.7826 394.055 94.2178 391.399 90.5529C387.458 85.1235 383.094 80.0131 378.349 75.2694C371.442 68.3874 362.668 61.3623 352.406 56.7493C351.568 56.3695 350.635 56.2462 349.727 56.395C348.797 56.5386 347.932 56.9566 347.242 57.5952C346.552 58.2338 346.069 59.064 345.854 59.9791L343.059 72.9254L305.151 173.089L294.426 205.796L300.964 211.145L311.716 215.315L313.912 214.981L315.534 216.61L341.443 227.137L404.851 228.152L404.06 192.025Z" fill="#162F71"/>
<path d="M326.442 196.911C325.577 198.137 324.656 199.398 323.715 200.679L314.988 204.086C314.474 204.287 314.005 204.588 313.608 204.972C313.212 205.356 312.896 205.815 312.679 206.323C312.462 206.83 312.348 207.376 312.344 207.928C312.34 208.479 312.446 209.026 312.656 209.537L313.972 212.719C313.236 213.582 312.493 214.445 311.743 215.308C302.913 225.454 293.457 235.28 287.252 241.569C285.541 243.306 284.075 244.771 282.943 245.902C282.728 246.115 282.455 246.259 282.158 246.316C281.861 246.374 281.554 246.342 281.275 246.226C280.996 246.109 280.757 245.913 280.59 245.661C280.422 245.41 280.332 245.114 280.332 244.812V238.169C280.333 236.542 280.944 234.974 282.043 233.774C283.939 231.73 285.909 229.481 287.914 227.137C292.257 222.068 296.777 216.507 300.991 211.138C307.966 202.28 314.184 193.94 317.668 189.197L326.442 196.911Z" fill="#834C69"/>
<path d="M326.442 196.911C325.577 198.137 324.656 199.398 323.715 200.679L314.988 204.086C314.474 204.287 314.005 204.588 313.608 204.972C313.212 205.356 312.896 205.815 312.679 206.323C312.462 206.83 312.348 207.376 312.344 207.928C312.34 208.479 312.446 209.026 312.656 209.537L313.972 212.719C313.236 213.582 312.493 214.445 311.743 215.308C302.913 225.454 293.457 235.28 287.252 241.569C285.541 243.306 284.075 244.771 282.943 245.902C282.728 246.115 282.455 246.259 282.158 246.316C281.861 246.374 281.554 246.342 281.275 246.226C280.996 246.109 280.757 245.913 280.59 245.661C280.422 245.41 280.332 245.114 280.332 244.812V238.169C280.333 236.542 280.944 234.974 282.043 233.774C283.939 231.73 285.909 229.481 287.914 227.137C292.257 222.068 296.777 216.507 300.991 211.138C307.966 202.28 314.184 193.94 317.668 189.197L326.442 196.911Z" fill="url(#paint4_linear)"/>
<path d="M317.643 189.211C316.518 190.744 315.106 192.618 313.477 194.826C310.068 199.391 305.691 205.155 300.966 211.179C296.875 209.435 293.589 207.861 291.236 206.661C293.085 198.799 295.744 191.149 299.173 183.835C300.921 180.123 302.909 176.529 305.125 173.076C307.682 178.743 311.428 183.794 316.109 187.889L317.643 189.211Z" fill="#021340"/>
<path d="M315.534 216.61C314.22 216.183 312.941 215.749 311.695 215.308C312.445 214.45 313.188 213.587 313.925 212.719L315.534 216.61Z" fill="#28374B"/>
<path d="M415.081 219.526L404.076 192.025L397.742 176.21C397.334 175.19 396.538 174.373 395.53 173.936C394.521 173.5 393.38 173.479 392.356 173.88L354.516 188.673L328.607 198.798L323.719 200.706L316.771 203.432L314.992 204.113C314.477 204.314 314.008 204.615 313.612 204.999C313.215 205.383 312.9 205.843 312.682 206.35C312.465 206.857 312.352 207.403 312.348 207.955C312.344 208.507 312.45 209.054 312.66 209.564L313.976 212.746L315.537 216.61L330.925 253.793C331.347 254.809 332.153 255.618 333.168 256.043C334.183 256.468 335.326 256.475 336.346 256.062L370.763 242.053L390.917 233.835L404.826 228.166L412.783 224.923C413.801 224.508 414.614 223.708 415.044 222.697C415.474 221.686 415.487 220.546 415.081 219.526Z" fill="#E6F5FF"/>
<g style="mix-blend-mode:overlay" clip-path="url(#clip0)">
<path d="M373.668 234.697C384.691 229.806 389.661 216.911 384.767 205.894C379.874 194.878 366.971 189.912 355.948 194.802C344.924 199.692 339.955 212.587 344.848 223.604C349.742 234.621 362.645 239.587 373.668 234.697Z" fill="#162F71"/>
<path d="M372.007 230.956C380.963 226.983 385.001 216.506 381.025 207.555C377.049 198.604 366.566 194.569 357.609 198.542C348.653 202.515 344.615 212.993 348.591 221.944C352.567 230.895 363.05 234.93 372.007 230.956Z" stroke="white" stroke-width="1.5"/>
<path d="M348.952 219.395L345.958 220.724L347.288 223.716L350.281 222.388L348.952 219.395Z" fill="white"/>
<path d="M381.886 204.785L378.892 206.113L380.221 209.106L383.215 207.777L381.886 204.785Z" fill="white"/>
<path d="M361.39 222.076C364.2 220.83 365.131 218.232 363.784 215.198C362.438 212.169 359.887 211.121 357.074 212.37L353.67 213.88L357.982 223.588L361.39 222.076ZM359.322 220.599L356.787 214.892L357.849 214.42C359.434 213.717 360.622 214.098 361.551 216.189C362.483 218.289 361.969 219.424 360.416 220.114L359.322 220.599Z" fill="white"/>
<path d="M373.79 210.765C372.365 207.555 369.648 206.633 367.172 207.731C364.687 208.834 363.563 211.46 364.988 214.669C366.408 217.864 369.117 218.807 371.602 217.705C374.078 216.606 375.216 213.974 373.79 210.765ZM371.512 211.775C372.356 213.676 372.021 215.056 370.688 215.648C369.36 216.237 368.106 215.562 367.262 213.661C366.418 211.76 366.758 210.378 368.086 209.788C369.418 209.197 370.668 209.874 371.512 211.775Z" fill="white"/>
</g>
<path d="M258.946 450.373C258.382 450.811 257.696 451.064 256.982 451.098C256.268 451.132 255.562 450.946 254.958 450.564L240.026 441.379C239.617 441.133 239.267 440.8 239.002 440.403C238.738 440.006 238.565 439.554 238.496 439.082C238.428 438.61 238.465 438.128 238.606 437.672C238.747 437.216 238.987 436.797 239.31 436.446C239.387 436.361 239.469 436.281 239.556 436.207L244.969 429.884L253.151 434.994L259.867 445.556C260.363 446.323 260.544 447.252 260.373 448.149C260.201 449.046 259.69 449.843 258.946 450.373Z" fill="#026FFF"/>
<path d="M457.937 445.399C457.639 445.948 457.197 446.406 456.659 446.724C456.121 447.041 455.507 447.208 454.882 447.205L439.453 447.573C438.608 447.591 437.79 447.276 437.176 446.696C436.563 446.115 436.202 445.316 436.174 444.472C436.126 443.171 436.14 441.869 436.003 440.575L435.41 434.994H445.065L456.362 440.377C456.81 440.587 457.21 440.888 457.536 441.261C457.862 441.634 458.106 442.07 458.254 442.542C458.402 443.014 458.451 443.512 458.396 444.004C458.341 444.496 458.185 444.971 457.937 445.399Z" fill="#026FFF"/>
<path d="M317.642 189.211C316.517 190.744 315.106 192.618 313.476 194.826C304.415 188.407 299.172 183.835 299.172 183.835C300.92 180.123 302.909 176.529 305.124 173.076C307.682 178.743 311.427 183.794 316.108 187.889L317.642 189.211Z" fill="#091B4B"/>
<path d="M369.11 234.223L316.74 203.391L323.688 200.679L328.576 198.771L359.619 225.924L369.11 234.223Z" fill="#C2D5E1"/>
<path d="M367.91 134.339C364.986 144.56 359.081 166.085 354.513 188.645L346.447 173.485C346.447 173.485 361.433 152.464 367.91 134.339Z" fill="#11265F"/>
<path d="M376.415 229.829L369.113 234.223L359.622 225.924L343.061 211.438L335.275 204.624L328.579 198.771L326.445 196.911L317.643 189.211L316.137 187.889C310.878 183.291 306.809 177.492 304.273 170.985C301.738 164.479 300.811 157.456 301.573 150.515C304.628 122.714 309.441 106.225 311.957 98.9954C312.973 96.0858 313.614 94.6958 313.614 94.6958L313.648 94.6617L313.696 94.614L313.764 94.5459L313.941 94.3687C314.432 93.8986 320.425 87.4935 321.857 86.3216C327.816 81.4565 337.688 75.249 352.013 78.7445C354.515 79.3442 360.713 80.8636 363.242 82.315C377.56 90.553 371.308 116.943 369.951 126.605L369.385 129.331V129.392C369.147 130.244 369.051 130.694 369.126 130.632C363.576 149.459 346.463 173.457 346.463 173.457L354.515 188.673L374.854 226.83L376.415 229.829Z" fill="#162F71"/>
<path d="M387.841 232.568L385.85 233.344C385.77 233.37 385.694 233.406 385.625 233.453C385.197 233.682 384.869 234.06 384.703 234.515C384.537 234.97 384.545 235.47 384.725 235.92C384.769 236.04 384.826 236.154 384.895 236.261L385.482 237.174C385.725 237.551 385.885 237.976 385.952 238.42C386.019 238.864 385.992 239.317 385.872 239.749C385.751 240.182 385.541 240.584 385.254 240.929C384.967 241.274 384.61 241.555 384.207 241.753L382.263 242.7L377.048 245.248C376.442 245.544 375.778 245.697 375.104 245.697C374.431 245.697 373.766 245.543 373.162 245.247C372.557 244.951 372.027 244.522 371.614 243.99C371.2 243.459 370.913 242.841 370.775 242.182V242.025L369.139 234.196L376.441 229.801L378.104 230.183C380.121 230.65 382.174 230.944 384.241 231.062L386.422 231.185L387.629 231.253C387.785 231.261 387.933 231.322 388.049 231.427C388.164 231.531 388.241 231.671 388.266 231.825C388.29 231.979 388.262 232.136 388.184 232.271C388.107 232.406 387.986 232.511 387.841 232.568Z" fill="#EFA08D"/>
<path d="M335.309 204.624L328.614 198.771L326.445 196.911L317.643 189.211L316.137 187.889C310.878 183.291 306.809 177.492 304.273 170.985C301.738 164.479 300.811 157.456 301.573 150.515C304.628 122.714 309.441 106.225 311.957 98.9954C312.973 96.0858 313.614 94.6958 313.614 94.6958L313.648 94.6617L313.696 94.614L313.764 94.5459L313.941 94.3687C314.432 93.8986 315.441 92.9583 316.873 91.7863C322.832 86.9212 336.175 77.9746 350.499 81.4701C349.818 81.5587 319.859 85.3608 315.85 112.133C312.353 135.525 303.639 173.144 335.309 204.624Z" fill="#11265F"/>
<path d="M397.76 18.4831C397.775 19.0679 397.75 19.6529 397.685 20.2343C396.779 28.9356 387.458 26.7961 380.013 30.312C374.818 32.7582 375.575 38.1821 376.713 41.6231C376.844 42.03 376.891 42.4593 376.852 42.8849C376.812 43.3106 376.687 43.7238 376.483 44.0996C376.279 44.4754 376.001 44.8059 375.665 45.0712C375.33 45.3366 374.944 45.5312 374.531 45.6432L371.886 46.3723C371.146 46.576 370.362 46.5553 369.633 46.3126C368.905 46.07 368.265 45.6164 367.795 45.0096C365.75 42.3726 361.863 38.5704 358.25 42.0251C355.216 44.921 356.464 47.9804 358.039 50.0246C358.292 50.3637 358.46 50.7592 358.528 51.1772C358.595 51.5952 358.561 52.0234 358.427 52.4251C358.293 52.8268 358.063 53.1902 357.758 53.4841C357.453 53.778 357.082 53.9937 356.675 54.1129L356.511 54.1606C354.478 54.719 352.339 54.7728 350.28 54.3173C347.009 53.5978 344.106 51.7287 342.098 49.0502C332.771 36.6557 333.61 17.4406 348.057 5.47547C355.618 -0.786482 366.241 -1.0386 375.725 1.5643C387.588 4.81452 397.658 12.521 397.76 18.4831Z" fill="#33313B"/>
<path d="M353.251 10.6472C349.426 22.4352 369.485 30.019 367.787 45.0027C365.742 42.3658 361.856 38.5636 358.242 42.0183C355.208 44.9142 356.456 47.9736 358.031 50.0178C358.284 50.3569 358.452 50.7524 358.52 51.1704C358.587 51.5884 358.553 52.0166 358.419 52.4183C358.285 52.82 358.055 53.1834 357.75 53.4773C357.445 53.7712 357.074 53.9869 356.667 54.1061L356.503 54.1538C354.47 54.7122 352.331 54.766 350.272 54.3105C347.001 53.591 344.098 51.7219 342.09 49.0434C332.763 36.6489 333.602 17.4338 348.049 5.46866C355.61 -0.793288 366.233 -1.0454 375.717 1.55749C385.201 4.16039 357.083 -1.1408 353.251 10.6472Z" fill="#212028"/>
<path d="M374.668 111.839C372.575 118.572 370.652 124.854 369.711 128.193C369.786 127.736 369.868 127.218 369.95 126.646C371.313 116.977 372.384 92.7811 358.059 84.5431C341.055 74.7652 323.867 86.1035 316.871 91.8203C315.44 92.9923 314.431 93.9326 313.94 94.4028L313.762 94.5799L313.694 94.6481L313.646 94.6958C313.769 94.5254 314.567 93.442 315.876 91.8135C317.185 90.185 318.951 88.0931 321.112 85.7901C322.974 83.8004 325.101 81.7017 327.426 79.6576C331.224 76.323 335.871 74.1045 340.854 73.2482C345.836 72.3919 350.958 72.9311 355.652 74.8061L357.323 75.4875C364.25 78.2677 369.878 83.5485 373.091 90.2821C376.304 97.0158 376.867 104.71 374.668 111.839Z" fill="url(#paint5_linear)"/>
<path d="M446.632 435.587L444.471 438.353C444.402 438.443 444.355 438.547 444.333 438.657C444.311 438.768 444.316 438.883 444.346 438.991C444.377 439.1 444.432 439.2 444.508 439.283C444.585 439.366 444.679 439.431 444.785 439.471L447.982 440.657C448.126 440.709 448.282 440.715 448.429 440.674C448.576 440.632 448.706 440.545 448.801 440.425L450.805 437.87C450.871 437.784 450.918 437.684 450.94 437.578C450.963 437.472 450.962 437.363 450.936 437.257C450.911 437.152 450.862 437.054 450.793 436.97C450.724 436.886 450.637 436.818 450.539 436.773L447.505 435.376C447.357 435.31 447.191 435.295 447.033 435.333C446.875 435.371 446.734 435.461 446.632 435.587Z" fill="white"/>
<path d="M451.624 437.979L449.462 440.704C449.392 440.794 449.343 440.898 449.321 441.01C449.298 441.121 449.303 441.237 449.333 441.346C449.364 441.456 449.42 441.556 449.497 441.64C449.574 441.724 449.669 441.789 449.776 441.829L452.974 443.007C453.117 443.06 453.273 443.066 453.42 443.024C453.567 442.983 453.697 442.896 453.792 442.776L455.796 440.227C455.863 440.141 455.909 440.041 455.932 439.934C455.955 439.828 455.953 439.718 455.928 439.612C455.902 439.506 455.853 439.407 455.784 439.323C455.716 439.238 455.629 439.17 455.53 439.123L452.496 437.761C452.348 437.692 452.18 437.676 452.021 437.716C451.863 437.755 451.722 437.848 451.624 437.979Z" fill="white"/>
<path d="M457.938 445.399C457.64 445.948 457.199 446.406 456.661 446.724C456.123 447.041 455.509 447.208 454.884 447.205L439.455 447.573C438.773 447.587 438.104 447.385 437.545 446.994C436.986 446.603 436.566 446.044 436.346 445.399H457.938Z" fill="white"/>
<path d="M258.946 450.374C258.382 450.811 257.696 451.064 256.982 451.098C256.268 451.133 255.562 450.946 254.958 450.565L240.026 441.38C239.617 441.134 239.267 440.801 239.002 440.403C238.738 440.006 238.565 439.555 238.496 439.083C238.428 438.611 238.465 438.129 238.606 437.673C238.747 437.217 238.987 436.798 239.31 436.446L258.946 450.374Z" fill="white"/>
<path d="M254.488 435.949L251.175 437.114C251.068 437.153 250.973 437.216 250.895 437.299C250.818 437.381 250.761 437.481 250.728 437.589C250.696 437.697 250.689 437.812 250.709 437.923C250.728 438.035 250.773 438.14 250.841 438.231L252.886 440.957C252.974 441.083 253.102 441.176 253.249 441.221C253.396 441.265 253.554 441.259 253.697 441.202L256.759 440.132C256.861 440.096 256.954 440.037 257.031 439.96C257.108 439.883 257.166 439.789 257.201 439.686C257.237 439.583 257.248 439.474 257.235 439.366C257.222 439.258 257.185 439.154 257.127 439.062L255.32 436.255C255.235 436.119 255.107 436.015 254.957 435.959C254.806 435.904 254.641 435.9 254.488 435.949Z" fill="white"/>
<path d="M257.406 440.65L254.092 441.808C253.986 441.847 253.89 441.911 253.813 441.993C253.735 442.076 253.678 442.175 253.646 442.283C253.613 442.392 253.607 442.506 253.626 442.618C253.646 442.729 253.691 442.835 253.758 442.926L255.804 445.651C255.891 445.778 256.019 445.871 256.166 445.915C256.314 445.96 256.472 445.953 256.615 445.896L259.676 444.827C259.78 444.792 259.874 444.733 259.951 444.656C260.029 444.579 260.087 444.485 260.123 444.382C260.158 444.279 260.17 444.169 260.156 444.06C260.143 443.952 260.104 443.848 260.044 443.757L258.265 440.936C258.182 440.791 258.048 440.683 257.89 440.63C257.731 440.577 257.559 440.584 257.406 440.65Z" fill="white"/>
<path d="M1101.54 368.788L1110.63 373.258C1125.46 371.078 1126.92 361.497 1119.89 353.702C1115.89 349.502 1112.15 345.055 1108.71 340.388C1105.8 336.355 1102.42 332.693 1098.62 329.486C1095.98 327.755 1086.72 329.486 1086.72 329.486C1091.91 338.051 1079.1 365.354 1101.54 368.788Z" fill="#ED8B7B"/>
<path d="M1030.81 312.873C1031.95 319.969 1034.77 326.689 1039.04 332.469C1043.31 338.249 1048.91 342.92 1055.36 346.091L1065.93 351.29C1071.54 336.811 1076.99 312.621 1075.8 300.418C1073.02 300.799 1054.55 297.631 1051.83 298.087C1043.28 299.525 1031.96 296.486 1030.81 312.873Z" fill="#ED8B7B"/>
<path d="M946.087 129.928L946.449 124.477C946.505 123.593 946.775 122.737 947.237 121.981C947.698 121.226 948.337 120.594 949.098 120.141C949.858 119.687 950.718 119.426 951.602 119.378C952.487 119.331 953.369 119.5 954.174 119.87L1027.87 153.395L1030.02 154.376C1030.75 154.707 1031.4 155.194 1031.92 155.804C1032.44 156.413 1032.82 157.13 1033.04 157.903C1033.25 158.676 1033.29 159.486 1033.15 160.276C1033.01 161.065 1032.7 161.815 1032.24 162.471L1028.67 167.581L1025.09 172.944L1012.82 178.545L995.334 170.484L948.453 153.054C947.349 152.645 946.407 151.889 945.768 150.901C945.129 149.912 944.827 148.743 944.908 147.569L946.087 129.928Z" fill="#E6F5FF"/>
<path d="M944.936 147.596C944.855 148.77 945.157 149.939 945.796 150.928C946.435 151.917 947.377 152.672 948.482 153.081L995.362 170.511C995.543 170.025 995.543 169.491 995.362 169.005L994.769 167.404C994.683 167.177 994.674 166.928 994.743 166.696C994.812 166.463 994.955 166.26 995.15 166.116C995.346 165.972 995.583 165.896 995.826 165.9C996.068 165.904 996.303 165.987 996.494 166.137L1007.72 174.845L1028.68 167.608L1032.25 162.498C1032.71 161.842 1033.02 161.092 1033.16 160.303C1033.29 159.513 1033.25 158.703 1033.04 157.93C1032.83 157.157 1032.45 156.441 1031.93 155.831C1031.41 155.221 1030.76 154.734 1030.03 154.403L1027.88 153.422C1027.88 153.422 1029.4 164.454 1014.92 165.006C1000.44 165.557 952.436 107.19 946.088 129.914L944.936 147.596Z" fill="#C2D5E1"/>
<path d="M1140.72 87.0753L1151.99 89.0718C1153.12 89.2694 1154.24 89.5079 1155.33 89.7532C1155.7 83.8115 1155.37 73.2909 1148.71 72.3301C1142.26 71.4307 1140.93 81.0451 1140.72 87.0753Z" fill="#021340"/>
<path d="M1061.27 31.1539L1063.56 23.5019L1084.69 29.0279L1095.4 44.9656L1106.79 71.7237L1095.61 79.4574L1090.63 72.3097L1088.9 67.2265L1085.38 68.637C1082.85 69.6565 1080.01 69.6449 1077.49 68.6047C1074.96 67.5645 1072.94 65.5782 1071.86 63.0701L1070.67 60.3036C1070.2 59.2292 1069.39 58.3447 1068.36 57.7961C1068.18 57.6962 1067.99 57.6097 1067.8 57.5372L1066.2 56.9171C1065.82 56.7664 1065.48 56.5312 1065.2 56.2291C1064.92 55.927 1064.71 55.5659 1064.59 55.1728C1064.42 54.593 1064.45 53.9706 1064.69 53.4148C1066.74 48.7609 1065.34 44.3592 1062.12 34.7175C1061.74 33.5554 1061.46 32.3634 1061.27 31.1539Z" fill="#EFA08D"/>
<path d="M1034.61 184.289L1029.98 177.7L1035.9 169.843L1040.33 163.581C1049.85 136.183 1066.52 105.466 1071.02 97.3643C1071.32 96.8197 1071.48 96.2081 1071.48 95.5858C1071.49 94.805 1071.25 94.0411 1070.8 93.4054C1070.25 92.6635 1070.01 91.7429 1070.13 90.8304C1070.24 89.918 1070.69 89.0821 1071.4 88.4926L1090.63 72.3096L1097.67 66.402L1117.35 69.3797L1132.45 86.319L1137.44 93.9369C1139.12 93.4122 1140.69 97.63 1136.58 101.882C1138.54 112.402 1139.17 127.093 1134.17 144.332C1123.89 179.826 1124.31 183.403 1133.92 215.626C1134.08 216.164 1134.24 216.696 1134.39 217.241C1128.68 237.403 1075.89 248.435 1049.51 239.577C1047.99 239.066 1036.34 215.122 1037.71 207.551C1036.01 205.872 1034.83 203.745 1034.3 201.419C1033.15 196.949 1033.36 191.028 1034.61 184.289Z" fill="#162F71"/>
<path d="M1007.72 174.845L1007.77 175.124L1009.28 182.619L1034.61 184.275L1067.82 186.449C1074.75 186.902 1081.68 185.358 1087.76 181.999C1093.85 178.64 1098.84 173.608 1102.15 167.499C1112.62 148.216 1124.73 119.727 1116.66 102.393C1111.72 99.9671 1108.78 96.2263 1106.79 91.9813C1104.82 90.8997 1102.73 90.0296 1100.58 89.3852C1062.61 77.8016 1061.08 156.4 1061.08 156.4L1040.33 163.616L1028.68 167.643L1007.72 174.845Z" fill="#19347C"/>
<path d="M1061.11 310.502C1062.31 322.706 1063.88 336.579 1065.93 351.29C1067.97 366.001 1070.48 381.367 1073.54 396.807C1082.5 403.845 1093.37 401.127 1096.52 396.003C1097.26 390.681 1098.14 385.475 1099.19 380.828C1100.16 376.535 1100.93 372.522 1101.51 368.788C1104.12 351.869 1102.77 340.245 1097.56 331.693C1097.56 331.693 1097.94 330.917 1098.59 329.513C1099.62 327.312 1101.32 323.571 1103.43 318.822C1104.89 315.504 1106.53 311.695 1108.21 307.593C1104.25 290.974 1092.99 292.541 1077.73 294.646L1066.01 294.967C1055.45 296.186 1061.6 310.434 1061.11 310.502Z" fill="#EFA08D"/>
<path d="M1110.6 373.258L1120.39 378.069L1121.31 378.525L1122.23 378.982L1126.89 381.271L1127.8 381.721L1128.72 382.177L1150.59 392.923L1161.42 391.717L1155.13 384.385C1151.33 381.884 1144.09 376.317 1135.85 369.061L1135.06 368.379L1134.27 367.698C1132.91 366.519 1131.6 365.293 1130.26 364.032L1129.49 363.262L1128.72 362.526C1125.72 359.698 1122.74 356.721 1119.85 353.668C1117.2 360.393 1114.11 366.937 1110.6 373.258Z" fill="url(#paint6_linear)"/>
<path d="M1120.39 378.069L1121.31 378.525L1122.23 378.982C1125.39 373.381 1128.1 368.25 1130.26 363.991L1129.49 363.262L1128.71 362.526C1126.51 366.88 1123.7 372.222 1120.39 378.069Z" fill="#C2D5E1"/>
<path d="M1126.89 381.271L1127.8 381.721L1128.72 382.177C1131.45 377.408 1133.83 372.965 1135.85 369.081L1135.06 368.4L1134.27 367.718C1132.22 371.677 1129.72 376.304 1126.89 381.271Z" fill="#C2D5E1"/>
<path d="M989.722 176.262C989.715 177.091 989.952 177.904 990.404 178.599L992.749 182.176C993.951 184.025 995.799 185.359 997.932 185.918C1000.07 186.478 1002.33 186.222 1004.29 185.202L1009.23 182.633L1007.72 175.138L1007.67 174.858L996.438 166.15C996.247 166.001 996.012 165.918 995.769 165.914C995.527 165.91 995.29 165.986 995.094 166.13C994.898 166.273 994.755 166.477 994.686 166.709C994.618 166.942 994.627 167.191 994.713 167.418L995.306 169.019C995.487 169.505 995.487 170.039 995.306 170.525C995.171 170.918 994.928 171.265 994.605 171.526C994.282 171.788 993.892 171.953 993.479 172.003C992.441 172.134 991.487 172.639 990.795 173.423C990.104 174.207 989.722 175.217 989.722 176.262Z" fill="#EFA08D"/>
<path d="M1143.96 86.9459L1155.16 88.9355L1166.43 90.932C1167.56 91.1296 1168.68 91.368 1169.77 91.6133C1172.52 92.2966 1175.19 93.2083 1177.78 94.3389C1178.84 94.7932 1179.88 95.2906 1180.89 95.8311C1187.19 99.1032 1192.72 103.682 1197.1 109.262C1201.48 114.841 1204.62 121.293 1206.31 128.183C1209.86 142.724 1212.84 160.829 1212.29 179.478L1206.15 259.405L1200.7 264.045C1197.97 265.64 1194.56 267.452 1190.83 269.285L1166.97 272.188L1139.57 197.685L1133.66 172.678L1131.47 99.2926L1143.96 86.9459Z" fill="#162F71"/>
<path d="M1119.27 219.544C1119.42 220.082 1103.19 242.902 1103.34 243.447C1108.79 262.267 1131.1 263.493 1145.85 275.772C1154.18 279.24 1164.05 278.45 1173.46 275.895C1179.41 274.216 1185.21 272.007 1190.77 269.292L1186.96 205.746C1186.73 201.997 1185.12 198.466 1182.44 195.833C1179.76 193.2 1176.2 191.651 1172.45 191.484L1154.47 190.694C1151.15 190.541 1148.01 189.115 1145.71 186.711C1143.41 184.307 1142.12 181.109 1142.11 177.782V95.1088C1134.09 89.7804 1126.9 87.0003 1124.5 88.7242C1126.46 99.2449 1114.05 120.129 1109.05 137.389C1098.81 172.882 1109.68 187.321 1119.27 219.544Z" fill="url(#paint7_linear)"/>
<path d="M1197.73 257.926C1197.74 259.1 1198.01 260.256 1198.52 261.315C1199.02 262.374 1199.75 263.31 1200.66 264.059C1201.65 264.89 1202.82 265.466 1204.09 265.736C1205.35 266.005 1206.66 265.961 1207.9 265.606C1211.72 264.417 1215.33 262.61 1218.56 260.257C1220.54 258.88 1222.16 257.047 1223.28 254.912C1224.4 252.776 1224.99 250.403 1225 247.992V197.004C1225 193.436 1223.62 190.005 1221.16 187.423L1215.71 181.706C1214.45 180.391 1212.81 179.518 1211.02 179.219C1209.23 178.919 1207.39 179.208 1205.77 180.044C1202.19 181.884 1198.38 185.495 1197.84 192.615C1197.03 203.3 1197.48 241.416 1197.73 257.926Z" fill="url(#paint8_linear)"/>
<path d="M1034.34 201.453C1034.87 203.779 1036.06 205.906 1037.75 207.585C1038.86 208.616 1040.17 209.393 1041.61 209.861C1067.99 218.719 1106.87 219.769 1134.43 217.248C1134.28 216.702 1134.12 216.171 1133.96 215.633C1124.35 183.41 1123.93 179.833 1134.21 144.339C1139.21 127.08 1138.58 112.409 1136.62 101.889C1132.23 105.043 1126.08 106.113 1118.72 103.326L1118.4 103.197C1117.81 102.97 1117.23 102.713 1116.67 102.427C1124.75 119.761 1112.63 148.25 1102.17 167.534C1098.86 173.642 1093.86 178.674 1087.78 182.033C1081.69 185.392 1074.77 186.936 1067.83 186.483L1034.63 184.309H1034.7C1036.21 184.779 1060.61 192.275 1080.83 194.469C1082.35 194.631 1083.75 195.346 1084.78 196.477C1085.8 197.607 1086.37 199.076 1086.38 200.601C1086.38 204.983 1085.4 210.468 1080.45 211.565C1071.94 213.479 1035.9 205.548 1034.34 201.453Z" fill="#162F71"/>
<path d="M1009.28 182.633L1034.61 184.289L1067.82 186.462C1074.75 186.915 1081.68 185.371 1087.76 182.013C1093.85 178.654 1098.84 173.622 1102.15 167.513C1112.62 148.23 1124.73 119.741 1116.66 102.407C1111.72 99.9808 1108.78 96.24 1106.79 91.9949C1104.82 90.9134 1102.73 90.0432 1100.58 89.3988C1100.58 89.3988 1115.99 106.733 1108.45 131.066C1100.91 155.398 1092.53 176.903 1073.59 179.063C1054.65 181.223 1009.28 182.633 1009.28 182.633Z" fill="#172D69"/>
<path d="M1034.61 184.289H1034.69C1036.32 184.684 1069.01 190.646 1085.82 190.646C1101.78 190.646 1111.52 170.995 1117.43 155.371C1122.45 142.111 1133.05 112.287 1118.41 103.156C1117.82 102.93 1117.24 102.673 1116.68 102.386C1124.75 119.721 1112.64 148.209 1102.17 167.493C1098.86 173.602 1093.87 178.634 1087.78 181.992C1081.7 185.351 1074.77 186.895 1067.84 186.442L1034.61 184.289Z" fill="#152E70"/>
<path d="M1062.6 310.298C1064.04 310.23 1082.85 309.501 1103.43 318.822C1104.89 315.504 1106.53 311.695 1108.21 307.593C1092.96 307.266 1077.71 308.17 1062.6 310.298Z" fill="#ED8B7B"/>
<path d="M1037.81 207.633C1037.89 207.702 1038.02 207.824 1038.22 207.988C1038.08 207.906 1037.94 207.749 1037.81 207.633Z" fill="#212028"/>
<path d="M1064.62 55.1591C1064.74 55.5523 1064.95 55.9134 1065.22 56.2155C1065.5 56.5175 1065.85 56.7528 1066.23 56.9035L1067.83 57.5236C1068.02 57.596 1068.21 57.6826 1068.38 57.7825C1069.3 57.2715 1068.34 55.7383 1066.77 55.6975C1066.02 55.675 1065.29 55.4913 1064.62 55.1591Z" fill="#ED8B7B"/>
<path d="M1088.92 67.2129L1090.09 66.5996C1090.34 66.4701 1090.63 66.4191 1090.91 66.4531C1091.19 66.4872 1091.45 66.6047 1091.66 66.7905C1091.88 66.9763 1092.03 67.2218 1092.1 67.4951C1092.17 67.7685 1092.16 68.0571 1092.07 68.3235L1090.63 72.3096L1088.92 67.2129Z" fill="#ED8B7B"/>
<path d="M1142.14 95.1088V177.782C1142.14 180.724 1143.14 183.578 1144.99 185.87C1148.4 168.562 1155.29 151.214 1158.7 132.919C1165.01 99.0881 1155.16 88.9355 1155.16 88.9355L1143.96 86.9458C1136.91 85.2015 1137.19 92.5195 1142.14 95.1088Z" fill="#021340"/>
<path d="M1133.95 215.612C1134.1 216.151 1134.27 216.682 1134.42 217.227C1139.87 236.047 1143.73 257.64 1145.87 275.772C1154.2 279.24 1164.07 278.45 1173.48 275.895C1169.54 263.01 1156.93 252.646 1147.85 230.446C1141.62 215.238 1142.07 200.56 1144.99 185.863C1143.14 183.572 1142.14 180.717 1142.14 177.775V95.1089C1138.05 90.8775 1133.08 95.6813 1136.6 101.868C1138.57 112.389 1139.2 127.08 1134.2 144.319C1123.92 179.812 1124.34 183.376 1133.95 215.612Z" fill="#67354E"/>
<path d="M1133.95 215.612C1134.1 216.151 1134.27 216.682 1134.42 217.227C1139.87 236.047 1143.73 257.64 1145.87 275.772C1154.2 279.24 1164.07 278.45 1173.48 275.895C1169.54 263.01 1156.93 252.646 1147.85 230.446C1141.62 215.238 1142.07 200.56 1144.99 185.863C1143.14 183.572 1142.14 180.717 1142.14 177.775V95.1089C1138.05 90.8775 1133.08 95.6813 1136.6 101.868C1138.57 112.389 1139.2 127.08 1134.2 144.319C1123.92 179.812 1124.34 183.376 1133.95 215.612Z" fill="url(#paint9_linear)"/>
<path d="M1197.73 257.926C1197.74 259.1 1198.01 260.256 1198.52 261.315C1199.02 262.374 1199.75 263.31 1200.66 264.059C1201.65 264.89 1202.82 265.466 1204.09 265.736C1205.35 266.005 1206.66 265.961 1207.9 265.606C1201.95 265.83 1203.18 249.177 1204.05 231.046C1205 211.687 1205.84 190.633 1206.69 186.606C1208.3 179.015 1215.3 181.529 1215.68 181.665C1214.43 180.351 1212.78 179.478 1210.99 179.178C1209.2 178.878 1207.36 179.167 1205.75 180.003C1202.17 181.843 1198.35 185.454 1197.81 192.574C1197.03 203.3 1197.48 241.416 1197.73 257.926Z" fill="#67354E"/>
<path d="M1197.73 257.926C1197.74 259.1 1198.01 260.256 1198.52 261.315C1199.02 262.374 1199.75 263.31 1200.66 264.059C1201.65 264.89 1202.82 265.466 1204.09 265.736C1205.35 266.005 1206.66 265.961 1207.9 265.606C1201.95 265.83 1203.18 249.177 1204.05 231.046C1205 211.687 1205.84 190.633 1206.69 186.606C1208.3 179.015 1215.3 181.529 1215.68 181.665C1214.43 180.351 1212.78 179.478 1210.99 179.178C1209.2 178.878 1207.36 179.167 1205.75 180.003C1202.17 181.843 1198.35 185.454 1197.81 192.574C1197.03 203.3 1197.48 241.416 1197.73 257.926Z" fill="url(#paint10_linear)"/>
<path d="M1177.79 94.3594C1181.94 101.064 1187.66 119.155 1187.74 167.949C1187.74 168.221 1187.85 168.482 1188.04 168.674C1188.23 168.867 1188.49 168.976 1188.76 168.978C1189.03 168.976 1189.29 168.867 1189.49 168.674C1189.68 168.482 1189.79 168.221 1189.79 167.949C1189.71 124.518 1185.16 104.791 1180.92 95.8448C1179.89 95.3179 1178.84 94.8227 1177.79 94.3594Z" fill="#021340"/>
<path d="M1061.27 31.1539C1065.99 35.1332 1078.91 36.1212 1080.85 42.1991C1083.36 50.0692 1082.21 56.1608 1094.41 63.4925C1095.67 64.252 1096.79 65.2331 1097.7 66.3884C1102.64 72.5209 1102.73 83.3277 1106.79 91.9949C1108.78 96.24 1111.72 99.9808 1116.65 102.407C1117.32 102.743 1118 103.043 1118.7 103.306C1120.4 103.967 1122.18 104.435 1123.98 104.703C1128.4 105.456 1132.93 104.437 1136.6 101.868C1138.99 100.127 1140.9 97.7996 1142.13 95.1089C1143.43 92.3056 1144.05 89.235 1143.93 86.1485C1143.81 83.0621 1142.96 80.0476 1141.45 77.3519C1134.18 64.4056 1125.61 63.4925 1125.03 44.802C1124.54 28.4488 1119.76 15.7477 1110.66 8.09571C1099.45 -1.32788 1079.54 0.218868 1067.77 12.4293C1063.94 16.4248 1061.18 21.3169 1059.74 26.6567C1059.21 28.5373 1059.88 29.9751 1061.27 31.1539Z" fill="#2E1F0A"/>
<path d="M1067.8 12.4293C1068.53 12.1363 1093.71 2.35161 1101.76 17.3081C1109.94 32.4757 1097.71 51.7863 1108.96 64.7871C1120.2 77.788 1140.01 95.1634 1123.96 104.703C1128.37 105.456 1132.9 104.437 1136.57 101.868C1138.97 100.127 1140.87 97.7996 1142.11 95.1089C1143.4 92.3056 1144.02 89.235 1143.9 86.1485C1143.78 83.0621 1142.93 80.0476 1141.42 77.3519C1134.15 64.4056 1125.59 63.4925 1125.01 44.802C1124.51 28.4488 1119.74 15.7477 1110.63 8.09571C1099.49 -1.32788 1079.58 0.218868 1067.8 12.4293Z" fill="#261704"/>
<path d="M1011.08 307.695C1014.55 309.384 1018.21 310.66 1021.99 311.497L1022.67 311.661C1025.36 312.236 1028.08 312.641 1030.82 312.873C1038.18 313.433 1045.58 313.062 1052.84 311.77C1055.57 311.313 1058.3 310.884 1061.11 310.502C1076.71 308.231 1092.47 307.258 1108.23 307.593C1120.22 307.94 1131.18 309.303 1139.84 311.926C1140.75 312.204 1141.72 312.267 1142.66 312.111C1143.6 311.954 1144.49 311.582 1145.26 311.024C1146.04 310.466 1146.67 309.736 1147.11 308.893C1147.56 308.049 1147.8 307.114 1147.82 306.162C1147.99 298.98 1147.33 288.194 1145.87 275.779C1144.12 260.953 1141.56 246.235 1138.19 231.693C1137.03 226.767 1135.77 221.915 1134.42 217.234C1132.33 217.425 1130.18 217.595 1127.98 217.745C1101.05 219.551 1065.98 218.038 1041.59 209.848C1041.07 209.674 1040.56 209.462 1040.07 209.214C1039.44 208.89 1038.84 208.499 1038.29 208.049L1038.22 207.994C1038.08 207.879 1037.94 207.756 1037.81 207.64L1037.74 207.572C1029.51 221.636 1004.95 265.953 1003.76 295.382C1003.66 297.921 1004.3 300.435 1005.6 302.62C1006.89 304.805 1008.8 306.568 1011.08 307.695Z" fill="url(#paint11_linear)"/>
<path d="M1101.76 289.808C1123.91 276.521 1127.34 259.044 1125.93 246.002C1125.48 242.108 1123.68 238.494 1120.84 235.784C1118.01 233.075 1114.32 231.44 1110.4 231.161C1063.68 227.577 1041.94 211.074 1038.31 208.042C1038.86 208.492 1039.46 208.883 1040.09 209.207C1040.59 209.455 1041.09 209.667 1041.61 209.841C1066.22 218.106 1101.72 219.571 1128.74 217.684L1130.26 217.575L1131.54 217.445C1132.51 217.37 1133.48 217.288 1134.44 217.2C1135.8 221.881 1137.05 226.739 1138.21 231.659C1141.57 246.211 1144.12 260.938 1145.86 275.772C1147.31 288.187 1147.98 298.939 1147.81 306.155C1147.78 307.108 1147.54 308.042 1147.1 308.886C1146.66 309.729 1146.02 310.459 1145.25 311.017C1144.48 311.575 1143.59 311.947 1142.65 312.104C1141.7 312.261 1140.74 312.197 1139.83 311.92C1131.16 309.296 1120.21 307.933 1108.22 307.586C1092.46 307.251 1076.7 308.225 1061.09 310.495C1058.31 310.877 1055.55 311.306 1052.83 311.763C1045.56 313.055 1038.16 313.426 1030.8 312.867C1028.06 312.635 1025.34 312.23 1022.65 311.654L1021.97 311.49C1021.97 311.49 1061.46 313.984 1101.76 289.808Z" fill="url(#paint12_linear)"/>
<path d="M1073.54 396.807C1074.17 399.918 1074.81 403.026 1075.47 406.128C1075.54 406.469 1075.62 406.809 1075.69 407.15L1075.92 408.172C1076.29 409.898 1076.68 411.62 1077.07 413.337C1077.14 413.678 1077.23 414.019 1077.3 414.359C1077.38 414.7 1077.46 415.041 1077.54 415.381C1079.3 422.992 1081.21 430.515 1083.29 437.867L1088.17 444.94L1092.94 437.881C1092.94 437.881 1093.3 427.714 1094.43 414.863C1094.43 414.53 1094.48 414.182 1094.52 413.848C1094.55 413.514 1094.58 413.167 1094.61 412.813C1094.77 411.089 1094.94 409.317 1095.13 407.525C1095.13 407.184 1095.21 406.844 1095.24 406.503C1095.27 406.162 1095.31 405.821 1095.36 405.46C1095.69 402.326 1096.08 399.151 1096.52 396.01C1090.9 396.371 1082.86 396.766 1073.54 396.807Z" fill="url(#paint13_linear)"/>
<path d="M1075.47 406.128C1075.54 406.469 1075.62 406.809 1075.69 407.15L1075.92 408.172C1083.42 408.104 1090.01 407.825 1095.13 407.491C1095.13 407.15 1095.2 406.809 1095.24 406.469C1095.27 406.128 1095.31 405.787 1095.35 405.426C1090.13 405.774 1083.26 406.074 1075.47 406.128Z" fill="#E6F5FF"/>
<path d="M1077.07 413.337C1077.14 413.678 1077.23 414.019 1077.3 414.359C1077.38 414.7 1077.46 415.041 1077.54 415.381C1083.93 415.327 1089.69 415.116 1094.43 414.857C1094.43 414.523 1094.48 414.175 1094.52 413.841C1094.55 413.508 1094.58 413.16 1094.61 412.806C1089.74 413.065 1083.74 413.296 1077.07 413.337Z" fill="#E6F5FF"/>
<path d="M1073.47 450.084L1087.37 450.357H1088.73L1092.31 450.425C1092.81 450.436 1093.32 450.326 1093.77 450.106C1094.23 449.886 1094.63 449.561 1094.93 449.158C1095.24 448.754 1095.45 448.284 1095.54 447.786C1095.63 447.287 1095.6 446.775 1095.46 446.289L1094.54 443.189L1094.14 441.887L1092.94 437.847H1083.29L1071.99 443.23C1071.25 443.575 1070.65 444.161 1070.29 444.89C1069.93 445.619 1069.83 446.45 1070 447.246C1070.17 448.041 1070.61 448.755 1071.24 449.271C1071.87 449.787 1072.65 450.073 1073.47 450.084Z" fill="#162F71"/>
<path d="M1094.14 441.915L1094.54 443.216C1092.9 443.584 1091.44 444.492 1090.39 445.793C1089.34 447.093 1088.75 448.711 1088.73 450.384H1087.37C1087.39 448.419 1088.07 446.517 1089.29 444.982C1090.52 443.447 1092.23 442.367 1094.14 441.915Z" fill="#738598"/>
<path d="M1083.39 444.347C1083.52 444.346 1083.65 444.306 1083.76 444.232C1083.91 444.132 1084.02 443.977 1084.05 443.801C1084.09 443.625 1084.05 443.441 1083.95 443.291C1082.8 441.608 1081.42 440.087 1079.86 438.767C1079.72 438.665 1079.55 438.621 1079.38 438.643C1079.21 438.665 1079.05 438.751 1078.94 438.885C1078.83 439.019 1078.77 439.189 1078.78 439.363C1078.79 439.536 1078.87 439.698 1079 439.816C1080.44 441.053 1081.72 442.473 1082.8 444.041C1082.87 444.137 1082.95 444.216 1083.06 444.27C1083.16 444.324 1083.27 444.35 1083.39 444.347Z" fill="#738598"/>
<path d="M1079.82 445.601C1079.94 445.608 1080.06 445.577 1080.16 445.512C1080.23 445.47 1080.3 445.415 1080.34 445.349C1080.39 445.284 1080.43 445.209 1080.45 445.13C1080.47 445.051 1080.47 444.969 1080.46 444.888C1080.45 444.808 1080.42 444.73 1080.38 444.661C1079.39 443.082 1078.2 441.638 1076.84 440.368C1076.72 440.259 1076.56 440.203 1076.39 440.211C1076.23 440.22 1076.08 440.294 1075.96 440.416C1075.91 440.476 1075.87 440.546 1075.84 440.623C1075.81 440.7 1075.8 440.782 1075.8 440.864C1075.81 440.945 1075.83 441.025 1075.86 441.099C1075.9 441.173 1075.94 441.24 1076.01 441.295C1077.27 442.483 1078.39 443.83 1079.31 445.301C1079.36 445.39 1079.44 445.464 1079.53 445.516C1079.61 445.569 1079.71 445.598 1079.82 445.601Z" fill="#738598"/>
<path d="M1156.77 407.321L1163.53 395.185L1164.21 393.993L1165.95 390.872C1166.19 390.429 1166.33 389.934 1166.35 389.428C1166.37 388.921 1166.27 388.418 1166.06 387.958C1165.84 387.498 1165.53 387.094 1165.13 386.78C1164.73 386.466 1164.26 386.25 1163.77 386.15L1160.6 385.509L1159.23 385.244L1155.13 384.385L1150.59 392.902L1150.04 405.399C1150.01 406.206 1150.24 407.003 1150.71 407.659C1151.19 408.315 1151.87 408.793 1152.64 409.015C1153.42 409.238 1154.25 409.191 1155 408.884C1155.75 408.576 1156.37 408.025 1156.77 407.321Z" fill="#162F71"/>
<path d="M1159.26 385.244L1160.62 385.509C1160.18 387.123 1160.3 388.839 1160.96 390.378C1161.61 391.918 1162.77 393.191 1164.24 393.993L1163.56 395.185C1161.83 394.243 1160.48 392.753 1159.7 390.952C1158.92 389.151 1158.77 387.142 1159.26 385.244Z" fill="#4E667C"/>
<path d="M1156.36 395.873C1156.42 395.757 1156.45 395.624 1156.44 395.492C1156.43 395.402 1156.4 395.315 1156.36 395.235C1156.32 395.156 1156.26 395.086 1156.19 395.029C1156.12 394.972 1156.04 394.929 1155.95 394.903C1155.87 394.877 1155.78 394.869 1155.69 394.878C1153.66 395.105 1151.68 395.6 1149.78 396.35C1149.62 396.42 1149.48 396.553 1149.41 396.72C1149.34 396.888 1149.35 397.076 1149.41 397.243C1149.48 397.41 1149.62 397.543 1149.79 397.612C1149.95 397.681 1150.14 397.68 1150.31 397.611C1152.08 396.921 1153.93 396.463 1155.82 396.248C1155.94 396.235 1156.04 396.194 1156.14 396.128C1156.23 396.063 1156.31 395.975 1156.36 395.873Z" fill="#4E667C"/>
<path d="M1155.8 399.621C1155.86 399.516 1155.89 399.395 1155.89 399.273C1155.88 399.189 1155.86 399.107 1155.82 399.031C1155.79 398.955 1155.73 398.887 1155.67 398.832C1155.61 398.777 1155.53 398.735 1155.45 398.709C1155.37 398.683 1155.29 398.673 1155.2 398.681C1153.34 398.806 1151.51 399.18 1149.75 399.791C1149.67 399.817 1149.6 399.858 1149.53 399.913C1149.47 399.967 1149.42 400.034 1149.38 400.109C1149.35 400.184 1149.33 400.265 1149.32 400.348C1149.32 400.431 1149.33 400.514 1149.36 400.592C1149.39 400.671 1149.43 400.742 1149.49 400.803C1149.54 400.864 1149.61 400.913 1149.69 400.947C1149.76 400.981 1149.85 400.999 1149.93 401.001C1150.01 401.003 1150.1 400.987 1150.17 400.956C1151.82 400.398 1153.53 400.052 1155.27 399.928C1155.37 399.926 1155.48 399.897 1155.57 399.843C1155.66 399.789 1155.74 399.713 1155.8 399.621Z" fill="#4E667C"/>
<defs>
<linearGradient id="paint0_linear" x1="237.496" y1="98.9954" x2="237.496" y2="269.708" gradientUnits="userSpaceOnUse">
<stop stop-color="#5986FB"/>
<stop offset="1" stop-color="#2D4EF5"/>
</linearGradient>
<linearGradient id="paint1_linear" x1="215" y1="169.24" x2="215" y2="253.05" gradientUnits="userSpaceOnUse">
<stop stop-color="#5986FB"/>
<stop offset="1" stop-color="#2D4EF5"/>
</linearGradient>
<linearGradient id="paint2_linear" x1="258.789" y1="98.9954" x2="258.789" y2="269.708" gradientUnits="userSpaceOnUse">
<stop stop-color="#456EDC"/>
<stop offset="1" stop-color="#1D3AD0"/>
</linearGradient>
<linearGradient id="paint3_linear" x1="217.723" y1="169.274" x2="217.723" y2="253.05" gradientUnits="userSpaceOnUse">
<stop stop-color="#456EDC"/>
<stop offset="1" stop-color="#1D3AD0"/>
</linearGradient>
<linearGradient id="paint4_linear" x1="280.332" y1="189.197" x2="280.332" y2="246.344" gradientUnits="userSpaceOnUse">
<stop stop-color="#365FC9"/>
<stop offset="1" stop-color="#0C27AF"/>
</linearGradient>
<linearGradient id="paint5_linear" x1="313.646" y1="72.8524" x2="313.646" y2="128.193" gradientUnits="userSpaceOnUse">
<stop stop-color="#5986FB"/>
<stop offset="1" stop-color="#2D4EF5"/>
</linearGradient>
<linearGradient id="paint6_linear" x1="1161.42" y1="353.668" x2="1161.42" y2="392.923" gradientUnits="userSpaceOnUse">
<stop stop-color="#5986FB"/>
<stop offset="1" stop-color="#2D4EF5"/>
</linearGradient>
<linearGradient id="paint7_linear" x1="1190.77" y1="88.2147" x2="1190.77" y2="278.099" gradientUnits="userSpaceOnUse">
<stop stop-color="#5986FB"/>
<stop offset="1" stop-color="#2D4EF5"/>
</linearGradient>
<linearGradient id="paint8_linear" x1="1225" y1="179.104" x2="1225" y2="265.91" gradientUnits="userSpaceOnUse">
<stop stop-color="#5986FB"/>
<stop offset="1" stop-color="#2D4EF5"/>
</linearGradient>
<linearGradient id="paint9_linear" x1="1173.48" y1="93.506" x2="1173.48" y2="278.099" gradientUnits="userSpaceOnUse">
<stop stop-color="#456EDC"/>
<stop offset="1" stop-color="#1D3AD0"/>
</linearGradient>
<linearGradient id="paint10_linear" x1="1215.68" y1="179.063" x2="1215.68" y2="265.91" gradientUnits="userSpaceOnUse">
<stop stop-color="#456EDC"/>
<stop offset="1" stop-color="#1D3AD0"/>
</linearGradient>
<linearGradient id="paint11_linear" x1="1147.85" y1="207.572" x2="1147.85" y2="313.126" gradientUnits="userSpaceOnUse">
<stop stop-color="#5986FB"/>
<stop offset="1" stop-color="#2D4EF5"/>
</linearGradient>
<linearGradient id="paint12_linear" x1="1147.83" y1="208.042" x2="1147.83" y2="313.119" gradientUnits="userSpaceOnUse">
<stop stop-color="#547DEA"/>
<stop offset="1" stop-color="#1B39CE"/>
</linearGradient>
<linearGradient id="paint13_linear" x1="1096.52" y1="396.01" x2="1096.52" y2="444.94" gradientUnits="userSpaceOnUse">
<stop stop-color="#5986FB"/>
<stop offset="1" stop-color="#2D4EF5"/>
</linearGradient>
<clipPath id="clip0">
<rect width="43.6709" height="43.653" fill="white" transform="matrix(0.914086 -0.40552 0.405934 0.913902 335.988 203.657)"/>
</clipPath>
</defs>
</svg>
