<svg width="82" height="82" viewBox="0 0 82 82" fill="none" xmlns="http://www.w3.org/2000/svg">
<path d="M1 17.8421H76.7895M28.6632 34.6842H17.8421M26.2632 59.9474H13.6316C6.65474 59.9474 1 54.2926 1 47.3158V13.6316C1 6.65474 6.65474 1 13.6316 1H64.1579C71.1347 1 76.7895 6.65474 76.7895 13.6316V30.4737M59.9516 59.1684V51.4421M59.9474 67.6905C59.7368 67.6905 59.5642 67.8632 59.5684 68.0737C59.5684 68.2842 59.7411 68.4568 59.9516 68.4568C60.1621 68.4568 60.3305 68.2842 60.3305 68.0737C60.3305 67.8632 60.1621 67.6905 59.9474 67.6905ZM59.9474 81C48.3221 81 38.8947 71.5726 38.8947 59.9474C38.8947 48.3221 48.3221 38.8947 59.9474 38.8947C71.5768 38.8947 81 48.3221 81 59.9474C81 71.5726 71.5768 81 59.9474 81Z" stroke="white" stroke-width="1.5" stroke-linecap="round" stroke-linejoin="round"/>
</svg>
