<svg width="470" height="235" viewBox="0 0 470 235" fill="none" xmlns="http://www.w3.org/2000/svg">
<path d="M39.6565 118.916C45.1937 128.428 43.3402 138.99 33.2943 139.988C31.8882 138.531 30.546 137.086 29.2794 135.734C20.7034 126.449 15.4451 119.485 15.4451 119.485L13.702 113.931L18.9313 113.461L39.6565 118.916Z" fill="#84A1BE"/>
<path d="M372.824 115.967L377.03 122.449L367.582 121.201L361.772 117.226C363.87 115.108 367.815 111.962 370.11 109.49C371.115 111.899 372.824 115.967 372.824 115.967Z" fill="#5E7EA1"/>
<path d="M94.7084 34.8668L95.2372 30.3576L93.314 28.4774L96.6142 17.9328L138.942 15.4316L145.566 18.6815L145.002 19.6158L145.961 20.1265L147.954 22.2795L150.946 20.9447L156.913 29.6438L145.566 34.0485L95.2139 37.1823L94.7084 34.8668Z" fill="#31363E"/>
<path d="M118.693 68.2468L127.048 65.3916L146.879 44.761L143.143 30.6068L127.612 28.1172L118.519 30.9028L104.719 32.9745L100.472 31.6572L95.2139 37.1819L91.472 42.1205L94.9815 45.1266L118.693 68.2468Z" fill="#EFA08D"/>
<path d="M137.484 68.3161L133.8 55.5605L145.363 60.6848L148.756 72.4597L137.484 68.3161Z" fill="#84A1BE"/>
<path d="M125.979 178.433L147.954 157.048L174.152 155.093L196.365 166.763L220.385 194.137V231.974L285.158 254.485L297.656 277.733L335.167 272.249L367.263 240.789L289.231 68.3918L172.88 24.6758L145.362 60.6851L144.433 71.1832L137.484 68.3163L134.602 61.8167L118.519 58.2303L118.693 68.2467L127.833 84.5133L120.93 111.11L114.841 111.533L110.652 148.848L125.979 178.433Z" fill="#ECE493"/>
<path d="M12.3075 123.041C11.9554 123.101 11.5936 123.02 11.3016 122.814C11.0096 122.609 10.8113 122.296 10.7503 121.944L10.4133 119.977L9.64631 115.56L6.10191 95.0342L5.67194 92.5562C6.09262 92.8192 6.59524 92.9189 7.08461 92.8366C7.57399 92.7542 8.01614 92.4955 8.32733 92.1094L8.7573 94.5816L12.2436 114.864L13.1849 120.302L13.3883 121.462C13.4219 121.637 13.4205 121.816 13.3843 121.99C13.3481 122.165 13.2777 122.33 13.1772 122.476C13.0767 122.623 12.9482 122.749 12.7989 122.846C12.6496 122.942 12.4826 123.009 12.3075 123.041Z" fill="#5C7893"/>
<path d="M8.7573 94.5816C8.44636 94.968 8.00362 95.2263 7.51386 95.307C7.02562 95.3965 6.52154 95.2991 6.10191 95.0342L5.67194 92.5562C6.09262 92.8192 6.59524 92.9189 7.08461 92.8366C7.57399 92.7542 8.01614 92.4955 8.32733 92.1094L8.7573 94.5816Z" fill="#39526E"/>
<path d="M132.574 43.7164L130.732 51.5044C130.54 52.3226 130.308 53.1293 130.041 53.9185C129.901 54.3248 129.75 54.731 129.593 55.1256C129.529 55.2997 129.46 55.468 129.39 55.6363C128.919 56.7763 128.367 57.8817 127.74 58.9442C127.641 59.1183 127.537 59.2982 127.426 59.4723C127.316 59.6464 127.182 59.8611 127.054 60.0526C126.926 60.2441 126.758 60.4995 126.601 60.72C126.543 60.8128 126.479 60.9057 126.409 60.9985L126.049 61.4918C125.927 61.6543 125.805 61.8168 125.671 61.9793L125.369 62.3623L122.639 65.2349L122.174 65.6469L119.687 67.562L118.711 68.241C115.585 70.4462 112.604 72.7443 110.896 73.1622C105.957 74.3809 103.389 67.0688 101.135 62.7511C100.089 60.7374 99.4555 59.7392 98.7524 59.1241C98.0494 58.5089 97.1314 58.2304 95.5568 57.6268C94.3076 57.151 93.7614 56.6113 93.6162 55.5551C93.4477 54.3364 93.8253 52.4155 94.2669 49.0786C94.4354 47.8193 94.8479 46.4962 94.999 45.1208C95.307 42.7995 95.4464 40.4143 95.5103 38.4412C95.5103 37.9422 95.5103 37.4663 95.5452 37.0252L96.5562 36.5378C99.3916 35.1721 102.119 33.9824 104.737 32.9687C108.926 34.0249 118.443 36.9614 121.383 42.4513C121.576 42.8055 121.742 43.1742 121.877 43.5539C121.825 43.3392 121.674 42.6776 121.517 41.7549C120.936 38.3948 120.216 31.5469 123.94 30.0033C124.54 29.7428 125.192 29.6199 125.846 29.6435C129.065 29.8292 131.075 34.2861 130.831 38.9809C130.784 39.8471 130.915 40.7138 131.214 41.528C131.514 42.3421 131.977 43.0868 132.574 43.7164Z" fill="#EFA08D"/>
<path d="M145.566 18.6812C137.562 18.327 129.544 18.8054 121.639 20.1088C111.866 21.6251 102.34 24.4395 93.314 28.4771L91.7685 21.4145C91.2438 19.0653 91.4026 16.6151 92.2262 14.3531C93.0497 12.091 94.5037 10.1113 96.4167 8.64734C101.538 4.8167 107.432 2.14533 113.691 0.818735C120.866 -0.765557 128.954 0.238408 134.52 1.39906C136.547 1.81768 138.417 2.79035 139.922 4.20856C141.427 5.62677 142.508 7.43474 143.044 9.43078L145.566 18.6812Z" fill="#535962"/>
<path d="M145.961 20.1284C141.76 19.8266 136.083 20.1284 129.309 21.2368C127.531 21.5212 125.671 21.8694 123.748 22.2756C122.883 22.4555 122.005 22.647 121.105 22.856C110.1 25.4036 102.07 29.3788 96.6724 33.3599C96.2889 33.6442 95.9112 33.9402 95.5568 34.2071L94.7433 34.8629L93.3489 28.4793C102.375 24.4417 111.901 21.6273 121.674 20.111C129.578 18.8076 137.597 18.3292 145.601 18.6834L145.961 20.1284Z" fill="url(#paint0_linear)"/>
<path d="M95.528 37.0328C95.528 37.4739 95.528 37.9497 95.4931 38.4488C95.4292 40.4219 95.2897 42.8071 94.9818 45.1284C94.9818 45.1284 89.9092 49.2487 88.2242 45.9002C87.6431 44.7396 87.9569 42.6446 89.8337 39.9983C91.2997 38.4881 92.9817 37.2033 94.8249 36.1855L95.528 37.0328Z" fill="#31363E"/>
<path d="M150.946 20.9424C150.679 22.6833 150.365 24.5462 150.057 26.5077C149.871 27.6219 149.679 28.7652 149.476 29.9258C149.435 30.1522 149.401 30.3785 149.36 30.6048C147.541 29.6821 141.185 26.9313 130.5 27.2679C123.661 27.4826 115.05 28.9567 104.714 32.9725C101.809 34.1332 98.7233 35.4563 95.5219 37.0348L95.2081 37.1857C93.4534 38.0562 91.66 38.9944 89.8278 40.0003C91.2259 38.0886 92.8643 36.3645 94.7026 34.8702L95.5161 34.2144C95.8705 33.9359 96.2482 33.6341 96.6316 33.3672C101.699 29.7554 107.3 26.9555 113.232 25.0685C115.649 24.256 118.258 23.5229 121.058 22.869C121.947 22.6659 122.801 22.4686 123.678 22.2887H123.76C125.689 21.8767 127.554 21.5343 129.338 21.2441C133.597 20.5163 137.905 20.1109 142.225 20.0313C143.584 20.0313 144.845 20.0312 145.99 20.1357C147.667 20.2179 149.33 20.4885 150.946 20.9424Z" fill="#535962"/>
<path d="M145.351 60.672C144.786 61.6365 144.136 62.5492 143.41 63.3995C141.728 65.3636 139.72 67.0226 137.472 68.3033L119.693 67.5663L122.179 65.6512L122.644 65.2392L125.375 62.3665C125.48 62.2389 125.584 62.1112 125.677 61.9835C125.77 61.8559 125.933 61.6585 126.055 61.4961L126.415 61.0028C126.488 60.9118 126.556 60.8169 126.618 60.7184L126.729 60.5675C126.845 60.3992 126.961 60.2251 127.072 60.051C127.182 59.8769 127.322 59.668 127.444 59.4707C127.566 59.2734 127.659 59.1167 127.757 58.9426C128.385 57.8801 128.936 56.7748 129.407 55.6348C129.477 55.4665 129.547 55.2982 129.611 55.1241C129.773 54.7294 129.919 54.3232 130.058 53.917C130.325 53.1277 130.558 52.3211 130.75 51.5028L132.597 43.7148C133.26 44.4026 134.055 44.9497 134.935 45.3236C135.814 45.6975 136.76 45.8905 137.716 45.8911C138.021 45.892 138.326 45.8726 138.628 45.833L146.902 44.7594C146.129 49.0306 145.432 52.8318 144.938 55.4897C144.77 56.3834 144.63 57.1494 144.514 57.7587C144.511 57.7858 144.511 57.813 144.514 57.84C144.426 58.3445 144.455 58.8626 144.601 59.3538C144.746 59.8451 145.002 60.2962 145.351 60.672Z" fill="#EFA08D"/>
<path d="M149.372 30.6074C148.564 35.3429 147.687 40.3105 146.879 44.7616L138.605 45.8352C137.504 45.9773 136.385 45.8596 135.338 45.4918C134.29 45.124 133.344 44.5161 132.574 43.717C131.977 43.0881 131.515 42.3444 131.215 41.5313C130.916 40.7181 130.785 39.8526 130.831 38.9874C131.058 34.2693 129.088 29.8356 125.846 29.6499C125.192 29.6263 124.54 29.7493 123.94 30.0097C120.216 31.5534 120.919 38.4012 121.517 41.7613C121.674 42.684 121.825 43.3456 121.877 43.5603C121.741 43.1806 121.576 42.8119 121.383 42.4577C118.443 36.9678 108.926 34.0314 104.737 32.9752L105.899 32.5283L106.649 32.2498L107.596 31.9132L108.525 31.5882L109.449 31.2748L110.367 30.973L111.268 30.6887C112.163 30.4159 113.046 30.1548 113.917 29.9169L114.347 29.8008L115.393 29.5222L116.474 29.2553C116.735 29.1856 117.002 29.1276 117.264 29.0696C117.903 28.9187 118.531 28.7794 119.152 28.6575C119.513 28.5763 119.867 28.5067 120.221 28.4428C120.849 28.3209 121.471 28.2107 122.081 28.112C122.505 28.0424 122.929 27.9728 123.341 27.9205C123.58 27.8799 123.812 27.8451 124.05 27.8219C124.289 27.7987 124.631 27.7348 124.934 27.7058L126.154 27.5665L126.833 27.5027L127.467 27.4447L127.99 27.404L129.419 27.317C129.791 27.317 130.157 27.2822 130.517 27.2706C141.191 26.934 147.582 29.6847 149.372 30.6074Z" fill="#39526E"/>
<path d="M411.746 228.83C404.263 229.59 388.616 232.149 367.263 240.79C351.72 247.081 333.156 256.599 312.518 270.967C311.265 271.839 309.762 272.28 308.236 272.224C306.71 272.167 305.244 271.616 304.059 270.654C301.763 268.791 298.579 266.157 294.681 262.814C291.863 260.4 288.667 257.591 285.158 254.463C267.507 238.629 250.705 221.875 234.823 204.27C230.911 199.93 226.96 195.422 222.97 190.749C211.309 177.065 199.474 161.988 188.213 145.756C180.828 135.107 173.688 123.965 166.994 112.382C164.046 107.279 161.194 102.096 158.436 96.8346C157.436 94.9195 156.443 92.9986 155.472 91.0603C154.484 89.0855 154.214 86.8283 154.711 84.6767L156.355 77.4633C156.533 76.6868 156.542 75.8812 156.38 75.1012C156.219 74.3212 155.891 73.585 155.42 72.9425C154.915 72.2519 154.293 71.4163 153.578 70.4819C153.346 70.1744 153.096 69.8494 152.834 69.5186C152.19 68.6829 151.481 67.7776 150.725 66.8665L150.086 66.0831L149.325 65.1429C148.087 63.6747 146.757 62.1484 145.38 60.6628C145.025 60.2902 144.762 59.8405 144.611 59.3491C144.46 58.8577 144.425 58.338 144.508 57.8308C144.506 57.8038 144.506 57.7766 144.508 57.7496C144.625 57.1402 144.764 56.3742 144.932 55.4805C145.426 52.8226 146.095 49.0215 146.896 44.7502C147.704 40.2991 148.581 35.3315 149.389 30.5961C149.43 30.3698 149.465 30.1434 149.505 29.9171C149.697 28.7564 149.889 27.5958 150.086 26.499C150.412 24.5375 150.708 22.663 150.975 20.9336C151.115 20.0225 151.242 19.1578 151.364 18.3338C151.413 17.9734 151.546 17.6296 151.753 17.33C151.959 17.0304 152.233 16.7834 152.552 16.6089C152.872 16.4344 153.228 16.3373 153.592 16.3255C153.956 16.3136 154.317 16.3873 154.647 16.5406L171.625 24.1835L172.909 24.6651C170.724 26.7389 168.834 29.1014 167.29 31.6871V31.7277C164.967 35.6064 163.606 39.984 163.322 44.4949C162.555 56.763 169.806 69.4489 183.391 77.3472L183.46 77.3936C192.315 82.5411 203.855 85.6807 217.613 85.3963C259.924 84.52 289.283 68.3986 289.283 68.3986C289.759 68.9789 310.583 94.5713 330.803 115.951C339.914 125.596 352.04 138.583 364.84 153.828L364.881 153.869L365.066 154.09L365.56 154.67C377.181 168.517 389.295 184.162 400.23 200.759L400.945 201.845C405.68 209.087 410.189 216.504 414.309 224.031C414.57 224.504 414.709 225.034 414.713 225.575C414.717 226.115 414.585 226.648 414.331 227.124C414.076 227.601 413.707 228.007 413.255 228.305C412.804 228.603 412.285 228.783 411.746 228.83Z" fill="url(#paint1_linear)"/>
<path d="M166.983 112.397C157.257 109.302 147.746 105.57 138.512 101.225C137.762 100.877 137.107 100.353 136.601 99.6986C136.096 99.0442 135.755 98.2782 135.607 97.465C134.985 93.983 134.149 89.7176 133.655 87.2396C133.536 86.6381 133.23 86.0894 132.78 85.6724C132.331 85.2554 131.76 84.9914 131.151 84.9183L127.804 84.5121L118.658 83.4094C118.249 83.3602 117.852 83.2298 117.494 83.0257C117.135 82.8217 116.82 82.5481 116.569 82.2211C116.317 81.8941 116.133 81.5203 116.028 81.1214C115.923 80.7226 115.899 80.3068 115.957 79.8985C116.299 77.4669 116.741 75.2558 117.206 73.335C117.671 71.4141 118.199 69.6441 118.664 68.2455L119.147 67.9147L119.635 67.5781L137.449 68.3268C137.449 68.3268 137.449 68.5647 137.536 68.9941C137.536 69.058 137.536 69.1218 137.565 69.1914C137.565 69.3249 137.612 69.47 137.641 69.6325C137.687 69.9052 137.745 70.2128 137.821 70.561C137.896 70.9092 137.949 71.1762 138.03 71.5185C138.025 71.5395 138.025 71.5614 138.03 71.5824C138.073 71.7681 138.119 71.9615 138.169 72.1627C138.262 72.5515 138.379 72.9636 138.506 73.4046C138.611 73.7586 138.721 74.13 138.849 74.5188C138.901 74.6929 138.965 74.8728 139.023 75.0585L139.18 75.4996C139.628 76.7752 140.142 78.0266 140.72 79.2485C140.807 79.4342 140.894 79.6257 140.993 79.8288C141.68 81.2426 142.456 82.6111 143.317 83.9259C143.48 84.1755 143.643 84.4192 143.811 84.663C143.98 84.9067 144.195 85.2085 144.392 85.4812L144.909 86.166C145.095 86.4097 145.289 86.6535 145.49 86.8972C145.688 87.1467 145.897 87.3963 146.112 87.64C146.327 87.8838 146.542 88.1333 146.763 88.377C146.984 88.6208 147.106 88.7543 147.28 88.9574C147.842 89.557 148.44 90.1374 149.075 90.6984C149.267 90.8783 149.465 91.0581 149.656 91.2322H149.691C149.955 91.4644 150.222 91.6907 150.493 91.9112C151.074 92.4161 151.742 92.9036 152.416 93.3853C152.643 93.5478 152.875 93.7044 153.113 93.8669L153.172 93.9076C153.45 94.0991 153.753 94.2848 154.031 94.4879C154.421 94.7316 154.816 94.9754 155.228 95.2075C155.478 95.3584 155.728 95.4976 155.984 95.6369C156.758 96.0548 157.543 96.4532 158.337 96.8324C161.149 102.11 164.031 107.298 166.983 112.397Z" fill="url(#paint2_linear)"/>
<path d="M158.425 96.8436C139.25 87.9588 137.507 68.309 137.507 68.309C139.747 67.0243 141.748 65.3635 143.422 63.3994C144.148 62.5491 144.797 61.6363 145.363 60.6719C146.74 62.1575 148.07 63.6838 149.308 65.152C151.894 68.2335 154.061 71.0945 155.409 72.9342C155.88 73.5766 156.208 74.3129 156.369 75.0929C156.531 75.8729 156.522 76.6785 156.344 77.4549L154.7 84.6684C154.6 85.0958 154.534 85.5305 154.503 85.9683C154.343 87.7196 154.677 89.4805 155.467 91.052C156.432 92.9961 157.425 94.9286 158.425 96.8436Z" fill="#84A1BE"/>
<path d="M234.812 204.287C229.873 200.968 225.064 197.585 220.385 194.137C204.146 182.133 188.703 169.091 174.152 155.093C155.337 137.094 137.94 117.673 122.116 97.0023C123.737 93.59 125.166 90.4852 126.357 87.8331C126.897 86.6261 127.391 85.5118 127.833 84.5137L131.18 84.9199C131.789 84.993 132.36 85.257 132.809 85.674C133.259 86.091 133.565 86.6397 133.684 87.2412C134.178 89.7192 135.014 93.973 135.636 97.4666C135.784 98.2798 136.125 99.0458 136.63 99.7002C137.136 100.355 137.791 100.878 138.541 101.227C147.775 105.571 157.286 109.303 167.012 112.398C173.699 124.005 180.846 135.124 188.231 145.773C199.491 162.022 211.327 177.082 222.988 190.766C226.946 195.435 230.888 199.943 234.812 204.287Z" fill="url(#paint3_linear)"/>
<path d="M127.246 163.72C127.079 168.642 126.662 173.552 125.997 178.431C124.521 178.876 123.053 179.288 121.593 179.668H121.558C95.4114 188.402 55.7679 171.868 38.7729 163.714C37.7348 163.215 36.7838 162.751 35.92 162.322C34.3171 161.523 32.9981 160.252 32.141 158.681C31.2838 157.11 30.9298 155.314 31.1266 153.535C31.6186 148.991 32.342 144.474 33.2938 140.002C34.8222 132.813 36.9503 125.765 39.656 118.931L83.9652 130.607L100.885 135.064C105.972 127.494 110.628 119.643 114.829 111.549C120.558 120.271 128.094 137.008 127.246 163.72Z" fill="url(#paint4_linear)"/>
<path d="M18.9606 113.465L15.4743 119.489L13.0049 118.978L10.1693 118.398L9.64058 118.288C8.34882 118.027 7.12528 117.501 6.04719 116.744C4.96909 115.987 4.05986 115.015 3.37687 113.889L1.74994 111.208C1.1723 110.26 0.809037 109.197 0.685584 108.095C0.562132 106.992 0.681469 105.876 1.03525 104.824L3.02243 98.9918C3.38882 97.9225 4.16406 97.0415 5.17876 96.5413C6.19347 96.0411 7.36515 95.9624 8.43781 96.3223L12.6795 97.7441C13.5544 98.2468 14.3188 98.9206 14.9269 99.7253C15.5349 100.53 15.9741 101.449 16.2181 102.427L18.9606 113.465Z" fill="#535962"/>
<path d="M286.918 269.049C278.941 275.206 270.365 281.236 262.596 286.459C248.251 296.11 236.648 303.074 236.648 303.074V428.076H225.44C225.44 428.076 171.863 322.561 178.464 282.182C182.6 256.88 199.003 226.343 211.582 206.89C214.888 201.766 217.927 197.408 220.408 194.123C225.083 197.562 229.892 200.946 234.835 204.273C250.717 221.877 267.518 238.631 285.169 254.465C285.547 258.609 286.111 263.611 286.918 269.049Z" fill="#5C7893"/>
<path d="M378.151 104.274C376.013 106.909 373.631 109.607 371.243 112.195C368.919 114.668 366.653 117.041 364.555 119.159C362.736 120.987 361.069 122.641 359.663 123.988C359.133 124.499 358.504 124.897 357.816 125.159C357.127 125.421 356.393 125.541 355.656 125.512C354.92 125.483 354.197 125.305 353.532 124.989C352.866 124.673 352.272 124.226 351.784 123.674C331.001 100.142 313.006 85.158 301.723 76.8129C297.723 73.7847 293.561 70.9775 289.254 68.404C289.254 68.404 259.895 84.5255 217.584 85.4018C170.48 86.3767 149.395 47.2221 172.903 24.688C198.137 0.499959 281.555 6.22199 316.417 26.7249C338.258 38.9118 369.29 83.0166 378.465 96.5034C379.253 97.6613 379.648 99.0414 379.591 100.44C379.535 101.839 379.03 103.183 378.151 104.274Z" fill="url(#paint5_linear)"/>
<path d="M367.582 121.2L369.238 129.063C369.727 131.406 370.775 133.596 372.294 135.447L374.549 138.186C374.827 138.533 375.215 138.777 375.649 138.877C376.083 138.978 376.538 138.929 376.941 138.739C377.344 138.549 377.671 138.229 377.87 137.831C378.068 137.432 378.126 136.979 378.035 136.543L377.675 134.768C377.64 134.594 377.656 134.414 377.721 134.249C377.786 134.084 377.897 133.942 378.041 133.838C378.185 133.735 378.356 133.675 378.533 133.666C378.71 133.657 378.886 133.699 379.04 133.787L384.24 136.77C385.69 137.602 387.39 137.892 389.034 137.585C390.679 137.279 392.16 136.397 393.211 135.098C394.794 133.139 395.55 130.641 395.321 128.134C395.158 126.338 394.536 124.613 393.513 123.126C392.49 121.639 391.102 120.44 389.481 119.644C386.801 118.327 383.924 117.455 380.963 117.062L372.829 115.977L367.582 121.2Z" fill="#535962"/>
<path d="M13.2024 120.302C12.2676 120.243 11.3366 120.134 10.4134 119.977L10.1403 118.393L12.9758 118.973L13.2024 120.302Z" fill="#39526E"/>
<path d="M98.7351 59.1276C97.9681 58.4486 97.114 58.2339 95.5393 57.6304C94.2901 57.1545 93.7439 56.6148 93.5986 55.5586C93.7555 55.9416 94.4934 57.1719 97.4859 57.1255C101.024 57.0674 100.414 59.1392 98.7351 59.1276Z" fill="#E06855"/>
<path d="M119.693 67.5671L125.15 63.0812C126.211 62.2068 127.561 61.7581 128.935 61.8225C130.31 61.8868 131.612 62.4596 132.587 63.4294L137.508 68.3157L119.693 67.5671Z" fill="#E06855"/>
<path d="M145.351 60.6735C144.785 61.638 144.136 62.5507 143.41 63.401L142.039 62.0024C140.756 60.6879 139.922 59.002 139.657 57.1857C139.513 56.1797 139.01 55.2592 138.242 54.593C137.474 53.9269 136.491 53.5596 135.473 53.5587C135.081 53.5582 134.69 53.611 134.311 53.7154C132.69 54.168 131.174 54.7251 129.558 55.114C127.109 55.7403 124.543 55.7543 122.086 55.1546C112.964 53.0248 118.426 40.5071 109.356 40.4259C101.64 40.3563 94.9524 45.1149 94.9524 45.1149C95.2603 42.7936 95.3998 40.4085 95.4637 38.4354C95.4637 37.9363 95.4637 37.4604 95.4985 37.0194L96.5095 36.5319C99.345 35.1662 102.072 33.9765 104.69 32.9629C108.88 34.0191 118.397 36.9555 121.337 42.4454C121.53 42.7997 121.695 43.1683 121.831 43.548C121.778 43.3333 121.627 42.6718 121.47 41.749C120.889 38.3889 120.169 31.5411 123.893 29.9974C124.494 29.737 125.145 29.614 125.799 29.6376C129.018 29.8233 131.028 34.2802 130.784 38.9751C130.738 39.8403 130.869 40.7059 131.169 41.519C131.468 42.3321 131.931 43.0758 132.527 43.7047C133.19 44.3924 133.985 44.9396 134.865 45.3135C135.744 45.6874 136.69 45.8804 137.646 45.881C137.951 45.8819 138.256 45.8625 138.559 45.8229L146.832 44.7493C146.06 49.0205 145.362 52.8217 144.868 55.4796C144.7 56.3733 144.561 57.1393 144.444 57.7486C144.442 57.7757 144.442 57.8029 144.444 57.8299C144.363 58.3416 144.403 58.8652 144.56 59.3589C144.718 59.8527 144.988 60.3028 145.351 60.6735Z" fill="#E06855"/>
<path d="M156.344 77.4665L154.7 84.68C154.6 85.1074 154.534 85.5421 154.502 85.9799L154.723 79.016C154.76 77.7699 154.546 76.5291 154.093 75.3676C153.64 74.206 152.957 73.1475 152.085 72.2552L143.422 63.3994C144.148 62.5491 144.797 61.6363 145.362 60.6719C146.74 62.1575 148.07 63.6838 149.308 65.152C151.893 68.2335 154.061 71.0945 155.409 72.9342C155.882 73.578 156.21 74.3162 156.372 75.0984C156.533 75.8806 156.524 76.6883 156.344 77.4665Z" fill="#5E7EA1"/>
<path d="M301.723 76.8128C297.724 73.7846 293.561 70.9774 289.254 68.4039L293.501 66.216C294.004 65.9569 294.557 65.8098 295.122 65.785C295.687 65.7602 296.25 65.8583 296.773 66.0724C297.297 66.2865 297.767 66.6116 298.152 67.0252C298.537 67.4388 298.828 67.9309 299.004 68.4677L301.723 76.8128Z" fill="url(#paint6_linear)"/>
<path d="M130.546 107.744C131.534 108.963 132.574 110.234 133.661 111.545C132.576 110.234 131.538 108.967 130.546 107.744Z" fill="#C6C887"/>
<path d="M136.688 115.172C137.575 116.22 138.489 117.294 139.43 118.393C138.485 117.298 137.571 116.224 136.688 115.172Z" fill="#C6C887"/>
<path d="M125.979 178.436L127.56 177.942L128.884 177.513C131.627 176.608 134.387 175.586 137.135 174.478C137.522 174.327 137.91 174.17 138.297 174.008C140.36 173.166 142.417 172.267 144.456 171.344C146.211 170.543 147.954 169.717 149.685 168.866L151.027 168.199C152.771 167.328 154.514 166.429 156.257 165.518L157.791 164.693L158.825 164.113C159.325 163.846 159.813 163.573 160.306 163.301C161.29 162.755 162.259 162.208 163.212 161.658C163.694 161.386 164.176 161.113 164.647 160.834C167.976 158.913 171.172 156.975 174.187 155.077L171.834 152.808C171.445 152.431 171.061 152.06 170.672 151.677C163.7 144.846 157.279 138.202 151.533 131.946C151.273 131.667 151.018 131.388 150.766 131.11C146.664 126.641 142.899 122.405 139.482 118.401V118.366C138.533 117.271 137.619 116.197 136.74 115.145L135.38 113.613C134.945 113.097 134.52 112.592 134.108 112.087L133.637 111.57C132.549 110.259 131.511 108.992 130.523 107.769C129.773 106.841 129.047 105.941 128.356 105.071L127.426 103.91L127.333 103.788L126.351 102.54C124.753 100.509 123.33 98.6639 122.092 97.0273C119.972 101.484 117.514 106.446 114.818 111.536C118.461 117.107 122.836 125.91 125.311 138.468C128.617 155.252 116.456 171.245 99.3683 172.348C71.8276 174.13 39.7316 164.049 38.7322 163.73C55.7273 171.884 95.3766 188.417 121.517 179.683H121.552C123.008 179.296 124.476 178.884 125.956 178.447L125.979 178.436Z" fill="url(#paint7_linear)"/>
<path d="M174.152 155.093C164.615 161.15 154.691 166.578 144.444 171.342C153.456 140.712 140.098 119.42 139.465 118.434C148.61 129.094 160.272 141.786 174.152 155.093Z" fill="url(#paint8_linear)"/>
<path d="M100.885 135.047L97.9452 138.981C97.5841 139.459 97.1218 139.85 96.5916 140.128C96.0613 140.407 95.476 140.564 94.8777 140.59C94.2793 140.616 93.6825 140.51 93.13 140.279C92.5775 140.048 92.0829 139.698 91.6815 139.254L83.9652 130.59L100.885 135.047Z" fill="url(#paint9_linear)"/>
<path d="M166.982 112.398C154.171 110.495 142.271 106.816 137.635 104.616C136.885 104.267 136.229 103.744 135.724 103.089C135.218 102.435 134.877 101.669 134.73 100.856C134.108 97.3737 133.271 93.1083 132.777 90.6303C132.659 90.0288 132.353 89.4801 131.903 89.0631C131.453 88.6461 130.882 88.3821 130.273 88.309L126.926 87.9028L126.345 87.8331C126.886 86.6261 127.38 85.5118 127.821 84.5137L131.168 84.9199C131.777 84.993 132.348 85.257 132.798 85.674C133.248 86.091 133.554 86.6397 133.672 87.2412C134.166 89.7192 135.003 93.973 135.624 97.4666C135.772 98.2798 136.113 99.0458 136.618 99.7002C137.124 100.355 137.779 100.878 138.529 101.227C147.758 105.571 157.263 109.303 166.982 112.398Z" fill="url(#paint10_linear)"/>
<path d="M158.424 96.8498C144.752 94.7142 138.669 85.2433 136.107 79.1847C135.435 77.612 134.329 76.2633 132.917 75.297C131.504 74.3308 129.846 73.787 128.135 73.7296L117.235 73.335C117.717 71.3502 118.228 69.6441 118.693 68.2455L119.175 67.9147L119.664 67.5781L137.478 68.3268C137.478 68.3268 137.478 68.5647 137.565 68.9941C137.565 69.058 137.565 69.1218 137.594 69.1914C137.594 69.3249 137.641 69.47 137.67 69.6325C137.716 69.9052 137.774 70.2128 137.85 70.561C137.925 70.9092 137.978 71.1762 138.059 71.5185C138.054 71.5395 138.054 71.5614 138.059 71.5824C138.101 71.7681 138.148 71.9615 138.198 72.1627C138.291 72.5515 138.408 72.9636 138.535 73.4046C138.64 73.7586 138.75 74.13 138.878 74.5188C138.93 74.6929 138.994 74.8728 139.052 75.0585L139.209 75.4996C139.657 76.7752 140.171 78.0266 140.749 79.2485C140.836 79.4342 140.923 79.6257 141.022 79.8288C141.709 81.2426 142.485 82.6111 143.346 83.9259C143.509 84.1755 143.672 84.4192 143.84 84.663C144.009 84.9067 144.224 85.2084 144.421 85.4812L144.938 86.166C145.124 86.4097 145.318 86.6535 145.519 86.8972C145.717 87.1467 145.926 87.3963 146.141 87.64C146.356 87.8838 146.571 88.1333 146.792 88.377C147.013 88.6208 147.135 88.7543 147.309 88.9574C147.871 89.557 148.469 90.1374 149.104 90.6983C149.296 90.8783 149.494 91.0581 149.685 91.2322H149.72C149.984 91.4644 150.251 91.6907 150.522 91.9112C151.103 92.4161 151.771 92.9036 152.445 93.3853C152.672 93.5478 152.904 93.7044 153.142 93.8669L153.2 93.9076C153.479 94.0991 153.782 94.2848 154.06 94.4879C154.45 94.7316 154.845 94.9754 155.257 95.2075C155.507 95.3584 155.757 95.4976 156.013 95.6369C156.807 96.0664 157.61 96.4707 158.424 96.8498Z" fill="url(#paint11_linear)"/>
<path d="M39.6565 118.914C36.9497 125.754 34.8215 132.808 33.294 140.003C31.8878 138.547 30.5456 137.102 29.2789 135.749C32.3008 129.88 35.7702 124.252 39.6565 118.914Z" fill="#5E7EA1"/>
<path d="M286.918 269.049C283.095 272.003 279.138 274.916 275.199 277.754C270.911 280.824 266.646 283.766 262.596 286.494C252.242 240.184 222.244 214.725 211.559 206.925C214.865 201.801 217.904 197.443 220.385 194.158C225.06 197.598 229.869 200.981 234.812 204.308C241.366 211.58 247.786 218.369 253.927 224.62L254.299 225.003C265.885 236.801 276.471 246.724 285.146 254.489C285.547 258.609 286.11 263.612 286.918 269.049Z" fill="#39526E"/>
<path d="M286.918 269.051C283.095 272.005 279.138 274.918 275.199 277.756C274.281 247.341 257.059 227.935 254.311 225.021C265.897 236.82 276.483 246.743 285.158 254.508C285.547 258.611 286.111 263.613 286.918 269.051Z" fill="#2A3E58"/>
<path d="M400.184 200.77C367.908 152.255 323.012 164.668 244.468 146.846C165.321 128.897 159.539 81.5538 160.394 63.4011C160.746 57.0196 161.709 50.6864 163.27 44.4883C162.503 56.7564 169.754 69.4423 183.338 77.3406L183.408 77.387C192.263 82.5345 203.802 85.6741 217.561 85.3897C259.871 84.5134 289.231 68.3919 289.231 68.3919C289.707 68.9723 310.531 94.5647 330.751 115.944C339.861 125.589 351.987 138.577 364.788 153.822L364.828 153.862L365.014 154.083L365.508 154.663C377.117 168.527 389.249 184.173 400.184 200.77Z" fill="url(#paint12_linear)"/>
<path d="M364.793 153.828C360.011 148.35 332.041 118.805 279.551 112.196C226.677 105.539 185.32 78.641 183.408 77.3759C192.263 82.5234 203.802 85.663 217.561 85.3786C259.871 84.5023 289.231 68.3809 289.231 68.3809C289.707 68.9612 310.531 94.5536 330.751 115.933C339.867 125.595 351.993 138.6 364.793 153.828Z" fill="url(#paint13_linear)"/>
<path d="M150.946 20.9422C150.679 22.6832 150.365 24.5461 150.057 26.5076C149.871 27.6218 149.679 28.7651 149.476 29.9257C149.435 30.152 149.4 30.3784 149.36 30.6047C140.063 20.3851 124.486 22.1783 123.719 22.277C125.648 21.865 127.513 21.5226 129.297 21.2324C133.556 20.5046 137.864 20.0991 142.184 20.0195C143.544 20.0195 144.805 20.0195 145.949 20.124C147.64 20.2069 149.317 20.4814 150.946 20.9422Z" fill="#40454E"/>
<path d="M145.566 18.6812C137.562 18.327 129.543 18.8054 121.639 20.1088C119.809 16.5224 123.731 11.8101 123.731 6.87735C123.731 0.0352953 113.708 0.818735 113.708 0.818735C120.884 -0.765557 128.972 0.238408 134.538 1.39906C136.561 1.82059 138.427 2.79455 139.929 4.21256C141.431 5.63057 142.509 7.43699 143.044 9.43078L145.566 18.6812Z" fill="#31363E"/>
<path d="M145.962 20.1264C141.761 19.8246 136.084 20.1264 129.309 21.2348C127.531 21.5192 125.672 21.8674 123.748 22.2736C122.87 21.7507 122.15 21.0009 121.662 20.1032C129.567 18.7998 137.586 18.3214 145.59 18.6756L145.962 20.1264Z" fill="url(#paint14_linear)"/>
<path d="M7.08973 92.997C6.56504 93.0816 6.02802 92.9577 5.59363 92.6519C5.15924 92.346 4.86199 91.8825 4.76553 91.3604L0.489012 66.5979L0.0590373 64.1257C0.0131844 63.8616 0.0199777 63.591 0.0790259 63.3296C0.138074 63.0681 0.248217 62.8208 0.40314 62.6019C0.558063 62.383 0.754719 62.1968 0.981835 62.054C1.20895 61.9112 1.46206 61.8145 1.72665 61.7696C1.98577 61.72 2.25195 61.72 2.51107 61.7696C2.90706 61.8585 3.26787 62.0624 3.54807 62.3557C3.82827 62.649 4.01533 63.0185 4.08571 63.4177L8.75734 90.6757V90.7743C8.8125 91.2868 8.6711 91.8011 8.36164 92.2135C8.05218 92.626 7.59767 92.9059 7.08973 92.997Z" fill="#5C7893"/>
<path d="M5.55576 91.1166L1.27924 66.354L0.849263 63.8818C0.778641 63.4663 0.838456 63.0391 1.0205 62.6588C1.20255 62.2785 1.49791 61.9638 1.8661 61.7578H1.69759C1.433 61.8027 1.1799 61.8994 0.952784 62.0422C0.725668 62.1851 0.529012 62.3713 0.374089 62.5901C0.219166 62.809 0.109019 63.0563 0.0499706 63.3178C-0.00907772 63.5793 -0.0158666 63.8498 0.0299864 64.1139L0.459961 66.5861L4.73648 91.3487C4.83294 91.8707 5.13018 92.3343 5.56458 92.6401C5.99897 92.946 6.53599 93.0699 7.06068 92.9852C7.2891 92.9448 7.50909 92.8663 7.71145 92.7531C7.21363 92.7922 6.71881 92.647 6.32126 92.3452C5.92371 92.0434 5.65124 91.6061 5.55576 91.1166Z" fill="#39526E"/>
<defs>
<linearGradient id="paint0_linear" x1="93.3489" y1="18.5703" x2="93.3489" y2="34.8629" gradientUnits="userSpaceOnUse">
<stop stop-color="#5986FB"/>
<stop offset="1" stop-color="#2D4EF5"/>
</linearGradient>
<linearGradient id="paint1_linear" x1="144.464" y1="16.3242" x2="144.464" y2="272.228" gradientUnits="userSpaceOnUse">
<stop stop-color="#5986FB"/>
<stop offset="1" stop-color="#2D4EF5"/>
</linearGradient>
<linearGradient id="paint2_linear" x1="115.926" y1="67.5781" x2="115.926" y2="112.397" gradientUnits="userSpaceOnUse">
<stop stop-color="#5986FB"/>
<stop offset="1" stop-color="#2D4EF5"/>
</linearGradient>
<linearGradient id="paint3_linear" x1="122.116" y1="84.5137" x2="122.116" y2="204.287" gradientUnits="userSpaceOnUse">
<stop stop-color="#5986FB"/>
<stop offset="1" stop-color="#2D4EF5"/>
</linearGradient>
<linearGradient id="paint4_linear" x1="31.0735" y1="111.549" x2="31.0735" y2="182.145" gradientUnits="userSpaceOnUse">
<stop stop-color="#5986FB"/>
<stop offset="1" stop-color="#2D4EF5"/>
</linearGradient>
<linearGradient id="paint5_linear" x1="163.237" y1="8.82227" x2="163.237" y2="125.516" gradientUnits="userSpaceOnUse">
<stop stop-color="#5986FB"/>
<stop offset="1" stop-color="#2D4EF5"/>
</linearGradient>
<linearGradient id="paint6_linear" x1="289.254" y1="65.7812" x2="289.254" y2="76.8128" gradientUnits="userSpaceOnUse">
<stop stop-color="#5986FB"/>
<stop offset="1" stop-color="#2D4EF5"/>
</linearGradient>
<linearGradient id="paint7_linear" x1="38.7322" y1="97.0273" x2="38.7322" y2="182.161" gradientUnits="userSpaceOnUse">
<stop stop-color="#5986FB"/>
<stop offset="1" stop-color="#2D4EF5"/>
</linearGradient>
<linearGradient id="paint8_linear" x1="139.465" y1="118.434" x2="139.465" y2="171.342" gradientUnits="userSpaceOnUse">
<stop stop-color="#5986FB"/>
<stop offset="1" stop-color="#2D4EF5"/>
</linearGradient>
<linearGradient id="paint9_linear" x1="83.9652" y1="130.59" x2="83.9652" y2="140.594" gradientUnits="userSpaceOnUse">
<stop stop-color="#5986FB"/>
<stop offset="1" stop-color="#2D4EF5"/>
</linearGradient>
<linearGradient id="paint10_linear" x1="126.345" y1="84.5137" x2="126.345" y2="112.398" gradientUnits="userSpaceOnUse">
<stop stop-color="#3968E1"/>
<stop offset="1" stop-color="#1737DA"/>
</linearGradient>
<linearGradient id="paint11_linear" x1="117.235" y1="67.5781" x2="117.235" y2="96.8498" gradientUnits="userSpaceOnUse">
<stop stop-color="#3968E1"/>
<stop offset="1" stop-color="#1737DA"/>
</linearGradient>
<linearGradient id="paint12_linear" x1="160.324" y1="44.4883" x2="160.324" y2="200.77" gradientUnits="userSpaceOnUse">
<stop stop-color="#3169FC"/>
<stop offset="1" stop-color="#2C4CEE"/>
</linearGradient>
<linearGradient id="paint13_linear" x1="183.408" y1="68.3809" x2="183.408" y2="153.828" gradientUnits="userSpaceOnUse">
<stop stop-color="#5986FB"/>
<stop offset="1" stop-color="#2D4EF5"/>
</linearGradient>
<linearGradient id="paint14_linear" x1="121.662" y1="18.5625" x2="121.662" y2="22.2736" gradientUnits="userSpaceOnUse">
<stop stop-color="#5986FB"/>
<stop offset="1" stop-color="#2D4EF5"/>
</linearGradient>
</defs>
</svg>
