<svg width="570" height="590" viewBox="0 0 570 590" fill="none" xmlns="http://www.w3.org/2000/svg">
<path d="M279.661 83.9198L281.137 83.2391L280.257 81.9441L281.137 69.9196L306.167 19.6662C308.457 16.8439 311.519 14.7484 314.98 13.6351C314.98 13.6351 321.126 5.01372 329.778 1.724L347.499 2.97182C347.499 2.97182 354.411 2.51807 358.118 3.91715C358.118 3.91715 366.071 10.1185 366.96 12.6519L377.598 19.6662C377.598 19.6662 386.363 35.1979 385.295 47.0806L371.593 92.2859L371.404 116.864L387.829 121.061L391.205 129.711H397.673L410.571 141.792C410.571 141.792 424.395 180.456 391.224 192.736H385.077L382.779 195.023L327.206 201.178L289.382 184.039L279.066 84.1183L279.661 83.9198Z" fill="#FF2E4C"/>
<path d="M526.274 201.887C526.274 201.887 534.406 214.025 533.356 213.638C532.307 213.25 521.48 213.108 521.48 213.108L513.272 203.825L526.274 201.887Z" fill="#FF2E4C"/>
<path d="M211.586 550.333L196.664 554.001L200.938 541.315L211.586 535.511V550.333Z" fill="#2E99B0"/>
<path d="M238.357 412.42L249.817 406.086L247.671 379.135L260.588 343.61L251.056 319.504L263.424 291.542L239.17 299.823L243.018 269.544L320.236 227.988L363.025 291.939L317.749 379.75L240.749 482.809L229.307 427.81L238.357 412.42Z" fill="#2E99B0"/>
<path d="M156.318 160.208L101.984 268.92C98.7891 275.315 93.3593 280.317 86.7228 282.977C80.0863 285.638 72.7042 285.772 65.9751 283.355C64.8907 282.963 63.8299 282.508 62.7978 281.994L61.5118 281.351C54.5909 277.89 49.3266 271.825 46.8746 264.488C44.4227 257.15 44.9836 249.14 48.4341 242.215L102.759 133.503C104.468 130.068 106.839 127.004 109.736 124.486C112.632 121.969 115.997 120.048 119.637 118.834C123.278 117.619 127.122 117.135 130.95 117.409C134.778 117.682 138.514 118.709 141.945 120.429L143.231 121.062C150.152 124.525 155.417 130.592 157.871 137.93C160.324 145.269 159.766 153.281 156.318 160.208Z" fill="url(#paint0_linear)"/>
<path d="M156.316 160.208L101.982 268.92C98.7859 275.314 93.3559 280.314 86.7199 282.974C80.084 285.635 72.7026 285.77 65.9734 283.355C63.86 279.192 62.7523 274.591 62.7391 269.922C62.726 265.253 63.8078 260.646 65.8978 256.47L135.106 117.952C137.477 118.471 139.774 119.284 141.943 120.372L143.229 121.006C146.662 122.72 149.724 125.092 152.239 127.989C154.755 130.886 156.675 134.249 157.89 137.888C159.106 141.526 159.592 145.369 159.322 149.195C159.052 153.022 158.031 156.758 156.316 160.189V160.208Z" fill="url(#paint1_linear)"/>
<path d="M70.2647 229.926L65.3192 239.823C65.0255 240.404 64.5304 240.857 63.9264 241.099C63.3225 241.341 62.6512 241.355 62.0379 241.137L61.7448 241.015L61.6313 240.958C61.0016 240.64 60.5231 240.086 60.2999 239.416C60.0768 238.747 60.1271 238.017 60.4398 237.385L65.3854 227.487C65.6506 226.96 66.0831 226.536 66.6153 226.281C67.1475 226.026 67.7492 225.955 68.3262 226.078C68.5435 226.126 68.7534 226.202 68.9503 226.305L69.0732 226.362C69.3856 226.518 69.6642 226.734 69.8931 226.997C70.1221 227.26 70.2969 227.566 70.4075 227.897C70.5182 228.228 70.5625 228.578 70.538 228.926C70.5135 229.274 70.4206 229.614 70.2647 229.926Z" fill="url(#paint2_linear)"/>
<path d="M88.0146 194.306L75.7218 219.735C75.433 220.318 74.9399 220.774 74.3365 221.016C73.7331 221.258 73.0616 221.27 72.45 221.049C72.349 221.017 72.2509 220.976 72.1569 220.926L72.0434 220.87C71.731 220.714 71.4524 220.498 71.2234 220.235C70.9945 219.971 70.8197 219.665 70.709 219.334C70.5984 219.004 70.5541 218.654 70.5786 218.306C70.6031 217.958 70.696 217.618 70.8519 217.306L83.1448 191.877C83.4087 191.349 83.8411 190.923 84.3736 190.668C84.9062 190.413 85.5085 190.343 86.0856 190.468C86.3025 190.512 86.5124 190.585 86.7097 190.686L86.8326 190.742C87.46 191.06 87.9363 191.613 88.1577 192.281C88.3791 192.948 88.3277 193.676 88.0146 194.306Z" fill="url(#paint3_linear)"/>
<path d="M242.962 169.425L188.628 278.137C185.433 284.532 180.003 289.534 173.367 292.194C166.73 294.855 159.348 294.989 152.619 292.572C151.535 292.18 150.474 291.726 149.442 291.211L148.156 290.568C144.723 288.855 141.661 286.482 139.146 283.585C136.631 280.688 134.711 277.324 133.497 273.685C132.282 270.046 131.797 266.204 132.068 262.378C132.339 258.551 133.362 254.816 135.078 251.385L189.403 142.673C191.113 139.238 193.483 136.174 196.38 133.656C199.276 131.139 202.641 129.218 206.281 128.003C209.922 126.789 213.766 126.305 217.594 126.578C221.422 126.852 225.159 127.879 228.589 129.599L229.875 130.232C236.809 133.695 242.083 139.77 244.537 147.12C246.991 154.469 246.425 162.493 242.962 169.425Z" fill="url(#paint4_linear)"/>
<path d="M242.963 169.425L188.628 278.137C185.432 284.531 180.002 289.531 173.366 292.191C166.73 294.851 159.349 294.987 152.62 292.572C150.506 288.408 149.399 283.808 149.386 279.139C149.372 274.47 150.454 269.863 152.544 265.687L221.791 127.226C224.162 127.744 226.459 128.557 228.628 129.646L229.914 130.279C236.83 133.747 242.088 139.816 244.535 147.155C246.981 154.493 246.416 162.502 242.963 169.425Z" fill="url(#paint5_linear)"/>
<path d="M156.902 239.209L151.957 249.097C151.668 249.68 151.175 250.135 150.572 250.378C149.968 250.62 149.297 250.632 148.685 250.411C148.584 250.38 148.485 250.339 148.392 250.288L148.279 250.232C147.965 250.077 147.686 249.862 147.456 249.598C147.227 249.335 147.051 249.029 146.941 248.698C146.83 248.366 146.786 248.016 146.811 247.668C146.836 247.32 146.93 246.98 147.087 246.668L152.033 236.77C152.294 236.24 152.726 235.813 153.259 235.557C153.793 235.302 154.396 235.233 154.973 235.362C155.19 235.408 155.399 235.481 155.598 235.579L155.711 235.636C156.343 235.952 156.823 236.506 157.046 237.176C157.269 237.846 157.218 238.577 156.902 239.209Z" fill="url(#paint6_linear)"/>
<path d="M174.651 203.561L162.358 228.99C162.068 229.573 161.573 230.029 160.968 230.271C160.363 230.514 159.69 230.525 159.077 230.304L158.793 230.181L158.68 230.124C158.048 229.808 157.568 229.254 157.345 228.584C157.121 227.914 157.173 227.183 157.488 226.551L169.781 201.131C170.044 200.601 170.475 200.174 171.008 199.917C171.541 199.66 172.144 199.589 172.722 199.713C172.939 199.763 173.148 199.84 173.346 199.94L173.46 199.997C173.772 200.152 174.051 200.368 174.28 200.632C174.509 200.895 174.683 201.201 174.794 201.532C174.905 201.863 174.949 202.212 174.924 202.56C174.9 202.909 174.807 203.248 174.651 203.561Z" fill="url(#paint7_linear)"/>
<path d="M451.316 309.106L444.404 331.444C443.389 334.726 441.67 337.747 439.367 340.297C437.064 342.846 434.233 344.864 431.071 346.208C427.909 347.553 424.492 348.192 421.057 348.081C417.623 347.97 414.254 347.112 411.185 345.567L240.749 259.609L12.9817 144.743C7.48077 141.965 3.28237 137.149 1.28112 131.322C-0.720135 125.495 -0.365999 119.117 2.26805 113.547L23.9035 67.8218C25.9324 63.5309 29.2068 59.9501 33.3002 57.5457C37.3935 55.1413 42.1162 54.0248 46.8533 54.3415L221.015 65.9217L222.074 65.9879C237.331 67.0005 252.032 72.1118 264.626 80.7822L365.616 150.339L377.427 158.469C380.608 160.642 383.206 163.564 384.992 166.977L449.68 291.211C452.561 296.728 453.149 303.158 451.316 309.106Z" fill="url(#paint8_linear)"/>
<path d="M451.316 309.106L444.403 331.444C451.079 282.287 393.237 271.378 361.644 228.858C330.052 186.337 365.597 150.339 365.597 150.339L377.407 158.469C380.588 160.642 383.186 163.564 384.972 166.977L449.68 291.211C452.561 296.728 453.149 303.158 451.316 309.106Z" fill="#495560"/>
<path d="M451.316 309.106L444.403 331.444C451.079 282.287 393.237 271.378 361.644 228.858C330.052 186.337 365.597 150.339 365.597 150.339L377.407 158.469C380.588 160.642 383.186 163.564 384.972 166.977L449.68 291.211C452.561 296.728 453.149 303.158 451.316 309.106Z" fill="url(#paint9_linear)"/>
<path d="M385.295 47.0722V69.4101C385.295 70.1758 385.295 70.9321 385.191 71.6789C384.818 75.9724 383.38 80.105 381.005 83.702C378.631 87.299 375.396 90.2466 371.593 92.2775L338.752 59.4842C336.682 57.4163 335.073 54.933 334.033 52.1982C332.992 49.4634 332.543 46.5391 332.716 43.6182C332.888 40.6973 333.678 37.8461 335.033 35.2526C336.388 32.6591 338.278 30.3823 340.577 28.5722L341.523 27.8443C346.748 26.6735 351.795 24.8139 356.53 22.3142C360.289 20.3951 363.614 17.7245 366.298 14.468C366.345 14.4072 366.389 14.3441 366.43 14.2789V14.6192C366.43 14.6192 366.43 14.8367 366.43 14.9501L366.525 16.0183C366.605 16.9134 366.869 17.7823 367.302 18.5698C367.735 19.3574 368.327 20.0465 369.04 20.5937C372.596 23.3351 378.572 29.7444 380.113 43.1018C380.203 43.9577 380.546 44.7674 381.099 45.4274C381.651 46.0874 382.388 46.5679 383.215 46.8075C383.785 46.983 384.377 47.0785 384.974 47.0911L385.295 47.0722Z" fill="#EFA08D"/>
<path d="M388.804 42.8937C388.857 43.9048 388.524 44.8983 387.873 45.6738C387.222 46.4493 386.301 46.949 385.296 47.0721H384.955C384.359 47.0595 383.767 46.964 383.196 46.7885C382.369 46.5489 381.633 46.0685 381.08 45.4084C380.528 44.7484 380.185 43.9387 380.095 43.0828C378.553 29.7254 372.577 23.3161 369.022 20.5747C368.309 20.0275 367.717 19.3384 367.284 18.5508C366.851 17.7633 366.586 16.8945 366.506 15.9993L366.412 14.9311C366.412 14.8177 366.412 14.7043 366.412 14.6003C366.412 14.4963 366.412 14.3734 366.412 14.26C366.462 13.6819 366.65 13.1242 366.96 12.634C367.011 12.5401 367.072 12.4515 367.14 12.3693C367.451 11.9465 367.847 11.5941 368.303 11.335C368.76 11.076 369.265 10.9163 369.788 10.8662C370.524 10.7867 371.266 10.9352 371.915 11.2916C386.506 19.4309 388.548 36.7492 388.804 42.8937Z" fill="url(#paint10_linear)"/>
<path d="M366.958 12.2833C366.968 12.406 366.968 12.5292 366.958 12.6519C366.931 13.2344 366.741 13.7976 366.41 14.2779C366.369 14.3431 366.325 14.4062 366.278 14.467C366.088 14.7127 365.871 14.9774 365.635 15.2516C363.052 18.1192 359.974 20.4984 356.547 22.2753C351.812 24.775 346.766 26.6347 341.541 27.8055C336.925 28.8801 332.239 29.6225 327.517 30.027C327.026 30.027 326.572 30.0931 326.033 30.0931C324.754 30.0812 323.483 29.9032 322.25 29.5638C320.941 29.2 319.692 28.6457 318.544 27.9189C317.333 27.1474 316.251 26.1904 315.338 25.0829L315.054 24.7332C314.146 23.5926 313.535 22.2446 313.277 20.8101C312.929 18.9661 313.188 17.0594 314.014 15.3745C314.299 14.7573 314.615 14.1547 314.96 13.5689C315.92 11.9799 317.042 10.4942 318.307 9.13534V9.08807C318.893 8.4547 319.536 7.82134 320.198 7.19743C322.958 4.75139 326.171 2.86943 329.654 1.65784C324.056 4.57888 318.307 9.22041 318.241 15.8377C318.09 28.902 362.94 20.12 361.483 9.87269C361.101 7.49928 359.859 5.34926 357.994 3.83208C361.073 5.3932 363.808 7.55292 366.041 10.1846C366.584 10.7546 366.909 11.4976 366.958 12.2833Z" fill="url(#paint11_linear)"/>
<path d="M318.364 15.9237C318.44 9.25915 324.18 4.64598 329.778 1.74384C333.24 0.531291 336.89 -0.0576355 340.558 0.00444269C345.673 0.0800685 352.236 0.949768 358.117 3.93699C359.983 5.45416 361.225 7.60418 361.607 9.9776C363.063 20.206 318.241 28.988 318.364 15.9237Z" fill="#2E2763"/>
<path d="M318.364 15.9237C318.44 9.25915 324.179 4.64598 329.777 1.74384C333.24 0.531291 336.889 -0.0576355 340.557 0.00444269C345.673 0.0800685 352.236 0.949768 358.117 3.93699C359.982 5.45416 361.224 7.60418 361.606 9.9776C363.063 20.206 318.241 28.988 318.364 15.9237Z" fill="#B9E1FF"/>
<path d="M387.924 122.235C387.921 123.678 387.463 125.085 386.614 126.252C385.765 127.42 384.569 128.29 383.196 128.738C381.397 129.331 379.52 129.649 377.626 129.684H377.569C376.51 129.709 375.451 129.649 374.402 129.504C370.231 128.931 366.361 127.016 363.376 124.05L341.504 101.976C338.087 98.5331 334.257 95.5261 330.1 93.0242C329.468 91.6585 328.748 90.3355 327.944 89.0633C325.779 85.6696 322.828 82.5406 318.876 80.9808C309.344 77.1995 288.21 77.2751 280.617 82.8714C279.926 81.1982 272.626 63.0197 274.707 52.6211C276.891 41.7026 291.983 24.4316 298.942 19.4592C299.302 19.204 299.68 18.9487 300.049 18.7219C304.613 16.0144 309.698 14.3007 314.97 13.6927C314.625 14.2786 314.31 14.8812 314.025 15.4983C313.296 16.9971 313.007 18.6717 313.191 20.328C313.375 21.9844 314.025 23.5547 315.065 24.857L315.349 25.2068C316.66 26.7616 318.294 28.0126 320.138 28.8729C321.981 29.7332 323.99 30.1821 326.025 30.1886C326.516 30.1886 326.97 30.1886 327.509 30.1224C332.231 29.718 336.917 28.9756 341.532 27.9009L340.587 28.6288C338.287 30.4389 336.398 32.7158 335.042 35.3092C333.687 37.9027 332.897 40.7539 332.725 43.6748C332.553 46.5957 333.001 49.52 334.042 52.2548C335.083 54.9897 336.691 57.4729 338.762 59.5409L371.603 92.3341L377.626 98.3464C382.608 103.336 385.913 109.752 387.082 116.705L387.82 121.138C387.884 121.5 387.919 121.867 387.924 122.235Z" fill="#162F71"/>
<path d="M377.597 129.721C376.538 129.747 375.479 129.687 374.429 129.542C370.244 128.964 366.363 127.036 363.375 124.05L341.503 101.976C338.086 98.533 334.256 95.526 330.099 93.024C329.467 91.6584 328.747 90.3353 327.944 89.0632C325.778 85.6694 322.828 82.5404 318.875 80.9806C314.435 79.4559 309.79 78.6082 305.098 78.4661C304.867 76.0808 304.848 73.6797 305.041 71.2911C314.658 69.5423 325.362 63.5111 333.201 69.8448C346.43 80.5647 355.688 129.636 377.597 129.721Z" fill="#0F2663"/>
<path d="M322.771 9.94959C322.833 8.80168 323.148 7.6817 323.694 6.67001C324.24 5.65831 325.003 4.77999 325.929 4.09805C327.94 2.42221 330.4 1.37653 333.002 1.09192C333.746 1.00543 334.495 0.970686 335.243 0.987936C338.181 0.988774 341.093 1.53697 343.829 2.60444C344.983 3.04841 345.946 3.88082 346.553 4.95829C346.824 5.46786 347.004 6.02157 347.082 6.5937C347.905 12.3507 322.686 17.2947 322.771 9.94959Z" fill="#D5EEFF"/>
<path d="M322.234 29.6026C318.621 34.0483 315.48 38.8575 312.863 43.9526C308.434 52.4358 305.776 61.7306 305.052 71.2724C302.856 71.7242 300.603 71.8231 298.376 71.5654C298.972 56.5991 302.645 41.9158 309.165 28.4304C310.386 25.8342 311.753 23.3093 313.26 20.8678C313.519 22.3024 314.129 23.6504 315.038 24.7909L315.321 25.1407C316.234 26.2481 317.316 27.2051 318.527 27.9766C319.676 28.6969 320.925 29.2447 322.234 29.6026Z" fill="url(#paint12_linear)"/>
<path d="M382.76 195.044C382.334 202.152 381.625 209.223 380.708 216.143C377.16 241.896 371.241 267.266 363.025 291.93C355.854 285.062 347.896 279.065 339.318 274.063C328.212 267.433 315.455 264.08 302.523 264.389C289.591 264.699 277.01 268.659 266.233 275.812C256.206 282.598 247.113 290.671 239.189 299.823V299.738C238.876 298.793 238.593 297.847 238.338 296.902C228.881 261.925 257.108 231.722 272.71 200.886C282.015 182.49 281.693 166.854 279.471 156.389C278.534 151.521 276.82 146.836 274.393 142.512L313.882 103.168L316.057 101.003L327.943 89.0729C328.747 90.3451 329.467 91.6681 330.099 93.0338C334.255 95.5357 338.086 98.5427 341.503 101.986L345.824 106.334L363.375 124.05C366.357 127.05 370.239 128.992 374.429 129.58L374.561 129.769C382.457 148.628 384.14 171.987 382.76 195.044Z" fill="#FF2E4C"/>
<path d="M318.365 123.407L318.034 123.681L279.415 156.351C272.689 150.803 265.586 145.728 258.158 141.16C200.873 105.436 113.774 83.8831 113.774 83.8831V71.6884C135.677 70.323 157.64 70.1778 179.56 71.2536C237.648 74.0234 279.415 83.8925 279.415 83.8925L310.289 87.2673L313.835 103.13L318.081 122.036L318.365 123.407Z" fill="#FF2E4C"/>
<path d="M526.274 201.926L521.546 213.147H521.461C519.012 212.201 465.368 192.35 391.232 192.794C397.53 188.275 403.317 177.215 404.632 157.703C405.577 144.346 401.795 135.441 397.681 129.769C397.672 129.722 497.641 181.138 526.274 201.926Z" fill="#FF2E4C"/>
<path d="M526.273 201.888L538.292 198.796C539.732 198.42 541.235 198.354 542.702 198.602C544.169 198.849 545.566 199.405 546.803 200.233L553.422 204.629C555.995 206.344 558.943 207.414 562.017 207.749L566.443 208.231C566.712 208.255 566.964 208.374 567.154 208.567C567.344 208.76 567.46 209.014 567.48 209.284C567.501 209.553 567.425 209.822 567.266 210.041C567.107 210.26 566.876 210.416 566.613 210.48L557.649 212.834C557.402 212.898 557.18 213.034 557.012 213.227C556.845 213.419 556.74 213.657 556.711 213.911C556.683 214.164 556.732 214.42 556.852 214.645C556.972 214.869 557.157 215.052 557.384 215.169L569.336 221.418C569.594 221.545 569.796 221.761 569.907 222.025C570.018 222.29 570.03 222.586 569.94 222.858C569.851 223.131 569.665 223.362 569.419 223.509C569.172 223.656 568.881 223.709 568.599 223.658L555.587 221.579C555.261 221.525 554.927 221.567 554.624 221.7C554.322 221.833 554.065 222.051 553.885 222.328C553.704 222.605 553.608 222.928 553.608 223.258C553.608 223.588 553.705 223.911 553.885 224.188L558.897 231.92C559.064 232.178 559.142 232.485 559.116 232.791C559.091 233.098 558.964 233.388 558.757 233.615C558.549 233.842 558.272 233.994 557.969 234.046C557.665 234.099 557.353 234.049 557.081 233.906L549.034 229.633C548.709 229.459 548.344 229.375 547.976 229.389C547.608 229.403 547.251 229.515 546.941 229.714C546.63 229.912 546.379 230.19 546.211 230.518C546.044 230.846 545.967 231.213 545.989 231.58L546.349 237.952C546.371 238.399 546.24 238.841 545.977 239.204C545.714 239.567 545.335 239.83 544.902 239.948C544.47 240.066 544.01 240.033 543.599 239.853C543.187 239.674 542.85 239.36 542.642 238.963L539.701 233.291C538.257 230.503 536.024 228.201 533.28 226.674L530.103 224.916C527.074 223.24 524.692 220.602 523.333 217.419L521.545 213.156L526.273 201.888Z" fill="#EFA08D"/>
<path d="M317.749 379.75C297.334 417.951 273.24 457.097 253.165 488.235C229.6 524.8 211.558 550.324 211.558 550.324L200.986 541.315C207.606 528.648 215.634 487.999 219.35 454.119C221.241 436.829 226.168 426.317 230.527 420.182C234.697 414.302 238.357 412.421 238.357 412.421L241.383 422.365C243.784 430.24 255.226 429.342 256.351 421.174L260.559 390.404C260.559 390.404 288.332 386.462 317.749 379.75Z" fill="#162F71"/>
<path d="M308.351 329.497C308.105 329.686 304.011 332.862 292.361 346.304C280.333 360.182 254.754 377.736 254.754 377.736L247.672 379.136C246.424 355.701 249.241 331.652 251.019 319.467C271.908 339.271 307.566 329.705 308.351 329.497Z" fill="#091F58"/>
<path d="M404.603 157.665C403.289 177.177 397.502 188.237 391.204 192.756C390.018 193.677 388.661 194.353 387.211 194.746C385.762 195.139 384.249 195.24 382.76 195.043C384.14 171.987 382.457 148.628 374.561 129.731L374.429 129.542C377.383 129.958 380.393 129.683 383.223 128.739C384.778 128.22 386.096 127.164 386.94 125.76C387.784 124.356 388.099 122.697 387.828 121.081C391.753 123.134 395.128 126.097 397.672 129.722C401.804 135.394 405.511 144.308 404.603 157.665Z" fill="url(#paint13_linear)"/>
<path d="M384.898 352.477C381.683 357.733 373.031 362.621 361.684 367.026C349.088 371.923 333.193 376.214 317.751 379.75C288.333 386.462 260.589 390.404 260.589 390.404L254.755 377.736C254.755 377.736 262.32 372.518 271.237 365.513C278.622 359.681 286.896 352.61 292.362 346.304C304.011 332.862 308.106 329.686 308.352 329.496C307.567 329.704 271.937 339.262 251.058 319.504C247.47 316.077 244.526 312.033 242.368 307.565L242.197 307.225C241.044 304.837 240.046 302.377 239.209 299.861L240.259 298.66L240.959 297.885L241.999 296.741C243.086 295.559 244.287 294.302 245.583 292.96L246.349 292.194L247.653 290.908C248.174 290.407 248.713 289.888 249.27 289.368L250.509 288.224C251.095 287.685 251.701 287.137 252.325 286.588C253.27 285.766 254.216 284.934 255.162 284.112L256.164 283.28C256.939 282.637 257.734 282.004 258.547 281.389L260.362 279.999C260.807 279.659 261.261 279.319 261.724 278.988C262.187 278.657 262.452 278.449 262.821 278.194C263.943 277.381 265.094 276.584 266.272 275.802L267.275 275.14C276.49 269.173 287.019 265.539 297.953 264.55C308.888 263.562 319.899 265.25 330.034 269.469C332.145 270.334 334.209 271.309 336.219 272.39L337.259 272.947L338.299 273.524L338.431 273.6L338.564 273.675L339.973 274.517C340.748 274.98 341.524 275.462 342.308 275.944L343.812 276.889C344.304 277.204 344.795 277.52 345.287 277.835C346.548 278.667 347.809 279.536 349.069 280.444C349.523 280.756 350.015 281.077 350.422 281.389C351.093 281.881 351.774 282.382 352.445 282.892L353.996 284.093C354.734 284.669 355.471 285.265 356.209 285.87L356.455 286.068C357.164 286.664 357.873 287.26 358.573 287.874C359.273 288.488 360.048 289.169 360.776 289.85C360.776 289.85 360.823 289.85 360.842 289.906C361.57 290.568 362.28 291.249 362.989 291.939C385.513 313.927 398.468 330.272 384.898 352.477Z" fill="#162F71"/>
<path d="M260.56 390.404L256.324 421.174C255.198 429.342 243.757 430.24 241.355 422.365L238.329 412.42L231.804 390.962C231.489 389.923 231.395 388.83 231.528 387.753C231.661 386.676 232.019 385.638 232.577 384.708C233.136 383.777 233.883 382.974 234.771 382.349C235.659 381.725 236.668 381.294 237.733 381.083L247.643 379.136L254.726 377.737L260.56 390.404Z" fill="url(#paint14_linear)"/>
<path d="M211.587 550.333L220.769 580.006C223.199 587.881 213.204 593.534 207.71 587.408L200.76 579.695L185.763 562.991C185.039 562.182 184.493 561.232 184.158 560.2C183.824 559.168 183.709 558.077 183.822 556.998C183.934 555.919 184.27 554.876 184.81 553.935C185.349 552.994 186.08 552.176 186.954 551.533L195.115 545.578L200.987 541.314L211.587 550.333Z" fill="url(#paint15_linear)"/>
<path d="M385.191 71.6788C384.818 75.9723 383.38 80.1049 381.005 83.7019C378.631 87.2989 375.396 90.2465 371.593 92.2774L338.752 59.4841C336.682 57.4162 335.073 54.9329 334.033 52.1981C332.992 49.4633 332.543 46.539 332.716 43.6181C332.888 40.6972 333.678 37.846 335.033 35.2525C336.388 32.659 338.278 30.3822 340.577 28.5721L341.523 27.8442C346.748 26.6734 351.795 24.8137 356.53 22.3141C360.289 20.395 363.614 17.7244 366.298 14.4679C366.298 14.4679 364.038 23.6092 355.48 32.429C352.445 35.5264 350.207 39.314 348.958 43.4667C347.71 47.6193 347.488 52.0129 348.313 56.27C349.108 61.0791 351.751 65.3872 355.679 68.2756C368.653 77.4453 385.191 71.6788 385.191 71.6788Z" fill="#E06855"/>
<path d="M305.098 78.4663L303.207 78.4001C302.592 78.4001 301.968 78.4001 301.315 78.4001H301.221C300.474 78.4001 299.717 78.4001 298.98 78.4001H298.365C298.27 76.0841 298.261 73.7964 298.365 71.556C300.592 71.8137 302.845 71.7147 305.041 71.2629C304.846 73.661 304.865 76.0716 305.098 78.4663Z" fill="#040214"/>
<path d="M305.098 78.4663L303.207 78.4001C302.592 78.4001 301.968 78.4001 301.315 78.4001H301.221C300.474 78.4001 299.717 78.4001 298.98 78.4001H298.365C298.27 76.0841 298.261 73.7964 298.365 71.556C300.592 71.8137 302.845 71.7147 305.041 71.2629C304.846 73.661 304.865 76.0716 305.098 78.4663Z" fill="url(#paint16_linear)"/>
<path d="M298.385 78.4284C291.179 78.7309 284.286 80.1395 280.598 82.8336C279.908 81.1604 272.608 62.9819 274.688 52.5833C276.872 41.6649 291.964 24.3938 298.924 19.4214C299.283 19.1662 299.661 18.911 300.03 18.6841C299.472 19.2891 277.497 43.2625 287.945 63.36C290.782 68.7862 294.347 71.0266 298.347 71.5938C298.3 73.8247 298.309 76.1124 298.385 78.4284Z" fill="#0F2663"/>
<path d="M352.426 129.722C350.416 134.219 347.182 138.061 343.093 140.81C323.651 154.517 338.242 165.776 332.691 175.088C332.484 175.435 332.257 175.769 332.01 176.09C328.653 180.429 322.743 180.202 316.956 176.26C310.072 171.599 303.368 161.692 301.335 148.014C297.657 123.274 319.462 109.709 309.108 92.4759C302.961 82.2664 279.028 91.7102 279.671 83.9113C279.709 83.5908 279.775 83.2744 279.87 82.9659C280.351 81.516 281.307 80.2705 282.584 79.4304C286.432 76.5945 293.628 75.1481 301.146 74.8267C303.472 74.7416 305.874 74.7605 308.134 74.8267C313.029 74.9738 317.875 75.8565 322.507 77.4453C323.86 77.9933 325.132 78.7215 326.289 79.6101C329.892 82.3137 332.426 86.2935 334.157 90.0086C335.088 92.0206 335.874 94.0961 336.511 96.2194C336.804 97.2096 337.324 98.1177 338.03 98.8711C338.736 99.6245 339.608 100.202 340.577 100.558C343.46 101.669 346.058 103.408 348.185 105.648C350.311 107.888 351.912 110.574 352.87 113.509C354.752 118.779 354.593 124.562 352.426 129.722Z" fill="url(#paint17_linear)"/>
<path d="M341.503 27.8441C337.644 30.2585 333.302 31.7977 328.784 32.3533C326.176 32.6359 323.654 33.4533 321.376 34.7546C319.098 36.0558 317.113 37.8129 315.546 39.9159C314.59 41.2066 313.709 42.5512 312.907 43.943C315.525 38.8479 318.666 34.0387 322.278 29.593C323.511 29.9324 324.782 30.1104 326.061 30.1223C326.553 30.1223 327.006 30.1224 327.545 30.0562C332.245 29.6517 336.909 28.9125 341.503 27.8441Z" fill="#0F2A9F"/>
<path d="M322.234 29.6026C318.621 34.0483 315.481 38.8575 312.863 43.9526C312.863 43.9526 309.156 38.0916 309.156 28.4493C310.377 25.8531 311.744 23.3282 313.251 20.8867C313.51 22.3213 314.121 23.6693 315.029 24.8098L315.312 25.1596C316.226 26.2671 317.307 27.2241 318.518 27.9955C319.671 28.71 320.923 29.2515 322.234 29.6026Z" fill="#040214"/>
<path d="M322.234 29.6026C318.621 34.0483 315.481 38.8575 312.863 43.9526C312.863 43.9526 309.156 38.0916 309.156 28.4493C310.377 25.8531 311.744 23.3282 313.251 20.8867C313.51 22.3213 314.121 23.6693 315.029 24.8098L315.312 25.1596C316.226 26.2671 317.307 27.2241 318.518 27.9955C319.671 28.71 320.923 29.2515 322.234 29.6026Z" fill="url(#paint18_linear)"/>
<path d="M385.293 47.0721H384.952C384.356 47.0594 383.764 46.964 383.194 46.7885C382.367 46.5489 381.63 46.0684 381.078 45.4084C380.525 44.7483 380.182 43.9387 380.092 43.0828C378.551 29.7254 372.575 23.3161 369.019 20.5747C368.306 20.0275 367.714 19.3384 367.281 18.5508C366.848 17.7632 366.584 16.8944 366.504 15.9993L366.409 14.9311C366.409 14.8177 366.409 14.7042 366.409 14.6002C366.409 14.4963 366.409 14.3734 366.409 14.2599C366.459 13.6818 366.647 13.1242 366.958 12.634C367.009 12.5401 367.069 12.4514 367.137 12.3693C367.448 11.9465 367.844 11.594 368.301 11.335C368.757 11.076 369.263 10.9162 369.785 10.8662C369.785 10.8662 365.946 11.216 368.376 16.5381C370.267 20.6125 376.811 23.6186 379.723 32.0981C382.466 40.3981 380.366 46.3442 385.293 47.0721Z" fill="url(#paint19_linear)"/>
<path d="M365.597 15.3375C363.014 18.2051 359.936 20.5844 356.51 22.3613C351.775 24.861 346.728 26.7206 341.503 27.8914C336.888 28.9661 332.201 29.7085 327.48 30.1129C326.988 30.1129 326.534 30.1791 325.995 30.1791C324.717 30.1671 323.445 29.9892 322.213 29.6497C320.903 29.2859 319.654 28.7317 318.506 28.0049C317.295 27.2334 316.214 26.2764 315.3 25.1689L315.017 24.8191C314.109 23.6786 313.498 22.3306 313.239 20.896C312.892 19.0521 313.151 17.1453 313.976 15.4604C314.262 14.8433 314.577 14.2407 314.922 13.6549C315.882 12.0659 317.004 10.5802 318.27 9.22131C317.806 9.85468 313.258 16.2356 315.631 20.896C318.137 25.8023 323.054 29.6025 342.742 25.1784C357.209 21.9548 365.181 15.6495 365.597 15.3375Z" fill="url(#paint20_linear)"/>
<path d="M332.681 175.097C332.473 175.444 332.246 175.779 332 176.099C324.662 185.6 305.06 173.216 301.324 148.023C297.646 123.284 319.452 109.719 309.097 92.4854C302.714 81.8789 277.126 92.4854 279.859 82.9376C280.341 81.4877 281.297 80.2422 282.573 79.4021C286.422 76.5662 293.618 75.1198 301.135 74.7984C303.461 74.7133 305.863 74.7322 308.123 74.7984C313.019 74.9454 317.864 75.8282 322.496 77.4169C323.849 77.965 325.121 78.6932 326.279 79.5817C325.712 79.3643 312.757 74.3352 312.814 84.1476C312.87 94.187 333.097 98.3842 324.34 110.239C304.918 136.641 310.298 179.294 332.681 175.097Z" fill="url(#paint21_linear)"/>
<path d="M389.587 173.481C385.37 186.12 386.05 192.756 391.204 192.756C390.018 193.677 388.661 194.353 387.211 194.746C385.762 195.139 384.249 195.24 382.76 195.043C384.14 171.987 382.457 148.628 374.561 129.731L374.429 129.542C377.383 129.958 380.393 129.683 383.223 128.739C384.778 128.22 386.096 127.164 386.94 125.76C387.784 124.356 388.099 122.697 387.828 121.081C391.753 123.134 395.128 126.097 397.672 129.722C397.672 129.722 393.634 133.9 384.623 133.446C381.105 133.267 379.98 137.322 381.852 144.242C384.282 153.355 391.998 166.315 389.587 173.481Z" fill="url(#paint22_linear)"/>
<path d="M258.583 251.564C235.255 270.858 236.655 289.755 238.281 296.864C228.825 261.887 257.052 231.684 272.654 200.848C281.959 182.452 281.637 166.816 279.415 156.351C272.688 150.803 265.586 145.727 258.158 141.16C258.158 141.16 280.011 128.568 271.51 107.128C263.009 85.6884 179.417 71.6882 179.417 71.6882C179.417 71.6882 179.474 71.518 179.559 71.2061C237.648 73.9758 279.415 83.845 279.415 83.845H279.67C279.027 91.6439 302.961 82.2001 309.107 92.4096C319.461 109.643 297.656 123.208 301.334 147.947C303.367 161.626 310.072 171.533 316.956 176.194C332.728 214.564 288.152 227.09 258.583 251.564Z" fill="#990510"/>
<path d="M521.434 213.108C518.985 212.163 465.341 192.311 391.206 192.755C397.504 188.237 403.291 177.176 404.605 157.665C404.605 157.665 406.742 181.969 442.59 187.755C471.506 192.425 519.155 212.012 521.434 213.108Z" fill="#990510"/>
<path d="M382.76 195.043C382.334 202.152 381.625 209.223 380.708 216.143C382.665 152.409 352.425 129.721 352.425 129.721C354.621 124.581 354.817 118.805 352.973 113.528L363.375 124.002C366.357 127.002 370.24 128.944 374.429 129.532L374.562 129.721C382.457 148.628 384.141 171.987 382.76 195.043Z" fill="#990510"/>
<path d="M253.165 488.235C277.855 440.506 258.725 430.571 247.359 433.993C233.846 438.048 230.527 420.182 230.527 420.182C234.697 414.302 238.357 412.421 238.357 412.421L241.383 422.365C243.784 430.24 255.226 429.342 256.352 421.174L260.559 390.404C260.559 390.404 288.304 386.462 317.721 379.75C297.334 417.951 273.24 457.097 253.165 488.235Z" fill="#091F58"/>
<path d="M334.249 314.39C334.656 314.412 335.045 314.565 335.358 314.827C335.671 315.088 335.891 315.443 335.986 315.839C336.08 316.236 336.044 316.652 335.883 317.027C335.722 317.401 335.444 317.713 335.09 317.916C323.163 323.1 312.361 330.559 303.29 339.876C284.066 359.586 271.82 365.476 271.234 365.513C278.619 359.681 286.893 352.61 292.359 346.304C304.008 332.862 308.103 329.686 308.349 329.497C307.564 329.705 271.934 339.262 251.055 319.505C251.925 320.166 267.215 331.794 284.851 327.322C300.273 323.437 315.053 315.581 334.249 314.39Z" fill="#0F2663"/>
<path d="M240.749 259.609L12.9817 144.743C7.48077 141.965 3.28237 137.149 1.28112 131.322C-0.720135 125.495 -0.365999 119.117 2.26805 113.547L23.9035 67.8218C25.9324 63.5309 29.2068 59.9501 33.3002 57.5457C37.3935 55.1413 42.1162 54.0248 46.8533 54.3415L221.015 65.9217C208.722 65.1843 91.8829 58.9641 51.9501 85.4331C9.76668 113.396 38.4658 150.084 70.5595 153.194C116.667 157.665 180.798 142.011 195.379 185.392C208.76 225.407 216.116 244.105 240.749 259.609Z" fill="url(#paint23_linear)"/>
<path d="M113.764 71.6883L103.882 64.1919C102.701 63.2985 101.344 62.6641 99.9 62.3302C98.4565 61.9963 96.9587 61.9703 95.5044 62.254L87.741 63.757C84.7025 64.3518 81.5653 64.2026 78.597 63.3222L74.3323 62.0649C74.0736 61.983 73.7942 61.9956 73.5439 62.1006C73.2937 62.2056 73.0889 62.3961 72.9662 62.638C72.8435 62.88 72.8108 63.1577 72.8739 63.4216C72.9371 63.6854 73.0921 63.9182 73.3111 64.0784L80.6679 69.7031C80.8691 69.8577 81.0188 70.0695 81.0974 70.3108C81.176 70.552 81.1797 70.8114 81.1081 71.0548C81.0365 71.2982 80.8929 71.5143 80.6962 71.6746C80.4995 71.8349 80.2588 71.9319 80.0059 71.953L66.446 73.0779C66.1672 73.108 65.9077 73.2347 65.7125 73.4361C65.5174 73.6374 65.3988 73.9007 65.3775 74.1802C65.3562 74.4597 65.4334 74.7379 65.5957 74.9665C65.758 75.1951 65.9953 75.3597 66.2663 75.4318L79.0698 78.5041C79.391 78.5819 79.6827 78.751 79.9099 78.9909C80.137 79.2309 80.2898 79.5315 80.3498 79.8563C80.4098 80.1812 80.3744 80.5165 80.248 80.8217C80.1215 81.1269 79.9094 81.389 79.6372 81.5764L72.025 86.7756C71.7614 86.9468 71.5641 87.2028 71.4657 87.5013C71.3674 87.7998 71.3739 88.1229 71.4841 88.4172C71.5944 88.7115 71.8018 88.9594 72.0721 89.1198C72.3424 89.2803 72.6594 89.3437 72.9706 89.2996L82.0484 88.4678C82.4146 88.4361 82.7826 88.502 83.115 88.6587C83.4475 88.8154 83.7324 89.0573 83.9409 89.3599C84.1494 89.6625 84.274 90.0149 84.302 90.3812C84.3301 90.7476 84.2605 91.1148 84.1004 91.4455L81.2636 97.1742C81.0667 97.5784 81.0142 98.038 81.1151 98.4762C81.216 98.9144 81.4641 99.3048 81.818 99.5823C82.1719 99.8598 82.6102 100.008 83.06 100.001C83.5097 99.9948 83.9437 99.8345 84.2895 99.5469L89.2067 95.4348C91.6081 93.4203 94.5534 92.1636 97.6698 91.8237L101.273 91.4266C104.717 91.0487 107.937 89.5354 110.426 87.1254L113.755 83.8924L113.764 71.6883Z" fill="#EFA08D"/>
<path d="M248.089 409.131C248.051 408.981 248.05 408.825 248.086 408.675C248.122 408.525 248.194 408.386 248.297 408.27C248.381 408.169 248.486 408.085 248.603 408.024C248.72 407.962 248.848 407.925 248.98 407.913C249.112 407.902 249.245 407.917 249.371 407.957C249.497 407.997 249.614 408.062 249.715 408.147C253.583 411.371 258.358 409.688 258.405 409.669C258.656 409.578 258.933 409.59 259.175 409.702C259.417 409.815 259.604 410.019 259.696 410.27C259.788 410.52 259.776 410.797 259.663 411.039C259.55 411.281 259.346 411.469 259.096 411.56C258.85 411.645 253.176 413.64 248.429 409.669C248.261 409.531 248.142 409.342 248.089 409.131Z" fill="url(#paint24_linear)"/>
<path d="M247.475 414.765C247.446 414.615 247.45 414.461 247.486 414.312C247.522 414.164 247.589 414.025 247.683 413.905C247.768 413.803 247.872 413.719 247.989 413.658C248.107 413.597 248.235 413.559 248.367 413.548C248.499 413.536 248.632 413.551 248.758 413.591C248.884 413.631 249.001 413.696 249.102 413.782C252.979 417.005 257.745 415.323 257.792 415.304C257.916 415.258 258.048 415.238 258.18 415.244C258.312 415.249 258.442 415.281 258.562 415.337C258.681 415.392 258.789 415.471 258.878 415.569C258.968 415.666 259.037 415.78 259.083 415.904C259.128 416.028 259.148 416.16 259.143 416.292C259.137 416.424 259.105 416.554 259.05 416.673C258.994 416.793 258.915 416.901 258.818 416.99C258.72 417.08 258.606 417.149 258.482 417.194C258.246 417.279 252.572 419.283 247.816 415.304C247.648 415.165 247.528 414.976 247.475 414.765Z" fill="url(#paint25_linear)"/>
<path d="M250.329 395.49C250.292 395.342 250.292 395.187 250.328 395.039C250.364 394.891 250.436 394.754 250.537 394.639C250.708 394.434 250.953 394.306 251.219 394.281C251.484 394.256 251.749 394.337 251.955 394.507C255.823 397.73 260.598 396.048 260.645 396.038C260.896 395.947 261.173 395.958 261.415 396.071C261.657 396.184 261.844 396.388 261.936 396.638C262.027 396.889 262.016 397.166 261.903 397.408C261.79 397.65 261.586 397.837 261.335 397.929C261.09 398.014 255.416 400.018 250.669 396.038C250.499 395.897 250.379 395.705 250.329 395.49Z" fill="url(#paint26_linear)"/>
<path d="M249.715 401.133C249.677 400.984 249.676 400.827 249.712 400.677C249.748 400.527 249.82 400.388 249.923 400.273C250.094 400.068 250.339 399.94 250.605 399.915C250.87 399.89 251.135 399.971 251.341 400.14C255.218 403.373 259.984 401.691 260.031 401.672C260.282 401.58 260.559 401.592 260.801 401.705C261.043 401.817 261.23 402.021 261.322 402.272C261.414 402.523 261.402 402.8 261.289 403.042C261.176 403.284 260.972 403.471 260.722 403.562C260.485 403.657 254.802 405.652 250.055 401.672C249.887 401.533 249.768 401.344 249.715 401.133Z" fill="url(#paint27_linear)"/>
<path d="M207.984 571.584C207.851 571.423 207.771 571.225 207.757 571.016C207.742 570.807 207.793 570.599 207.902 570.421C208.012 570.243 208.174 570.103 208.367 570.022C208.56 569.941 208.773 569.922 208.977 569.968C213.904 571.046 217.365 567.359 217.393 567.321C217.573 567.124 217.823 567.007 218.089 566.994C218.355 566.982 218.615 567.076 218.812 567.255C219.009 567.434 219.126 567.684 219.138 567.95C219.151 568.216 219.057 568.476 218.878 568.673C218.708 568.862 214.585 573.248 208.542 571.925C208.322 571.881 208.124 571.761 207.984 571.584Z" fill="url(#paint28_linear)"/>
<path d="M210.048 576.859C209.947 576.745 209.876 576.607 209.84 576.459C209.803 576.311 209.803 576.156 209.84 576.008C209.86 575.876 209.909 575.75 209.982 575.637C210.055 575.525 210.151 575.43 210.263 575.357C210.376 575.285 210.503 575.237 210.635 575.217C210.768 575.198 210.903 575.206 211.031 575.243C215.958 576.32 219.419 572.634 219.447 572.596C219.628 572.398 219.88 572.28 220.148 572.267C220.415 572.255 220.677 572.349 220.875 572.53C220.972 572.619 221.051 572.726 221.106 572.846C221.161 572.966 221.193 573.095 221.198 573.227C221.203 573.358 221.182 573.49 221.137 573.614C221.091 573.737 221.022 573.851 220.932 573.947C220.762 574.137 216.639 578.523 210.606 577.199C210.385 577.156 210.188 577.035 210.048 576.859Z" fill="url(#paint29_linear)"/>
<path d="M203.701 558.454C203.599 558.338 203.527 558.199 203.49 558.049C203.454 557.899 203.455 557.743 203.493 557.593C203.55 557.334 203.707 557.108 203.931 556.964C204.154 556.82 204.425 556.771 204.685 556.828C209.611 557.905 213.072 554.219 213.101 554.181C213.283 553.984 213.535 553.868 213.803 553.857C214.07 553.847 214.331 553.943 214.528 554.124C214.625 554.213 214.704 554.321 214.759 554.44C214.815 554.56 214.846 554.689 214.851 554.821C214.856 554.953 214.836 555.084 214.79 555.208C214.744 555.332 214.675 555.445 214.585 555.542C214.415 555.731 210.292 560.117 204.259 558.794C204.04 558.746 203.844 558.626 203.701 558.454Z" fill="url(#paint30_linear)"/>
<path d="M205.715 563.738C205.616 563.62 205.546 563.482 205.51 563.332C205.474 563.183 205.473 563.028 205.507 562.878C205.564 562.618 205.721 562.392 205.944 562.248C206.168 562.105 206.439 562.056 206.699 562.112C211.625 563.19 215.086 559.503 215.124 559.465C215.305 559.27 215.555 559.154 215.821 559.143C216.087 559.132 216.347 559.228 216.542 559.408C216.738 559.589 216.854 559.84 216.864 560.106C216.875 560.372 216.78 560.631 216.599 560.826C216.429 561.015 212.316 565.402 206.273 564.078C206.054 564.03 205.858 563.911 205.715 563.738Z" fill="url(#paint31_linear)"/>
<defs>
<linearGradient id="paint0_linear" x1="45.3696" y1="117.334" x2="45.3696" y2="285.075" gradientUnits="userSpaceOnUse">
<stop stop-color="#4266C5"/>
<stop offset="1" stop-color="#1F3CCB"/>
</linearGradient>
<linearGradient id="paint1_linear" x1="62.739" y1="117.952" x2="62.739" y2="285.073" gradientUnits="userSpaceOnUse">
<stop stop-color="#1C53E4"/>
<stop offset="1" stop-color="#5672FF"/>
</linearGradient>
<linearGradient id="paint2_linear" x1="60.1626" y1="226.019" x2="60.1626" y2="241.291" gradientUnits="userSpaceOnUse">
<stop stop-color="#5986FB"/>
<stop offset="1" stop-color="#2D4EF5"/>
</linearGradient>
<linearGradient id="paint3_linear" x1="70.572" y1="190.408" x2="70.572" y2="221.207" gradientUnits="userSpaceOnUse">
<stop stop-color="#5986FB"/>
<stop offset="1" stop-color="#2D4EF5"/>
</linearGradient>
<linearGradient id="paint4_linear" x1="131.995" y1="126.504" x2="131.995" y2="294.292" gradientUnits="userSpaceOnUse">
<stop stop-color="#4266C5"/>
<stop offset="1" stop-color="#1F3CCB"/>
</linearGradient>
<linearGradient id="paint5_linear" x1="149.385" y1="127.226" x2="149.385" y2="294.29" gradientUnits="userSpaceOnUse">
<stop stop-color="#1C53E4"/>
<stop offset="1" stop-color="#5672FF"/>
</linearGradient>
<linearGradient id="paint6_linear" x1="146.804" y1="235.298" x2="146.804" y2="250.569" gradientUnits="userSpaceOnUse">
<stop stop-color="#5986FB"/>
<stop offset="1" stop-color="#2D4EF5"/>
</linearGradient>
<linearGradient id="paint7_linear" x1="157.208" y1="199.654" x2="157.208" y2="230.462" gradientUnits="userSpaceOnUse">
<stop stop-color="#5986FB"/>
<stop offset="1" stop-color="#2D4EF5"/>
</linearGradient>
<linearGradient id="paint8_linear" x1="0" y1="54.2888" x2="0" y2="348.093" gradientUnits="userSpaceOnUse">
<stop stop-color="#5986FB"/>
<stop offset="1" stop-color="#2D4EF5"/>
</linearGradient>
<linearGradient id="paint9_linear" x1="348.559" y1="150.339" x2="348.559" y2="331.444" gradientUnits="userSpaceOnUse">
<stop stop-color="#4A78EE"/>
<stop offset="1" stop-color="#203FDF"/>
</linearGradient>
<linearGradient id="paint10_linear" x1="366.412" y1="10.8453" x2="366.412" y2="47.0721" gradientUnits="userSpaceOnUse">
<stop stop-color="#5986FB"/>
<stop offset="1" stop-color="#2D4EF5"/>
</linearGradient>
<linearGradient id="paint11_linear" x1="313.126" y1="1.65784" x2="313.126" y2="30.0931" gradientUnits="userSpaceOnUse">
<stop stop-color="#5986FB"/>
<stop offset="1" stop-color="#2D4EF5"/>
</linearGradient>
<linearGradient id="paint12_linear" x1="298.376" y1="20.8678" x2="298.376" y2="71.7052" gradientUnits="userSpaceOnUse">
<stop stop-color="#5986FB"/>
<stop offset="1" stop-color="#2D4EF5"/>
</linearGradient>
<linearGradient id="paint13_linear" x1="374.429" y1="121.081" x2="374.429" y2="195.141" gradientUnits="userSpaceOnUse">
<stop stop-color="#5986FB"/>
<stop offset="1" stop-color="#2D4EF5"/>
</linearGradient>
<linearGradient id="paint14_linear" x1="231.469" y1="377.737" x2="231.469" y2="427.811" gradientUnits="userSpaceOnUse">
<stop stop-color="#5986FB"/>
<stop offset="1" stop-color="#2D4EF5"/>
</linearGradient>
<linearGradient id="paint15_linear" x1="183.78" y1="541.314" x2="183.78" y2="590" gradientUnits="userSpaceOnUse">
<stop stop-color="#5986FB"/>
<stop offset="1" stop-color="#2D4EF5"/>
</linearGradient>
<linearGradient id="paint16_linear" x1="298.291" y1="71.2629" x2="298.291" y2="78.4663" gradientUnits="userSpaceOnUse">
<stop stop-color="#426FE4"/>
<stop offset="1" stop-color="#1D3ACE"/>
</linearGradient>
<linearGradient id="paint17_linear" x1="279.658" y1="74.7698" x2="279.658" y2="179.28" gradientUnits="userSpaceOnUse">
<stop stop-color="#5986FB"/>
<stop offset="1" stop-color="#2D4EF5"/>
</linearGradient>
<linearGradient id="paint18_linear" x1="309.156" y1="20.8867" x2="309.156" y2="43.9526" gradientUnits="userSpaceOnUse">
<stop stop-color="#426FE4"/>
<stop offset="1" stop-color="#1D3ACE"/>
</linearGradient>
<linearGradient id="paint19_linear" x1="366.409" y1="10.8662" x2="366.409" y2="47.0721" gradientUnits="userSpaceOnUse">
<stop stop-color="#4570E2"/>
<stop offset="1" stop-color="#1631B8"/>
</linearGradient>
<linearGradient id="paint20_linear" x1="313.089" y1="9.22131" x2="313.089" y2="30.1791" gradientUnits="userSpaceOnUse">
<stop stop-color="#4570E2"/>
<stop offset="1" stop-color="#1631B8"/>
</linearGradient>
<linearGradient id="paint21_linear" x1="279.656" y1="74.7415" x2="279.656" y2="179.292" gradientUnits="userSpaceOnUse">
<stop stop-color="#426FE4"/>
<stop offset="1" stop-color="#1D3ACE"/>
</linearGradient>
<linearGradient id="paint22_linear" x1="374.429" y1="121.081" x2="374.429" y2="195.141" gradientUnits="userSpaceOnUse">
<stop stop-color="#426FE4"/>
<stop offset="1" stop-color="#1D3ACE"/>
</linearGradient>
<linearGradient id="paint23_linear" x1="0" y1="54.2888" x2="0" y2="259.609" gradientUnits="userSpaceOnUse">
<stop stop-color="#4A78EE"/>
<stop offset="1" stop-color="#203FDF"/>
</linearGradient>
<linearGradient id="paint24_linear" x1="248.059" y1="407.91" x2="248.059" y2="412.136" gradientUnits="userSpaceOnUse">
<stop stop-color="#92B0FF"/>
<stop offset="1" stop-color="#7D93FF"/>
</linearGradient>
<linearGradient id="paint25_linear" x1="247.456" y1="413.544" x2="247.456" y2="417.774" gradientUnits="userSpaceOnUse">
<stop stop-color="#92B0FF"/>
<stop offset="1" stop-color="#7D93FF"/>
</linearGradient>
<linearGradient id="paint26_linear" x1="250.301" y1="394.277" x2="250.301" y2="398.508" gradientUnits="userSpaceOnUse">
<stop stop-color="#92B0FF"/>
<stop offset="1" stop-color="#7D93FF"/>
</linearGradient>
<linearGradient id="paint27_linear" x1="249.685" y1="399.91" x2="249.685" y2="404.145" gradientUnits="userSpaceOnUse">
<stop stop-color="#92B0FF"/>
<stop offset="1" stop-color="#7D93FF"/>
</linearGradient>
<linearGradient id="paint28_linear" x1="207.754" y1="566.993" x2="207.754" y2="572.173" gradientUnits="userSpaceOnUse">
<stop stop-color="#92B0FF"/>
<stop offset="1" stop-color="#7D93FF"/>
</linearGradient>
<linearGradient id="paint29_linear" x1="209.812" y1="572.266" x2="209.812" y2="577.448" gradientUnits="userSpaceOnUse">
<stop stop-color="#92B0FF"/>
<stop offset="1" stop-color="#7D93FF"/>
</linearGradient>
<linearGradient id="paint30_linear" x1="203.464" y1="553.856" x2="203.464" y2="559.042" gradientUnits="userSpaceOnUse">
<stop stop-color="#92B0FF"/>
<stop offset="1" stop-color="#7D93FF"/>
</linearGradient>
<linearGradient id="paint31_linear" x1="205.482" y1="559.142" x2="205.482" y2="564.327" gradientUnits="userSpaceOnUse">
<stop stop-color="#92B0FF"/>
<stop offset="1" stop-color="#7D93FF"/>
</linearGradient>
</defs>
</svg>
