<svg width="260" height="235" viewBox="0 0 260 235" fill="none" xmlns="http://www.w3.org/2000/svg">
<path d="M206.06 32.5477L184.501 27.0779L169.173 21.6359L162.2 20.9319L165.642 17.764H173.228L198.386 20.7977L205.46 26.1257L206.06 32.5477Z" fill="#E13A3A"/>
<path d="M220.205 50.1675L217.178 55.3689L199.293 57.6581L191.748 62.9026L190.718 61.33L191.468 51.8617L201.949 38.8531L214.94 44.4369L220.205 50.1675Z" fill="#2B4E3E"/>
<path d="M194.901 88.603C191.815 90.7704 188.608 92.7689 185.295 94.5894L177.104 120.356L171.797 137.041H168.807C168.807 137.041 167.768 95.2732 169.136 88.3473C169.583 86.1087 170.759 83.0117 172.236 79.6918C172.387 79.669 179.399 73.4699 185.575 74.2828C188.691 74.693 195.594 78.1927 198.881 79.6918C199.325 81.8848 196.518 86.3923 194.901 88.603Z" fill="#60424C"/>
<path d="M193.374 82.4495C190.245 81.0636 186.919 80.1475 183.509 79.7323C179.765 79.2342 175.971 79.2172 172.223 79.6817C176.156 70.8338 182.213 60.4057 182.213 60.4057C184.908 60.9957 196.827 55.1334 199.787 55.1308C199.8 55.1308 199.112 71.1351 193.374 82.4495Z" fill="#446E5C"/>
<path d="M150.395 38.4682L149.933 35.8372L147.7 36.3031L143.442 34.8166L141.124 30.0533L132.964 27.169L133.927 22.9932L140.238 19.2935L147.7 21.8866L150.236 25.9788L152.152 29.3721L153.147 26.7816L154.858 26.693V31.8057L152.285 38.8531L150.395 38.4682Z" fill="#60424C"/>
<path d="M153.788 53.6469C148.077 43.505 150.393 38.4682 150.393 38.4682C150.393 38.4682 154.092 37.5642 156.382 40.1092C156.325 40.9372 157.875 45.1738 157.841 45.9791C157.711 49.1419 156.616 51.5451 153.788 53.6469Z" fill="#6A9C78"/>
<path d="M172.271 56.9086L176.251 46.5261L179.247 24.4417L167.985 20.7977L161.255 22.0765L155.59 29.1138L152.545 40.3067V50.6715L153.791 53.6469L172.271 56.9086Z" fill="#6A9C78"/>
<path d="M172.27 56.9085C172.12 62.2973 171.393 69.1599 168.862 72.3152C164.541 77.7039 137.834 84.2297 137.396 84.3411C136.957 84.4526 137.396 84.3411 137.411 84.3411C138.226 80.3806 153.004 65.4627 157.27 60.7475C158.703 59.1623 165.336 51.8844 170.681 51.8844C171.637 52.3985 172.748 54.5408 172.27 56.9085Z" fill="#442330"/>
<path d="M137.418 84.326L138.638 81.9658L135.886 82.328L134.811 84.521L137.418 84.326Z" fill="#60424C"/>
<path d="M128.891 167.242L126.57 166.12L125.991 170.984L128.003 171.22L128.891 167.242Z" fill="#EFA08D"/>
<path d="M45.7748 192.028L42.4751 192.608L43.7628 189.541L47.8466 188.171L45.7748 192.028Z" fill="#EFA08D"/>
<path d="M72.0015 104.741L82.7134 81.115L98.5865 67.7621L100.676 65.5159L106.113 64.0396V68.3723L107.756 83.2497L91.7974 104.741L74.9559 109.325L72.0015 104.741Z" fill="#0074E4"/>
<path d="M108.507 95.4859L119.377 82.328L120.483 76.7493L119.385 69.6031L117.965 67.2683L120.154 59.7853L118.427 53.6469L117.075 49.8156L116.651 49.3547L110.122 50.3879L106.581 60.4918L100.29 69.0181L98.5845 81.353L104.706 96.6862L108.507 95.4859Z" fill="#0074E4"/>
<path d="M128.891 167.242L125.991 170.984C125.991 170.984 123.989 162.03 121.38 155.071C118.665 147.831 115.692 138.054 117.026 135.066C117.026 135.066 104.43 136.079 92.5209 134.97C80.8873 128.806 86.6794 121.635 87.7776 117.975C88.746 114.749 95.6285 110.561 100.252 111.391C107.41 114.45 128.348 123.681 130.109 127.75C132.868 134.228 128.891 167.242 128.891 167.242Z" fill="#EFA08D"/>
<path d="M31.4804 199.922C29.4996 200.827 27.747 202.146 26.3469 203.785L0.66639 233.809L0.206299 234.335H0.899271H253.993C257.309 234.335 259.996 231.646 259.993 228.331L259.906 116.37C259.907 116.352 259.903 116.335 259.895 116.319C259.886 116.303 259.874 116.29 259.858 116.281C259.843 116.272 259.825 116.267 259.807 116.266C259.789 116.266 259.771 116.27 259.755 116.279L259.434 116.388L235.486 124.554L205.009 134.937L192.236 139.292C190.815 139.776 189.327 140.048 187.823 140.098L184.23 140.217L161.256 140.976C160.489 141.002 159.725 141.086 158.971 141.23C155.564 141.863 152.488 143.632 150.271 146.233L137.885 160.797L127.983 172.425C126.364 174.327 124.275 175.796 121.913 176.693C119.551 177.591 116.994 177.888 114.483 177.556L95.2708 174.998C92.2792 174.601 89.2479 175.372 86.8357 177.143L61.5981 195.629C59.0124 197.524 55.8653 198.549 52.6308 198.549H37.8091C35.6218 198.548 33.4612 199.018 31.4804 199.922Z" fill="url(#paint0_linear)"/>
<path d="M55.5127 202.988L49.5258 205.905C45.8226 207.708 41.5591 208.086 37.5833 206.964L31.4433 205.226L30.5138 204.973C30.0732 204.848 29.679 204.601 29.3788 204.262C29.0785 203.923 28.885 203.507 28.8213 203.064C28.7577 202.62 28.8268 202.168 29.0202 201.762C29.2136 201.356 29.5231 201.013 29.9115 200.774L29.9401 200.757C29.9764 200.737 30.0102 200.714 30.0465 200.696C30.127 200.645 30.2075 200.597 30.288 200.554L30.4593 200.455L30.9033 200.22L31.2615 200.043L31.2953 200.027C33.3244 199.059 35.5527 198.553 37.8118 198.549H51.1952C52.1395 198.548 53.0694 198.774 53.903 199.207L55.5516 200.06C55.8256 200.202 56.0541 200.415 56.2122 200.675C56.3704 200.935 56.4519 201.233 56.4479 201.536C56.4438 201.838 56.3544 202.134 56.1894 202.39C56.0245 202.646 55.7903 202.853 55.5127 202.988Z" fill="url(#paint1_linear)"/>
<path d="M36.4401 227.417L33.4285 234.254L33.3921 234.335L22.5158 234.335H0L26.3487 203.785C27.3619 202.601 28.5616 201.581 29.9029 200.764C29.5144 201.003 29.2049 201.346 29.0115 201.752C28.8181 202.158 28.7491 202.61 28.8127 203.054C28.8763 203.497 29.0699 203.913 29.3701 204.252C29.6704 204.591 30.0645 204.838 30.5052 204.963L31.4346 205.216L27.5403 211.856C27.184 212.466 26.9866 213.151 26.9656 213.853C26.9445 214.554 27.1005 215.25 27.4197 215.879C27.7389 216.508 28.2115 217.051 28.7962 217.46C29.3808 217.869 30.0595 218.131 30.7726 218.225L31.1205 218.27C32.1569 218.402 33.1478 218.767 34.015 219.336C34.8822 219.906 35.6021 220.664 36.1178 221.55C36.6335 222.437 36.9311 223.429 36.987 224.447C37.043 225.465 36.8557 226.482 36.4401 227.417Z" fill="url(#paint2_linear)"/>
<path d="M33.2372 202.142L31.4433 205.226L30.5138 204.973C30.0732 204.848 29.679 204.601 29.3788 204.262C29.0785 203.923 28.885 203.507 28.8213 203.064C28.7577 202.62 28.8268 202.168 29.0202 201.762C29.2136 201.356 29.5231 201.013 29.9115 200.775L29.9401 200.757C29.9764 200.737 30.0102 200.714 30.0465 200.696C30.127 200.645 30.2075 200.597 30.288 200.554L30.4593 200.455L30.9033 200.22L31.207 200.068L31.2615 200.043L31.2953 200.028C31.5905 199.908 31.9164 199.881 32.228 199.95C32.5396 200.019 32.8215 200.181 33.0347 200.413C33.248 200.645 33.382 200.936 33.4183 201.246C33.4545 201.556 33.3913 201.869 33.2372 202.142Z" fill="url(#paint3_linear)"/>
<path d="M259.908 116.37V228.254C259.908 231.568 257.222 234.254 253.908 234.254H119.384L126.43 232.051C127.581 231.692 128.646 231.111 129.564 230.343C130.481 229.575 131.231 228.635 131.769 227.58C132.308 226.525 132.625 225.375 132.7 224.198C132.776 223.021 132.609 221.842 132.209 220.729L130.54 216.072L129.88 214.249C129.204 212.363 129.204 210.309 129.879 208.423C130.555 206.537 131.867 204.931 133.601 203.867L155.281 190.552C156.512 189.798 157.539 188.765 158.274 187.543C159.01 186.32 159.432 184.942 159.507 183.526C159.581 182.11 159.304 180.698 158.7 179.408C158.096 178.118 157.183 176.99 156.037 176.117L152.563 173.479C151.238 172.468 150.228 171.117 149.647 169.577C149.065 168.037 148.935 166.37 149.271 164.762L153.776 143.223C155.361 142.24 157.123 141.56 158.968 141.22C159.722 141.076 160.485 140.992 161.253 140.966L184.226 140.207L187.82 140.088C189.324 140.037 190.812 139.766 192.233 139.282L205.006 134.927L235.483 124.544L259.43 116.377L259.908 116.37Z" fill="url(#paint4_linear)"/>
<path d="M99.7358 193.616L123.722 198.64C126.093 199.136 128.553 199.048 130.88 198.385C133.208 197.722 135.329 196.504 137.053 194.841L140.867 191.162C145.242 186.943 141.506 179.731 135.415 180.663L124.594 182.324C123.859 182.436 123.11 182.422 122.38 182.281L103.565 178.65C102.149 178.376 100.68 178.583 99.4004 179.235C98.121 179.887 97.1082 180.946 96.5295 182.235L95.2469 185.097C94.8709 185.937 94.6912 186.849 94.7209 187.765C94.7506 188.681 94.989 189.58 95.4187 190.395C95.8484 191.211 96.4587 191.923 97.2053 192.48C97.952 193.037 98.8164 193.425 99.7358 193.616Z" fill="url(#paint5_linear)"/>
<path d="M65.942 228.091L80.2496 216.369C81.6641 215.211 82.7608 213.727 83.4407 212.053C84.1206 210.378 84.3622 208.565 84.1439 206.776L83.6247 202.823C83.0665 198.288 76.8746 197.11 74.6133 201.109L72.23 205.323C70.8675 207.73 69.0808 209.885 66.9519 211.689L58.4987 218.85C57.6693 219.553 57.1109 220.511 56.9159 221.566C56.7209 222.62 56.901 223.708 57.4265 224.649L58.5896 226.738C58.9311 227.353 59.4087 227.885 59.9876 228.297C60.5665 228.709 61.2321 228.99 61.9362 229.119C62.6403 229.249 63.3652 229.224 64.0581 229.046C64.751 228.868 65.3945 228.542 65.942 228.091Z" fill="url(#paint6_linear)"/>
<path d="M126.426 232.051L119.38 234.335H89.5576L119.154 218.939C122.664 217.123 126.564 216.14 130.536 216.072L132.205 220.729C132.605 221.842 132.772 223.021 132.696 224.198C132.621 225.375 132.304 226.525 131.766 227.58C131.227 228.635 130.477 229.575 129.56 230.343C128.643 231.111 127.577 231.692 126.426 232.051Z" fill="url(#paint7_linear)"/>
<path d="M259.906 144.876L259.993 228.329C259.996 231.645 257.309 234.335 253.993 234.335H119.382L126.428 232.064C127.579 231.704 128.645 231.123 129.562 230.355C130.479 229.587 131.229 228.648 131.767 227.593C132.306 226.537 132.623 225.387 132.698 224.211C132.774 223.034 132.607 221.854 132.207 220.742L130.538 216.072C131.589 216.056 132.641 216.104 133.687 216.214L171.436 220.215C174.917 220.583 178.419 219.728 181.311 217.802C184.203 215.877 186.296 213.007 187.213 209.711L193.729 186.29C194.611 183.12 196.538 180.321 199.212 178.324C201.887 176.327 205.16 175.244 208.527 175.241H222.643C224.274 175.244 225.884 174.881 227.348 174.18C228.813 173.479 230.092 172.459 231.088 171.2L249.194 148.295C250.035 147.231 251.114 146.37 252.35 145.777C253.585 145.184 254.944 144.876 256.321 144.876H259.906Z" fill="url(#paint8_linear)"/>
<path d="M137.886 163.777V171.088C137.886 172.303 137.5 173.488 136.781 174.48C136.061 175.472 135.045 176.221 133.87 176.626L128.584 178.452C128.049 178.638 127.471 178.678 126.914 178.567C126.357 178.455 125.842 178.198 125.425 177.821L124.693 177.168C124.551 177.039 124.441 176.881 124.371 176.705C124.3 176.529 124.271 176.34 124.285 176.151C124.299 175.963 124.357 175.78 124.453 175.616C124.549 175.452 124.681 175.311 124.841 175.203C126.024 174.427 127.086 173.489 127.995 172.418L135.934 163.096C136.079 162.926 136.273 162.804 136.492 162.746C136.71 162.687 136.942 162.696 137.155 162.77C137.368 162.845 137.552 162.981 137.683 163.161C137.814 163.341 137.885 163.557 137.886 163.777Z" fill="url(#paint9_linear)"/>
<path d="M185.487 148.976L171.727 152.111C170.222 152.454 168.639 152.228 167.298 151.478L159.935 147.355C159.405 147.059 158.951 146.65 158.606 146.158C158.261 145.666 158.035 145.105 157.944 144.516C157.852 143.927 157.898 143.326 158.079 142.757C158.259 142.188 158.569 141.666 158.985 141.23C159.738 141.086 160.502 141.002 161.269 140.976L184.199 140.217C184.213 140.216 184.227 140.218 184.24 140.223C184.253 140.228 184.264 140.235 184.274 140.245L187.216 143.169C187.658 143.608 187.973 144.155 188.127 144.752C188.282 145.349 188.27 145.975 188.094 146.566C187.918 147.158 187.584 147.693 187.125 148.116C186.667 148.54 186.102 148.836 185.487 148.976Z" fill="url(#paint10_linear)"/>
<path d="M236.628 129.556L224.457 138.396C222.998 139.457 221.227 140.031 219.408 140.032H204.508C204.269 140.032 204.035 139.972 203.828 139.857C203.62 139.742 203.447 139.576 203.325 139.376C203.203 139.176 203.136 138.949 203.132 138.716C203.127 138.483 203.184 138.254 203.298 138.049L204.721 135.491C204.915 135.136 205.238 134.865 205.627 134.732L234.094 125.025C234.526 124.877 234.989 124.838 235.44 124.91C235.891 124.982 236.317 125.164 236.678 125.438C237.001 125.683 237.261 125.997 237.439 126.356C237.617 126.715 237.707 127.11 237.702 127.509C237.697 127.908 237.598 128.3 237.411 128.655C237.225 129.01 236.957 129.319 236.628 129.556Z" fill="url(#paint11_linear)"/>
<path d="M220.204 50.1675C219.879 50.0764 219.555 49.9953 219.225 49.9143C219.134 49.8915 219.043 49.8687 218.966 49.851C218.779 49.8079 218.592 49.7699 218.405 49.7345C217.745 49.6028 217.078 49.499 216.414 49.4154C216.297 49.4002 216.182 49.385 216.066 49.3749L215.715 49.3344L215.136 49.2787H215.069C214.931 49.266 214.809 49.2559 214.659 49.2483C214.399 49.2331 214.139 49.2204 213.88 49.2154C213.62 49.2103 213.36 49.2154 213.114 49.2154H212.761C209.241 49.3482 205.823 50.4088 202.872 52.2845C202.08 52.7832 201.325 53.3358 200.613 53.9381L200.307 54.1914C200.047 54.4117 199.806 54.6371 199.564 54.87C199.395 55.0321 199.227 55.1916 199.045 55.3461C198.918 55.4651 198.785 55.5841 198.658 55.6981C198.474 55.8652 198.287 56.0273 198.103 56.1843C197.973 56.2983 197.843 56.4097 197.711 56.516C196.354 57.6537 194.929 58.7123 193.445 59.6865L193.141 59.884H193.123L192.863 60.0435L192.837 60.0613L192.427 60.3145C191.389 60.9653 190.711 61.3274 190.711 61.3274C187.855 61.3273 185.008 61.0173 182.222 60.4031C178.77 59.6359 175.426 58.4616 172.265 56.906C171.26 56.4198 170.287 55.8931 169.342 55.3664C167.354 54.2316 165.439 52.9801 163.607 51.6185C162.309 50.6487 161.078 49.6636 159.949 48.6886C158.311 47.2756 156.865 45.8879 155.629 44.6116C154.998 43.9659 154.424 43.3455 153.905 42.7706C152.652 41.4006 151.478 39.9634 150.39 38.4657C156.361 31.436 153.245 26.9285 153.144 26.7816C155.335 23.9125 158.466 22.0056 162.197 20.9319C168.509 19.1163 176.539 19.6886 184.641 22.0183C188.87 23.2467 192.966 24.8733 196.872 26.8753C200.091 28.513 203.163 30.4104 206.057 32.5477C210.071 35.5206 213.586 38.9012 216.26 42.5655C217.965 44.8881 219.295 47.4519 220.204 50.1675Z" fill="#6A9C78"/>
<path d="M122.703 64.4574C122.223 64.6017 121.236 64.6423 120.159 64.7106L119.504 64.7537C117.534 64.8727 115.475 64.9436 115.475 64.9436V64.9082C120.073 60.7754 117.713 57.4834 117.061 53.7659C116.636 51.3374 117.061 50.089 116.662 49.3521C117.472 49.5674 118.219 50.1928 118.824 50.9551C120.14 52.5833 119.824 54.042 121.992 55.3638C122.96 55.9564 123.515 56.3616 123.734 56.7769C123.952 57.1922 123.845 57.567 123.523 58.1393C123.457 58.2587 123.408 58.3866 123.378 58.5191C122.924 60.2841 124.546 63.8902 122.703 64.4574Z" fill="#EFA08D"/>
<path d="M115.465 64.9157C115.267 65.093 115.055 65.2728 114.831 65.4526C114.092 65.1413 113.299 64.9695 112.495 64.9461C111.996 64.8897 111.493 64.8846 110.994 64.9309C110.903 64.9309 110.81 64.9436 110.714 64.9562C110.316 64.9945 109.92 65.0554 109.53 65.1386C109.236 65.1993 108.925 65.2753 108.6 65.3715C108.523 65.3918 108.445 65.4171 108.364 65.4424C108.208 65.4906 108.047 65.5437 107.881 65.6045L107.653 65.6881L107.352 65.8071L107.126 65.9033L106.845 66.0274C106.708 66.0907 106.57 66.1566 106.43 66.2275C106.29 66.2984 106.196 66.3465 106.077 66.4123C105.957 66.4782 105.903 66.506 105.817 66.5567H105.794L105.534 66.7086L105.254 66.8808C105.166 66.9365 105.075 66.9947 104.994 67.0555L104.716 67.2429C104.716 67.2429 104.35 65.9768 100.677 65.4982C101.951 64.6547 102.932 63.4537 103.491 62.0542C104.745 58.8964 104.078 50.3574 110.171 48.5139H110.184C111.026 48.2692 111.902 48.1514 112.78 48.1645C115.389 48.1645 116.316 48.714 116.659 49.342C117.059 50.0789 116.633 51.3273 117.059 53.7558C117.703 57.4986 120.063 60.7906 115.465 64.9157Z" fill="#264E86"/>
<path d="M120.155 64.7182L119.742 65.1994L117.541 67.7621C116.889 66.7507 115.948 65.9478 114.833 65.4526C115.056 65.2728 115.269 65.093 115.466 64.9157V64.9512C115.466 64.9512 117.525 64.8803 119.496 64.7613L120.155 64.7182Z" fill="#EFA08D"/>
<path d="M93.7852 131.047C93.3776 132.331 92.9545 133.648 92.5209 134.98C89.434 144.446 85.8097 154.641 83.2836 158.817C78.0237 167.507 45.7738 192.028 45.7738 192.028L43.7617 189.541C43.7617 189.541 54.523 174.094 58.7885 164.785C63.0541 155.476 68.532 152.309 68.532 152.309C68.0855 149.018 67.7307 145.926 67.4676 143.033C66.668 134.256 66.6602 127.203 67.2313 121.473C70.0742 115.023 82.2763 113.567 90.1506 117.765C92.3703 118.95 94.0111 126.124 93.7852 131.047Z" fill="#EFA08D"/>
<path d="M102.511 106.23C101.711 107.937 100.958 109.665 100.252 111.414C98.9867 114.541 97.8704 117.72 96.9028 120.953C96.0798 123.693 94.9998 127.223 93.7874 131.047C93.2491 130.593 92.7057 130.163 92.157 129.756C90.5832 128.579 88.9175 127.524 87.1749 126.6C86.5206 126.254 85.8638 125.929 85.2096 125.628C81.4921 123.925 77.5509 122.732 73.4981 122.083C72.9494 121.995 72.4198 121.917 71.9092 121.85C70.3592 121.646 68.7994 121.519 67.2361 121.47C67.4693 119.018 67.8612 116.583 68.4096 114.179C68.4667 113.926 68.5238 113.696 68.5835 113.46C68.5845 113.452 68.5845 113.443 68.5835 113.435C68.6406 113.212 68.6977 112.992 68.7549 112.774C68.7549 112.751 68.7549 112.731 68.773 112.711C68.825 112.521 68.8769 112.336 68.9288 112.151C68.9989 111.898 69.0716 111.645 69.1469 111.412L69.2793 110.989C69.2793 110.968 69.2923 110.948 69.3001 110.925C69.3494 110.766 69.4013 110.609 69.4558 110.452C69.5415 110.199 69.6298 109.945 69.7155 109.692C69.8011 109.439 69.8686 109.277 69.9465 109.072L70.1257 108.651C70.2425 108.363 70.3593 108.079 70.4787 107.803C70.7539 107.16 71.0421 106.549 71.3433 105.97L71.4134 105.833L71.6107 105.463C71.7405 105.21 71.8703 104.98 72.0105 104.747C72.8645 103.269 73.8672 101.877 75.0039 100.594C75.6924 99.8181 76.4257 99.0817 77.2003 98.3879C78.3947 97.3286 79.6517 96.3385 80.9648 95.4225C82.8683 94.084 84.6969 92.647 86.4428 91.1176C88.7326 88.3776 91.6689 82.5077 94.7324 85.073C95.0647 85.3515 101.21 91.657 101.545 91.9381C104.284 94.359 104.707 101.46 102.511 106.23Z" fill="#264E86"/>
<path d="M104.709 67.2683C104.211 67.813 103.762 68.3984 103.367 69.0181L103.058 68.7345C103.402 68.3553 103.772 67.9983 104.164 67.6658C104.343 67.5291 104.519 67.3974 104.698 67.2733C104.704 67.2683 104.706 67.2657 104.709 67.2683Z" fill="#0054D8"/>
<path d="M110.735 65.055L110.46 65.1006L110.366 65.1183L110.273 65.1361L110.148 65.1614L110.044 65.1867H110.01C109.923 65.2035 109.836 65.2255 109.751 65.2526C109.647 65.2779 109.546 65.3083 109.444 65.3412C109.343 65.3716 109.245 65.4045 109.148 65.4425C109.052 65.4805 108.956 65.5134 108.86 65.5539C108.764 65.5944 108.673 65.6299 108.582 65.6729C108.409 65.7556 108.236 65.8468 108.063 65.9464C107.98 65.9945 107.897 66.0426 107.804 66.0958C107.71 66.149 107.674 66.1769 107.612 66.2224C107.571 66.2474 107.532 66.2744 107.495 66.3035C107.422 66.3541 107.349 66.4073 107.279 66.463C107.209 66.5187 107.116 66.5921 107.038 66.6605L106.936 66.7492L106.846 66.8302C106.818 66.8527 106.792 66.8773 106.768 66.9036C106.726 66.9416 106.687 66.9796 106.648 67.0201L106.534 67.1366C106.474 67.1969 106.416 67.2603 106.363 67.3265C106.312 67.3798 106.265 67.4356 106.22 67.4937V67.5063C106.19 67.536 106.163 67.5682 106.139 67.6025L106.119 67.6304C106.064 67.6937 106.015 67.7621 105.966 67.8279C105.916 67.8938 105.851 67.9849 105.799 68.0634C105.747 68.1419 105.69 68.223 105.641 68.304C105.592 68.385 105.537 68.4686 105.49 68.5572L105.433 68.6408L105.407 68.6864L105.298 68.8864C105.249 68.9776 105.202 69.0688 105.158 69.1625C105.143 69.1928 105.13 69.2207 105.117 69.2511C105.07 69.3422 105.028 69.4359 104.989 69.5296C104.969 69.5727 104.948 69.6183 104.93 69.6639C104.92 69.6836 104.911 69.7039 104.904 69.7246L104.883 69.7753C104.847 69.8639 104.81 69.9551 104.779 70.0462C104.758 70.0969 104.74 70.1475 104.722 70.1982C104.68 70.3096 104.641 70.4235 104.605 70.5375C104.569 70.6515 104.535 70.7553 104.504 70.8667C104.483 70.9325 104.465 70.9984 104.447 71.0668C104.416 71.1731 104.387 71.282 104.361 71.3909C104.317 71.5707 104.275 71.753 104.236 71.9353C104.121 72.498 104.034 73.0659 103.977 73.6371C103.964 73.7535 103.951 73.8726 103.943 73.9916C103.871 74.8118 103.842 75.635 103.857 76.4581V76.767C103.857 76.9341 103.857 77.0987 103.876 77.2735C103.894 77.4482 103.891 77.6077 103.902 77.7799C103.912 77.9521 103.92 78.0939 103.933 78.2535C103.933 78.3092 103.933 78.3649 103.946 78.4181C103.946 78.5725 103.972 78.727 103.985 78.879C104.008 79.1195 104.034 79.3576 104.06 79.5956L104.13 80.1755C104.151 80.3443 104.174 80.5131 104.2 80.682C104.226 80.8508 104.249 81.0053 104.27 81.1454C104.296 81.3176 104.322 81.4872 104.351 81.6518C104.387 81.8646 104.423 82.0773 104.462 82.2875C104.483 82.409 104.506 82.528 104.53 82.647C104.577 82.9003 104.623 83.1231 104.673 83.3586C104.673 83.4169 104.696 83.4751 104.709 83.5334L104.748 83.7081C104.796 83.9411 104.848 84.1715 104.904 84.3994C104.961 84.6526 105.021 84.8907 105.08 85.1312C105.275 85.8909 105.48 86.6228 105.69 87.309L106.064 88.5144L106.35 89.4109C106.62 90.255 106.885 91.056 107.144 91.814C107.201 91.9837 107.261 92.1534 107.318 92.3205C107.417 92.6041 107.513 92.8801 107.612 93.1486C107.722 93.4609 107.834 93.7648 107.946 94.0602C108.135 94.5667 108.323 95.0444 108.51 95.4935C106.864 97.9122 105.384 100.434 104.078 103.042C103.536 104.099 103.017 105.164 102.52 106.238C99.2985 100.611 94.0412 96.2177 90.1598 93.5031C89.6614 93.1536 89.1837 92.832 88.7371 92.5383C87.8284 91.9406 87.047 91.4646 86.4473 91.1126C92.3978 85.8428 94.9187 81.0998 99.1531 73.6396C99.6598 72.7413 100.227 71.8767 100.851 71.0516C101.09 70.7359 101.331 70.4354 101.575 70.1501C102.348 69.2337 103.218 68.4001 104.172 67.6633C103.78 67.9958 103.41 68.3528 103.066 68.732L103.375 69.0156C103.77 68.3959 104.219 67.8105 104.717 67.2657L104.995 67.0784C105.083 67.0176 105.174 66.9593 105.254 66.9036L105.535 66.7314L105.794 66.5795H105.818C105.903 66.5288 105.991 66.4807 106.077 66.4351C106.163 66.3896 106.313 66.3085 106.43 66.2503C106.547 66.192 106.708 66.1135 106.846 66.0502L107.126 65.9261L107.352 65.8299L107.653 65.7109L107.882 65.6273C108.048 65.5666 108.209 65.5134 108.364 65.4653C108.445 65.4399 108.523 65.4146 108.601 65.3944C108.925 65.2981 109.237 65.2222 109.53 65.1614C109.823 65.1006 110.161 65.0449 110.441 65.0095L110.714 64.9791L110.735 65.055Z" fill="url(#paint12_linear)"/>
<path d="M43.7629 189.541L39.9439 191.157C39.7032 191.26 39.4898 191.416 39.32 191.612C39.1502 191.808 39.0284 192.039 38.9639 192.288C38.8993 192.536 38.8937 192.796 38.9474 193.047C39.0012 193.299 39.1129 193.534 39.2741 193.737L44.0329 199.64C44.2523 199.918 44.5611 200.117 44.9098 200.203C45.2584 200.29 45.6269 200.26 45.956 200.118C46.2851 199.976 46.5559 199.731 46.725 199.421C46.8941 199.111 46.9518 198.755 46.8887 198.409L45.7827 192.018L43.7629 189.541Z" fill="#264E86"/>
<path d="M128.891 167.242L133.437 165.932C133.738 165.845 134.061 165.858 134.355 165.968C134.649 166.077 134.897 166.278 135.063 166.54C135.228 166.801 135.3 167.108 135.268 167.413C135.237 167.719 135.103 168.005 134.888 168.229L129.524 173.8C129.29 174.043 128.992 174.218 128.663 174.306C128.334 174.394 127.986 174.391 127.658 174.297C127.33 174.204 127.035 174.024 126.806 173.777C126.577 173.53 126.422 173.226 126.359 172.899L125.991 170.982L128.891 167.242Z" fill="#264E86"/>
<path d="M92.5217 129.128L92.1557 129.753L90.3747 132.792C90.3233 132.88 90.2487 132.954 90.1587 133.005C90.0686 133.056 89.9662 133.083 89.8619 133.083C89.7577 133.083 89.6553 133.056 89.5652 133.005C89.4751 132.954 89.4006 132.88 89.3492 132.792C88.4587 131.227 86.753 127.368 86.4362 120.51C86.2805 117.026 86.1948 113.615 85.8962 110.576C85.8547 110.156 85.8105 109.745 85.7586 109.34C85.5786 107.633 85.2167 105.95 84.6786 104.316C84.3811 103.436 83.9637 102.599 83.4376 101.827C83.1054 101.346 82.708 100.912 82.2563 100.535L82.2719 100.52C82.7548 100.052 83.2689 99.5072 83.8115 98.9045L83.9828 98.7095L84.0607 98.6209C84.258 98.3955 84.4605 98.16 84.6656 97.9194C84.9252 97.6206 85.1849 97.3066 85.4445 96.985C85.7216 97.2377 85.9817 97.5075 86.2233 97.7928L86.2779 97.8561C87.293 99.0666 88.3756 100.989 88.6144 103.807C89.0558 109.363 88.9857 123.919 92.5217 129.128Z" fill="#446E5C"/>
<path d="M84.677 104.301L83.8358 105.952L81.5797 110.378C81.4117 110.71 81.1753 111.004 80.8854 111.241C80.5954 111.479 80.2582 111.656 79.8948 111.761C79.212 111.959 78.2592 112.225 77.1221 112.521C74.2557 113.259 71.3437 113.817 68.4041 114.192C68.4612 113.939 68.5183 113.708 68.578 113.473C68.579 113.465 68.579 113.456 68.578 113.448C68.6351 113.225 68.6922 113.004 68.7494 112.787C68.7494 112.764 68.7493 112.744 68.7675 112.723C68.8194 112.533 68.8714 112.349 68.9233 112.164C68.9934 111.91 69.0661 111.657 69.1414 111.424L69.2738 111.001C69.2738 110.981 69.2868 110.961 69.2945 110.938C69.3439 110.779 69.3958 110.622 69.4503 110.465C69.536 110.211 69.6243 109.958 69.7099 109.705C69.7956 109.452 69.8631 109.29 69.941 109.084L70.1253 108.651C70.2422 108.363 70.359 108.079 70.4784 107.803C70.7562 107.162 71.0444 106.55 71.3429 105.97L71.413 105.833L71.6104 105.463C71.7402 105.21 71.87 104.98 72.0102 104.747C75.3125 104.871 78.7603 103.579 81.5408 101.184C81.7173 101.029 81.8939 100.872 82.06 100.71L82.2392 100.538L82.2574 100.523C82.3456 100.596 82.4313 100.672 82.517 100.751C82.6026 100.829 82.665 100.89 82.7351 100.963L82.7688 100.996L82.9505 101.191C83.0752 101.336 83.2102 101.487 83.314 101.644C83.3581 101.7 83.3997 101.756 83.4386 101.814C83.4776 101.872 83.5632 101.994 83.6229 102.088C83.6827 102.181 83.7398 102.275 83.7969 102.371C83.854 102.467 83.9111 102.566 83.9656 102.668C84.0202 102.769 84.0721 102.87 84.1214 102.974C84.1707 103.078 84.2097 103.154 84.2512 103.247C84.2668 103.278 84.2824 103.311 84.2954 103.344C84.3083 103.377 84.3551 103.475 84.381 103.541C84.4849 103.784 84.5835 104.038 84.677 104.301Z" fill="url(#paint13_linear)"/>
<path d="M107.056 91.5582C106.353 91.933 105.215 92.5104 103.715 93.1688C98.2008 95.5832 92.3303 97.1327 86.3204 97.7599L86.2217 97.7624C85.9801 97.4771 85.72 97.2073 85.4429 96.9546C85.7544 96.5672 86.0712 96.162 86.3931 95.7441C86.9824 95.5669 87.7249 95.3288 88.5843 95.025C92.6204 93.6183 96.451 91.7038 99.9789 89.3298C101.815 88.0845 103.527 86.6728 105.091 85.1135C105.286 85.8732 105.491 86.605 105.701 87.2913L106.075 88.4966C106.127 88.6612 106.179 88.8233 106.228 88.9854C106.277 89.1475 106.316 89.2589 106.36 89.3931C106.499 89.8236 106.635 90.2456 106.768 90.6593L106.981 91.2974C106.991 91.386 107.028 91.4721 107.056 91.5582Z" fill="#446E5C"/>
<path d="M132.044 84.6526L117.682 90.2516C118.495 87.6667 119.063 85.0143 119.378 82.3279C120.032 77.0101 119.824 71.1376 117.54 67.7621C116.888 66.7507 115.946 65.9478 114.832 65.4526C114.093 65.1414 113.3 64.9695 112.495 64.9461C111.997 64.8897 111.494 64.8846 110.995 64.9309L110.714 64.9563L110.442 64.9866C110.234 65.012 110.013 65.0474 109.78 65.0905L109.533 65.1386C109.24 65.1994 108.928 65.2753 108.603 65.3716C108.526 65.3918 108.448 65.4171 108.367 65.4425C108.211 65.4906 108.05 65.5438 107.884 65.6045L107.656 65.6881L107.355 65.8071L107.129 65.9033L106.848 66.0274C106.711 66.0907 106.573 66.1566 106.433 66.2275C106.293 66.2984 106.199 66.3465 106.08 66.4123C105.961 66.4782 105.906 66.506 105.82 66.5567H105.797L105.537 66.7086L105.257 66.8808C105.169 66.9365 105.078 66.9948 104.997 67.0555L104.72 67.2429L104.616 67.3544C104.161 67.8695 103.748 68.4172 103.377 68.9928C102.271 70.6915 101.493 72.5737 101.082 74.5461C100.015 79.7602 101.373 84.2474 105.096 85.0882C105.291 85.8479 105.496 86.5797 105.706 87.266L106.08 88.4713C106.132 88.6359 106.184 88.798 106.233 88.9601C106.282 89.1222 106.321 89.2336 106.366 89.3678C106.504 89.7983 106.64 90.2203 106.773 90.6339C106.773 90.6339 106.773 90.6339 106.773 90.6491L107.155 91.7811C107.212 91.9508 107.272 92.1204 107.329 92.2875C107.427 92.5712 107.523 92.8472 107.622 93.1156C107.733 93.4279 107.845 93.7318 107.957 94.0273C108.146 94.5337 108.333 95.0115 108.52 95.4605C110.301 99.7883 112.036 102.004 114.453 102.346C115.995 102.566 118.791 100.497 121.745 97.7523C127.055 92.8193 132.873 85.7035 132.873 85.7035L132.044 84.6526Z" fill="#EFA08D"/>
<path d="M119.379 82.328C120.033 77.0101 119.825 71.1376 117.541 67.7621C116.889 66.7507 115.948 65.9478 114.833 65.4526C114.833 65.4526 119.953 66.6149 121.272 73.6421C121.853 76.7619 120.929 79.7247 119.379 82.328Z" fill="#446E5C"/>
<path d="M150.395 26.0979L150.156 27.4476L148.791 35.1762C148.791 35.1762 148.347 35.6827 147.705 36.3031C146.633 37.3616 145.005 38.8152 143.949 39.0203C142.259 39.3495 141.012 37.392 139.95 36.769C139.91 36.7453 139.867 36.7249 139.823 36.7083C139.211 36.4804 138.115 36.7994 137.645 36.3031C137.525 36.1684 137.451 36 137.435 35.822C137.152 33.7353 136.181 32.8161 134.153 30.9751C133.032 29.9622 132.871 28.4073 132.972 27.1766C134.753 25.7661 137.053 23.2059 139.244 23.6592C140.714 23.9631 141.698 25.1609 142.329 26.3308C142.381 26.4271 142.43 26.5233 142.477 26.6195C142.529 26.7233 142.578 26.8297 142.625 26.931C142.671 27.0323 142.731 27.1842 142.778 27.2855L142.882 27.5565C142.9 27.6046 142.918 27.6502 142.934 27.6983C142.967 27.792 142.998 27.8806 143.027 27.9667C143.059 28.0587 143.114 28.1415 143.187 28.2071C143.26 28.2728 143.349 28.3193 143.446 28.3423C143.543 28.3654 143.644 28.3641 143.74 28.3387C143.836 28.3133 143.924 28.2646 143.995 28.1971L144.19 28.0123C144.262 27.9434 144.318 27.8605 144.355 27.769C144.392 27.6775 144.409 27.5794 144.404 27.4811C144.399 27.3829 144.374 27.2867 144.328 27.1989C144.283 27.1111 144.219 27.0336 144.141 26.9715C143.668 26.5866 143.146 25.9915 143.339 25.3204C143.35 25.2792 143.364 25.2386 143.38 25.1989C143.401 25.1508 143.424 25.1052 143.45 25.0571C144.177 23.7909 145.584 25.247 145.584 25.247L147.895 26.8677C148.126 27.0318 148.409 27.1111 148.694 27.0917C148.979 27.0722 149.247 26.9552 149.453 26.7613C149.741 26.5081 150.013 26.2321 150.255 25.989L150.395 26.0979Z" fill="#60424C"/>
<path d="M150.495 25.718L150.235 25.9712C149.994 26.2245 149.716 26.4777 149.433 26.7436C149.315 26.8536 149.175 26.939 149.022 26.9947C148.869 27.0505 148.705 27.0753 148.542 27.0677C148.307 27.0604 148.079 26.9846 147.888 26.8499L145.577 25.2293C145.577 25.2293 144.17 23.7631 143.443 25.0393C143.005 25.8168 143.599 26.5182 144.134 26.9538C144.212 27.0159 144.276 27.0934 144.321 27.1812C144.367 27.269 144.393 27.3652 144.397 27.4634C144.402 27.5616 144.385 27.6597 144.348 27.7512C144.311 27.8428 144.255 27.9257 144.183 27.9946L143.989 28.1794C143.917 28.2469 143.829 28.2956 143.733 28.321C143.637 28.3464 143.536 28.3476 143.439 28.3246C143.343 28.3016 143.253 28.2551 143.18 28.1894C143.107 28.1237 143.052 28.041 143.02 27.949C142.836 27.3851 142.602 26.8378 142.322 26.3131L142.27 26.2219L142.241 26.1713C142.205 26.1021 142.166 26.0337 142.124 25.9662C141.494 24.9153 140.567 23.915 139.237 23.6415C138.038 23.3883 136.807 24.0467 135.644 24.9229C134.686 25.6446 133.778 26.5157 132.973 27.1538C132.246 27.7287 131.605 28.111 131.093 28.0249C129.325 27.7261 129.247 25.8117 130.67 24.6873C130.948 24.453 131.209 24.1991 131.449 23.9277C133.323 21.8436 136.997 16.979 140.473 16.3434C144.323 15.6369 146.312 17.3411 148.106 20.6483C148.75 21.8835 149.534 23.0446 150.443 24.11L150.528 24.2062C150.718 24.4164 150.82 24.6885 150.814 24.9685C150.807 25.2485 150.694 25.5161 150.495 25.718Z" fill="#CE2525"/>
<path d="M150.398 38.4682L147.703 36.3031C148.344 35.67 148.788 35.1762 148.788 35.1762L150.159 27.44L150.398 26.0903L153.149 26.7816C153.256 26.931 156.364 31.4385 150.398 38.4682Z" fill="#60424C"/>
<path d="M166.164 44.0596L165.746 44.0013C164.012 43.7657 162.258 43.7046 160.512 43.819C158.863 43.9234 157.23 44.1898 155.636 44.6142C155.003 44.7771 154.382 44.9818 153.777 45.227C153.647 48.4 153.697 51.3527 153.793 53.6469C153.907 56.4679 154.091 58.2887 154.091 58.2887L135.887 82.3279L137.393 84.3411C137.512 84.2652 139.547 82.999 142.44 81.1378C144.122 80.0565 146.092 78.7726 148.151 77.4102C154.159 73.4142 160.873 68.7117 163.105 66.2427C164.248 64.9765 166.005 62.077 167.893 58.352C168.373 57.4074 168.858 56.4097 169.347 55.3714C170.081 53.8065 170.819 52.1478 171.527 50.4461C172.117 49.033 172.688 47.5846 173.228 46.1411C170.984 45.1309 168.606 44.4304 166.164 44.0596Z" fill="#60424C"/>
<path d="M133.377 82.9231C132.245 83.1916 131.175 83.6677 130.225 84.326L127.762 86.0327C127.691 86.0812 127.638 86.1497 127.609 86.2287C127.58 86.3078 127.577 86.3937 127.6 86.4746C127.623 86.5555 127.671 86.6275 127.738 86.6807C127.804 86.734 127.886 86.7659 127.972 86.7722L130.438 86.9596C130.561 86.9688 130.679 87.011 130.779 87.0816C130.879 87.1521 130.957 87.2482 131.005 87.3593C131.052 87.4703 131.068 87.592 131.049 87.711C131.03 87.8299 130.978 87.9414 130.898 88.0333L129.06 90.1655C129.035 90.1944 129.019 90.2302 129.016 90.2679C129.012 90.3055 129.021 90.3434 129.04 90.3762C129.059 90.4091 129.088 90.4354 129.124 90.4516C129.159 90.4678 129.198 90.4731 129.236 90.4668L130.062 90.3275C130.714 90.2188 131.3 89.8743 131.703 89.3627C131.876 89.1428 132.093 88.9585 132.339 88.8203C132.586 88.6821 132.859 88.5928 133.141 88.5574L134.042 88.4435C134.532 88.3819 134.997 88.1974 135.392 87.908C135.787 87.6186 136.098 87.2342 136.295 86.7924L137.388 84.3538L135.883 82.3406L133.377 82.9231Z" fill="#60424C"/>
<path d="M224.114 126.932L221.188 127.532C221.188 127.532 200.221 101.054 195.99 91.5481C195.571 90.5871 195.207 89.6039 194.902 88.603C194.326 86.7595 193.819 84.6526 193.375 82.4495C191.441 72.8267 190.717 61.33 190.717 61.33C193.186 59.9572 195.517 58.3607 197.68 56.5616C198.316 56.0298 198.957 55.4601 199.585 54.8599C203.69 50.912 209.313 48.7824 215.056 49.2888C216.797 49.425 218.521 49.7217 220.204 50.1751C224.231 62.1986 219.376 74.9918 215.773 82.0823C215.157 83.2953 214.576 84.3411 214.083 85.1869C213.179 86.7367 212.572 87.6104 212.572 87.6104L213.563 90.991L224.114 126.932Z" fill="#60424C"/>
<path d="M175.693 38.4682C175.038 40.9423 174.187 43.5455 173.226 46.131C170.981 45.1241 168.602 44.4269 166.159 44.0596L165.741 44.0013C164.008 43.7657 162.254 43.7046 160.507 43.819C158.859 43.9234 157.225 44.1898 155.632 44.6141C154.999 44.7771 154.378 44.9818 153.773 45.227C153.807 44.4217 153.851 43.6012 153.908 42.7732C153.988 41.6311 154.095 40.4789 154.232 39.3317C155.011 32.8262 156.829 26.5182 160.723 23.8846C161.582 23.2945 162.522 22.8272 163.516 22.4969C164.633 22.1221 165.816 21.9781 166.993 22.074C173.234 22.6134 177.902 30.1268 175.693 38.4682Z" fill="#7BB288"/>
<path d="M221.19 127.532L216.457 132.03C216.23 132.245 216.083 132.528 216.039 132.834C215.996 133.14 216.058 133.452 216.216 133.72C216.374 133.987 216.619 134.196 216.912 134.313C217.206 134.43 217.53 134.448 217.835 134.364L224.757 132.486C225.09 132.397 225.395 132.23 225.647 132C225.898 131.77 226.089 131.483 226.201 131.165C226.314 130.847 226.345 130.507 226.292 130.174C226.24 129.842 226.105 129.527 225.899 129.257L224.126 126.932L221.19 127.532Z" fill="#264E86"/>
<path d="M168.807 137.031L163.214 140.465C162.946 140.629 162.741 140.876 162.633 141.166C162.524 141.457 162.518 141.774 162.615 142.068C162.712 142.363 162.907 142.617 163.169 142.791C163.43 142.965 163.744 143.049 164.061 143.03L171.234 142.605C171.578 142.584 171.912 142.482 172.206 142.307C172.501 142.132 172.747 141.89 172.924 141.602C173.101 141.313 173.204 140.987 173.223 140.651C173.242 140.316 173.177 139.98 173.033 139.675L171.797 137.041L168.807 137.031Z" fill="#264E86"/>
<path d="M139.229 34.5912C138.731 34.8047 138.22 34.989 137.7 35.1433H137.684C137.55 35.1842 137.408 35.1965 137.268 35.1795C137.128 35.1624 136.994 35.1164 136.874 35.0445C136.233 34.6448 135.626 34.1969 135.057 33.7049C134.868 33.5486 134.745 33.3287 134.714 33.0887C134.683 32.8487 134.745 32.6059 134.888 32.4084C135.402 31.7423 135.992 31.1349 136.646 30.5978L136.739 30.5193C136.926 30.3639 137.165 30.2819 137.41 30.2894C137.656 30.2969 137.889 30.3933 138.066 30.5598L138.11 30.6054C138.242 30.7345 138.37 30.8586 138.479 31.0004C139.078 31.7153 139.519 32.5428 139.777 33.4314C139.843 33.6567 139.824 33.8976 139.723 34.1103C139.623 34.3231 139.447 34.4937 139.229 34.5912Z" fill="#132238"/>
<path d="M143.442 25.0495C143.405 25.09 142.956 25.5914 142.32 26.3156C141.212 27.5818 139.532 29.5545 138.478 30.9953C138.364 30.8611 138.242 30.7295 138.109 30.6003L138.065 30.5547C137.89 30.3898 137.658 30.2936 137.415 30.2848C137.172 30.2759 136.933 30.3549 136.746 30.5066C136.834 30.423 137.702 29.5899 138.961 28.5035C140.22 27.4172 138.961 28.5035 138.961 28.5035C139.859 27.7312 140.96 26.8271 142.118 25.9712C142.227 25.8902 142.336 25.8092 142.447 25.7332C142.778 25.4985 143.109 25.2706 143.442 25.0495Z" fill="#071019"/>
<path d="M211.861 18.4325C211.378 21.9778 209.997 28.0553 206.059 32.5477C192.901 22.8058 174.362 17.4348 162.198 20.9319C162.093 20.3902 162.04 19.8399 162.04 19.2884C162.04 18.252 162.227 17.2235 162.59 16.2497C162.645 16.1028 162.702 15.9483 162.762 15.7939C163.504 13.8389 164.527 11.2863 165.641 8.9566L165.851 8.52104C165.911 8.39696 165.973 8.26781 166.033 8.15385C166.654 6.91039 167.544 5.81314 168.642 4.93781C170.083 3.78326 171.622 2.75056 173.243 1.85092C174.108 1.38025 175.063 1.08914 176.049 0.995887C177.035 0.90263 178.031 1.00923 178.972 1.309C180.271 1.71671 181.95 2.26622 183.926 2.94994C184.723 3.22343 185.567 3.52225 186.449 3.83879C192.576 6.03937 200.57 9.22756 207.855 13.1248C208.465 13.4515 209.073 13.7832 209.672 14.12C210.434 14.5466 211.049 15.1842 211.438 15.952C211.828 16.7198 211.975 17.5831 211.861 18.4325Z" fill="#FFA258"/>
<path d="M206.046 32.5375L206.03 32.5249C192.875 22.7881 174.356 17.4373 162.198 20.9319C162.093 20.3902 162.04 19.8399 162.04 19.2884C162.04 19.1686 162.04 19.0496 162.04 18.9314C162.04 18.8301 162.04 18.7263 162.058 18.625C162.058 18.6098 162.058 18.5971 162.058 18.5819C162.058 18.5136 162.071 18.4452 162.079 18.3768C162.087 18.3084 162.095 18.2375 162.102 18.1666C162.102 18.1413 162.102 18.1134 162.102 18.0881C162.102 17.9894 162.131 17.8906 162.146 17.7918C162.146 17.7589 162.159 17.726 162.165 17.6931C162.18 17.6095 162.198 17.5259 162.217 17.4399C162.235 17.3538 162.261 17.2423 162.287 17.1461C162.313 17.0499 162.326 16.9916 162.349 16.9131L162.365 16.8549C162.391 16.7612 162.422 16.665 162.453 16.5713C162.484 16.4776 162.526 16.3535 162.567 16.2446C162.609 16.1357 162.679 15.9433 162.738 15.7888C164.815 14.7328 169.273 12.7855 173.193 13.1678C179.053 13.7401 187.992 16.2218 206.046 32.5375Z" fill="#446E5C"/>
<path d="M166.988 11.851C166.968 11.9987 166.906 12.1379 166.809 12.253C166.713 12.368 166.585 12.4543 166.44 12.5019C165.629 12.777 164.885 13.211 164.252 13.7771C163.619 14.3433 163.112 15.0296 162.761 15.7939C162.761 15.7939 161.518 17.1993 160.728 15.6065L160.69 15.528C159.952 13.925 159.83 13.0159 162.195 11.3927C162.367 11.2737 162.551 11.1395 162.751 11.0255C163.8 10.3373 164.906 9.73593 166.058 9.22756C166.165 9.18385 166.28 9.16608 166.395 9.17579C166.51 9.1855 166.621 9.22238 166.718 9.28326C166.814 9.34413 166.895 9.42715 166.951 9.52511C167.008 9.62308 167.039 9.73304 167.042 9.84545C167.073 10.5144 167.054 11.1846 166.988 11.851Z" fill="#ED6363"/>
<path d="M203.458 14.2669C203.454 15.9029 203.241 17.5321 202.821 19.1163C202.784 19.253 202.718 19.3807 202.627 19.491C202.536 19.6013 202.423 19.6918 202.294 19.7567C202.165 19.8215 202.024 19.8594 201.879 19.8677C201.734 19.8761 201.589 19.8547 201.453 19.8051L194.963 17.3918C194.743 17.3081 194.559 17.1539 194.441 16.9546C194.323 16.7553 194.278 16.5228 194.314 16.2953C194.428 15.5786 194.519 14.8974 194.594 14.2694C194.595 14.2593 194.595 14.2491 194.594 14.239C194.713 13.2261 194.784 12.3297 194.828 11.6561C194.84 11.4981 194.89 11.3452 194.973 11.2095C195.057 11.0737 195.172 10.959 195.309 10.8746C195.447 10.7901 195.603 10.7382 195.764 10.7231C195.926 10.708 196.089 10.73 196.24 10.7875L202.795 13.3198C202.991 13.394 203.159 13.5241 203.277 13.6932C203.395 13.8623 203.458 14.0623 203.458 14.2669Z" fill="#446E5C"/>
<path d="M206.024 32.5198C205.873 32.4084 205.722 32.297 205.569 32.1881L205.104 31.8538L204.585 31.479L204.082 31.1321C203.905 31.0106 203.726 30.8789 203.544 30.77C203.235 30.5649 202.921 30.3597 202.607 30.1572C202.067 29.8094 201.52 29.4717 200.966 29.1442C200.611 28.9315 200.255 28.7213 199.897 28.5137C196.995 26.8411 193.971 25.3794 190.849 24.1404C190.545 24.0163 190.239 23.8871 189.932 23.7833C187.808 22.9712 185.642 22.2696 183.442 21.6815L183.05 21.5777C181.978 21.2991 180.905 21.0535 179.841 20.8408L179.402 20.7547C177.534 20.3946 175.646 20.1409 173.748 19.995C173.408 19.9671 173.065 19.9469 172.727 19.9291C168.934 19.7265 165.362 20.038 162.218 20.9421C162.112 20.4003 162.059 19.8501 162.06 19.2986C162.06 19.1787 162.06 19.0597 162.06 18.9415C163.391 17.9083 166.094 16.3864 170.469 16.3738C178.956 16.3434 193.795 22.8185 205.995 32.497L206.024 32.5198Z" fill="#E13A3A"/>
<path d="M193.573 0.962075V2.39283C192.944 2.35414 192.314 2.34822 191.685 2.37511C190.037 2.43841 187.708 2.73469 186.451 3.83625C185.569 3.51971 184.725 3.2209 183.928 2.94741C184.655 2.28394 186.547 1.01019 190.53 0.865848C191.545 0.832947 192.562 0.865091 193.573 0.962075Z" fill="#ED6363"/>
<path d="M194.433 1.02792L194.384 1.32167L194.124 2.85879C194.11 2.94129 194.08 3.02037 194.035 3.09151C193.99 3.16265 193.931 3.22444 193.862 3.27337C193.793 3.32229 193.714 3.35737 193.631 3.37662C193.547 3.39586 193.461 3.39888 193.376 3.38551L191.25 3.05377C191.108 3.03144 190.978 2.9639 190.88 2.86172C190.782 2.75953 190.721 2.62848 190.707 2.48907V2.44602L190.559 0.974743V0.88358V0.782287C190.55 0.68965 190.561 0.596124 190.593 0.508317C190.625 0.42051 190.676 0.340568 190.743 0.274141C190.81 0.207713 190.891 0.156422 190.98 0.123894C191.07 0.0913669 191.165 0.0783968 191.26 0.0858997L193.872 0.298615C193.959 0.309098 194.042 0.336498 194.118 0.37918C194.193 0.421861 194.259 0.478946 194.311 0.547025C194.364 0.615103 194.401 0.692778 194.422 0.775405C194.443 0.858031 194.447 0.943914 194.433 1.02792Z" fill="#FF7128"/>
<path d="M222.308 72.8545C221.969 75.8959 221.435 78.9136 220.709 81.8898C220.64 82.1659 220.507 82.4229 220.32 82.6407C220.133 82.8586 219.897 83.0315 219.63 83.1461C219.363 83.2607 219.073 83.3139 218.782 83.3016C218.491 83.2892 218.207 83.2117 217.952 83.075C217.247 82.7031 216.52 82.3716 215.776 82.0823C213.506 81.214 211.117 80.6772 208.686 80.4895C206.621 80.3203 204.545 80.3372 202.483 80.5401C199.381 80.8216 196.325 81.4661 193.381 82.4596C191.447 72.8368 190.723 61.3401 190.723 61.3401C190.723 61.3401 191.39 60.9881 192.439 60.3272L192.849 60.0739L192.875 60.0562L193.135 59.8967H193.153L193.456 59.6991C194.942 58.7309 196.368 57.6781 197.727 56.5464C197.857 56.4401 197.987 56.3286 198.119 56.2147C198.304 56.0577 198.49 55.8956 198.675 55.7285C198.805 55.6145 198.934 55.4955 199.062 55.3765C199.233 55.222 199.402 55.0625 199.581 54.9004C199.822 54.6674 200.072 54.4421 200.323 54.2217C201.128 53.5224 201.987 52.8857 202.894 52.3174C203.841 51.7214 204.837 51.203 205.871 50.7677C208.403 49.702 211.139 49.1779 213.896 49.2306C214.156 49.2306 214.416 49.2483 214.675 49.2635C214.813 49.2635 214.948 49.2812 215.085 49.2939H215.153L215.732 49.3496L216.082 49.3901C216.199 49.3901 216.313 49.4154 216.43 49.4306C217.095 49.5142 217.762 49.618 218.421 49.7497C218.608 49.7851 218.795 49.8231 218.982 49.8662C219.073 49.8839 219.164 49.9067 219.242 49.9295C219.572 50.0029 219.896 50.0839 220.221 50.1827C223.045 57.8835 223.045 66.3034 222.308 72.8545Z" fill="#446E5C"/>
<path d="M62.4726 112.29L62.2285 112.207C65.0247 104.382 63.1424 97.8738 63.1242 97.808L63.3839 97.7371C63.3916 97.8029 65.2973 104.389 62.4726 112.29Z" fill="#446E5C"/>
<path d="M66.4425 110.589L66.1829 110.553C66.7225 106.852 66.5712 103.087 65.7363 99.4388L65.996 99.373C66.8392 103.054 66.9905 106.854 66.4425 110.589Z" fill="#446E5C"/>
<path d="M66.3999 111.503C66.7756 111.503 67.0801 111.104 67.0801 110.611C67.0801 110.119 66.7756 109.72 66.3999 109.72C66.0243 109.72 65.7197 110.119 65.7197 110.611C65.7197 111.104 66.0243 111.503 66.3999 111.503Z" fill="#6A9C78"/>
<path d="M66.4029 109.717C66.3608 109.718 66.3189 109.724 66.2783 109.735C66.445 109.817 66.5852 109.942 66.6831 110.097C66.7811 110.251 66.833 110.43 66.833 110.611C66.833 110.793 66.7811 110.972 66.6831 111.126C66.5852 111.281 66.445 111.406 66.2783 111.488C66.3193 111.497 66.361 111.502 66.4029 111.503C66.7794 111.503 67.0831 111.103 67.0831 110.611C67.0831 110.12 66.7794 109.717 66.4029 109.717Z" fill="#4B7D58"/>
<path d="M62.3472 113.141C62.7228 113.141 63.0273 112.742 63.0273 112.25C63.0273 111.758 62.7228 111.358 62.3472 111.358C61.9715 111.358 61.667 111.758 61.667 112.25C61.667 112.742 61.9715 113.141 62.3472 113.141Z" fill="#6A9C78"/>
<path d="M62.3359 111.356C62.2892 111.356 62.2429 111.363 62.1982 111.376C62.3621 111.459 62.4994 111.585 62.5952 111.739C62.691 111.893 62.7416 112.07 62.7416 112.25C62.7416 112.43 62.691 112.607 62.5952 112.761C62.4994 112.915 62.3621 113.04 62.1982 113.123C62.243 113.136 62.2894 113.142 62.3359 113.141C62.7123 113.141 63.0161 112.741 63.0161 112.25C63.0161 111.759 62.7227 111.356 62.3359 111.356Z" fill="#4B7D58"/>
<path d="M64.8745 107.892C64.8978 108.079 64.4565 108.287 63.836 108.398C63.7322 108.418 63.6231 108.434 63.5115 108.446C62.7326 108.535 62.0888 108.429 62.0628 108.211C62.0369 107.993 62.6418 107.742 63.418 107.654L63.5686 107.641C64.2826 107.585 64.8511 107.689 64.8745 107.892Z" fill="#6A9C78"/>
<path d="M64.4507 107.955C64.4689 108.107 64.23 108.272 63.8458 108.401C63.7419 108.421 63.6329 108.436 63.5213 108.449C62.7424 108.537 62.0985 108.431 62.0726 108.213C62.0466 107.996 62.6515 107.745 63.4278 107.656L63.5784 107.644C64.082 107.669 64.4299 107.783 64.4507 107.955Z" fill="#4B7D58"/>
<path d="M104.715 67.2607C104.526 67.3777 104.347 67.5089 104.18 67.6532C103.788 67.9856 103.418 68.3426 103.074 68.7218C102.703 69.1194 102.279 69.6182 101.802 70.2412C101.572 70.5349 101.332 70.8565 101.083 71.206C99.7041 73.1356 97.988 75.9592 96.0252 80.0489C95.6073 80.92 95.1685 81.7911 94.7271 82.6521C94.4675 83.1282 94.2261 83.6042 93.9665 84.0752C93.5329 84.8704 93.0863 85.6554 92.6346 86.4278C92.484 86.681 92.3309 86.9342 92.1803 87.1875C92.0297 87.4407 91.8739 87.6939 91.7207 87.9472C91.5676 88.2004 91.4144 88.4536 91.2586 88.7068L90.7939 89.4463C90.6381 89.6995 90.4824 89.9325 90.3266 90.1731C90.1708 90.4136 90.015 90.6542 89.8593 90.8897C89.7035 91.1252 89.5451 91.3607 89.3894 91.5912C89.2336 91.8216 89.0778 92.052 88.922 92.28L88.7533 92.5332C88.4989 92.9029 88.2444 93.2659 87.99 93.6221L87.759 93.9437C87.3055 94.5734 86.8555 95.1778 86.4089 95.7568C86.087 96.1747 85.7703 96.5798 85.4587 96.9673C85.1991 97.2889 84.9395 97.6029 84.6799 97.9017C84.4202 98.2005 84.2203 98.4385 83.9971 98.6918L83.8257 98.8868C83.2831 99.492 82.7691 100.034 82.2862 100.502L82.2706 100.518L82.2524 100.533L82.0733 100.705C79.2175 103.402 75.5309 104.873 72.0182 104.741C71.8858 104.741 71.7586 104.729 71.6236 104.719H71.5976C71.4678 104.719 71.338 104.698 71.2082 104.683L70.9122 104.645C70.8343 104.645 70.7564 104.625 70.6786 104.61C70.6007 104.595 70.4994 104.582 70.4189 104.564C70.3021 104.544 70.1879 104.519 70.0762 104.493C69.9646 104.468 69.7881 104.427 69.6479 104.389L69.422 104.326C69.2688 104.286 69.1182 104.238 68.9703 104.187L68.7106 104.091C68.5029 104.017 68.2952 103.934 68.0927 103.837C67.8902 103.741 67.6254 103.62 67.397 103.496L67.3217 103.453C67.2412 103.409 67.1633 103.366 67.0828 103.318C66.9236 103.227 66.7678 103.131 66.6155 103.03C66.5091 102.959 66.4052 102.888 66.304 102.814C66.2027 102.741 66.0833 102.657 65.9768 102.574L65.9171 102.526C65.8366 102.462 65.7562 102.399 65.6757 102.328C65.6465 102.309 65.6195 102.287 65.5952 102.262C65.5173 102.199 65.442 102.133 65.3667 102.062C65.2291 101.943 65.1071 101.809 64.9669 101.688C64.8267 101.566 64.767 101.485 64.6684 101.379C64.5697 101.272 64.5152 101.214 64.4425 101.125C64.3698 101.037 64.349 101.022 64.3049 100.968L64.1335 100.761C64.0089 100.609 63.8895 100.454 63.7727 100.292C63.6844 100.171 63.5961 100.039 63.513 99.9225C63.43 99.806 63.3547 99.687 63.2794 99.5654C63.2541 99.5309 63.2315 99.4945 63.2119 99.4565C63.1496 99.3603 63.0925 99.2641 63.0353 99.1653C62.9263 98.9805 62.8199 98.7905 62.7186 98.5956C62.5706 98.317 62.4304 98.0258 62.298 97.727C62.287 97.7039 62.2774 97.6803 62.2695 97.6561C62.2046 97.5193 62.1448 97.3775 62.0877 97.2332L62.0748 97.2028C62.015 97.0508 61.9553 96.8989 61.8982 96.7419C61.8982 96.7191 61.88 96.6963 61.8723 96.6735C61.8099 96.5047 61.7502 96.3359 61.6931 96.1671C61.6516 96.0404 61.61 95.9138 61.5711 95.7923C61.5321 95.6707 61.4906 95.539 61.4543 95.4226C61.3452 95.0807 61.2466 94.7439 61.1557 94.4096C61.1168 94.2704 61.0778 94.1311 61.0415 93.9943C61.0285 93.9487 61.0155 93.9032 61.0051 93.8576C60.9558 93.6753 60.9117 93.4955 60.8675 93.3182C60.8234 93.1409 60.7844 92.9687 60.7455 92.7965C60.665 92.4522 60.5975 92.1179 60.5378 91.7836C60.5067 91.6216 60.4781 91.4595 60.4521 91.3025C60.4002 90.9885 60.3561 90.6846 60.3197 90.3883C60.3015 90.2389 60.286 90.0946 60.2704 89.9502C60.1935 89.2218 60.17 88.4889 60.2003 87.7572C60.2003 87.6787 60.2003 87.6028 60.2133 87.5268C60.2263 87.4508 60.2133 87.3115 60.2392 87.2077C60.2677 86.8727 60.3162 86.5395 60.3846 86.21C60.4028 86.1315 60.4184 86.0555 60.4365 85.9821C60.4849 85.7679 60.5456 85.5565 60.6183 85.349C60.6624 85.2173 60.7117 85.0958 60.7637 84.9692C60.787 84.9084 60.8156 84.8501 60.8416 84.7919C60.8675 84.7336 60.8961 84.6779 60.9246 84.6222C60.9532 84.5665 60.961 84.5564 60.9818 84.5235C61.2354 84.0323 61.6112 83.6109 62.0748 83.2978C62.3557 83.1141 62.6724 82.9888 63.0051 82.9295C63.3379 82.8703 63.6795 82.8784 64.0089 82.9534C65.8081 83.3409 67.3009 82.019 69.3441 79.9577C71.0031 78.2813 73.0255 76.1187 75.8684 73.984C81.959 69.4055 89.2544 66.4377 95.21 65.6045C96.7444 65.3728 98.3007 65.31 99.8494 65.4171C100.156 65.4425 100.444 65.4728 100.714 65.5058L101.031 65.5488C104.369 66.0629 104.715 67.2607 104.715 67.2607Z" fill="#6A9C78"/>
<path d="M101.062 71.2136C99.6832 73.1432 97.9671 75.9667 96.0044 80.0564C95.5864 80.9275 95.1476 81.7987 94.7063 82.6597C94.4466 83.1357 94.2052 83.6118 93.9456 84.0828C93.512 84.878 93.0655 85.663 92.6137 86.4353C92.4632 86.6886 92.31 86.9418 92.1594 87.195C92.0088 87.4483 91.853 87.7015 91.6999 87.9547C91.5467 88.208 91.3935 88.4612 91.2377 88.7144L90.773 89.4539C90.6173 89.7071 90.4615 89.9401 90.3057 90.1807C90.1499 90.4212 89.9942 90.6618 89.8384 90.8973C89.6826 91.1328 89.5243 91.3683 89.3685 91.5988C89.2127 91.8292 89.0569 92.0596 88.9012 92.2875L88.7324 92.5408C88.478 92.9105 88.2236 93.2735 87.9691 93.6297L87.7381 93.9513C87.2846 94.581 86.8346 95.1854 86.388 95.7644C86.0661 96.1822 85.7494 96.5874 85.4378 96.9749C85.1782 97.2965 84.9186 97.6105 84.659 97.9093C84.3994 98.2081 84.1994 98.4462 83.9762 98.6994L83.8048 98.8944C83.2622 99.4996 82.7482 100.042 82.2653 100.51L82.2497 100.525L82.2315 100.54L82.0524 100.713C79.1966 103.409 75.51 104.881 71.9973 104.749C71.8649 104.749 71.7377 104.736 71.6027 104.726H71.5767H71.4962C71.3924 104.726 71.2885 104.709 71.1873 104.696L70.8913 104.658C70.8134 104.658 70.7356 104.638 70.6577 104.622C70.5798 104.607 70.4785 104.595 70.398 104.577C70.2812 104.557 70.167 104.531 70.0553 104.506L69.9619 104.486C69.8736 104.465 69.7853 104.445 69.7023 104.42L69.6322 104.402L69.4063 104.339C69.2531 104.298 69.1025 104.25 68.9546 104.2H68.9364C68.8507 104.172 68.7702 104.141 68.6768 104.111L68.4483 104.025C68.3237 103.977 68.1887 103.924 68.0719 103.868H68.0589C67.8226 103.761 67.5916 103.648 67.3631 103.526L67.2878 103.483C67.2073 103.44 67.1294 103.397 67.049 103.349L66.9373 103.283C66.8283 103.217 66.7218 103.151 66.618 103.083L66.5816 103.06C66.4752 102.989 66.3713 102.918 66.2701 102.845C66.1688 102.771 66.0494 102.688 65.943 102.604L65.8833 102.556C65.8028 102.493 65.7223 102.429 65.6418 102.359C65.6126 102.34 65.5856 102.317 65.5613 102.293L65.5432 102.278C65.4808 102.224 65.4185 102.171 65.3562 102.113L65.3329 102.093L65.1771 101.951C65.094 101.875 65.0135 101.796 64.933 101.718C64.8526 101.639 64.7331 101.515 64.6345 101.409C64.5358 101.303 64.4813 101.244 64.4086 101.156C64.3671 101.113 64.3281 101.065 64.2892 101.019L64.271 100.999L64.0997 100.791L64.0088 100.677C63.9231 100.568 63.8375 100.457 63.7492 100.343L63.7336 100.323C63.6453 100.201 63.5571 100.069 63.474 99.9529C63.3909 99.8364 63.3156 99.7174 63.2403 99.5958C63.215 99.5613 63.1924 99.5249 63.1728 99.4869C63.1624 99.4723 63.1528 99.4571 63.1443 99.4414C63.0923 99.3603 63.043 99.2793 62.9963 99.1881C62.9625 99.1349 62.9314 99.0792 62.9002 99.0235C62.8379 98.9146 62.7756 98.8007 62.7159 98.6867C62.7022 98.6656 62.6901 98.6436 62.6795 98.6209C62.5316 98.3423 62.3914 98.0511 62.259 97.7523C62.2479 97.7293 62.2384 97.7056 62.2304 97.6814L62.1993 97.6156C62.1473 97.4991 62.098 97.38 62.0487 97.2585L62.0357 97.2281C61.976 97.0762 61.9163 96.9242 61.8591 96.7672C61.8591 96.7444 61.841 96.7216 61.8332 96.6988C61.7709 96.53 61.7112 96.3612 61.6541 96.1924C61.6125 96.0658 61.571 95.9392 61.532 95.8176C61.4931 95.696 61.4515 95.5644 61.4152 95.4479C61.3062 95.106 61.2075 94.7692 61.1166 94.4349C61.0777 94.2957 61.0387 94.1564 61.0024 94.0197C60.9894 93.9741 60.9764 93.9285 60.9661 93.8829C60.9167 93.7006 60.8726 93.5208 60.8285 93.3435C60.7843 93.1663 60.7454 92.9941 60.7064 92.8219C60.626 92.4775 60.5585 92.1432 60.4987 91.8089C60.4676 91.6469 60.439 91.4848 60.4131 91.3278C60.3611 91.0138 60.317 90.7099 60.2807 90.4136C60.2625 90.2642 60.2469 90.1199 60.2313 89.9755C60.1544 89.2471 60.131 88.5142 60.1612 87.7825C60.1612 87.704 60.1612 87.6281 60.1742 87.5521C60.1872 87.4761 60.1742 87.3369 60.2002 87.233C60.2312 86.8983 60.2797 86.5652 60.3456 86.2353C60.3637 86.1568 60.3793 86.0808 60.3975 86.0074C60.4459 85.7932 60.5066 85.5819 60.5792 85.3743C60.6234 85.2426 60.6727 85.1211 60.7246 84.9945C60.748 84.9337 60.7765 84.8754 60.8025 84.8172C60.8285 84.759 60.857 84.7032 60.8856 84.6475C60.9141 84.5918 60.9219 84.5817 60.9427 84.5488C61.0907 84.3129 61.3031 84.1219 61.5562 83.9972C61.8092 83.8725 62.0928 83.819 62.3753 83.8426C62.6578 83.8663 62.9279 83.9662 63.1554 84.1312C63.383 84.2962 63.5589 84.5197 63.6635 84.7767V84.8071C64.8292 87.8129 64.5021 95.3896 70.8238 98.9096L70.951 98.9805C72.5892 99.8668 74.134 100.143 75.6242 99.8972C76.6224 99.7222 77.5758 99.3583 78.4307 98.826C80.4791 97.6105 82.4756 95.4833 84.5344 92.7054C91.2429 83.665 97.9437 68.5369 101.062 71.2136Z" fill="#446E5C"/>
<path d="M94.586 67.7064C93.7838 69.2257 91.9275 71.4314 87.6594 76.101C79.3126 85.2325 72.4482 87.5901 69.6417 84.5463C69.11 83.9575 68.8189 83.1986 68.8239 82.4141C68.8072 81.6867 68.972 80.9662 69.3042 80.3148C69.5401 79.8487 69.8493 79.4214 70.2207 79.0486C71.9558 77.2239 73.8342 75.5339 75.8388 73.9941C81.2909 69.9019 87.6853 67.0986 93.2334 65.954C93.4637 65.9096 93.7022 65.9294 93.9216 66.0111C94.1409 66.0929 94.3321 66.2333 94.4733 66.4163C94.6146 66.5992 94.7001 66.8173 94.72 67.0455C94.7399 67.2737 94.6935 67.5027 94.586 67.7064Z" fill="#446E5C"/>
<path d="M90.1508 93.4955C89.5971 93.9811 89.0702 94.495 88.5723 95.0351C87.7129 95.339 86.9704 95.577 86.3811 95.7543C86.8242 95.1769 87.2742 94.5725 87.7311 93.9411L87.9622 93.6195C88.2166 93.2633 88.471 92.9004 88.7255 92.5307C89.1746 92.8244 89.6523 93.146 90.1508 93.4955Z" fill="#163366"/>
<path d="M88.5719 95.0351C87.793 95.8834 87.0479 96.8077 86.3288 97.7599L86.2665 97.8409L86.212 97.7776L85.9991 97.5244C85.8018 97.3091 85.6096 97.1217 85.4331 96.9597C85.7446 96.5722 86.0614 96.167 86.3833 95.7492C86.604 95.6834 86.848 95.6074 87.1103 95.5238C87.5438 95.3896 88.0397 95.2301 88.5719 95.0351Z" fill="#2B4E3E"/>
<path d="M105.08 85.1236C103.516 86.683 101.804 88.0947 99.9677 89.3399C99.7444 89.0124 99.5307 88.668 99.3264 88.3068C99.3264 88.3068 95.632 88.3701 90.1515 93.4955C89.653 93.146 89.1753 92.8244 88.7288 92.5307L88.8975 92.2774C89.0533 92.0495 89.2091 91.8216 89.3648 91.5886C89.5206 91.3557 89.679 91.1227 89.8347 90.8872C89.9905 90.6517 90.1463 90.4136 90.3021 90.1705C90.4578 89.9274 90.6136 89.6894 90.7694 89.4438L91.2341 88.7043C91.3899 88.4511 91.543 88.1979 91.6962 87.9446C91.8494 87.6914 92.0026 87.4382 92.1557 87.1849C92.3089 86.9317 92.4595 86.6785 92.6101 86.4252C93.0618 85.6655 93.5084 84.8679 93.9419 84.0727C94.2015 83.6017 94.4612 83.1256 94.7026 82.6496C95.1543 81.7886 95.5931 80.9175 96.0007 80.0463C97.9634 75.9566 99.6795 73.1331 101.058 71.2035C101.307 70.854 101.547 70.5324 101.777 70.2387C102.255 69.6208 102.678 69.1219 103.049 68.7193L103.358 69.0029C102.248 70.7069 101.469 72.5953 101.058 74.574C99.9988 79.7956 101.357 84.2829 105.08 85.1236Z" fill="url(#paint14_linear)"/>
<path d="M108.508 95.4833C106.779 95.0037 105.154 94.2183 103.716 93.1663C105.216 92.5079 106.354 91.9305 107.057 91.5557L107.143 91.8089C107.2 91.9786 107.26 92.1483 107.317 92.3154C107.415 92.599 107.511 92.875 107.61 93.1435C107.721 93.4558 107.833 93.7597 107.945 94.0551C108.135 94.5548 108.323 95.0309 108.508 95.4833Z" fill="#0054D8"/>
<path d="M107.057 91.5582C106.353 91.933 105.216 92.5104 103.716 93.1688C102.243 92.1195 100.974 90.823 99.9668 89.3399C101.803 88.0947 103.515 86.6829 105.079 85.1236C105.273 85.8833 105.479 86.6152 105.689 87.3014L106.063 88.5068L106.348 89.4032C106.487 89.8337 106.623 90.2558 106.756 90.6694L106.969 91.3075C106.992 91.386 107.028 91.4721 107.057 91.5582Z" fill="#2B4E3E"/>
<path d="M107.945 94.0526C103.999 95.8986 99.1177 96.8381 94.9976 97.3041C94.6627 97.0103 94.3304 96.7216 93.998 96.4431C97.3296 95.6322 100.581 94.5366 103.716 93.1688C105.216 92.5104 106.353 91.933 107.057 91.5582L107.143 91.8115C107.2 91.9811 107.259 92.1508 107.317 92.3179C107.415 92.6015 107.511 92.8776 107.61 93.146C107.717 93.4549 107.829 93.7571 107.945 94.0526Z" fill="url(#paint15_linear)"/>
<path d="M94.9985 97.3041C92.0865 97.6395 89.1555 97.7926 86.2234 97.7625L86.3428 97.7498C88.9281 97.4894 91.491 97.0493 94.012 96.433C94.3313 96.7217 94.6636 97.0028 94.9985 97.3041Z" fill="#163366"/>
<path d="M104.713 67.2607C104.525 67.3777 104.346 67.5089 104.178 67.6532C103.786 67.9856 103.417 68.3426 103.072 68.7218C102.701 69.1194 102.278 69.6183 101.8 70.2412C101.57 70.535 101.33 70.8566 101.081 71.206C97.9657 68.5294 91.2623 83.6574 84.559 92.6978C82.482 95.4833 80.4855 97.6105 78.4319 98.826C77.579 99.3517 76.6293 99.7104 75.6358 99.882C74.1404 100.135 72.5957 99.8516 70.9627 98.9653L70.8354 98.8944C79.9221 100.518 86.5814 86.0581 89.4684 81.115C96.2419 69.517 97.7139 70.8996 101.063 67.7621C103.14 65.8096 101.46 65.6704 101.001 65.5615C104.368 66.0629 104.713 67.2607 104.713 67.2607Z" fill="#4B7D58"/>
<path d="M101.067 71.2136C99.6882 73.1432 97.9721 75.9667 96.0094 80.0564C95.5914 80.9275 95.1526 81.7987 94.7113 82.6597C94.4517 83.1357 94.2102 83.6118 93.9506 84.0828C93.517 84.878 93.0705 85.663 92.6188 86.4353C92.4682 86.6886 92.315 86.9418 92.1644 87.195C92.0139 87.4483 91.8581 87.7015 91.7049 87.9547C91.5517 88.208 91.3986 88.4612 91.2428 88.7144L90.7781 89.4539C90.6223 89.7071 90.4665 89.9401 90.3107 90.1806C90.155 90.4212 89.9992 90.6618 89.8434 90.8973C89.6877 91.1328 89.5293 91.3683 89.3735 91.5987C89.2178 91.8292 89.062 92.0596 88.9062 92.2875L88.7375 92.5408C88.483 92.9105 88.2286 93.2734 87.9742 93.6297L87.7431 93.9513C87.2897 94.581 86.8396 95.1853 86.3931 95.7644C86.0712 96.1822 85.7544 96.5874 85.4429 96.9749C85.1833 97.2965 84.9237 97.6105 84.664 97.9093C84.4044 98.2081 84.2045 98.4461 83.9812 98.6994L83.8099 98.8944C83.2673 99.4996 82.7532 100.041 82.2703 100.51L82.2548 100.525L82.2366 100.54L82.0575 100.713C81.8861 100.875 81.7096 101.032 81.5382 101.186C78.7629 103.582 75.3074 104.873 72.0076 104.749C71.8752 104.749 71.748 104.736 71.613 104.726H71.587H71.5065C71.4027 104.726 71.2988 104.709 71.1976 104.696L70.9016 104.658C70.8237 104.658 70.7459 104.638 70.668 104.622C70.5901 104.607 70.4888 104.595 70.4084 104.577C70.2915 104.557 70.1773 104.531 70.0657 104.506L69.9722 104.486C69.8839 104.465 69.7957 104.445 69.7126 104.42L69.6425 104.402L69.4166 104.339C69.2634 104.298 69.1129 104.25 68.9649 104.2H68.9467C68.861 104.172 68.7805 104.141 68.6871 104.111L68.4586 104.025C68.334 103.977 68.199 103.924 68.0822 103.868H68.0692C67.8355 103.764 67.6019 103.65 67.3734 103.526L67.2981 103.483C67.2176 103.44 67.1398 103.397 67.0593 103.349L66.9476 103.283C66.8386 103.217 66.7322 103.151 66.6283 103.083L66.592 103.06C66.4855 102.989 66.3817 102.918 66.2804 102.845C66.1792 102.771 66.0597 102.688 65.9533 102.604L65.8936 102.556C65.8131 102.493 65.7326 102.429 65.6521 102.359C65.6229 102.34 65.5959 102.317 65.5717 102.293L65.5535 102.278C65.4912 102.224 65.4289 102.171 65.3666 102.113L65.3432 102.093L65.1874 101.951C65.1043 101.875 65.0239 101.796 64.9434 101.718C64.8629 101.639 64.7435 101.515 64.6448 101.409C64.5462 101.303 64.4916 101.244 64.4189 101.156C64.3774 101.113 64.3385 101.065 64.2995 101.019L64.2813 100.999L64.11 100.791L64.0191 100.677C63.9335 100.568 63.8478 100.457 63.7595 100.343L63.7439 100.323C63.6557 100.201 63.5674 100.069 63.4843 99.9529C63.4012 99.8364 63.3259 99.7174 63.2507 99.5958C63.2253 99.5612 63.2028 99.5248 63.1832 99.4869C63.1727 99.4723 63.1632 99.4571 63.1546 99.4413C63.1027 99.3603 63.0534 99.2793 63.0066 99.1881C62.9729 99.1349 62.9417 99.0792 62.9106 99.0235C62.8482 98.9146 62.7859 98.8007 62.7262 98.6867C62.7126 98.6656 62.7004 98.6436 62.6899 98.6209C62.5419 98.3423 62.4017 98.0511 62.2693 97.7523C62.2582 97.7293 62.2487 97.7056 62.2407 97.6814L62.2096 97.6155C62.1577 97.4991 62.1083 97.38 62.059 97.2585L62.046 97.2281C61.9863 97.0762 61.9266 96.9242 61.8695 96.7672C61.8695 96.7444 61.8513 96.7216 61.8435 96.6988C61.7812 96.53 61.7215 96.3612 61.6644 96.1924C61.6228 96.0658 61.5813 95.9391 61.5424 95.8176C61.5034 95.696 61.4619 95.5644 61.4255 95.4479C64.0217 100.224 67.415 100.659 70.8523 98.9171L70.9795 98.9881C72.6177 99.8744 74.1624 100.15 75.6527 99.9047C76.6433 99.7246 77.5886 99.3582 78.4358 98.826C80.4842 97.6105 82.4806 95.4833 84.5394 92.7054C91.248 83.665 97.9487 68.5369 101.067 71.2136Z" fill="#2B4E3E"/>
<path d="M114.831 65.4526C114.092 65.1413 113.299 64.9695 112.495 64.9461C111.996 64.8897 111.493 64.8846 110.994 64.9309C110.903 64.9309 110.81 64.9436 110.714 64.9562C110.316 64.9945 109.92 65.0554 109.53 65.1386C109.236 65.1993 108.925 65.2753 108.6 65.3715C108.523 65.3918 108.445 65.4171 108.364 65.4424C108.208 65.4906 108.047 65.5437 107.881 65.6045L107.653 65.6881L107.352 65.8071L107.126 65.9033L106.845 66.0274C106.708 66.0907 106.57 66.1566 106.43 66.2275C106.29 66.2984 106.196 66.3465 106.077 66.4123C105.957 66.4782 105.903 66.506 105.817 66.5567H105.794L105.534 66.7086L105.254 66.8808C105.166 66.9365 105.075 66.9947 104.994 67.0555L104.716 67.2429C104.716 67.2429 104.35 65.9768 100.677 65.4982C101.951 64.6547 102.932 63.4537 103.491 62.0542C104.745 58.8964 104.078 50.3574 110.171 48.5139C109.971 48.6 107.056 49.8003 107.056 53.1759C107.056 57.7012 111.622 56.7769 112.412 60.4664C113.237 64.3358 113.307 64.8119 114.831 65.4526Z" fill="#163366"/>
<path d="M111.869 97.1116C109.454 92.7763 112.887 86.3543 110.085 79.236C107.178 71.8593 105.887 67.5265 109.781 65.0955L109.535 65.1436C109.241 65.2044 108.93 65.2804 108.605 65.3766C108.528 65.3969 108.45 65.4222 108.369 65.4475C108.213 65.4956 108.052 65.5488 107.886 65.6096L107.658 65.6931L107.357 65.8122L107.131 65.9084L106.85 66.0325C106.713 66.0958 106.575 66.1616 106.435 66.2325C106.295 66.3034 106.201 66.3515 106.082 66.4174C105.962 66.4832 105.908 66.5111 105.822 66.5617H105.799L105.539 66.7137L105.259 66.8859C105.171 66.9416 105.08 66.9998 104.999 67.0606L104.722 67.248L104.618 67.3594C104.477 67.5139 104.21 67.8279 103.88 68.2761L103.862 68.2989C103.795 68.3901 103.727 68.4888 103.654 68.5927L103.623 68.6357C103.545 68.7497 103.462 68.8687 103.379 68.9978C102.273 70.6965 101.495 72.5788 101.084 74.5512C100.017 79.7652 101.375 84.2525 105.098 85.0932C105.293 85.8529 105.498 86.5848 105.708 87.271L106.082 88.4764C106.134 88.641 106.186 88.8031 106.235 88.9652C106.284 89.1272 106.323 89.2386 106.367 89.3729C106.506 89.8033 106.642 90.2254 106.775 90.639C106.775 90.639 106.775 90.639 106.775 90.6542L107.157 91.7861C107.214 91.9558 107.274 92.1255 107.331 92.2926C107.429 92.5762 107.525 92.8523 107.624 93.1207C107.735 93.433 107.846 93.7369 107.959 94.0323C108.148 94.5388 108.335 95.0165 108.522 95.4656C110.303 99.7933 112.038 102.009 114.455 102.351C115.997 102.571 118.793 100.502 121.747 97.7574C121.475 97.9701 114.989 102.711 111.869 97.1116Z" fill="#E06855"/>
<path d="M117.026 135.076C117.026 135.076 104.429 136.089 92.5205 134.98C94.247 129.682 95.8047 124.613 96.9029 120.953C96.9029 120.953 98.5567 129.756 107.944 131.047C117.332 132.339 119.806 130.06 119.713 137.031C119.64 142.377 118.249 145.079 121.38 155.071C118.675 147.831 115.692 138.054 117.026 135.076Z" fill="#E06855"/>
<path d="M87.1725 126.598C86.5182 126.251 85.8614 125.927 85.2071 125.625C84.8219 122.052 84.6486 118.459 84.6879 114.866C84.6986 111.875 84.4169 108.89 83.8467 105.952L84.6879 104.301C86.1158 108.353 86.1677 114.306 86.4455 120.508C86.5235 122.553 86.7666 124.59 87.1725 126.598Z" fill="#163366"/>
<path d="M84.6769 104.301C84.5834 104.048 84.4848 103.794 84.3783 103.541C84.3524 103.475 84.3238 103.409 84.2926 103.344C84.2797 103.311 84.2641 103.278 84.2485 103.247C84.207 103.154 84.1654 103.063 84.1187 102.974C84.0174 102.766 83.9084 102.564 83.7942 102.371C83.7371 102.275 83.6799 102.179 83.6202 102.088C83.5605 101.996 83.4982 101.903 83.4359 101.814C83.3736 101.725 83.3554 101.7 83.3113 101.644L83.2308 101.541L83.1503 101.434L82.9478 101.181L82.7661 100.986L82.7323 100.953L82.6363 100.859L82.5428 100.768L82.5142 100.74L82.2754 100.53L82.252 100.51L82.2339 100.525L82.0547 100.697C79.1989 103.394 75.5123 104.866 71.9996 104.734C70.7936 106.845 69.8356 109.083 69.1438 111.404C74.4193 111.817 77.8956 108.958 80.8994 105.223C81.0941 104.979 81.3565 104.795 81.6553 104.693C81.954 104.59 82.2767 104.574 82.5848 104.645C82.8929 104.716 83.1737 104.872 83.3936 105.094C83.6135 105.317 83.7633 105.596 83.8253 105.899V105.942L84.6769 104.301Z" fill="#0054D8"/>
<path d="M92.1553 129.756L90.3743 132.795C90.3229 132.883 90.2483 132.957 90.1583 133.008C90.0682 133.059 89.9658 133.086 89.8615 133.086C89.7573 133.086 89.6549 133.059 89.5648 133.008C89.4747 132.957 89.4002 132.883 89.3488 132.795C88.7724 131.782 87.8534 129.814 87.1939 126.702L87.2614 126.631C79.3872 122.432 71.3935 121.589 67.2447 121.467C66.6736 127.198 66.6814 134.251 67.481 143.028C67.8168 139.931 68.4958 136.878 69.506 133.924C70.1458 132.048 71.3777 130.417 73.0252 129.266C74.6727 128.114 76.6515 127.5 78.6784 127.512H78.7407C80.5219 127.532 82.2558 128.073 83.7171 129.067C85.1783 130.06 86.2993 131.46 86.9343 133.083C87.2701 133.954 87.6872 134.792 88.1805 135.588C88.2573 135.709 88.3666 135.807 88.4964 135.871C88.6263 135.936 88.7718 135.965 88.9173 135.955C89.0627 135.944 89.2025 135.896 89.3216 135.814C89.4406 135.731 89.5345 135.619 89.5928 135.489L92.1553 129.756Z" fill="#E06855"/>
<path d="M81.8914 103.346C81.8914 103.346 79.6976 106.684 77.1221 112.511C74.2557 113.249 71.3437 113.807 68.4041 114.182C68.4612 113.929 68.5183 113.698 68.578 113.463C68.579 113.454 68.579 113.446 68.578 113.437C68.6351 113.215 68.6922 112.994 68.7494 112.777C68.7494 112.754 68.7493 112.733 68.7675 112.713C68.8194 112.523 68.8714 112.338 68.9233 112.154C68.9934 111.9 69.0661 111.647 69.1414 111.414L69.2738 110.991C69.2738 110.971 69.2868 110.951 69.2946 110.928C69.3439 110.768 69.3958 110.611 69.4503 110.454C69.536 110.201 69.6243 109.948 69.7099 109.695C69.7956 109.441 69.8631 109.279 69.941 109.074L70.1253 108.651C70.2422 108.363 70.359 108.079 70.4784 107.803C70.7536 107.16 71.0418 106.549 71.343 105.97L71.4131 105.833L71.6104 105.463C71.7402 105.21 71.87 104.98 72.0102 104.747C75.3126 104.871 78.7603 103.579 81.5409 101.184L81.8914 103.346Z" fill="url(#paint16_linear)"/>
<path d="M71.5734 124.967C71.5734 125.002 71.5557 125.013 71.5481 124.992C71.5405 124.972 71.5532 124.975 71.5734 124.967Z" fill="#163366"/>
<path d="M73.5007 122.085C77.5535 122.734 81.4947 123.927 85.2122 125.631C83.7739 123.782 80.6662 121.619 78.231 120.085C77.2856 119.49 76.5816 118.593 76.2396 117.548C75.8977 116.502 75.939 115.373 76.3565 114.354C76.6421 113.65 76.9173 112.989 77.1354 112.511C74.269 113.249 71.357 113.807 68.4174 114.182C67.869 116.586 67.4771 119.021 67.2439 121.472C68.8161 121.523 70.3845 121.652 71.943 121.86L72.6725 121.959C72.9503 121.999 73.2203 122.04 73.5007 122.085Z" fill="#163366"/>
<path d="M123.515 58.1418C123.449 58.2613 123.4 58.3891 123.37 58.5217C123.11 58.6331 122.775 58.352 123.172 58.0557C123.381 57.9202 123.544 57.728 123.642 57.503C123.74 57.278 123.768 57.03 123.723 56.7896C123.93 57.1694 123.837 57.5695 123.515 58.1418Z" fill="#E06855"/>
<path d="M122.701 64.4574C122.221 64.6017 121.235 64.6422 120.157 64.7106L119.744 65.1918L119.503 64.7537L119.438 64.6372C119.401 64.57 119.384 64.4942 119.388 64.418C119.393 64.3419 119.419 64.2686 119.464 64.2063C119.51 64.1439 119.571 64.0951 119.643 64.0652C119.715 64.0353 119.794 64.0255 119.872 64.037L122.701 64.4574Z" fill="#E06855"/>
<path d="M94.586 67.7064C93.7838 69.2257 91.9275 71.4314 87.6594 76.101C79.3126 85.2325 72.4482 87.5901 69.6417 84.5463C69.11 83.9575 68.8189 83.1986 68.8239 82.4141C68.8072 81.6867 68.972 80.9662 69.3042 80.3148C69.3224 81.3632 69.6209 84.3665 72.4378 83.741C75.8363 82.9813 76.5398 76.0858 81.7841 73.3838C87.0285 70.6818 95.6946 68.3876 93.2334 65.954C93.4637 65.9096 93.7022 65.9294 93.9216 66.0111C94.1409 66.0929 94.3321 66.2333 94.4733 66.4163C94.6146 66.5992 94.7001 66.8173 94.72 67.0455C94.7399 67.2737 94.6935 67.5027 94.586 67.7064Z" fill="#2B4E3E"/>
<path d="M173.229 46.131C172.689 47.582 172.118 49.0305 171.529 50.4359C170.82 52.1377 170.083 53.7963 169.348 55.3613C166.939 60.4918 164.54 64.6448 163.117 66.2325C160.884 68.7015 154.171 73.404 148.163 77.4C158.618 69.3827 162.053 59.1927 163.652 52.2896C164.291 49.5268 164.846 46.759 166.173 44.052C168.612 44.4227 170.987 45.1224 173.229 46.131Z" fill="#442330"/>
<path d="M175.696 38.4682C175.042 40.9423 174.19 43.5455 173.23 46.131C170.984 45.1241 168.606 44.4269 166.163 44.0596C168.209 39.8813 170.891 35.6903 171.771 31.0029C173.175 23.52 167.357 22.1576 166.996 22.0765C173.238 22.6134 177.906 30.1268 175.696 38.4682Z" fill="#6A9C78"/>
<path d="M172.271 56.9085C172.271 56.9085 169.917 63.9383 166.163 68.1419C160.69 74.2701 138.212 83.9461 137.417 84.3259C138.248 83.8195 158.844 70.9528 163.107 66.2401C164.54 64.6524 166.939 60.4994 169.338 55.3689C170.293 55.9057 171.267 56.4223 172.271 56.9085Z" fill="#331B25"/>
<path d="M194.904 88.603C191.818 90.7703 188.611 92.768 185.298 94.5869L177.107 120.356L176.252 121.472C176.252 121.472 176.722 99.4667 181.666 86.3923C182.484 84.2298 183.106 82.0012 183.524 79.7323C186.029 80.0488 188.493 80.6226 190.874 81.4442C191.713 81.7379 192.551 82.0722 193.377 82.4571C193.821 84.6526 194.327 86.7595 194.904 88.603Z" fill="#442330"/>
<path d="M193.373 82.4495C192.548 82.0722 191.709 81.7379 190.871 81.4366C188.489 80.615 186.026 80.0412 183.521 79.7247C185.548 68.7674 182.223 60.3981 182.223 60.3981C185.009 61.0122 187.856 61.3222 190.712 61.3224C190.712 61.3224 191.047 66.6403 191.868 73.0521C192.257 76.0883 192.753 79.3652 193.373 82.4495Z" fill="#2B4E3E"/>
<path d="M220.206 50.1675C219.882 50.0764 219.557 49.9953 219.228 49.9143C219.137 49.8915 219.046 49.8687 218.968 49.851C218.781 49.8079 218.594 49.77 218.407 49.7345C217.748 49.6028 217.081 49.499 216.416 49.4154C216.299 49.4002 216.185 49.3851 216.068 49.3749L215.718 49.3344L215.139 49.2787H215.071C214.934 49.266 214.812 49.2559 214.661 49.2483C214.401 49.2331 214.142 49.2204 213.882 49.2154C213.622 49.2103 213.363 49.2154 213.116 49.2154H212.763C209.243 49.3482 205.826 50.4088 202.874 52.2846C201.08 48.8533 199.941 44.9738 198.894 41.3627C196.817 34.219 183.317 34.0341 180.866 42.6466C178.415 51.259 172.283 56.8984 172.283 56.8984C171.279 56.4122 170.305 55.8855 169.36 55.3588C170.095 53.7938 170.832 52.1351 171.541 50.4334C172.13 49.0204 172.701 47.5719 173.241 46.1285C174.202 43.543 175.059 40.9398 175.708 38.4657C177.071 33.32 175.817 28.4909 173.189 25.4192C171.559 23.5098 169.399 22.2791 167.008 22.074C168.802 21.5954 170.985 21.3523 173.457 21.3016C181.051 21.1787 188.566 22.8284 195.374 26.1131C195.893 26.3663 196.386 26.6069 196.887 26.8727C200.105 28.5129 203.177 30.4102 206.073 32.5451C210.086 35.5181 213.602 38.8987 216.276 42.563C217.976 44.8872 219.302 47.4518 220.206 50.1675Z" fill="#4B7D58"/>
<path d="M195.36 26.1257C188.552 22.841 181.038 21.1914 173.443 21.3143C170.972 21.365 168.788 21.6081 166.994 22.0867C165.818 21.9907 164.634 22.1348 163.518 22.5096C163.187 22.369 162.894 22.1536 162.666 21.881C162.437 21.6084 162.278 21.2865 162.202 20.9421C168.513 19.1264 176.543 19.6987 184.646 22.0284C188.33 23.0944 191.915 24.4651 195.36 26.1257Z" fill="#4B7D58"/>
<path d="M220.205 50.1675C219.88 50.0764 219.556 49.9953 219.226 49.9143C219.135 49.8915 219.044 49.8687 218.966 49.851C218.779 49.808 218.593 49.77 218.406 49.7345C217.746 49.6028 217.079 49.499 216.414 49.4154C216.298 49.4003 216.183 49.3851 216.066 49.3749L215.716 49.3344L215.137 49.2787H215.069C214.932 49.266 214.81 49.2559 214.659 49.2483C214.4 49.2331 214.14 49.2205 213.88 49.2154C213.621 49.2103 213.361 49.2154 213.115 49.2154H212.761C209.241 49.3482 205.824 50.4088 202.873 52.2846C201.966 52.8529 201.107 53.4896 200.302 54.1889C200.043 54.4092 199.801 54.6345 199.56 54.8675C199.391 55.0296 199.222 55.1891 199.041 55.3436C198.913 55.4626 198.781 55.5816 198.654 55.6956C198.469 55.8627 198.282 56.0248 198.098 56.1818C197.968 56.2957 197.838 56.4072 197.706 56.5135C196.351 57.6519 194.928 58.7114 193.446 59.6865L193.142 59.884H193.124L192.864 60.0436L192.838 60.0613L192.428 60.3145C191.39 60.9653 190.712 61.3275 190.712 61.3275C190.712 61.3275 191.436 72.8292 193.37 82.447C193.37 82.447 192.921 70.5274 195.357 64.9056C198.877 56.7769 208.81 54.5105 213.366 60.1069C218.369 66.2528 216.015 78.4332 208.672 80.4768C211.107 80.6652 213.5 81.2037 215.773 82.0747C216.517 82.364 217.244 82.6955 217.949 83.0674C218.204 83.2042 218.487 83.282 218.778 83.2948C219.068 83.3076 219.358 83.255 219.625 83.1412C219.891 83.0274 220.127 82.8554 220.315 82.6384C220.502 82.4214 220.636 82.1653 220.706 81.8899C222.071 76.3466 224.686 62.3733 220.205 50.1675Z" fill="#2B4E3E"/>
<path d="M194.9 88.603C191.815 90.7703 188.608 92.768 185.294 94.5869C187.983 90.5868 189.873 86.1279 190.866 81.4442C191.704 81.7379 192.543 82.0722 193.369 82.4571C193.818 84.6526 194.324 86.7595 194.9 88.603Z" fill="#331B25"/>
<path d="M193.376 82.4495C192.551 82.0722 191.712 81.7379 190.874 81.4366C191.469 78.6775 191.804 75.8709 191.873 73.0521C192.26 76.0884 192.756 79.3652 193.376 82.4495Z" fill="#192D23"/>
<path d="M215.775 82.0747C215.16 83.2877 214.578 84.3335 214.085 85.1793C209.074 81.6746 202.482 80.5426 202.482 80.5426C204.544 80.3398 206.62 80.3228 208.685 80.492C211.115 80.6765 213.504 81.2098 215.775 82.0747Z" fill="#442330"/>
<path d="M213.564 90.9834H212.294C212.121 90.9833 211.952 90.939 211.802 90.855C211.653 90.771 211.528 90.6501 211.442 90.5045C211.355 90.359 211.309 90.1937 211.308 90.0253C211.307 89.857 211.352 89.6914 211.437 89.545L212.572 87.6027L213.564 90.9834Z" fill="#442330"/>
<path d="M139.818 36.7083C139.205 36.4804 138.11 36.7994 137.64 36.3031C137.699 36.3031 138.678 36.5133 139.278 36.2372C139.818 35.9891 140.249 36.4373 139.818 36.7083Z" fill="#442330"/>
<path d="M147.701 36.3031L148.256 35.6801C148.319 35.61 148.4 35.559 148.492 35.5331C148.583 35.5073 148.68 35.5078 148.771 35.5346C148.862 35.5613 148.944 35.6132 149.005 35.684C149.067 35.7547 149.106 35.8413 149.118 35.9334L149.378 37.6655L147.701 36.3031Z" fill="#442330"/>
<path d="M139.232 34.5912C138.734 34.8047 138.224 34.989 137.703 35.1433C137.843 35.0926 138.97 34.6723 139.131 34.1304C139.419 33.1453 138.147 31.598 137.641 31.0105C137.135 30.423 136.693 30.5927 136.646 30.6079L136.74 30.5294C136.927 30.374 137.166 30.292 137.411 30.2995C137.657 30.307 137.89 30.4034 138.067 30.5699C138.214 30.7134 138.351 30.8603 138.479 31.0105C139.079 31.7255 139.52 32.553 139.778 33.4416C139.841 33.6651 139.821 33.9034 139.721 34.1139C139.621 34.3244 139.448 34.4935 139.232 34.5912Z" fill="#0B1828"/>
<path d="M135.033 33.1883C135.116 33.5884 135.879 34.1152 136.154 33.948C136.429 33.7809 136.048 33.6695 135.783 33.3656C135.404 32.9326 135.947 32.6363 135.783 32.3881C135.619 32.14 134.905 32.5426 135.033 33.1883Z" fill="#283C55"/>
<path d="M153.146 26.7816C151.716 26.6271 150.81 26.931 150.156 27.44C148.634 28.6276 148.549 30.9422 146.542 31.1194C145.205 31.2385 144.55 30.7725 143.26 29.1493C141.97 27.5261 139.815 29.909 139.464 30.8409C139.114 31.7728 140.846 33.7227 140.332 34.4089C139.818 35.0952 137.702 35.1433 137.702 35.1433C138.222 34.989 138.733 34.8047 139.231 34.5912C139.449 34.4938 139.624 34.3236 139.724 34.1113C139.824 33.8991 139.844 33.6589 139.779 33.434C139.521 32.5454 139.08 31.7179 138.481 31.0029C139.535 29.5621 141.214 27.5944 142.323 26.3232C142.375 26.4195 142.424 26.5157 142.471 26.6119C142.523 26.7157 142.572 26.8221 142.619 26.9234C142.666 27.0247 142.725 27.1766 142.772 27.2779C142.819 27.3792 142.845 27.4602 142.876 27.5489C142.894 27.597 142.912 27.6426 142.928 27.6907C142.962 27.7844 142.993 27.873 143.021 27.9591C143.053 28.0511 143.108 28.1338 143.181 28.1995C143.255 28.2652 143.344 28.3117 143.44 28.3347C143.537 28.3577 143.638 28.3565 143.734 28.3311C143.83 28.3057 143.918 28.257 143.99 28.1895L144.184 28.0047C144.256 27.9358 144.313 27.8529 144.349 27.7614C144.386 27.6698 144.403 27.5718 144.398 27.4735C144.394 27.3753 144.368 27.2791 144.322 27.1913C144.277 27.1035 144.213 27.026 144.135 26.9639C143.663 26.579 143.141 25.9839 143.333 25.3128C143.344 25.2716 143.358 25.231 143.374 25.1913C143.395 25.1432 143.418 25.0976 143.444 25.0495C144.171 23.7833 145.579 25.2394 145.579 25.2394L147.889 26.8601C148.12 27.0242 148.403 27.1035 148.688 27.0841C148.973 27.0646 149.242 26.9476 149.447 26.7537C149.735 26.5005 150.008 26.2245 150.249 25.9814L150.407 26.0928L153.146 26.7816Z" fill="#442330"/>
<path d="M150.492 25.718L150.233 25.9712C149.991 26.2245 149.713 26.4777 149.43 26.7436C149.312 26.8536 149.172 26.939 149.019 26.9947C148.866 27.0505 148.703 27.0753 148.54 27.0677C151.396 25.4926 147.925 22.3247 145.424 22.8261C142.924 23.3275 140.889 21.8284 139.31 20.2381C137.618 18.5338 131.766 23.6314 131.441 23.915C133.316 21.8309 136.989 16.9663 140.466 16.3307C144.316 15.6242 146.305 17.3284 148.099 20.6356C148.743 21.8708 149.526 23.0319 150.435 24.0973L150.521 24.1935C150.715 24.4039 150.82 24.6783 150.815 24.9613C150.809 25.2443 150.694 25.5147 150.492 25.718Z" fill="#BA1515"/>
<path d="M138.967 28.5036C139.081 28.3263 140.447 26.1561 138.967 25.0495C137.487 23.9428 135.787 24.857 135.652 24.933C136.815 24.0568 138.046 23.4136 139.245 23.6516C140.569 23.9251 141.501 24.9178 142.132 25.9763C140.966 26.8272 139.865 27.7312 138.967 28.5036Z" fill="#442330"/>
<path d="M86.2233 101.178C85.5665 103.521 85.2679 104.471 85.7716 109.325C85.5916 107.618 85.2296 105.934 84.6916 104.301C84.3941 103.421 83.9767 102.583 83.4506 101.812C83.3001 101.595 83.1371 101.387 82.9625 101.189C82.7508 100.948 82.5199 100.725 82.272 100.52L82.2875 100.505C82.7704 100.036 83.2845 99.492 83.8271 98.8893L83.9984 98.6943L84.0763 98.6057C84.2736 98.3803 84.4761 98.1448 84.6812 97.9042C84.9408 97.6054 85.2004 97.2914 85.46 96.9698C85.6366 97.1319 85.8287 97.3193 86.026 97.5345L86.2389 97.7877C86.2648 97.851 86.8775 98.8007 86.2233 101.178Z" fill="#2B4E3E"/>
<path d="M85.9968 97.5294C85.1616 98.8824 84.1356 100.114 82.9489 101.189C82.7372 100.948 82.5063 100.725 82.2583 100.52L82.2739 100.505C82.7568 100.036 83.2708 99.492 83.8134 98.8893L83.9848 98.6943L84.0627 98.6057C84.26 98.3803 84.4625 98.1448 84.6676 97.9042C84.9272 97.6054 85.1868 97.2914 85.4464 96.9698C85.6074 97.1268 85.7995 97.3142 85.9968 97.5294Z" fill="#1E352A"/>
<path d="M87.1063 95.5289C86.7789 96.2176 86.4078 96.8857 85.9952 97.5294C85.7979 97.3142 85.6057 97.1268 85.4292 96.9647C85.7407 96.5773 86.0575 96.1721 86.3794 95.7543C86.6001 95.6885 86.8441 95.6125 87.1063 95.5289Z" fill="#1E352A"/>
<path d="M205.985 32.4869C193.783 22.8084 178.946 16.3333 170.459 16.3636C166.084 16.3763 163.382 17.8982 162.05 18.9314C164.105 16.6905 166.911 15.2377 169.966 14.8341C175.119 14.1403 178.86 18.1869 184.05 18.5136C189.032 18.8276 204.778 31.5069 205.985 32.4869Z" fill="#2B4E3E"/>
<path d="M203.457 14.2669C203.454 15.9029 203.24 17.5321 202.821 19.1163C202.784 19.253 202.718 19.3807 202.627 19.4909C202.536 19.6012 202.423 19.6918 202.294 19.7566C202.165 19.8215 202.024 19.8594 201.879 19.8677C201.734 19.876 201.589 19.8547 201.453 19.805L194.963 17.3917C194.743 17.3081 194.559 17.1539 194.441 16.9546C194.323 16.7553 194.278 16.5228 194.314 16.2953C194.428 15.5786 194.519 14.8974 194.594 14.2694C194.581 14.553 194.493 16.7258 195.355 16.7536C196.276 16.7865 198.005 14.1124 200.142 14.7531C202.279 15.3937 203.457 14.2669 203.457 14.2669Z" fill="#2B4E3E"/>
<path d="M190.701 2.43841C189.203 2.57769 187.472 2.94487 186.451 3.83625C185.569 3.51971 184.725 3.2209 183.928 2.94741C185.618 1.56729 188.372 2.34724 189.38 2.01045C189.657 1.93608 189.91 1.7908 190.11 1.58958C190.311 1.38837 190.453 1.13852 190.522 0.865837H190.535L190.701 2.43841Z" fill="#E13A3A"/>
<path d="M194.382 1.3166L194.123 2.85372C194.109 2.93622 194.079 3.0153 194.034 3.08644C193.989 3.15758 193.93 3.21938 193.861 3.2683C193.791 3.31722 193.713 3.35231 193.629 3.37155C193.546 3.39079 193.46 3.39381 193.375 3.38044L191.249 3.05377C191.107 3.03144 190.977 2.96389 190.879 2.86171C190.78 2.75953 190.72 2.62847 190.706 2.48906V2.44601L190.558 0.974731C190.628 1.27608 190.859 2.17252 191.212 2.41309C192.035 2.97527 194.016 3.03858 194.382 1.3166Z" fill="#CE5A2C"/>
<path d="M166.988 11.851C166.968 11.9987 166.906 12.1379 166.809 12.253C166.713 12.368 166.585 12.4543 166.44 12.5018C165.629 12.777 164.885 13.211 164.252 13.7771C163.619 14.3432 163.112 15.0295 162.761 15.7939C162.761 15.7939 161.518 17.1993 160.728 15.6065L160.69 15.528C159.952 13.925 159.83 13.0159 162.195 11.3927C162.11 11.4611 160.622 12.674 160.918 13.7452C161.214 14.8164 161.712 15.8445 162.198 15.1988C162.683 14.553 162.93 12.75 164.363 12.241C165.796 11.732 167.123 9.65298 166.061 9.22502C166.167 9.18032 166.283 9.16168 166.398 9.17073C166.514 9.17978 166.625 9.21626 166.723 9.27696C166.82 9.33767 166.901 9.42075 166.958 9.51897C167.015 9.61718 167.047 9.72753 167.05 9.84037C167.078 10.5112 167.057 11.1831 166.988 11.851Z" fill="#E13A3A"/>
<path d="M209.678 14.1175C209.078 13.7807 208.471 13.4489 207.861 13.1223C210.4 15.3431 209.527 26.9766 201.29 24.4417C191.904 21.5524 187.387 15.2342 179.593 11.851C174.814 9.77708 171.158 10.2456 169.045 10.9192C168.898 10.967 168.743 10.9831 168.589 10.9663C168.436 10.9495 168.288 10.9001 168.156 10.8218C168.024 10.7434 167.911 10.6379 167.825 10.5125C167.739 10.3872 167.682 10.2451 167.658 10.0961C167.594 9.66312 167.511 9.27821 167.311 9.16426C166.82 8.88317 166.129 9.19211 166.07 9.21997C166.176 9.17626 166.291 9.15849 166.406 9.1682C166.521 9.1779 166.632 9.21479 166.729 9.27566C166.826 9.33654 166.906 9.41956 166.963 9.51752C167.019 9.61549 167.05 9.72544 167.054 9.83785C167.082 10.5095 167.061 11.1823 166.991 11.851C166.972 11.9987 166.91 12.1379 166.813 12.253C166.716 12.368 166.588 12.4543 166.443 12.5018C165.633 12.777 164.888 13.211 164.255 13.7771C163.623 14.3433 163.115 15.0295 162.765 15.7939C164.842 14.7379 169.299 12.7905 173.22 13.1729C179.058 13.7427 187.987 16.2117 206.061 32.5502C210 28.0503 211.381 21.9727 211.864 18.4351C211.979 17.5851 211.833 16.7209 211.444 15.9521C211.055 15.1833 210.44 14.5448 209.678 14.1175Z" fill="#F76F32"/>
<path d="M191.963 9.72896C191.953 9.75189 191.937 9.7715 191.915 9.78543C191.894 9.79936 191.869 9.80701 191.844 9.80746C191.827 9.81094 191.809 9.81094 191.792 9.80746L182.386 5.88491C180.17 4.96258 177.756 4.58638 175.357 4.78954C172.957 4.99269 170.645 5.76894 168.626 7.04977L165.638 8.95407L165.848 8.51851L168.486 6.85225C170.54 5.54853 172.892 4.75822 175.334 4.55109C177.776 4.34396 180.233 4.72638 182.487 5.66459L191.885 9.56436C191.902 9.5697 191.917 9.57829 191.93 9.58961C191.943 9.60093 191.954 9.61474 191.961 9.63017C191.968 9.64561 191.972 9.66234 191.973 9.67933C191.973 9.69633 191.97 9.71322 191.963 9.72896Z" fill="#F76F32"/>
<path d="M46.5397 193.418L43.7617 193.889" stroke="#6A9C78" stroke-width="2" stroke-miterlimit="10" stroke-linecap="round"/>
<path d="M46.9086 194.545L44.1306 195.016" stroke="#6A9C78" stroke-width="2" stroke-miterlimit="10" stroke-linecap="round"/>
<path d="M47.048 195.758L44.27 196.229" stroke="#6A9C78" stroke-width="2" stroke-miterlimit="10" stroke-linecap="round"/>
<path d="M129.976 166.431L130.648 169.103" stroke="#6A9C78" stroke-width="2" stroke-miterlimit="10" stroke-linecap="round"/>
<path d="M131.104 165.998L131.777 168.667" stroke="#6A9C78" stroke-width="2" stroke-miterlimit="10" stroke-linecap="round"/>
<path d="M132.337 165.775L133.009 168.447" stroke="#6A9C78" stroke-width="2" stroke-miterlimit="10" stroke-linecap="round"/>
<path d="M163.79 140.275C163.83 140.358 163.888 140.431 163.96 140.491C164.031 140.551 164.115 140.595 164.205 140.622C164.295 140.648 164.39 140.657 164.483 140.646C164.576 140.635 164.666 140.605 164.748 140.559L166.097 139.799C166.177 139.754 166.246 139.694 166.301 139.622C166.356 139.55 166.396 139.468 166.417 139.381C166.439 139.294 166.442 139.204 166.427 139.115C166.412 139.027 166.378 138.942 166.329 138.867L166.139 138.578C166.085 138.496 166.013 138.427 165.929 138.375C165.845 138.323 165.75 138.29 165.651 138.277C165.552 138.265 165.451 138.274 165.356 138.304C165.261 138.333 165.174 138.383 165.101 138.449L163.94 139.51C163.836 139.606 163.765 139.732 163.738 139.869C163.711 140.006 163.729 140.148 163.79 140.275Z" fill="#6A9C78"/>
<path d="M166.739 138.33C166.76 138.373 166.79 138.411 166.827 138.442C166.864 138.473 166.907 138.497 166.953 138.51C167 138.524 167.049 138.528 167.098 138.523C167.146 138.517 167.193 138.501 167.235 138.477L167.933 138.079C167.974 138.056 168.01 138.025 168.039 137.987C168.067 137.95 168.088 137.908 168.099 137.862C168.11 137.817 168.112 137.77 168.104 137.725C168.096 137.679 168.078 137.635 168.053 137.596L167.956 137.446C167.929 137.404 167.891 137.367 167.847 137.34C167.803 137.313 167.754 137.296 167.702 137.289C167.651 137.283 167.598 137.288 167.549 137.304C167.5 137.32 167.454 137.346 167.416 137.381L166.814 137.93C166.76 137.98 166.723 138.046 166.709 138.118C166.696 138.19 166.706 138.264 166.739 138.33Z" fill="#6A9C78"/>
<path d="M216.829 131.716C216.885 131.789 216.956 131.851 217.038 131.896C217.119 131.942 217.209 131.97 217.303 131.98C217.396 131.99 217.491 131.981 217.58 131.953C217.67 131.925 217.753 131.88 217.823 131.82L219.002 130.807C219.071 130.748 219.127 130.676 219.167 130.595C219.207 130.515 219.229 130.427 219.234 130.338C219.238 130.248 219.224 130.159 219.192 130.075C219.16 129.991 219.112 129.915 219.049 129.849L218.805 129.596C218.736 129.526 218.653 129.472 218.56 129.437C218.468 129.402 218.369 129.387 218.27 129.393C218.171 129.4 218.074 129.427 217.988 129.473C217.901 129.52 217.825 129.584 217.766 129.662L216.832 130.928C216.746 131.042 216.699 131.18 216.699 131.322C216.698 131.463 216.744 131.601 216.829 131.716Z" fill="#6A9C78"/>
<path d="M219.346 129.262C219.375 129.301 219.412 129.333 219.454 129.357C219.497 129.38 219.544 129.395 219.593 129.4C219.642 129.405 219.691 129.4 219.738 129.386C219.785 129.371 219.828 129.347 219.865 129.315L220.475 128.793C220.512 128.763 220.543 128.725 220.564 128.682C220.586 128.639 220.598 128.593 220.6 128.545C220.603 128.498 220.595 128.45 220.577 128.406C220.559 128.361 220.533 128.321 220.498 128.287L220.371 128.158C220.335 128.122 220.292 128.093 220.244 128.075C220.196 128.057 220.144 128.049 220.093 128.053C220.041 128.056 219.991 128.07 219.946 128.095C219.901 128.119 219.861 128.153 219.831 128.193L219.346 128.844C219.298 128.904 219.272 128.977 219.272 129.053C219.272 129.129 219.298 129.202 219.346 129.262Z" fill="#6A9C78"/>
<defs>
<linearGradient id="paint0_linear" x1="0.206299" y1="116.266" x2="0.206299" y2="234.335" gradientUnits="userSpaceOnUse">
<stop stop-color="#8CACFF"/>
<stop offset="1" stop-color="#516BF0"/>
</linearGradient>
<linearGradient id="paint1_linear" x1="28.7983" y1="198.549" x2="28.7983" y2="207.597" gradientUnits="userSpaceOnUse">
<stop stop-color="#5986FB"/>
<stop offset="1" stop-color="#2D4EF5"/>
</linearGradient>
<linearGradient id="paint2_linear" x1="0" y1="200.764" x2="0" y2="234.335" gradientUnits="userSpaceOnUse">
<stop stop-color="#5986FB"/>
<stop offset="1" stop-color="#2D4EF5"/>
</linearGradient>
<linearGradient id="paint3_linear" x1="28.7983" y1="199.913" x2="28.7983" y2="205.226" gradientUnits="userSpaceOnUse">
<stop stop-color="#4F79E6"/>
<stop offset="1" stop-color="#2D4EF5"/>
<stop offset="1" stop-color="#2242E2"/>
</linearGradient>
<linearGradient id="paint4_linear" x1="119.384" y1="116.37" x2="119.384" y2="234.254" gradientUnits="userSpaceOnUse">
<stop stop-color="#5986FB"/>
<stop offset="1" stop-color="#2D4EF5"/>
</linearGradient>
<linearGradient id="paint5_linear" x1="94.7178" y1="178.532" x2="94.7178" y2="198.957" gradientUnits="userSpaceOnUse">
<stop stop-color="#5986FB"/>
<stop offset="1" stop-color="#2D4EF5"/>
</linearGradient>
<linearGradient id="paint6_linear" x1="56.8394" y1="198.675" x2="56.8394" y2="229.201" gradientUnits="userSpaceOnUse">
<stop stop-color="#5986FB"/>
<stop offset="1" stop-color="#2D4EF5"/>
</linearGradient>
<linearGradient id="paint7_linear" x1="89.5576" y1="216.072" x2="89.5576" y2="234.335" gradientUnits="userSpaceOnUse">
<stop stop-color="#5986FB"/>
<stop offset="1" stop-color="#2D4EF5"/>
</linearGradient>
<linearGradient id="paint8_linear" x1="119.382" y1="144.876" x2="119.382" y2="234.335" gradientUnits="userSpaceOnUse">
<stop stop-color="#436EDE"/>
<stop offset="1" stop-color="#162FAD"/>
</linearGradient>
<linearGradient id="paint9_linear" x1="124.282" y1="162.707" x2="124.282" y2="178.628" gradientUnits="userSpaceOnUse">
<stop stop-color="#759BFF"/>
<stop offset="1" stop-color="#4463FF"/>
</linearGradient>
<linearGradient id="paint10_linear" x1="157.898" y1="140.217" x2="157.898" y2="152.268" gradientUnits="userSpaceOnUse">
<stop stop-color="#5986FB"/>
<stop offset="1" stop-color="#2D4EF5"/>
</linearGradient>
<linearGradient id="paint11_linear" x1="203.131" y1="124.875" x2="203.131" y2="140.032" gradientUnits="userSpaceOnUse">
<stop stop-color="#5986FB"/>
<stop offset="1" stop-color="#2D4EF5"/>
</linearGradient>
<linearGradient id="paint12_linear" x1="86.4473" y1="64.9791" x2="86.4473" y2="106.238" gradientUnits="userSpaceOnUse">
<stop stop-color="#5986FB"/>
<stop offset="1" stop-color="#2D4EF5"/>
</linearGradient>
<linearGradient id="paint13_linear" x1="68.4041" y1="100.523" x2="68.4041" y2="114.192" gradientUnits="userSpaceOnUse">
<stop stop-color="#5986FB"/>
<stop offset="1" stop-color="#2D4EF5"/>
</linearGradient>
<linearGradient id="paint14_linear" x1="88.7288" y1="68.7193" x2="88.7288" y2="93.4955" gradientUnits="userSpaceOnUse">
<stop stop-color="#2F5BCE"/>
<stop offset="1" stop-color="#2D4EF5"/>
<stop offset="1" stop-color="#223DC6"/>
</linearGradient>
<linearGradient id="paint15_linear" x1="93.998" y1="91.5582" x2="93.998" y2="97.3041" gradientUnits="userSpaceOnUse">
<stop stop-color="#2F5BCE"/>
<stop offset="1" stop-color="#2D4EF5"/>
<stop offset="1" stop-color="#223DC6"/>
</linearGradient>
<linearGradient id="paint16_linear" x1="68.4041" y1="101.184" x2="68.4041" y2="114.182" gradientUnits="userSpaceOnUse">
<stop stop-color="#2F5BCE"/>
<stop offset="1" stop-color="#2D4EF5"/>
<stop offset="1" stop-color="#223DC6"/>
</linearGradient>
</defs>
</svg>
