<svg width="332" height="456" viewBox="0 0 332 456" fill="none" xmlns="http://www.w3.org/2000/svg">
<g clip-path="url(#clip0)">
<path d="M47.8784 55.1461L44.2925 55.5154L44.0928 52.8354L45.8408 52.4512L47.8784 55.1461Z" fill="#E06855"/>
<path d="M34.9883 73.5315L40.5319 77.2994L41.0912 71.8048L40.6367 66.7194L45.4711 62.712L47.6586 57.9959L41.1611 53.21L36.3167 58.0458L36.5165 64.0994L34.9883 73.5315Z" fill="#EFA08D"/>
<path d="M93.9908 241.02L109.023 262.763L164.235 279.402L202.016 296.02L217.243 275.684L200.672 270.693C198.71 269.478 196.942 267.974 195.428 266.232L183.662 245.441L186.054 242.367L181.929 201.444L171.401 147.891L174.982 140.165L176.116 133.258L176.555 128.477H181.689L190.075 107.372L171.286 64.718L167.156 61.1648L156.379 54.3027L141.895 55.4605C141.895 55.4605 132.806 58.909 130.838 64.718C129.744 67.8449 128.851 71.0388 128.166 74.2799L125.04 92.5404L111.336 115.861L109.932 122.454L99.6942 116.061L80.8311 124.725L102.266 148.46L110.881 160.317L118.797 191.758C118.797 191.758 110.012 235.475 93.9908 241.02Z" fill="url(#paint0_linear)"/>
<path d="M22.7779 380.002L9.758 389.324L3.7899 389.01C-0.445198 388.785 -1.46402 382.986 2.44645 381.339L17.8686 374.852C20.6554 376.074 22.7779 380.002 22.7779 380.002Z" fill="url(#paint1_linear)"/>
<path d="M26.4433 392.438L11.4607 399.04C7.58014 400.752 4.04923 396.046 6.79605 392.802L9.74266 389.309L18.3327 379.173L22.7626 374.237L26.8129 379.173L29.1852 386.16C29.5953 387.359 29.5414 388.669 29.0339 389.831C28.5265 390.993 27.6024 391.923 26.4433 392.438Z" fill="url(#paint2_linear)"/>
<path d="M93.8307 241.039C91.2637 241.378 76.3509 258.975 55.7847 278.468C44.2581 289.388 32.8663 303.421 31.2731 324.656C29.7099 345.526 22.4633 365.933 22.6032 374.821C22.6481 377.701 18.3481 379.178 18.3481 379.178C18.3481 379.178 18.1583 377.601 17.8486 374.821C15.9858 357.229 9.91283 291.479 20.8452 272.819C35.8228 247.452 90.4546 241.383 93.8307 241.039Z" fill="#162F71"/>
<g clip-path="url(#clip1)">
<rect x="25.0337" width="56" height="54" rx="27" transform="rotate(25 25.0337 0)" fill="url(#paint3_linear)"/>
<g filter="url(#filter0_d)">
<path fill-rule="evenodd" clip-rule="evenodd" d="M35.6852 47.3547L34.1709 50.6022L30.3946 48.8413L31.8034 45.8203L25.0061 42.6506L34.8672 21.5034L41.6645 24.6731L43.0732 21.6521L46.8495 23.413L45.3352 26.6603C49.7218 29.8169 50.7662 34.7319 48.1072 40.4341C45.3869 46.2678 40.9541 48.6917 35.6852 47.3547ZM37.3665 43.7493C40.1907 43.8411 42.5663 42.1149 44.1723 38.6707C45.7377 35.3136 45.5067 32.3832 43.6472 30.2802L37.3665 43.7493ZM40.1405 27.9412L37.1765 26.559L30.3632 41.17L33.3273 42.5522L40.1405 27.9412Z" fill="white"/>
</g>
</g>
<g filter="url(#filter1_f)">
<rect x="48.7158" y="195" width="40" height="40" rx="20" transform="rotate(-45 48.7158 195)" fill="url(#paint4_linear)"/>
<path d="M73.6289 199.404C75.2516 197.781 75.2171 195.662 73.4148 193.859C71.5849 192.029 69.5202 192.078 67.9112 193.687C66.3023 195.296 66.2609 197.367 68.0908 199.197C69.9 201.006 72.0061 201.027 73.6289 199.404ZM79.5951 202.304L76.1976 185.773L74.3332 187.638L77.7306 204.169L79.5951 202.304ZM72.1097 197.885C71.7299 198.265 71.1222 198.196 70.1071 197.181C69.0713 196.145 69.0506 195.586 69.4304 195.206C69.8171 194.819 70.3764 194.854 71.4053 195.883C72.4204 196.898 72.4895 197.505 72.1097 197.885ZM86.0101 196.248C87.6329 194.626 87.5984 192.506 85.7961 190.703C83.9662 188.874 81.9015 188.922 80.2925 190.531C78.6836 192.14 78.6421 194.211 80.4721 196.041C82.2812 197.851 84.3874 197.871 86.0101 196.248ZM84.491 194.729C84.1112 195.109 83.5035 195.04 82.4884 194.025C81.4526 192.989 81.4319 192.43 81.8117 192.05C82.1984 191.663 82.7577 191.698 83.7866 192.727C84.8017 193.742 84.8708 194.35 84.491 194.729Z" fill="white"/>
</g>
<rect x="208.976" y="230.505" width="25" height="25" rx="12.5" transform="rotate(15 208.976 230.505)" fill="url(#paint5_linear)"/>
<path d="M213.625 245.518C215.288 245.963 216.652 245.146 217.146 243.299C217.649 241.425 216.843 240.102 215.195 239.66C213.546 239.218 212.185 239.968 211.683 241.843C211.186 243.697 211.962 245.072 213.625 245.518ZM213.979 250.481L223.442 242.075L221.532 241.563L212.068 249.969L213.979 250.481ZM214.042 243.961C213.653 243.857 213.47 243.437 213.749 242.397C214.033 241.335 214.388 241.112 214.778 241.217C215.174 241.323 215.361 241.699 215.079 242.753C214.8 243.793 214.431 244.066 214.042 243.961ZM220.318 252.376C221.98 252.822 223.344 252.004 223.839 250.158C224.341 248.283 223.536 246.96 221.887 246.519C220.239 246.077 218.878 246.827 218.375 248.702C217.879 250.555 218.655 251.931 220.318 252.376ZM220.735 250.82C220.346 250.716 220.163 250.295 220.441 249.255C220.726 248.194 221.081 247.971 221.47 248.075C221.866 248.181 222.054 248.557 221.771 249.612C221.493 250.651 221.124 250.924 220.735 250.82Z" fill="white"/>
<g filter="url(#filter2_f)">
<rect x="78.9756" y="70.5049" width="25" height="25" rx="12.5" transform="rotate(15 78.9756 70.5049)" fill="url(#paint6_linear)"/>
<path d="M83.625 85.5179C85.2875 85.9634 86.6515 85.146 87.1463 83.2995C87.6487 81.4247 86.843 80.1018 85.1946 79.6601C83.5462 79.2184 82.1851 79.9684 81.6828 81.8431C81.1861 83.6967 81.9625 85.0724 83.625 85.5179ZM83.9786 90.4807L93.442 82.0747L91.5318 81.5629L82.0684 89.9688L83.9786 90.4807ZM84.042 83.9615C83.6529 83.8572 83.4699 83.4366 83.7486 82.3967C84.0329 81.3355 84.3885 81.1123 84.7776 81.2165C85.1737 81.3227 85.3611 81.6989 85.0786 82.753C84.7999 83.793 84.4312 84.0657 84.042 83.9615ZM90.3177 92.3764C91.9802 92.8219 93.3442 92.0045 93.839 90.158C94.3413 88.2832 93.5357 86.9603 91.8873 86.5186C90.2389 86.0769 88.8778 86.8268 88.3755 88.7016C87.8788 90.5552 88.6552 91.9309 90.3177 92.3764ZM90.7347 90.82C90.3456 90.7157 90.1626 90.2951 90.4413 89.2551C90.7256 88.1939 91.0811 87.9707 91.4702 88.075C91.8664 88.1811 92.0538 88.5574 91.7713 89.6115C91.4926 90.6515 91.1238 90.9242 90.7347 90.82Z" fill="white"/>
</g>
<path d="M147.923 104.872C145.514 107.426 143.296 110.153 141.286 113.031C141.026 113.166 134.404 116.869 120.255 116.675C117.266 116.632 114.286 116.355 111.34 115.846C109.163 114.04 106.671 111.609 105.227 109.004C102.416 103.909 112.334 95.6394 113.418 90.0998C113.471 89.84 113.503 89.5763 113.513 89.3113C113.613 86.2571 113.942 84.3857 115.121 83.2328C116.075 82.2996 117.573 81.8305 119.96 81.586C124.275 81.1418 125.953 78.412 128.176 74.2748C128.705 73.2767 129.27 72.2287 129.904 71.1008C130.904 69.3919 132.249 67.9098 133.854 66.749C133.643 68.0205 133.542 69.3079 133.555 70.5967C133.568 71.8891 133.713 73.1768 133.989 74.4395C135.338 80.6876 139.648 87.3451 144.877 90.0799C146.43 93.9276 148.123 99.4272 147.923 104.872Z" fill="#EFA08D"/>
<path d="M169.363 72.5182C169.19 75.3454 168.298 78.0817 166.771 80.4681C165.007 83.1316 162.697 85.3906 159.994 87.0956C159.614 87.3451 159.225 87.5946 158.83 87.8342L158.451 88.0588L158.221 88.1935L157.632 88.5279H157.602C157.382 88.6526 157.162 88.7674 156.937 88.8822C156.713 88.997 156.523 89.1018 156.313 89.2116C155.874 89.4361 155.424 89.6508 154.965 89.8653C154.42 90.1199 153.861 90.3644 153.287 90.6089C150.43 91.8167 147.543 91.4424 144.891 90.06C144.522 89.8653 144.152 89.6507 143.793 89.4162C139.063 86.3819 135.257 80.2236 134.004 74.4445C133.728 73.1818 133.582 71.8942 133.569 70.6018C133.557 69.3129 133.657 68.0255 133.869 66.7541C134.803 61.1846 137.809 58.315 140.691 56.2739C141.101 55.9794 141.51 55.71 141.91 55.4504C142.075 55.3406 142.244 55.2359 142.409 55.136C148.552 51.3382 154.3 51.6876 159.959 53.8634C162.985 55.0262 165.502 57.7112 167.175 61.1447C168.872 64.6846 169.625 68.6021 169.363 72.5182Z" fill="#026FFF"/>
<path d="M150.975 81.2621C147.275 79.9246 141.641 75.8373 141.222 66.6497C141.222 66.3503 141.222 66.0508 141.222 65.7614V65.9011C141.611 74.44 146.845 78.2328 150.286 79.4804C159.431 82.7892 162.347 58.2207 155.28 55.0816C153.826 54.4777 152.234 54.2794 150.676 54.5077C152.576 54.0966 154.555 54.2706 156.354 55.0067C163.955 58.3853 160.814 84.8253 150.975 81.2621Z" fill="#289188"/>
<path d="M150.28 79.4798C146.839 78.2322 141.605 74.4394 141.216 65.9005C141.216 65.8556 141.216 65.8057 141.216 65.7608C141.321 59.2431 145.98 55.4004 150.65 54.5071C152.208 54.2788 153.8 54.4771 155.255 55.081C162.341 58.23 159.425 82.7886 150.28 79.4798Z" fill="#DBEDF3"/>
<path d="M150.28 79.4798C146.839 78.2322 141.605 74.4394 141.215 65.9005C141.215 65.8556 141.215 65.8057 141.215 65.7608C140.976 58.9686 145.935 55.1059 150.649 54.5071C152.208 54.2788 153.799 54.4771 155.254 55.081C162.341 58.23 159.424 82.7886 150.28 79.4798Z" fill="#DBEDF3"/>
<path d="M145.166 66.9537C144.337 65.9556 143.388 63.6899 144.667 60.3612C146.06 56.753 149.456 56.6782 150.66 58.365C152.273 60.6756 147.388 69.6287 145.166 66.9537Z" fill="#F9F9F9"/>
<path d="M154.411 57.5617C155.075 57.911 156.119 58.9441 156.358 61.1748C156.613 63.5903 154.98 64.5335 153.961 63.8847C152.583 63.0114 152.648 56.6284 154.411 57.5617Z" fill="#F9F9F9"/>
<path d="M142.394 55.1465C142.23 55.2463 142.06 55.3511 141.895 55.4609C138.694 57.5419 134.903 60.3766 133.849 66.7445C132.244 67.9053 130.899 69.3874 129.899 71.0963C129.265 72.2242 128.7 73.2872 128.171 74.2703C128.171 74.2703 127.362 70.0932 127.901 66.6946C128.441 63.2961 133.19 59.2487 135.393 57.522C137.595 55.7953 142.394 55.1465 142.394 55.1465Z" fill="#073C83"/>
<path d="M199.218 113.277C193.105 126.457 181.689 128.478 181.689 128.478C181.511 129.553 181.051 130.563 180.355 131.402C180.039 131.778 179.669 132.104 179.256 132.371C178.941 132.57 178.606 132.737 178.258 132.87C177.714 133.08 177.141 133.206 176.56 133.244C176.413 133.253 176.266 133.253 176.12 133.244C188.676 138.234 171.545 147.901 171.545 147.901H171.406L171.051 147.297C170.936 147.098 170.816 146.903 170.701 146.708C170.536 146.434 170.372 146.164 170.202 145.9C170.032 145.635 169.862 145.351 169.702 145.087L169.553 144.847L169.278 144.433C169.058 144.093 168.838 143.764 168.614 143.435L168.269 142.936C167.7 142.114 167.14 141.34 166.591 140.615C166.446 140.42 166.296 140.231 166.152 140.041C166.007 139.851 165.787 139.572 165.602 139.347C165.417 139.123 165.248 138.903 165.068 138.689L164.688 138.229C164.189 137.626 163.689 137.072 163.23 136.568C163.14 136.463 163.05 136.363 162.955 136.268C162.596 135.874 162.251 135.51 161.921 135.18L161.682 134.941L161.447 134.706C160.811 134.079 159.993 133.668 159.109 133.534C158.225 133.399 157.322 133.548 156.528 133.958C156.232 134.104 155.955 134.287 155.704 134.502C153.331 136.525 151.085 138.692 148.976 140.989C148.767 141.209 148.562 141.433 148.357 141.663C147.358 142.761 146.325 143.959 145.266 145.261C144.62 146.053 144.012 146.848 143.443 147.647C132.685 162.713 135.312 178.364 135.312 183.639C135.312 184.309 135.246 184.977 135.117 185.635C134.219 190.341 130.328 194.119 127.941 193.345C127.644 193.246 127.354 193.127 127.072 192.991C119.081 189.123 118.337 170.653 123.726 150.486C123.965 149.568 124.225 148.645 124.495 147.722C125.279 145.037 126.138 142.466 127.047 140.016C129.48 133.437 132.501 127.09 136.071 121.052C137.909 117.958 139.692 115.283 141.295 113.067C141.585 112.663 141.865 112.279 142.139 111.904C144.423 108.821 145.876 105.203 146.358 101.397C146.84 97.5908 146.335 93.7251 144.891 90.1704L144.846 90.0556C147.498 91.438 150.385 91.8123 153.241 90.6046C153.816 90.365 154.375 90.1055 154.92 89.861C155.379 89.6464 155.829 89.4318 156.268 89.2072C156.708 88.9826 157.137 88.7581 157.557 88.5235H157.586L158.176 88.1891C158.381 88.0743 158.585 87.9496 158.785 87.8298C159.18 87.5903 159.569 87.3307 159.949 87.0912C162.652 85.3862 164.962 83.1273 166.726 80.4637C168.268 78.0831 169.176 75.3483 169.363 72.5188C169.625 68.6064 168.873 64.6927 167.18 61.1553H167.275C167.74 61.2152 168.199 61.28 168.654 61.3549H168.739C196.756 65.8614 206.685 97.1871 199.218 113.277Z" fill="#2F4A8F"/>
<path d="M195.427 266.256L193.429 268.148L189.124 272.27C189.124 272.27 183.346 265.498 175.305 254.623C173.373 252.013 171.31 249.169 169.163 246.139C168.24 244.832 167.305 243.486 166.356 242.102C155.468 226.262 143.093 205.955 135.097 185.624C133.982 182.803 132.961 179.986 132.036 177.175C128.13 165.302 128.405 156.739 130.837 150.965C133.084 145.62 137.175 142.655 141.505 141.662C141.624 141.637 141.739 141.607 141.859 141.587C144.004 141.143 146.219 141.172 148.352 141.672C148.685 141.742 149.004 141.827 149.311 141.927C151.593 142.601 153.641 143.903 155.219 145.685C156.052 146.657 156.83 147.677 157.546 148.739C169.532 166.34 172.644 202.243 185.549 240.999C188.384 249.59 191.682 258.021 195.427 266.256Z" fill="#F76262"/>
<path d="M212.588 279.402H196.966C195.082 279.426 193.249 278.788 191.787 277.6C190.999 276.946 190.356 276.134 189.902 275.215C189.448 274.297 189.192 273.294 189.15 272.27L193.455 268.148L195.453 266.257L195.493 266.307L195.528 266.352L196.027 266.916C197.93 269.032 204.198 275.4 212.783 278.169C212.947 278.195 213.093 278.285 213.191 278.419C213.288 278.552 213.328 278.719 213.302 278.883C213.277 279.046 213.187 279.193 213.053 279.29C212.919 279.388 212.752 279.428 212.588 279.402Z" fill="#EFA08D"/>
<path d="M141.28 113.037C139.677 115.268 137.894 117.943 136.056 121.022C132.486 127.06 129.465 133.407 127.032 139.986C126.123 142.436 125.264 145.007 124.48 147.692C124.21 148.615 123.951 149.538 123.711 150.456C121.929 150.792 120.12 150.959 118.307 150.955C114.656 150.905 112.314 149.912 110.776 148.46C106.596 144.493 108.998 137.161 108.998 137.161C101.197 137.695 92.2222 127.47 96.3924 119.695C96.9036 118.767 97.5575 117.925 98.3302 117.199C98.7592 116.783 99.2218 116.402 99.7135 116.061C102.905 113.881 105.891 114.943 111.34 115.852C114.285 116.361 117.266 116.638 120.255 116.68C134.403 116.875 141.021 113.172 141.28 113.037Z" fill="url(#paint7_linear)"/>
<path d="M169.163 246.125C168.404 253.112 167.51 259.535 167.51 259.535C164.941 259.308 162.391 258.913 159.874 258.352C151.364 256.546 143.144 253.575 135.447 249.524C115.415 239.009 93.9951 241 93.9951 241C108.164 216.047 110.626 179.082 110.886 160.322C110.99 153.011 110.761 148.465 110.761 148.465C112.259 149.902 114.641 150.895 118.292 150.96C120.105 150.964 121.914 150.796 123.696 150.461C118.117 171.337 119.126 190.386 127.911 193.32C130.298 194.113 134.189 190.326 135.088 185.61C143.078 205.941 155.459 226.248 166.346 242.088C167.302 243.468 168.241 244.814 169.163 246.125Z" fill="#F76262"/>
<path d="M167.51 259.534C167.51 259.534 166.467 269.261 164.234 279.401L48.1686 325.928H48.1436L38.6546 349.604L37.5559 352.333C37.5579 352.352 37.5579 352.37 37.5559 352.388L26.8283 379.188H18.3381C18.3381 379.188 17.539 351.824 19.5867 324.192C21.1798 302.947 25.6197 276.547 37.1464 265.628C58.1521 245.725 92.6521 241.174 93.9506 241.024H93.9906C102.31 240.549 110.653 241.325 118.742 243.325C124.545 244.708 130.157 246.796 135.453 249.543C143.149 253.587 151.367 256.551 159.874 258.351C162.391 258.912 164.942 259.308 167.51 259.534Z" fill="#2F4A8F"/>
<path d="M331.98 449.082C331.992 452.396 329.404 455.004 326.09 455.007C287.976 455.035 77.8233 455.187 51.0006 455C50.2482 454.995 49.5285 454.873 48.9988 454.34C48.4691 453.807 48.1725 453.087 48.1738 452.336V282.247C48.1732 281.874 48.2463 281.504 48.3891 281.159C48.5319 280.814 48.7414 280.5 49.0058 280.236C49.2703 279.972 49.5843 279.762 49.93 279.619C50.2757 279.476 50.6463 279.402 51.0205 279.402H328.355C329.105 279.402 329.825 279.697 330.359 280.223C330.893 280.749 331.197 281.464 331.206 282.212C331.41 302.021 331.877 420.991 331.98 449.082Z" fill="#F0F7FC"/>
<path d="M196.967 279.402H164.234C166.467 269.261 167.511 259.535 167.511 259.535C167.511 259.535 168.405 253.087 169.164 246.125C180.246 261.855 189.141 272.271 189.141 272.271C189.182 273.294 189.438 274.297 189.892 275.215C190.347 276.134 190.989 276.946 191.778 277.6C193.242 278.791 195.079 279.428 196.967 279.402Z" fill="#22776D"/>
<path d="M196.967 279.402H164.234C166.467 269.261 167.511 259.535 167.511 259.535C167.511 259.535 168.405 253.087 169.164 246.125C180.246 261.855 189.141 272.271 189.141 272.271C189.182 273.294 189.438 274.297 189.892 275.215C190.347 276.134 190.989 276.946 191.778 277.6C193.242 278.791 195.079 279.428 196.967 279.402Z" fill="url(#paint8_linear)"/>
<path d="M301.175 279.402H212.587C212.734 279.403 212.876 279.352 212.988 279.258C213.101 279.163 213.175 279.032 213.199 278.887C213.222 278.742 213.193 278.594 213.117 278.469C213.04 278.343 212.922 278.25 212.782 278.204C204.197 275.45 197.929 269.067 196.026 266.951C198.304 269.256 207.628 276.183 232.739 268.947C262.43 260.403 300.171 252.982 301.175 279.402Z" fill="url(#paint9_linear)"/>
<path d="M181.688 128.477C181.658 128.637 181.623 128.787 181.583 128.936C181.586 128.946 181.586 128.956 181.583 128.966C181.554 129.086 181.519 129.206 181.479 129.321C181.454 129.415 181.424 129.509 181.389 129.6L181.289 129.854C181.212 130.052 181.122 130.243 181.019 130.428C180.974 130.519 180.924 130.608 180.869 130.693C180.819 130.778 180.769 130.858 180.715 130.937L180.55 131.167C180.49 131.247 180.425 131.327 180.36 131.402C180.044 131.777 179.674 132.104 179.261 132.37C178.322 132.962 177.231 133.271 176.12 133.258C162.526 124.844 155.054 90.3742 154.944 89.8801C155.404 89.6655 155.853 89.4509 156.293 89.2263C156.503 89.1166 156.712 89.0118 156.917 88.897C157.122 88.7822 157.362 88.6674 157.581 88.5426H157.611L158.201 88.2083L158.43 88.0735L158.81 87.849C159.204 87.6094 159.594 87.3499 159.974 87.1104C160.283 88.378 160.604 89.6106 160.937 90.8084C162.899 98.1297 165.659 105.214 169.168 111.933C175.526 123.886 181.688 128.477 181.688 128.477Z" fill="url(#paint10_linear)"/>
<path d="M110.895 160.317C110.895 160.317 62.0918 145.31 50.9297 126.246C41.2809 109.778 34.8534 82.2796 33.3801 75.5822C33.2891 75.1759 33.3576 74.7502 33.5712 74.3928C33.7849 74.0354 34.1276 73.7734 34.5287 73.6609L34.9882 73.5311L38.5641 72.533L41.0911 71.8193L66.8513 107.891L99.7083 116.076C99.2166 116.416 98.7539 116.797 98.3249 117.213C93.925 121.43 94.8289 127.08 98.0003 131.292C100.682 134.895 104.992 137.45 108.988 137.176C108.988 137.176 106.585 144.507 110.766 148.474C110.771 148.459 111 153.006 110.895 160.317Z" fill="#F76262"/>
<path d="M45.4715 62.7216C43.1598 65.2639 41.638 68.4231 41.0915 71.8144L38.5645 72.5281L34.9886 73.5262C34.9886 73.5262 32.2418 68.0865 34.639 63.7397C35.5065 62.1058 36.0572 60.3229 36.2621 58.4847L36.6267 55.5851C36.6609 55.3624 36.7654 55.1564 36.9249 54.9971C37.0844 54.8378 37.2907 54.7336 37.5136 54.6996C37.7366 54.6656 37.9646 54.7037 38.1644 54.8082C38.3642 54.9127 38.5253 55.0783 38.6244 55.2807L40.682 59.8221L45.4715 62.7216Z" fill="#EFA08D"/>
<path d="M169.163 246.125C168.404 253.111 167.51 259.534 167.51 259.534C164.941 259.308 162.391 258.913 159.874 258.352C151.364 256.545 143.144 253.574 135.447 249.523C115.415 239.008 93.9951 240.999 93.9951 240.999C96.2225 240.445 112.054 237.84 126.712 239.502C130.38 239.942 134.096 239.751 137.7 238.938C139.027 238.626 140.273 238.034 141.353 237.202C142.433 236.37 143.323 235.318 143.964 234.114C144.605 232.911 144.981 231.585 145.067 230.225C145.154 228.865 144.949 227.502 144.467 226.227C137.55 207.987 135.073 185.619 135.073 185.619C143.063 205.951 155.444 226.257 166.331 242.097C167.297 243.471 168.241 244.814 169.163 246.125Z" fill="#EF2626"/>
<path d="M195.427 266.257L193.429 268.149C193.429 268.149 171.555 237.586 162.211 220.619C152.866 203.651 159.324 158.072 150.17 149.957C141.015 141.843 130.837 150.955 130.837 150.955C133.084 145.61 137.175 142.646 141.505 141.653C143.752 141.131 146.089 141.131 148.337 141.653C148.67 141.723 148.989 141.808 149.296 141.907C151.578 142.582 153.626 143.884 155.204 145.665C169.188 161.89 171.829 199.828 185.534 240.985C188.373 249.581 191.676 258.017 195.427 266.257Z" fill="#EF2626"/>
<path d="M212.588 279.402H196.966C201.096 272.485 193.47 268.148 193.47 268.148L195.467 266.257L195.507 266.307L195.542 266.352L196.042 266.916C197.945 269.032 204.212 275.4 212.797 278.169C212.961 278.197 213.107 278.289 213.203 278.424C213.299 278.559 213.337 278.727 213.309 278.89C213.281 279.054 213.19 279.2 213.054 279.296C212.919 279.391 212.751 279.43 212.588 279.402Z" fill="#E06855"/>
<path d="M141.28 113.037C139.677 115.268 137.894 117.943 136.056 121.022C132.486 127.06 129.465 133.407 127.032 139.986C126.123 142.436 125.264 145.007 124.48 147.692C124.21 148.615 123.951 149.538 123.711 150.456C121.929 150.792 120.12 150.959 118.307 150.955C114.656 150.905 112.314 149.912 110.776 148.46C106.596 144.493 108.998 137.161 108.998 137.161C101.197 137.695 92.2222 127.47 96.3924 119.695C93.1511 129.441 104.723 136.937 111.755 133.913C113.188 133.294 114.152 135.769 113.253 137.047C107.824 144.737 118.846 150.466 122.787 143.12C125.318 138.262 127.53 133.244 129.409 128.099C129.675 127.379 129.783 126.612 129.728 125.847C129.672 125.083 129.453 124.339 129.086 123.666C128.719 122.993 128.212 122.406 127.599 121.945C126.987 121.484 126.282 121.159 125.534 120.992C120.628 119.801 115.867 118.079 111.335 115.857C114.28 116.366 117.261 116.643 120.25 116.685C134.403 116.875 141.021 113.172 141.28 113.037Z" fill="url(#paint11_linear)"/>
<path d="M142.13 111.869C141.855 112.243 141.575 112.627 141.286 113.032C141.026 113.166 134.404 116.869 120.255 116.675C117.266 116.632 114.286 116.355 111.34 115.846C109.163 114.04 106.671 111.609 105.228 109.004C105.517 109.144 118.038 115.198 133.55 111.025C149.247 106.798 131.587 89.9503 133.984 74.4297C135.333 80.6779 139.643 87.3353 144.872 90.0701L144.917 90.1849C146.342 93.7365 146.835 97.5937 146.347 101.389C145.859 105.185 144.407 108.792 142.13 111.869Z" fill="#E06855"/>
<path d="M113.428 90.1004C113.481 89.8405 113.512 89.5769 113.523 89.3119C113.623 86.2577 113.952 84.3862 115.131 83.2334C115.081 83.3931 114.097 86.5521 115.131 88.0443C116.165 89.5365 114.092 91.7173 113.428 90.1004Z" fill="#E06855"/>
<path d="M181.688 128.477C180.69 133.528 176.115 133.258 176.115 133.258C164.279 125.932 157.087 98.8581 155.349 91.6518C155.089 90.5788 154.954 89.945 154.939 89.8801C155.399 89.6655 155.848 89.4509 156.288 89.2263C156.727 89.0018 157.157 88.7772 157.576 88.5426H157.606L158.196 88.2083L158.805 87.849C159.2 87.6094 159.589 87.3499 159.969 87.1104C160.118 87.7142 160.268 88.3131 160.423 88.902C160.578 89.4908 160.758 90.1845 160.923 90.8084C160.923 90.8084 157.302 90.9431 158.101 94.6311C158.9 98.3192 165.782 105.925 167.625 114.149C169.468 122.374 175.221 132.749 181.688 128.477Z" fill="url(#paint12_linear)"/>
<path d="M169.363 72.5179C169.19 75.3451 168.298 78.0815 166.771 80.4679C165.007 83.1314 162.697 85.3903 159.994 87.0953C158.39 88.1484 156.709 89.0793 154.965 89.8801C154.42 90.1346 153.861 90.3791 153.287 90.6237C150.43 91.8314 147.543 91.4571 144.891 90.0747C139.662 87.3399 135.352 80.6825 134.004 74.4343C133.728 73.1716 133.582 71.884 133.569 70.5916C133.557 69.3027 133.657 68.0153 133.869 66.7438C134.803 61.1744 137.809 58.3048 140.691 56.2637C142.469 66.1649 128.805 88.6075 150.27 85.5583C171.735 82.509 167.175 61.1345 167.175 61.1345C168.874 64.6774 169.627 68.5985 169.363 72.5179Z" fill="#1261C9"/>
<path d="M301.176 279.402H230.688C230.688 279.402 292.166 254.758 301.176 279.402Z" fill="#22776D"/>
<path d="M301.176 279.402H230.688C230.688 279.402 292.166 254.758 301.176 279.402Z" fill="url(#paint13_linear)"/>
<path d="M178.253 132.874C177.709 133.084 177.136 133.211 176.555 133.249C177.136 133.205 177.707 133.079 178.253 132.874Z" fill="#E06855"/>
<path d="M160.932 90.794C160.599 89.5962 160.277 88.3636 159.968 87.096C162.671 85.391 164.981 83.132 166.745 80.4685C168.281 78.0845 169.181 75.348 169.362 72.5186C169.362 72.5186 171.589 83.3181 160.932 90.794Z" fill="#162F71"/>
<path d="M199.219 113.276C193.106 126.456 181.689 128.478 181.689 128.478C181.689 128.478 175.526 123.886 169.168 111.929C169.478 112.298 178.957 123.607 188.806 118.916C198.819 114.13 186.009 102.916 185.165 79.7996C184.73 67.9021 172.634 62.128 168.714 61.3994C196.756 65.861 206.685 97.1867 199.219 113.276Z" fill="#162F71"/>
<path d="M176.116 133.259C162.521 124.845 155.05 90.3749 154.94 89.8809C154.396 90.1354 153.836 90.3799 153.262 90.6244C150.405 91.8322 147.519 91.4579 144.867 90.0755C145.425 91.4501 145.848 92.8758 146.13 94.3324C146.363 94.4666 146.605 94.5833 146.854 94.6818C148.963 95.5448 150.832 96.9023 152.305 98.6396C153.777 100.377 154.81 102.443 155.315 104.663C157.187 112.907 161.188 124.625 169.593 133.314C170.302 134.049 170.86 134.915 171.236 135.864C172.435 138.888 168.315 141.154 166.362 138.554C164.514 136.088 162.367 133.109 159.969 131.966C152.543 128.448 144.807 134.846 141.436 138.219C140.402 139.281 139.179 140.14 137.83 140.755C137.51 140.899 137.186 141.054 136.831 141.254C130.374 144.747 123.886 155.008 126.303 171.052C128.72 187.097 129.634 191.713 127.027 192.961C127.309 193.097 127.599 193.216 127.896 193.315C130.284 194.109 134.174 190.321 135.073 185.605C133.958 182.783 132.937 179.967 132.012 177.156C128.106 165.283 128.381 156.719 130.813 150.945C133.06 145.6 137.151 142.636 141.481 141.643L141.98 141.538C142.16 141.503 142.34 141.468 142.519 141.443L142.844 141.398L143.344 141.334L143.713 141.304L144.173 141.274H144.592H145.002H145.471H145.831L146.33 141.324L146.63 141.348C146.834 141.373 147.034 141.408 147.234 141.438L147.454 141.473C147.723 141.52 147.993 141.575 148.263 141.638C148.468 141.408 148.672 141.184 148.882 140.964C150.99 138.667 153.237 136.5 155.609 134.476C155.86 134.262 156.137 134.079 156.433 133.933C157.227 133.523 158.131 133.374 159.015 133.509C159.898 133.643 160.717 134.054 161.353 134.681L161.587 134.916L161.827 135.155C162.157 135.485 162.501 135.849 162.861 136.243C162.956 136.338 163.046 136.438 163.136 136.543C163.6 137.042 164.09 137.601 164.594 138.204L164.973 138.664C165.153 138.878 165.333 139.098 165.508 139.322C165.683 139.547 165.872 139.781 166.057 140.016C166.242 140.251 166.352 140.395 166.497 140.59C167.046 141.315 167.605 142.089 168.175 142.911L168.519 143.41C168.744 143.734 168.964 144.063 169.184 144.408C169.328 144.622 169.468 144.837 169.608 145.061C169.748 145.286 169.948 145.6 170.108 145.875C170.267 146.149 170.442 146.409 170.607 146.683C170.722 146.878 170.842 147.073 170.957 147.272L171.311 147.876H171.451C171.451 147.876 188.671 138.259 176.116 133.259Z" fill="#162F71"/>
<path d="M38.5645 72.5179L34.9886 73.516C34.9886 73.516 32.2418 68.0763 34.639 63.7295C35.5065 62.0956 36.0572 60.3127 36.2621 58.4745L36.6267 55.5749C36.6466 55.3562 36.7381 55.1501 36.887 54.9886C37.036 54.8271 37.2342 54.7192 37.4508 54.6816C36.4269 55.2106 37.1311 61.7782 35.6778 66.2298C34.1995 70.7762 38.5645 72.5179 38.5645 72.5179Z" fill="#E06855"/>
<path d="M110.895 160.317C110.895 160.317 62.0918 145.311 50.9297 126.247C41.2809 109.778 34.8534 82.2798 33.3801 75.5824C33.2891 75.1761 33.3576 74.7504 33.5712 74.393C33.7849 74.0356 34.1276 73.7736 34.5287 73.6611L34.9882 73.5313L38.5641 72.5332C38.5641 72.5332 32.9905 91.8517 46.0055 104.927C59.0204 118.002 56.758 129.97 81.4644 134.94C90.6188 136.782 95.4932 134.671 98.0003 131.277C100.682 134.88 104.992 137.435 108.988 137.161C108.988 137.161 106.585 144.492 110.766 148.46C110.771 148.46 111 153.006 110.895 160.317Z" fill="#EF2626"/>
<path d="M160.423 88.8876C158.83 89.9834 157.13 90.9147 155.349 91.6674C155.089 90.5944 154.954 89.9606 154.939 89.8957C155.399 89.6812 155.848 89.4666 156.288 89.242C156.727 89.0174 157.157 88.7928 157.576 88.5583H157.606L158.196 88.2239L158.805 87.8646C159.2 87.625 159.589 87.3655 159.969 87.126C160.118 87.6999 160.268 88.2988 160.423 88.8876Z" fill="#22776D"/>
<path d="M38.6689 349.614C47.264 326.478 40.7116 300.123 48.158 286.024V325.949H48.133L38.6689 349.614Z" fill="#162F71"/>
<path d="M167.511 259.535C167.511 259.535 166.467 269.262 164.235 279.402H54.1719C71.2371 268.503 118.502 279.402 126.898 266.257C135.143 253.342 119.307 243.66 118.747 243.301C124.551 244.684 130.163 246.772 135.458 249.519C143.152 253.571 151.368 256.543 159.875 258.352C162.391 258.913 164.942 259.309 167.511 259.535Z" fill="#162F71"/>
<path d="M331.975 449.093C331.99 452.407 329.46 455.002 326.147 455.002C285.6 455.002 48.1689 455 48.1689 455C48.1689 455 117.424 441.497 137.94 371.779C159.205 299.47 196.967 279.402 196.967 279.402H331.177C331.177 279.402 331.836 418.451 331.975 449.093Z" fill="#E0ECF4"/>
<g filter="url(#filter3_dd)">
<path d="M317.751 428.105H275.125C273.644 428.105 272.443 429.305 272.443 430.785V441.889C272.443 443.369 273.644 444.569 275.125 444.569H317.751C319.232 444.569 320.433 443.369 320.433 441.889V430.785C320.433 429.305 319.232 428.105 317.751 428.105Z" fill="white"/>
<path d="M224.644 312.863H182.018C180.537 312.863 179.336 314.063 179.336 315.543V326.647C179.336 328.127 180.537 329.327 182.018 329.327H224.644C226.125 329.327 227.325 328.127 227.325 326.647V315.543C227.325 314.063 226.125 312.863 224.644 312.863Z" fill="white"/>
<path d="M284.569 362.255H241.944C240.462 362.255 239.262 363.455 239.262 364.935V376.039C239.262 377.519 240.462 378.719 241.944 378.719H284.569C286.05 378.719 287.251 377.519 287.251 376.039V364.935C287.251 363.455 286.05 362.255 284.569 362.255Z" fill="white"/>
<path d="M203.004 411.642H160.378C158.897 411.642 157.696 412.841 157.696 414.322V425.426C157.696 426.906 158.897 428.105 160.378 428.105H203.004C204.485 428.105 205.686 426.906 205.686 425.426V414.322C205.686 412.841 204.485 411.642 203.004 411.642Z" fill="white"/>
</g>
<path d="M13.5783 382.696C13.6124 382.623 13.6624 382.559 13.7247 382.508C13.7869 382.457 13.8597 382.421 13.9378 382.402C14.0054 382.385 14.0757 382.381 14.1446 382.392C14.2136 382.402 14.2797 382.426 14.3392 382.462C14.3988 382.499 14.4504 382.546 14.4913 382.603C14.5321 382.659 14.5613 382.723 14.5771 382.791C14.7938 383.575 15.2001 384.293 15.76 384.883C16.32 385.473 17.0166 385.917 17.7884 386.175C17.9005 386.23 17.9893 386.324 18.0388 386.439C18.0883 386.554 18.0954 386.683 18.0589 386.803C18.0223 386.922 17.9445 387.025 17.8392 387.093C17.7339 387.161 17.6079 387.189 17.4837 387.173C17.3539 387.138 14.3174 386.2 13.5483 383.026C13.5235 382.915 13.534 382.8 13.5783 382.696Z" fill="url(#paint14_linear)"/>
<path d="M11.6603 385.002C11.6945 384.929 11.7445 384.865 11.8067 384.814C11.8689 384.763 11.9418 384.726 12.0199 384.707C12.1563 384.674 12.3003 384.697 12.4202 384.77C12.5401 384.843 12.626 384.96 12.6591 385.097C13.2884 387.682 15.8404 388.47 15.8654 388.48C15.9422 388.489 16.016 388.515 16.0817 388.556C16.1474 388.596 16.2035 388.651 16.2459 388.715C16.2883 388.78 16.316 388.853 16.3271 388.929C16.3383 389.006 16.3325 389.084 16.3103 389.157C16.2881 389.231 16.25 389.3 16.1986 389.357C16.1472 389.415 16.0838 389.461 16.0129 389.491C15.9419 389.522 15.8651 389.537 15.7879 389.534C15.7106 389.532 15.6348 389.513 15.5658 389.478C15.4359 389.443 12.3994 388.505 11.6303 385.331C11.6055 385.221 11.616 385.106 11.6603 385.002Z" fill="url(#paint15_linear)"/>
<path d="M9.62771 387.203C9.67245 387.102 9.74781 387.017 9.84317 386.961C9.93854 386.905 10.0491 386.88 10.1594 386.89C10.2696 386.9 10.374 386.944 10.4578 387.016C10.5416 387.088 10.6006 387.185 10.6266 387.293C11.2558 389.878 13.8079 390.666 13.8328 390.676C13.9091 390.686 13.9823 390.713 14.0472 390.754C14.1122 390.795 14.1675 390.85 14.2091 390.914C14.2508 390.979 14.2778 391.052 14.2884 391.128C14.299 391.204 14.2928 391.282 14.2704 391.355C14.248 391.429 14.2098 391.496 14.1585 391.554C14.1072 391.611 14.044 391.656 13.9734 391.687C13.9027 391.717 13.8263 391.732 13.7494 391.73C13.6725 391.727 13.5971 391.709 13.5282 391.674C13.4033 391.639 10.3669 390.701 9.59275 387.527C9.5677 387.418 9.58002 387.304 9.62771 387.203Z" fill="url(#paint16_linear)"/>
<path d="M11.7805 376.129C11.8381 376.072 11.9086 376.03 11.9861 376.007C12.0635 375.983 12.1455 375.979 12.2249 375.994C12.2939 376.005 12.36 376.03 12.4195 376.066C12.479 376.103 12.5307 376.151 12.5715 376.207C12.6124 376.264 12.6416 376.328 12.6575 376.396C12.6735 376.464 12.6758 376.534 12.6644 376.603C12.5608 377.409 12.657 378.227 12.9443 378.987C13.2317 379.747 13.7016 380.424 14.3125 380.96C14.3699 381.003 14.4181 381.056 14.454 381.118C14.49 381.18 14.5131 381.248 14.5219 381.319C14.5306 381.39 14.5249 381.462 14.5051 381.531C14.4852 381.6 14.4517 381.664 14.4064 381.719C14.3611 381.774 14.3051 381.82 14.2417 381.853C14.1783 381.886 14.1089 381.906 14.0376 381.912C13.9662 381.917 13.8945 381.908 13.8268 381.885C13.759 381.862 13.6966 381.826 13.6433 381.778C13.5384 381.693 11.1013 379.657 11.6157 376.433C11.6356 376.317 11.6935 376.21 11.7805 376.129Z" fill="url(#paint17_linear)"/>
<path d="M9.11788 377.506C9.17618 377.45 9.24662 377.409 9.32372 377.385C9.40083 377.36 9.4825 377.354 9.56235 377.367C9.70105 377.39 9.82497 377.467 9.90725 377.581C9.98952 377.695 10.0235 377.837 10.0018 377.976C9.58233 380.606 11.63 382.317 11.6499 382.332C11.7044 382.376 11.7495 382.431 11.7828 382.492C11.8161 382.554 11.8368 382.621 11.8438 382.691C11.8508 382.761 11.8438 382.831 11.8234 382.898C11.803 382.965 11.7695 383.027 11.7248 383.081C11.6809 383.135 11.6267 383.179 11.5653 383.212C11.504 383.245 11.4367 383.265 11.3674 383.272C11.2982 383.278 11.2283 383.271 11.1619 383.25C11.0955 383.229 11.0339 383.196 10.9807 383.151C10.8758 383.066 8.43865 381.03 8.95306 377.811C8.96989 377.693 9.02836 377.585 9.11788 377.506Z" fill="url(#paint18_linear)"/>
<path d="M6.39152 378.744C6.45108 378.69 6.52182 378.65 6.59866 378.627C6.67551 378.604 6.75657 378.598 6.83601 378.609C6.90498 378.62 6.97111 378.645 7.03058 378.681C7.09006 378.718 7.14172 378.766 7.18257 378.822C7.22342 378.879 7.25265 378.943 7.2686 379.011C7.28455 379.079 7.28691 379.149 7.27551 379.218C6.85599 381.843 8.90862 383.555 8.92859 383.575C8.98237 383.619 9.02691 383.674 9.05965 383.735C9.0924 383.796 9.1127 383.864 9.11943 383.933C9.12615 384.002 9.11916 384.072 9.09884 384.139C9.07852 384.205 9.04527 384.267 9.001 384.321C8.95673 384.375 8.9023 384.419 8.84082 384.452C8.77934 384.485 8.71202 384.505 8.64268 384.512C8.57335 384.518 8.50337 384.511 8.43675 384.491C8.37012 384.471 8.30815 384.438 8.25437 384.393C8.14949 384.309 5.7123 382.272 6.2317 379.048C6.24721 378.931 6.30385 378.823 6.39152 378.744Z" fill="url(#paint19_linear)"/>
</g>
<defs>
<filter id="filter0_d" x="15.0059" y="16.5039" width="44.5501" height="49.0988" filterUnits="userSpaceOnUse" color-interpolation-filters="sRGB">
<feFlood flood-opacity="0" result="BackgroundImageFix"/>
<feColorMatrix in="SourceAlpha" type="matrix" values="0 0 0 0 0 0 0 0 0 0 0 0 0 0 0 0 0 0 127 0"/>
<feOffset dy="5"/>
<feGaussianBlur stdDeviation="5"/>
<feColorMatrix type="matrix" values="0 0 0 0 0 0 0 0 0 0 0 0 0 0 0 0 0 0 0.1 0"/>
<feBlend mode="normal" in2="BackgroundImageFix" result="effect1_dropShadow"/>
<feBlend mode="normal" in="SourceGraphic" in2="effect1_dropShadow" result="shape"/>
</filter>
<filter id="filter1_f" x="38.7158" y="156.716" width="76.5685" height="76.5685" filterUnits="userSpaceOnUse" color-interpolation-filters="sRGB">
<feFlood flood-opacity="0" result="BackgroundImageFix"/>
<feBlend mode="normal" in="SourceGraphic" in2="BackgroundImageFix" result="shape"/>
<feGaussianBlur stdDeviation="5" result="effect1_foregroundBlur"/>
</filter>
<filter id="filter2_f" x="68.5049" y="66.5049" width="38.6186" height="38.6186" filterUnits="userSpaceOnUse" color-interpolation-filters="sRGB">
<feFlood flood-opacity="0" result="BackgroundImageFix"/>
<feBlend mode="normal" in="SourceGraphic" in2="BackgroundImageFix" result="shape"/>
<feGaussianBlur stdDeviation="2" result="effect1_foregroundBlur"/>
</filter>
<filter id="filter3_dd" x="137.696" y="302.863" width="202.737" height="171.706" filterUnits="userSpaceOnUse" color-interpolation-filters="sRGB">
<feFlood flood-opacity="0" result="BackgroundImageFix"/>
<feColorMatrix in="SourceAlpha" type="matrix" values="0 0 0 0 0 0 0 0 0 0 0 0 0 0 0 0 0 0 127 0"/>
<feOffset dy="10"/>
<feGaussianBlur stdDeviation="10"/>
<feColorMatrix type="matrix" values="0 0 0 0 0 0 0 0 0 0 0 0 0 0 0 0 0 0 0.03 0"/>
<feBlend mode="normal" in2="BackgroundImageFix" result="effect1_dropShadow"/>
<feColorMatrix in="SourceAlpha" type="matrix" values="0 0 0 0 0 0 0 0 0 0 0 0 0 0 0 0 0 0 127 0"/>
<feOffset dy="1"/>
<feGaussianBlur stdDeviation="1"/>
<feColorMatrix type="matrix" values="0 0 0 0 0 0 0 0 0 0 0 0 0 0 0 0 0 0 0.03 0"/>
<feBlend mode="normal" in2="effect1_dropShadow" result="effect2_dropShadow"/>
<feBlend mode="normal" in="SourceGraphic" in2="effect2_dropShadow" result="shape"/>
</filter>
<linearGradient id="paint0_linear" x1="80.8311" y1="54.3027" x2="80.8311" y2="296.02" gradientUnits="userSpaceOnUse">
<stop stop-color="#426CDC"/>
<stop offset="1" stop-color="#1531BC"/>
</linearGradient>
<linearGradient id="paint1_linear" x1="0" y1="374.852" x2="0" y2="389.324" gradientUnits="userSpaceOnUse">
<stop stop-color="#3462DA"/>
<stop offset="1" stop-color="#152FB7"/>
</linearGradient>
<linearGradient id="paint2_linear" x1="5.82031" y1="374.237" x2="5.82031" y2="399.404" gradientUnits="userSpaceOnUse">
<stop stop-color="#5986FB"/>
<stop offset="1" stop-color="#2D4EF5"/>
</linearGradient>
<linearGradient id="paint3_linear" x1="25.0337" y1="0" x2="25.0337" y2="54" gradientUnits="userSpaceOnUse">
<stop stop-color="#5986FB"/>
<stop offset="1" stop-color="#2D4EF5"/>
</linearGradient>
<linearGradient id="paint4_linear" x1="48.7158" y1="195" x2="48.7158" y2="235" gradientUnits="userSpaceOnUse">
<stop stop-color="#5986FB"/>
<stop offset="1" stop-color="#2D4EF5"/>
</linearGradient>
<linearGradient id="paint5_linear" x1="208.976" y1="230.505" x2="208.976" y2="255.505" gradientUnits="userSpaceOnUse">
<stop stop-color="#5986FB"/>
<stop offset="1" stop-color="#2D4EF5"/>
</linearGradient>
<linearGradient id="paint6_linear" x1="78.9756" y1="70.5049" x2="78.9756" y2="95.5049" gradientUnits="userSpaceOnUse">
<stop stop-color="#5986FB"/>
<stop offset="1" stop-color="#2D4EF5"/>
</linearGradient>
<linearGradient id="paint7_linear" x1="95.334" y1="113.037" x2="95.334" y2="150.955" gradientUnits="userSpaceOnUse">
<stop stop-color="#5986FB"/>
<stop offset="1" stop-color="#2D4EF5"/>
</linearGradient>
<linearGradient id="paint8_linear" x1="164.234" y1="246.125" x2="164.234" y2="279.403" gradientUnits="userSpaceOnUse">
<stop stop-color="#426CDC"/>
<stop offset="1" stop-color="#1531BC"/>
</linearGradient>
<linearGradient id="paint9_linear" x1="196.026" y1="261.038" x2="196.026" y2="279.402" gradientUnits="userSpaceOnUse">
<stop stop-color="#5986FB"/>
<stop offset="1" stop-color="#2D4EF5"/>
</linearGradient>
<linearGradient id="paint10_linear" x1="154.944" y1="87.1104" x2="154.944" y2="133.258" gradientUnits="userSpaceOnUse">
<stop stop-color="#5986FB"/>
<stop offset="1" stop-color="#2D4EF5"/>
</linearGradient>
<linearGradient id="paint11_linear" x1="95.334" y1="113.037" x2="95.334" y2="150.955" gradientUnits="userSpaceOnUse">
<stop stop-color="#426CDC"/>
<stop offset="1" stop-color="#1531BC"/>
</linearGradient>
<linearGradient id="paint12_linear" x1="154.939" y1="87.1104" x2="154.939" y2="133.261" gradientUnits="userSpaceOnUse">
<stop stop-color="#406EE7"/>
<stop offset="1" stop-color="#1C39C8"/>
</linearGradient>
<linearGradient id="paint13_linear" x1="230.688" y1="268.449" x2="230.688" y2="279.402" gradientUnits="userSpaceOnUse">
<stop stop-color="#426CDC"/>
<stop offset="1" stop-color="#1531BC"/>
</linearGradient>
<linearGradient id="paint14_linear" x1="13.5352" y1="382.386" x2="13.5352" y2="387.177" gradientUnits="userSpaceOnUse">
<stop stop-color="#5080FF"/>
<stop offset="1" stop-color="#7C92FF"/>
</linearGradient>
<linearGradient id="paint15_linear" x1="11.6172" y1="384.692" x2="11.6172" y2="389.535" gradientUnits="userSpaceOnUse">
<stop stop-color="#5080FF"/>
<stop offset="1" stop-color="#7C92FF"/>
</linearGradient>
<linearGradient id="paint16_linear" x1="9.58008" y1="386.888" x2="9.58008" y2="391.73" gradientUnits="userSpaceOnUse">
<stop stop-color="#5080FF"/>
<stop offset="1" stop-color="#7C92FF"/>
</linearGradient>
<linearGradient id="paint17_linear" x1="11.5444" y1="375.985" x2="11.5444" y2="381.913" gradientUnits="userSpaceOnUse">
<stop stop-color="#5986FB"/>
<stop offset="1" stop-color="#2D4EF5"/>
</linearGradient>
<linearGradient id="paint18_linear" x1="8.88184" y1="377.36" x2="8.88184" y2="383.274" gradientUnits="userSpaceOnUse">
<stop stop-color="#5986FB"/>
<stop offset="1" stop-color="#2D4EF5"/>
</linearGradient>
<linearGradient id="paint19_linear" x1="6.15918" y1="378.604" x2="6.15918" y2="384.514" gradientUnits="userSpaceOnUse">
<stop stop-color="#5986FB"/>
<stop offset="1" stop-color="#2D4EF5"/>
</linearGradient>
<clipPath id="clip0">
<rect width="332" height="455.091" fill="white"/>
</clipPath>
<clipPath id="clip1">
<rect x="25.0337" width="56" height="54" rx="27" transform="rotate(25 25.0337 0)" fill="white"/>
</clipPath>
</defs>
</svg>
