<svg width="190" height="170" viewBox="0 0 190 170" fill="none" xmlns="http://www.w3.org/2000/svg">
<path fill-rule="evenodd" clip-rule="evenodd" d="M94.9999 4.75C50.8401 4.75 15.0415 40.5486 15.0415 84.7084C15.0415 128.868 50.8401 164.667 94.9999 164.667C139.16 164.667 174.958 128.868 174.958 84.7084C174.958 40.5486 139.16 4.75 94.9999 4.75ZM10.2915 84.7084C10.2915 37.9252 48.2167 0 94.9999 0C141.783 0 179.708 37.9252 179.708 84.7084C179.708 131.492 141.783 169.417 94.9999 169.417C48.2167 169.417 10.2915 131.492 10.2915 84.7084Z" fill="#F5F5F5"/>
<path d="M25.3334 72.041H0V97.3743H25.3334V72.041Z" fill="#F5F5F5"/>
<path d="M190 72.041H164.667V97.3743H190V72.041Z" fill="#F5F5F5"/>
</svg>
