<svg width="24" height="24" viewBox="0 0 24 24" fill="none" xmlns="http://www.w3.org/2000/svg">
<path d="M15.2219 22H19.6664C20.8942 22 21.8886 21.0056 21.8886 19.7778V15.3333M17.1353 6.75333C17.2442 6.86222 17.2442 7.03778 17.1353 7.14667C17.0264 7.25556 16.8508 7.25556 16.7419 7.14667C16.6331 7.03778 16.6331 6.86222 16.7419 6.75333C16.8508 6.64556 17.0264 6.64556 17.1353 6.75333ZM14.6797 2H19.5519C20.8431 2 21.8886 3.04556 21.8886 4.33556V9.20778C21.8886 9.82778 21.6419 10.4211 21.2042 10.86L11.8597 20.2044C10.9475 21.1167 9.46861 21.1167 8.55639 20.2044L3.68417 15.3322C2.77194 14.42 2.77194 12.9411 3.68417 12.0289L13.0286 2.68444C13.4664 2.24667 14.0608 2 14.6797 2Z" stroke="#848E9F" stroke-width="1.5" stroke-linecap="round" stroke-linejoin="round"/>
</svg>
