<svg width="24" height="24" viewBox="0 0 24 24" fill="none" xmlns="http://www.w3.org/2000/svg">
<path d="M8.66667 15.3333L15.3333 8.66667M8.94333 8.66667C8.79 8.66667 8.66556 8.79111 8.66667 8.94444C8.66667 9.09778 8.79111 9.22222 8.94444 9.22222C9.09778 9.22222 9.22222 9.09778 9.22222 8.94444C9.22222 8.79111 9.09778 8.66667 8.94333 8.66667ZM15.0544 14.7778C14.9011 14.7778 14.7767 14.9022 14.7778 15.0556C14.7778 15.2089 14.9022 15.3333 15.0556 15.3333C15.2089 15.3333 15.3333 15.2089 15.3333 15.0556C15.3333 14.9022 15.2089 14.7778 15.0544 14.7778ZM12 22C6.47778 22 2 17.5233 2 12C2 6.47778 6.47778 2 12 2C17.5233 2 22 6.47778 22 12C22 17.5233 17.5233 22 12 22Z" stroke="#848E9F" stroke-width="1.5" stroke-linecap="round" stroke-linejoin="round"/>
</svg>
