<svg width="24" height="24" viewBox="0 0 24 24" fill="none" xmlns="http://www.w3.org/2000/svg">
<path d="M14.1111 15.65V18.1111H16.8822C17.5611 18.1111 18.1122 17.5611 18.1111 16.8811C18.1111 16.2011 17.56 15.65 16.88 15.65H14.1111ZM14.1111 15.65V13.1111H16.57C17.2711 13.1111 17.84 13.68 17.84 14.3811C17.84 15.0822 17.2711 15.6511 16.57 15.6511M10.8889 10.8889L8.38889 5.88889L5.88889 10.8889M6.33 10.0067H10.4478M18.8422 22H5.15778C3.41333 22 2 20.5867 2 18.8422V5.15778C2 3.41333 3.41333 2 5.15778 2H18.8422C20.5867 2 22 3.41333 22 5.15778V18.8422C22 20.5867 20.5867 22 18.8422 22Z" stroke="#848E9F" stroke-width="1.5" stroke-linecap="round" stroke-linejoin="round"/>
</svg>
