<svg width="24" height="24" viewBox="0 0 24 24" fill="none" xmlns="http://www.w3.org/2000/svg">
<path d="M2.04333 8.07714H19.7778C21.0056 8.07714 22 9.07158 22 10.2994V19.7778C22 21 21 22 19.7778 22H4.22222C2.99444 22 2 21.0056 2 19.7778V8.49491C2 7.57047 2.57222 6.74269 3.43778 6.41603L14.9411 2.07269C15.6678 1.79825 16.4444 2.33491 16.4444 3.11158V8.07603M16.4433 14.9771C16.2133 14.9782 16.0278 15.1649 16.0278 15.3949C16.0278 15.6249 16.2144 15.8116 16.4444 15.8105C16.6744 15.8105 16.8611 15.6238 16.8611 15.3938C16.8611 15.1638 16.6744 14.9771 16.4433 14.9771Z" stroke="#848E9F" stroke-width="1.5" stroke-linecap="round" stroke-linejoin="round"/>
</svg>
